G04 #@! TF.GenerationSoftware,KiCad,Pcbnew,7.0.5*
G04 #@! TF.CreationDate,2023-09-25T09:29:56+01:00*
G04 #@! TF.ProjectId,MaxTENS,4d617854-454e-4532-9e6b-696361645f70,rev?*
G04 #@! TF.SameCoordinates,Original*
G04 #@! TF.FileFunction,Paste,Top*
G04 #@! TF.FilePolarity,Positive*
%FSLAX46Y46*%
G04 Gerber Fmt 4.6, Leading zero omitted, Abs format (unit mm)*
G04 Created by KiCad (PCBNEW 7.0.5) date 2023-09-25 09:29:56*
%MOMM*%
%LPD*%
G01*
G04 APERTURE LIST*
G04 Aperture macros list*
%AMRoundRect*
0 Rectangle with rounded corners*
0 $1 Rounding radius*
0 $2 $3 $4 $5 $6 $7 $8 $9 X,Y pos of 4 corners*
0 Add a 4 corners polygon primitive as box body*
4,1,4,$2,$3,$4,$5,$6,$7,$8,$9,$2,$3,0*
0 Add four circle primitives for the rounded corners*
1,1,$1+$1,$2,$3*
1,1,$1+$1,$4,$5*
1,1,$1+$1,$6,$7*
1,1,$1+$1,$8,$9*
0 Add four rect primitives between the rounded corners*
20,1,$1+$1,$2,$3,$4,$5,0*
20,1,$1+$1,$4,$5,$6,$7,0*
20,1,$1+$1,$6,$7,$8,$9,0*
20,1,$1+$1,$8,$9,$2,$3,0*%
G04 Aperture macros list end*
%ADD10R,2.387600X0.762000*%
%ADD11RoundRect,0.135000X-0.185000X0.135000X-0.185000X-0.135000X0.185000X-0.135000X0.185000X0.135000X0*%
%ADD12RoundRect,0.150000X0.150000X-0.587500X0.150000X0.587500X-0.150000X0.587500X-0.150000X-0.587500X0*%
%ADD13RoundRect,0.135000X0.135000X0.185000X-0.135000X0.185000X-0.135000X-0.185000X0.135000X-0.185000X0*%
%ADD14RoundRect,0.150000X-0.150000X0.587500X-0.150000X-0.587500X0.150000X-0.587500X0.150000X0.587500X0*%
%ADD15RoundRect,0.150000X-0.587500X-0.150000X0.587500X-0.150000X0.587500X0.150000X-0.587500X0.150000X0*%
%ADD16RoundRect,0.135000X-0.135000X-0.185000X0.135000X-0.185000X0.135000X0.185000X-0.135000X0.185000X0*%
%ADD17RoundRect,0.250000X-0.650000X0.325000X-0.650000X-0.325000X0.650000X-0.325000X0.650000X0.325000X0*%
%ADD18R,1.320800X0.508000*%
%ADD19RoundRect,0.140000X-0.170000X0.140000X-0.170000X-0.140000X0.170000X-0.140000X0.170000X0.140000X0*%
%ADD20RoundRect,0.140000X-0.140000X-0.170000X0.140000X-0.170000X0.140000X0.170000X-0.140000X0.170000X0*%
%ADD21R,1.524000X0.330200*%
%ADD22R,1.549400X0.990600*%
%ADD23RoundRect,0.225000X0.250000X-0.225000X0.250000X0.225000X-0.250000X0.225000X-0.250000X-0.225000X0*%
%ADD24RoundRect,0.140000X0.140000X0.170000X-0.140000X0.170000X-0.140000X-0.170000X0.140000X-0.170000X0*%
%ADD25RoundRect,0.135000X0.185000X-0.135000X0.185000X0.135000X-0.185000X0.135000X-0.185000X-0.135000X0*%
%ADD26R,0.990600X1.549400*%
%ADD27R,0.558800X0.177800*%
%ADD28R,0.406400X1.041400*%
%ADD29RoundRect,0.250000X-0.475000X0.250000X-0.475000X-0.250000X0.475000X-0.250000X0.475000X0.250000X0*%
%ADD30R,0.900000X1.500000*%
%ADD31R,1.500000X0.900000*%
%ADD32R,0.900000X0.900000*%
%ADD33RoundRect,0.150000X0.587500X0.150000X-0.587500X0.150000X-0.587500X-0.150000X0.587500X-0.150000X0*%
%ADD34RoundRect,0.250000X1.000000X0.900000X-1.000000X0.900000X-1.000000X-0.900000X1.000000X-0.900000X0*%
%ADD35RoundRect,0.250000X-0.250000X-0.475000X0.250000X-0.475000X0.250000X0.475000X-0.250000X0.475000X0*%
%ADD36R,0.700000X1.200000*%
%ADD37R,0.760000X1.200000*%
%ADD38R,0.800000X1.200000*%
%ADD39RoundRect,0.225000X-0.225000X-0.250000X0.225000X-0.250000X0.225000X0.250000X-0.225000X0.250000X0*%
%ADD40R,1.524000X0.457200*%
%ADD41RoundRect,0.225000X0.225000X0.250000X-0.225000X0.250000X-0.225000X-0.250000X0.225000X-0.250000X0*%
%ADD42R,0.350000X1.600000*%
%ADD43R,2.794000X4.953000*%
G04 APERTURE END LIST*
D10*
G04 #@! TO.C,J5*
X245800002Y-86340000D03*
X241900000Y-86340000D03*
X245800002Y-85070000D03*
X241900000Y-85070000D03*
X245800002Y-83800000D03*
X241900000Y-83800000D03*
X245800002Y-82530000D03*
X241900000Y-82530000D03*
X245800002Y-81260000D03*
X241900000Y-81260000D03*
G04 #@! TD*
D11*
G04 #@! TO.C,R17*
X216160000Y-41390000D03*
X216160000Y-42410000D03*
G04 #@! TD*
D12*
G04 #@! TO.C,Q4*
X201510000Y-55837500D03*
X203410000Y-55837500D03*
X202460000Y-53962500D03*
G04 #@! TD*
D13*
G04 #@! TO.C,R18*
X230310000Y-41100000D03*
X229290000Y-41100000D03*
G04 #@! TD*
D14*
G04 #@! TO.C,Q8*
X241540000Y-54855000D03*
X239640000Y-54855000D03*
X240590000Y-56730000D03*
G04 #@! TD*
D15*
G04 #@! TO.C,Q21*
X239222500Y-64570000D03*
X239222500Y-66470000D03*
X241097500Y-65520000D03*
G04 #@! TD*
D12*
G04 #@! TO.C,Q3*
X234740000Y-50087500D03*
X236640000Y-50087500D03*
X235690000Y-48212500D03*
G04 #@! TD*
D16*
G04 #@! TO.C,R3*
X235880000Y-52510000D03*
X236900000Y-52510000D03*
G04 #@! TD*
D12*
G04 #@! TO.C,Q6*
X201490000Y-60187500D03*
X203390000Y-60187500D03*
X202440000Y-58312500D03*
G04 #@! TD*
G04 #@! TO.C,Q9*
X243040000Y-56707500D03*
X244940000Y-56707500D03*
X243990000Y-54832500D03*
G04 #@! TD*
D17*
G04 #@! TO.C,C4*
X237620000Y-53855000D03*
X237620000Y-56805000D03*
G04 #@! TD*
D18*
G04 #@! TO.C,U3*
X211979600Y-41424999D03*
X211979600Y-42375000D03*
X211979600Y-43325001D03*
X214570400Y-43325001D03*
X214570400Y-41424999D03*
G04 #@! TD*
D16*
G04 #@! TO.C,R4*
X232890000Y-42800000D03*
X233910000Y-42800000D03*
G04 #@! TD*
D17*
G04 #@! TO.C,C12*
X230600000Y-53845000D03*
X230600000Y-56795000D03*
G04 #@! TD*
D19*
G04 #@! TO.C,C5*
X237400000Y-44720000D03*
X237400000Y-45680000D03*
G04 #@! TD*
D20*
G04 #@! TO.C,C6*
X228210000Y-59780000D03*
X229170000Y-59780000D03*
G04 #@! TD*
D13*
G04 #@! TO.C,R1*
X227420000Y-58000000D03*
X226400000Y-58000000D03*
G04 #@! TD*
D21*
G04 #@! TO.C,U2*
X235744700Y-46300001D03*
X235744700Y-45799999D03*
X235744700Y-45300000D03*
X235744700Y-44800001D03*
X235744700Y-44299999D03*
X231655300Y-44299999D03*
X231655300Y-44800001D03*
X231655300Y-45300000D03*
X231655300Y-45799999D03*
X231655300Y-46300001D03*
G04 #@! TD*
D12*
G04 #@! TO.C,Q7*
X239590000Y-60640000D03*
X241490000Y-60640000D03*
X240540000Y-58765000D03*
G04 #@! TD*
D17*
G04 #@! TO.C,C11*
X232950000Y-53850000D03*
X232950000Y-56800000D03*
G04 #@! TD*
D22*
G04 #@! TO.C,S6*
X220574999Y-104990001D03*
X225825001Y-104990001D03*
X220574999Y-108189999D03*
X225825001Y-108189999D03*
G04 #@! TD*
D13*
G04 #@! TO.C,R16*
X227330000Y-59790000D03*
X226310000Y-59790000D03*
G04 #@! TD*
D23*
G04 #@! TO.C,C10*
X209875000Y-43375000D03*
X209875000Y-41825000D03*
G04 #@! TD*
D24*
G04 #@! TO.C,C8*
X226280000Y-60750000D03*
X225320000Y-60750000D03*
G04 #@! TD*
D25*
G04 #@! TO.C,R22*
X208320000Y-63290000D03*
X208320000Y-62270000D03*
G04 #@! TD*
D15*
G04 #@! TO.C,Q19*
X243262500Y-62610000D03*
X243262500Y-64510000D03*
X245137500Y-63560000D03*
G04 #@! TD*
D16*
G04 #@! TO.C,R10*
X239140000Y-67880000D03*
X240160000Y-67880000D03*
G04 #@! TD*
D26*
G04 #@! TO.C,S4*
X231999999Y-98064999D03*
X231999999Y-103315001D03*
X228800001Y-98064999D03*
X228800001Y-103315001D03*
G04 #@! TD*
D27*
G04 #@! TO.C,U4*
X215670000Y-61440000D03*
X215670000Y-61040001D03*
X215670000Y-60640002D03*
X214374600Y-60640002D03*
X214374600Y-61040001D03*
X214374600Y-61440000D03*
D28*
X215022300Y-61040001D03*
G04 #@! TD*
D12*
G04 #@! TO.C,Q17*
X205130000Y-60787500D03*
X207030000Y-60787500D03*
X206080000Y-58912500D03*
G04 #@! TD*
D23*
G04 #@! TO.C,C9*
X217500000Y-43075000D03*
X217500000Y-41525000D03*
G04 #@! TD*
D12*
G04 #@! TO.C,Q16*
X205140000Y-64705000D03*
X207040000Y-64705000D03*
X206090000Y-62830000D03*
G04 #@! TD*
D25*
G04 #@! TO.C,R9*
X238220000Y-59240000D03*
X238220000Y-58220000D03*
G04 #@! TD*
D29*
G04 #@! TO.C,C1*
X209900000Y-54500000D03*
X209900000Y-56400000D03*
G04 #@! TD*
D30*
G04 #@! TO.C,IC1*
X229060000Y-64100000D03*
X227790000Y-64100000D03*
X226520000Y-64100000D03*
X225250000Y-64100000D03*
X223980000Y-64100000D03*
X222710000Y-64100000D03*
X221440000Y-64100000D03*
X220170000Y-64100000D03*
X218900000Y-64100000D03*
X217630000Y-64100000D03*
X216360000Y-64100000D03*
X215090000Y-64100000D03*
X213820000Y-64100000D03*
X212550000Y-64100000D03*
D31*
X211300000Y-67135000D03*
X211300000Y-68405000D03*
X211300000Y-69675000D03*
X211300000Y-70945000D03*
X211300000Y-72215000D03*
X211300000Y-73485000D03*
X211300000Y-74755000D03*
X211300000Y-76025000D03*
X211300000Y-77295000D03*
X211300000Y-78565000D03*
D30*
X212550000Y-81600000D03*
X213820000Y-81600000D03*
X215090000Y-81600000D03*
X216360000Y-81600000D03*
X217630000Y-81600000D03*
X218900000Y-81600000D03*
X220170000Y-81600000D03*
X221440000Y-81600000D03*
X222710000Y-81600000D03*
X223980000Y-81600000D03*
X225250000Y-81600000D03*
X226520000Y-81600000D03*
X227790000Y-81600000D03*
X229060000Y-81600000D03*
D32*
X222740000Y-69950000D03*
X221340000Y-69950000D03*
X219940000Y-69950000D03*
X219940000Y-71350000D03*
X219940000Y-72750000D03*
X221340000Y-72750000D03*
X222740000Y-72750000D03*
X222740000Y-71350000D03*
X221340000Y-71350000D03*
G04 #@! TD*
D16*
G04 #@! TO.C,R21*
X207040000Y-66480000D03*
X208060000Y-66480000D03*
G04 #@! TD*
D25*
G04 #@! TO.C,R7*
X242820000Y-61070000D03*
X242820000Y-60050000D03*
G04 #@! TD*
D16*
G04 #@! TO.C,R6*
X205170000Y-57380000D03*
X206190000Y-57380000D03*
G04 #@! TD*
D33*
G04 #@! TO.C,Q20*
X236597500Y-60420000D03*
X236597500Y-58520000D03*
X234722500Y-59470000D03*
G04 #@! TD*
D22*
G04 #@! TO.C,S3*
X220574999Y-92990001D03*
X225825001Y-92990001D03*
X220574999Y-96189999D03*
X225825001Y-96189999D03*
G04 #@! TD*
D17*
G04 #@! TO.C,C3*
X235250000Y-53850000D03*
X235250000Y-56800000D03*
G04 #@! TD*
D34*
G04 #@! TO.C,D1*
X231800000Y-50700000D03*
X227500000Y-50700000D03*
G04 #@! TD*
D35*
G04 #@! TO.C,C7*
X227800000Y-61290000D03*
X229700000Y-61290000D03*
G04 #@! TD*
D13*
G04 #@! TO.C,R8*
X240820000Y-53180000D03*
X239800000Y-53180000D03*
G04 #@! TD*
D36*
G04 #@! TO.C,J1*
X224050000Y-46680000D03*
D37*
X222030000Y-46680000D03*
D38*
X220800000Y-46680000D03*
D36*
X223050000Y-46680000D03*
D37*
X225070000Y-46680000D03*
D38*
X226300000Y-46680000D03*
G04 #@! TD*
D26*
G04 #@! TO.C,S2*
X238880001Y-103295001D03*
X238880001Y-98044999D03*
X242079999Y-103295001D03*
X242079999Y-98044999D03*
G04 #@! TD*
D39*
G04 #@! TO.C,C14*
X217055000Y-60910000D03*
X218605000Y-60910000D03*
G04 #@! TD*
D11*
G04 #@! TO.C,R5*
X216400000Y-47090000D03*
X216400000Y-48110000D03*
G04 #@! TD*
D14*
G04 #@! TO.C,Q2*
X212130000Y-49710000D03*
X210230000Y-49710000D03*
X211180000Y-51585000D03*
G04 #@! TD*
D12*
G04 #@! TO.C,Q5*
X204950000Y-55847500D03*
X206850000Y-55847500D03*
X205900000Y-53972500D03*
G04 #@! TD*
G04 #@! TO.C,Q18*
X201520000Y-65180000D03*
X203420000Y-65180000D03*
X202470000Y-63305000D03*
G04 #@! TD*
D16*
G04 #@! TO.C,R19*
X229290000Y-42100000D03*
X230310000Y-42100000D03*
G04 #@! TD*
D22*
G04 #@! TO.C,S7*
X220574999Y-98990001D03*
X225825001Y-98990001D03*
X220574999Y-102189999D03*
X225825001Y-102189999D03*
G04 #@! TD*
D40*
G04 #@! TO.C,U1*
X210428300Y-45725001D03*
X210428300Y-46374999D03*
X210428300Y-47025001D03*
X210428300Y-47674999D03*
X214771700Y-47674999D03*
X214771700Y-47025001D03*
X214771700Y-46374999D03*
X214771700Y-45725001D03*
G04 #@! TD*
D41*
G04 #@! TO.C,C13*
X212865000Y-61020000D03*
X211315000Y-61020000D03*
G04 #@! TD*
D29*
G04 #@! TO.C,C2*
X211900000Y-54500000D03*
X211900000Y-56400000D03*
G04 #@! TD*
D42*
G04 #@! TO.C,J4*
X227161500Y-89450000D03*
X226461500Y-89450000D03*
X225761500Y-89450000D03*
X225061500Y-89450000D03*
X224361500Y-89450000D03*
X223661500Y-89450000D03*
X222961500Y-89450000D03*
X222261500Y-89450000D03*
X221561500Y-89450000D03*
X220861500Y-89450000D03*
X220161500Y-89450000D03*
X219461500Y-89450000D03*
G04 #@! TD*
D12*
G04 #@! TO.C,Q1*
X226750000Y-55900000D03*
X228650000Y-55900000D03*
X227700000Y-54025000D03*
G04 #@! TD*
D43*
G04 #@! TO.C,L1*
X214719100Y-54680000D03*
X224040900Y-54680000D03*
G04 #@! TD*
D26*
G04 #@! TO.C,S5*
X214400000Y-103315001D03*
X214400000Y-98064999D03*
X217599998Y-103315001D03*
X217599998Y-98064999D03*
G04 #@! TD*
D16*
G04 #@! TO.C,R2*
X233990000Y-52500000D03*
X235010000Y-52500000D03*
G04 #@! TD*
D26*
G04 #@! TO.C,S1*
X204500001Y-103295001D03*
X204500001Y-98044999D03*
X207699999Y-103295001D03*
X207699999Y-98044999D03*
G04 #@! TD*
D13*
G04 #@! TO.C,R20*
X203320000Y-61740000D03*
X202300000Y-61740000D03*
G04 #@! TD*
M02*
