G04 #@! TF.GenerationSoftware,KiCad,Pcbnew,7.0.5*
G04 #@! TF.CreationDate,2023-09-25T09:29:56+01:00*
G04 #@! TF.ProjectId,MaxTENS,4d617854-454e-4532-9e6b-696361645f70,rev?*
G04 #@! TF.SameCoordinates,Original*
G04 #@! TF.FileFunction,Copper,L2,Bot*
G04 #@! TF.FilePolarity,Positive*
%FSLAX46Y46*%
G04 Gerber Fmt 4.6, Leading zero omitted, Abs format (unit mm)*
G04 Created by KiCad (PCBNEW 7.0.5) date 2023-09-25 09:29:56*
%MOMM*%
%LPD*%
G01*
G04 APERTURE LIST*
G04 #@! TA.AperFunction,ComponentPad*
%ADD10O,2.216000X1.108000*%
G04 #@! TD*
G04 #@! TA.AperFunction,ComponentPad*
%ADD11O,1.050000X2.450000*%
G04 #@! TD*
G04 #@! TA.AperFunction,ComponentPad*
%ADD12O,0.800000X1.600000*%
G04 #@! TD*
G04 #@! TA.AperFunction,ComponentPad*
%ADD13R,1.350000X1.350000*%
G04 #@! TD*
G04 #@! TA.AperFunction,ComponentPad*
%ADD14O,1.350000X1.350000*%
G04 #@! TD*
G04 #@! TA.AperFunction,ComponentPad*
%ADD15C,1.650000*%
G04 #@! TD*
G04 #@! TA.AperFunction,ViaPad*
%ADD16C,1.600000*%
G04 #@! TD*
G04 #@! TA.AperFunction,ViaPad*
%ADD17C,0.450000*%
G04 #@! TD*
G04 #@! TA.AperFunction,ViaPad*
%ADD18C,0.600000*%
G04 #@! TD*
G04 #@! TA.AperFunction,ViaPad*
%ADD19C,1.000000*%
G04 #@! TD*
G04 #@! TA.AperFunction,Conductor*
%ADD20C,0.300000*%
G04 #@! TD*
G04 #@! TA.AperFunction,Conductor*
%ADD21C,1.000000*%
G04 #@! TD*
G04 #@! TA.AperFunction,Conductor*
%ADD22C,0.500000*%
G04 #@! TD*
G04 #@! TA.AperFunction,Conductor*
%ADD23C,0.254000*%
G04 #@! TD*
G04 APERTURE END LIST*
D10*
G04 #@! TO.P,J3,A*
G04 #@! TO.N,/ElectrodeChannels/CH1_P*
X204400000Y-51500000D03*
D11*
G04 #@! TO.P,J3,B*
G04 #@! TO.N,/ElectrodeChannels/CH1_N*
X207400000Y-50100000D03*
G04 #@! TO.P,J3,C*
X201400000Y-49300000D03*
G04 #@! TO.P,J3,SH1*
G04 #@! TO.N,N/C*
X207100000Y-44800000D03*
G04 #@! TO.P,J3,SH2*
X201700000Y-44800000D03*
G04 #@! TD*
D12*
G04 #@! TO.P,J1,S1,SHIELD*
G04 #@! TO.N,GND*
X227870000Y-46600000D03*
G04 #@! TO.P,J1,S2,SHIELD*
X219230000Y-46600000D03*
G04 #@! TO.P,J1,S3,SHIELD*
X227870000Y-42800000D03*
G04 #@! TO.P,J1,S4,SHIELD*
X219230000Y-42800000D03*
G04 #@! TD*
D13*
G04 #@! TO.P,J6,1,Pin_1*
G04 #@! TO.N,+BATT*
X199100000Y-54900000D03*
D14*
G04 #@! TO.P,J6,2,Pin_2*
G04 #@! TO.N,GND*
X199100000Y-52900000D03*
G04 #@! TD*
D15*
G04 #@! TO.P,J4,0*
G04 #@! TO.N,N/C*
X218318500Y-86529000D03*
X228351500Y-86529000D03*
G04 #@! TD*
D10*
G04 #@! TO.P,J2,A*
G04 #@! TO.N,/ElectrodeChannels/CH2_P*
X242800000Y-51500000D03*
D11*
G04 #@! TO.P,J2,B*
G04 #@! TO.N,/ElectrodeChannels/CH2_N*
X245800000Y-50100000D03*
G04 #@! TO.P,J2,C*
X239800000Y-49300000D03*
G04 #@! TO.P,J2,SH1*
G04 #@! TO.N,N/C*
X245500000Y-44800000D03*
G04 #@! TO.P,J2,SH2*
X240100000Y-44800000D03*
G04 #@! TD*
D16*
G04 #@! TO.N,+BATT*
X212580000Y-58940000D03*
D17*
X209840000Y-44500000D03*
G04 #@! TO.N,GND*
X235830000Y-63350000D03*
X202240000Y-55140000D03*
X224800000Y-74700000D03*
X227810000Y-55900000D03*
X206060000Y-51480000D03*
X208740000Y-78480000D03*
X218100000Y-85000000D03*
X223940000Y-71410000D03*
X205930000Y-55830000D03*
X221980000Y-92450000D03*
X222730000Y-79090000D03*
X220270000Y-43060000D03*
X231080000Y-60960000D03*
X218540000Y-72800000D03*
X227600000Y-92190000D03*
X209980000Y-67090000D03*
X218500000Y-71290000D03*
X242270000Y-58330000D03*
X224510000Y-62480000D03*
X218430000Y-61770000D03*
X209720000Y-77740000D03*
X227050000Y-73870000D03*
X239690000Y-51110000D03*
X244620000Y-51350000D03*
X218700000Y-69070000D03*
X221310000Y-74230000D03*
X209960000Y-67860000D03*
X240490000Y-54140000D03*
X224000000Y-88100000D03*
X243760000Y-57980000D03*
X223480000Y-92030000D03*
X224360000Y-91430000D03*
D16*
X209810000Y-58940000D03*
D17*
X218290000Y-67360000D03*
X231030000Y-61910000D03*
X203180000Y-57540000D03*
X231890000Y-43000000D03*
X221940000Y-79680000D03*
X223960000Y-98320000D03*
X209180000Y-44230000D03*
X204330000Y-63690000D03*
X224620000Y-68520000D03*
X220810000Y-45310000D03*
X222460000Y-41600000D03*
X221730000Y-80290000D03*
X228970000Y-62780000D03*
X236830000Y-64480000D03*
X237870000Y-50000000D03*
X235960000Y-59290000D03*
X209610000Y-52230000D03*
X205240000Y-62220000D03*
X233520000Y-41510000D03*
X215090000Y-95810000D03*
X205380000Y-95610000D03*
X211980000Y-47950000D03*
X231340000Y-42030000D03*
X212080000Y-57440000D03*
X203730000Y-95840000D03*
X202610000Y-51590000D03*
X240490000Y-55530000D03*
X223670000Y-99700000D03*
X219400000Y-91100000D03*
X223400000Y-80400000D03*
X212750000Y-57720000D03*
X237290000Y-63180000D03*
X223530000Y-79770000D03*
X211110000Y-59860000D03*
X229300000Y-43720000D03*
X223830000Y-73300000D03*
X234840000Y-42700000D03*
X224020000Y-72350000D03*
X205380000Y-94830000D03*
X237400000Y-46870000D03*
X215130000Y-96530000D03*
X211750000Y-65250000D03*
X218040000Y-66620000D03*
X223430000Y-73850000D03*
X242780000Y-50340000D03*
X223500000Y-105830000D03*
X227340000Y-93810000D03*
X222500000Y-105710000D03*
X237390000Y-59600000D03*
X222810000Y-74210000D03*
X210190000Y-60960000D03*
X221930000Y-104090000D03*
X228590000Y-54630000D03*
X230150000Y-59740000D03*
X218560000Y-41520000D03*
X211170000Y-49660000D03*
X210160000Y-66240000D03*
X218470000Y-69880000D03*
X228370000Y-67790000D03*
X223720000Y-104040000D03*
X241030000Y-51460000D03*
X213440000Y-96290000D03*
X219830000Y-74190000D03*
X203700000Y-94940000D03*
X231140000Y-42850000D03*
X203650000Y-58950000D03*
X224980000Y-42050000D03*
X228150000Y-44780000D03*
X229880000Y-46890000D03*
X211260000Y-62180000D03*
X234280000Y-41810000D03*
X210140000Y-79250000D03*
X224600000Y-100060000D03*
X230310000Y-43140000D03*
X228270000Y-93200000D03*
X212450000Y-46420000D03*
X234460000Y-43720000D03*
X226660000Y-42630000D03*
X220430000Y-67440000D03*
X204550000Y-50310000D03*
X218850000Y-73740000D03*
G04 #@! TO.N,VCC*
X231880000Y-48990000D03*
D18*
X210130000Y-51580000D03*
X217250500Y-47580000D03*
D17*
X234680000Y-48180000D03*
G04 #@! TO.N,+3.3V*
X217670000Y-61770000D03*
X228810000Y-53840000D03*
X227520000Y-65920000D03*
X234400000Y-44420000D03*
X225000000Y-88000000D03*
D19*
G04 #@! TO.N,+5V*
X222030000Y-44930000D03*
X225100000Y-44990000D03*
D17*
G04 #@! TO.N,/MCU/RIGHT_BTN*
X230200000Y-94300000D03*
X238600000Y-81700000D03*
X214360000Y-96030000D03*
X212510000Y-65340000D03*
G04 #@! TO.N,/MCU/SCLK*
X227000000Y-67400000D03*
X240000000Y-86400000D03*
X227095500Y-72900000D03*
X213820000Y-65280000D03*
D18*
X234160000Y-46040000D03*
G04 #@! TO.N,/MCU/MISO*
X223173556Y-62103556D03*
X230050000Y-46030000D03*
G04 #@! TO.N,/MCU/MOSI*
X223770000Y-68405000D03*
X234240000Y-45260000D03*
D17*
X219700000Y-76000000D03*
X219700000Y-78500000D03*
D18*
G04 #@! TO.N,/MCU/CS*
X227800000Y-68300000D03*
X235700000Y-46970000D03*
D17*
G04 #@! TO.N,/MCU/OK_BTN*
X225610000Y-75000000D03*
X224440000Y-99070000D03*
G04 #@! TO.N,/MCU/TIMER_BTN*
X227450000Y-92980000D03*
X226540000Y-74500000D03*
G04 #@! TO.N,/MCU/CH1_BTN*
X204540000Y-95910000D03*
X209670000Y-78590000D03*
G04 #@! TO.N,/MCU/MODE_BTN*
X222720000Y-80040000D03*
X223130000Y-105010000D03*
G04 #@! TO.N,Net-(J1-CC1)*
X224280000Y-41670000D03*
X224050000Y-43420000D03*
G04 #@! TO.N,Net-(J1-CC2)*
X223195000Y-41725000D03*
X223050000Y-43430000D03*
D18*
G04 #@! TO.N,/ElectrodeChannels/CH1_1*
X202490000Y-55900000D03*
X204990000Y-63190000D03*
D17*
G04 #@! TO.N,/ElectrodeChannels/CH2_2*
X218850000Y-66790000D03*
X240970000Y-62510000D03*
G04 #@! TO.N,/ElectrodeChannels/CH2_1*
X220270000Y-66730000D03*
X243040000Y-58060000D03*
X237860000Y-64410000D03*
D18*
G04 #@! TO.N,/BoostConverter/VFB*
X234520000Y-51680000D03*
X225260000Y-62520000D03*
D17*
G04 #@! TO.N,/Opamp/P0W*
X211700000Y-46400000D03*
X232800000Y-41800000D03*
G04 #@! TO.N,/Opamp/P1W*
X230200000Y-44300000D03*
X216400000Y-46300000D03*
D18*
G04 #@! TO.N,Net-(Q5-B)*
X205150000Y-58120000D03*
X203132500Y-58312500D03*
D17*
G04 #@! TO.N,Net-(Q7-C)*
X241630000Y-58810000D03*
X240860000Y-54820000D03*
G04 #@! TO.N,Net-(Q20-B)*
X236610000Y-63720000D03*
X236610000Y-59580000D03*
G04 #@! TD*
D20*
G04 #@! TO.N,/ElectrodeChannels/CH2_1*
X243040000Y-59230000D02*
X243040000Y-58060000D01*
X237860000Y-64410000D02*
X243040000Y-59230000D01*
X232260000Y-70010000D02*
X237860000Y-64410000D01*
X224030000Y-70010000D02*
X232260000Y-70010000D01*
X220750000Y-66730000D02*
X224030000Y-70010000D01*
X220270000Y-66730000D02*
X220750000Y-66730000D01*
D21*
G04 #@! TO.N,+BATT*
X207965000Y-54315000D02*
X210730000Y-57080000D01*
D20*
X212210000Y-58940000D02*
X208600000Y-55330000D01*
D21*
X212173273Y-58940000D02*
X212580000Y-58940000D01*
D20*
X208600000Y-45650000D02*
X208690000Y-45650000D01*
X212580000Y-58940000D02*
X212210000Y-58940000D01*
D21*
X199685000Y-54315000D02*
X207965000Y-54315000D01*
X210730000Y-57496727D02*
X212173273Y-58940000D01*
X210730000Y-57080000D02*
X210730000Y-57496727D01*
D20*
X208600000Y-55330000D02*
X208600000Y-45650000D01*
D21*
X199100000Y-54900000D02*
X199685000Y-54315000D01*
D20*
X208690000Y-45650000D02*
X209840000Y-44500000D01*
G04 #@! TO.N,VCC*
X210130000Y-51580000D02*
X214130000Y-47580000D01*
X231880000Y-48990000D02*
X232690000Y-48180000D01*
X232690000Y-48180000D02*
X234680000Y-48180000D01*
X214130000Y-47580000D02*
X217250500Y-47580000D01*
G04 #@! TO.N,+3.3V*
X217290000Y-66360000D02*
X213800000Y-66360000D01*
X227520000Y-65920000D02*
X227340000Y-66100000D01*
X213800000Y-75710000D02*
X217590000Y-79500000D01*
X220500000Y-79500000D02*
X221800000Y-78200000D01*
X217590000Y-79500000D02*
X220500000Y-79500000D01*
X223800000Y-78200000D02*
X225000000Y-79400000D01*
X213030000Y-65970000D02*
X213420000Y-66360000D01*
X213030000Y-63090000D02*
X213030000Y-65970000D01*
X233800000Y-44420000D02*
X234400000Y-44420000D01*
X221800000Y-78200000D02*
X223800000Y-78200000D01*
X233080000Y-45140000D02*
X233520000Y-44700000D01*
X233520000Y-44700000D02*
X233800000Y-44420000D01*
X228810000Y-46000000D02*
X229670000Y-45140000D01*
X225000000Y-79400000D02*
X225000000Y-88000000D01*
X214350000Y-61770000D02*
X213030000Y-63090000D01*
X217550000Y-66100000D02*
X217290000Y-66360000D01*
X217670000Y-61770000D02*
X214350000Y-61770000D01*
X213800000Y-66360000D02*
X213800000Y-75710000D01*
X213420000Y-66360000D02*
X213800000Y-66360000D01*
X228810000Y-53840000D02*
X228810000Y-46000000D01*
X229670000Y-45140000D02*
X233080000Y-45140000D01*
X227340000Y-66100000D02*
X217550000Y-66100000D01*
D22*
G04 #@! TO.N,+5V*
X222030000Y-44930000D02*
X222090000Y-44990000D01*
X222090000Y-44990000D02*
X225100000Y-44990000D01*
D23*
G04 #@! TO.N,/MCU/RIGHT_BTN*
X238600000Y-81700000D02*
X238600000Y-85900000D01*
X212510000Y-94180000D02*
X214360000Y-96030000D01*
X212510000Y-65340000D02*
X212510000Y-94180000D01*
X238600000Y-85900000D02*
X230200000Y-94300000D01*
D20*
G04 #@! TO.N,/MCU/SCLK*
X220597818Y-65510000D02*
X220607818Y-65500000D01*
X223310000Y-65300000D02*
X227800000Y-65300000D01*
X223110000Y-65500000D02*
X223310000Y-65300000D01*
X213820000Y-65280000D02*
X214050000Y-65510000D01*
X233140000Y-51430000D02*
X235472182Y-49097818D01*
X223110000Y-65500000D02*
X223830000Y-64780000D01*
X223830000Y-61950000D02*
X233140000Y-52640000D01*
X220607818Y-65500000D02*
X223110000Y-65500000D01*
X240000000Y-86400000D02*
X239900000Y-86300000D01*
X234160000Y-46207818D02*
X234160000Y-46040000D01*
X214050000Y-65510000D02*
X220597818Y-65510000D01*
X228100000Y-65600000D02*
X228100000Y-66300000D01*
X223830000Y-64780000D02*
X223830000Y-61950000D01*
X239900000Y-78800000D02*
X234000000Y-72900000D01*
X227800000Y-65300000D02*
X228100000Y-65600000D01*
X235472182Y-47520000D02*
X234160000Y-46207818D01*
X234000000Y-72900000D02*
X227095500Y-72900000D01*
X235472182Y-49097818D02*
X235472182Y-47520000D01*
X233140000Y-52640000D02*
X233140000Y-51430000D01*
X228100000Y-66300000D02*
X227000000Y-67400000D01*
X239900000Y-86300000D02*
X239900000Y-78800000D01*
G04 #@! TO.N,/MCU/MISO*
X230930000Y-46910000D02*
X230050000Y-46030000D01*
X223173556Y-61796444D02*
X230930000Y-54040000D01*
X230930000Y-54040000D02*
X230930000Y-46910000D01*
X223173556Y-62103556D02*
X223173556Y-61796444D01*
G04 #@! TO.N,/MCU/MOSI*
X219700000Y-76000000D02*
X219700000Y-78500000D01*
X228175000Y-69200000D02*
X235090000Y-62285000D01*
X238420000Y-51040000D02*
X238420000Y-46410000D01*
X237270000Y-45260000D02*
X234240000Y-45260000D01*
X223770000Y-68405000D02*
X224565000Y-69200000D01*
X235090000Y-54370000D02*
X238420000Y-51040000D01*
X224565000Y-69200000D02*
X228175000Y-69200000D01*
X238420000Y-46410000D02*
X237270000Y-45260000D01*
X235090000Y-62285000D02*
X235090000Y-54370000D01*
G04 #@! TO.N,/MCU/CS*
X227800000Y-67500000D02*
X233430000Y-61870000D01*
X236430000Y-46970000D02*
X235700000Y-46970000D01*
X237170000Y-47710000D02*
X236430000Y-46970000D01*
X233430000Y-61870000D02*
X233430000Y-54130000D01*
X227800000Y-68300000D02*
X227800000Y-67500000D01*
X236900000Y-50650000D02*
X237170000Y-50380000D01*
X233430000Y-54130000D02*
X236900000Y-50660000D01*
X237170000Y-50380000D02*
X237170000Y-47710000D01*
X236900000Y-50660000D02*
X236900000Y-50650000D01*
D23*
G04 #@! TO.N,/MCU/OK_BTN*
X225610000Y-75000000D02*
X225610000Y-97900000D01*
X225610000Y-97900000D02*
X224440000Y-99070000D01*
G04 #@! TO.N,/MCU/TIMER_BTN*
X226540000Y-92070000D02*
X227450000Y-92980000D01*
X226540000Y-74500000D02*
X226540000Y-92070000D01*
D20*
G04 #@! TO.N,/MCU/CH1_BTN*
X209670000Y-78590000D02*
X204540000Y-83720000D01*
X204540000Y-83720000D02*
X204540000Y-95910000D01*
D23*
G04 #@! TO.N,/MCU/MODE_BTN*
X222720000Y-80040000D02*
X222720000Y-104600000D01*
X222720000Y-104600000D02*
X223130000Y-105010000D01*
D20*
G04 #@! TO.N,Net-(J1-CC1)*
X224280000Y-41670000D02*
X224050000Y-41900000D01*
X224050000Y-41900000D02*
X224050000Y-43420000D01*
G04 #@! TO.N,Net-(J1-CC2)*
X223050000Y-43430000D02*
X223050000Y-41870000D01*
X223050000Y-41870000D02*
X223195000Y-41725000D01*
G04 #@! TO.N,/ElectrodeChannels/CH1_1*
X202490000Y-55900000D02*
X202490000Y-60690000D01*
X202490000Y-60690000D02*
X204990000Y-63190000D01*
G04 #@! TO.N,/ElectrodeChannels/CH2_2*
X222700000Y-70700000D02*
X232780000Y-70700000D01*
X218850000Y-66790000D02*
X218850000Y-66850000D01*
X232780000Y-70700000D02*
X240970000Y-62510000D01*
X218850000Y-66850000D02*
X222700000Y-70700000D01*
G04 #@! TO.N,/BoostConverter/VFB*
X234520000Y-51680000D02*
X234520000Y-52040000D01*
X225260000Y-61300000D02*
X225260000Y-62520000D01*
X234520000Y-52040000D02*
X225260000Y-61300000D01*
G04 #@! TO.N,/Opamp/P0W*
X211700000Y-43200000D02*
X213900000Y-41000000D01*
X232100000Y-41000000D02*
X232800000Y-41700000D01*
X211700000Y-46400000D02*
X211700000Y-43200000D01*
X213900000Y-41000000D02*
X232100000Y-41000000D01*
X232800000Y-41700000D02*
X232800000Y-41800000D01*
G04 #@! TO.N,/Opamp/P1W*
X226540000Y-44040000D02*
X226800000Y-44300000D01*
X220660000Y-44040000D02*
X226540000Y-44040000D01*
X220000000Y-44700000D02*
X220660000Y-44040000D01*
X216400000Y-46300000D02*
X218000000Y-44700000D01*
X226800000Y-44300000D02*
X230200000Y-44300000D01*
X218000000Y-44700000D02*
X220000000Y-44700000D01*
G04 #@! TO.N,Net-(Q5-B)*
X203325000Y-58120000D02*
X205150000Y-58120000D01*
X203132500Y-58312500D02*
X203325000Y-58120000D01*
G04 #@! TO.N,Net-(Q7-C)*
X241630000Y-55590000D02*
X240860000Y-54820000D01*
X241630000Y-58810000D02*
X241630000Y-55590000D01*
G04 #@! TO.N,Net-(Q20-B)*
X236610000Y-59580000D02*
X236610000Y-63720000D01*
G04 #@! TD*
G04 #@! TA.AperFunction,Conductor*
G04 #@! TO.N,GND*
G36*
X219943264Y-66417813D02*
G01*
X219968574Y-66461650D01*
X219961632Y-66508094D01*
X219959334Y-66512606D01*
X219908426Y-66612515D01*
X219908426Y-66612517D01*
X219900467Y-66662773D01*
X219889819Y-66730000D01*
X219904877Y-66825073D01*
X219908426Y-66847482D01*
X219908426Y-66847483D01*
X219935941Y-66901483D01*
X219962427Y-66953465D01*
X220046535Y-67037573D01*
X220152518Y-67091574D01*
X220270000Y-67110181D01*
X220387482Y-67091574D01*
X220491517Y-67038565D01*
X220525111Y-67030500D01*
X220594877Y-67030500D01*
X220642443Y-67047813D01*
X220647203Y-67052174D01*
X223774318Y-70179289D01*
X223781404Y-70189137D01*
X223781910Y-70188756D01*
X223786043Y-70194229D01*
X223821785Y-70226812D01*
X223823022Y-70227993D01*
X223837203Y-70242174D01*
X223840856Y-70244676D01*
X223844858Y-70247847D01*
X223856927Y-70258849D01*
X223870052Y-70270815D01*
X223893539Y-70315655D01*
X223882709Y-70365102D01*
X223842628Y-70396018D01*
X223820197Y-70399500D01*
X222855123Y-70399500D01*
X222807557Y-70382187D01*
X222802797Y-70377826D01*
X219250044Y-66825073D01*
X219229282Y-66784324D01*
X219211574Y-66672518D01*
X219211574Y-66672517D01*
X219211573Y-66672516D01*
X219210544Y-66670496D01*
X219157573Y-66566535D01*
X219117864Y-66526826D01*
X219096472Y-66480950D01*
X219109573Y-66432055D01*
X219151037Y-66403021D01*
X219170190Y-66400500D01*
X219895698Y-66400500D01*
X219943264Y-66417813D01*
G37*
G04 #@! TD.AperFunction*
G04 #@! TA.AperFunction,Conductor*
G36*
X233114069Y-53957381D02*
G01*
X233143103Y-53998845D01*
X233143653Y-54034964D01*
X233142842Y-54038405D01*
X233141328Y-54043293D01*
X233129500Y-54073827D01*
X233129499Y-54073829D01*
X233129499Y-54086557D01*
X233127534Y-54103491D01*
X233124621Y-54115878D01*
X233124621Y-54115881D01*
X233129145Y-54148316D01*
X233129500Y-54153424D01*
X233129500Y-61714876D01*
X233112187Y-61762442D01*
X233107826Y-61767202D01*
X228529503Y-66345524D01*
X228483627Y-66366916D01*
X228434732Y-66353815D01*
X228405698Y-66312351D01*
X228403887Y-66303422D01*
X228402259Y-66291752D01*
X228400854Y-66281684D01*
X228400500Y-66276573D01*
X228400500Y-66037826D01*
X228400500Y-65661082D01*
X228402455Y-65649115D01*
X228401826Y-65649028D01*
X228402773Y-65642237D01*
X228401939Y-65624189D01*
X228400538Y-65593897D01*
X228400500Y-65592211D01*
X228400500Y-65572157D01*
X228399688Y-65567817D01*
X228399096Y-65562727D01*
X228397585Y-65530008D01*
X228392441Y-65518360D01*
X228387398Y-65502070D01*
X228385061Y-65489567D01*
X228367821Y-65461723D01*
X228365436Y-65457196D01*
X228352206Y-65427235D01*
X228343207Y-65418236D01*
X228332615Y-65404863D01*
X228325920Y-65394049D01*
X228325919Y-65394048D01*
X228299784Y-65374312D01*
X228295920Y-65370949D01*
X228055682Y-65130711D01*
X228048597Y-65120862D01*
X228048091Y-65121245D01*
X228043958Y-65115772D01*
X228029138Y-65102262D01*
X228008208Y-65083181D01*
X228006976Y-65082005D01*
X227992796Y-65067825D01*
X227989149Y-65065326D01*
X227985132Y-65062144D01*
X227978977Y-65056533D01*
X227960933Y-65040084D01*
X227949061Y-65035484D01*
X227933981Y-65027536D01*
X227923480Y-65020343D01*
X227891612Y-65012848D01*
X227886713Y-65011331D01*
X227856174Y-64999500D01*
X227856173Y-64999500D01*
X227843447Y-64999500D01*
X227826504Y-64997534D01*
X227814119Y-64994621D01*
X227814117Y-64994621D01*
X227803641Y-64996082D01*
X227781684Y-64999145D01*
X227776574Y-64999500D01*
X224180497Y-64999500D01*
X224132931Y-64982187D01*
X224107621Y-64938350D01*
X224108462Y-64908558D01*
X224109656Y-64903481D01*
X224109657Y-64903480D01*
X224117153Y-64871607D01*
X224118669Y-64866711D01*
X224130500Y-64836172D01*
X224130500Y-64823446D01*
X224132466Y-64806502D01*
X224135379Y-64794119D01*
X224130854Y-64761683D01*
X224130500Y-64756573D01*
X224130500Y-62105122D01*
X224147813Y-62057556D01*
X224152174Y-62052796D01*
X224542509Y-61662461D01*
X224833175Y-61371795D01*
X224879050Y-61350404D01*
X224927945Y-61363505D01*
X224956979Y-61404969D01*
X224959500Y-61424122D01*
X224959500Y-62151260D01*
X224942187Y-62198826D01*
X224941426Y-62199719D01*
X224877119Y-62273934D01*
X224877118Y-62273936D01*
X224823302Y-62391776D01*
X224804867Y-62519999D01*
X224823302Y-62648223D01*
X224823302Y-62648224D01*
X224823303Y-62648226D01*
X224877118Y-62766063D01*
X224961951Y-62863967D01*
X225070931Y-62934004D01*
X225195228Y-62970500D01*
X225324772Y-62970500D01*
X225449069Y-62934004D01*
X225558049Y-62863967D01*
X225642882Y-62766063D01*
X225696697Y-62648226D01*
X225715133Y-62520000D01*
X225696697Y-62391774D01*
X225642882Y-62273937D01*
X225642880Y-62273935D01*
X225642880Y-62273934D01*
X225578574Y-62199719D01*
X225560509Y-62152433D01*
X225560500Y-62151260D01*
X225560500Y-61455122D01*
X225577813Y-61407556D01*
X225582163Y-61402807D01*
X233019299Y-53965671D01*
X233065174Y-53944280D01*
X233114069Y-53957381D01*
G37*
G04 #@! TD.AperFunction*
G04 #@! TA.AperFunction,Conductor*
G36*
X247976434Y-40409643D02*
G01*
X248023916Y-40427186D01*
X248049012Y-40471146D01*
X248050075Y-40483566D01*
X248119924Y-108836509D01*
X248102660Y-108884093D01*
X248058848Y-108909448D01*
X248046511Y-108910583D01*
X199044135Y-109299411D01*
X198996433Y-109282476D01*
X198970776Y-109238841D01*
X198969549Y-109225869D01*
X198961533Y-107906374D01*
X198978556Y-107858706D01*
X199022238Y-107833131D01*
X199072141Y-107841618D01*
X199094382Y-107861065D01*
X199226750Y-108034716D01*
X199414886Y-108215778D01*
X199527491Y-108294982D01*
X199628457Y-108366000D01*
X199628459Y-108366001D01*
X199862456Y-108481861D01*
X200046937Y-108540242D01*
X200111395Y-108560641D01*
X200369445Y-108600500D01*
X200565171Y-108600500D01*
X200565177Y-108600500D01*
X200760344Y-108585516D01*
X200760350Y-108585514D01*
X200760354Y-108585514D01*
X200866647Y-108560640D01*
X201014586Y-108526021D01*
X201256766Y-108428414D01*
X201446228Y-108315778D01*
X201481204Y-108294985D01*
X201481205Y-108294983D01*
X201481208Y-108294982D01*
X201682652Y-108128852D01*
X201856375Y-107933920D01*
X201998306Y-107714753D01*
X202105118Y-107476489D01*
X202174307Y-107224713D01*
X202204252Y-106965325D01*
X202203077Y-106934673D01*
X244295748Y-106934673D01*
X244305749Y-107195594D01*
X244355462Y-107451928D01*
X244355463Y-107451931D01*
X244443717Y-107697661D01*
X244443718Y-107697663D01*
X244568456Y-107927053D01*
X244568458Y-107927056D01*
X244568459Y-107927057D01*
X244726750Y-108134716D01*
X244914886Y-108315778D01*
X245027491Y-108394982D01*
X245128457Y-108466000D01*
X245128459Y-108466001D01*
X245362456Y-108581861D01*
X245546937Y-108640242D01*
X245611395Y-108660641D01*
X245869445Y-108700500D01*
X246065171Y-108700500D01*
X246065177Y-108700500D01*
X246260344Y-108685516D01*
X246260350Y-108685514D01*
X246260354Y-108685514D01*
X246366647Y-108660640D01*
X246514586Y-108626021D01*
X246756766Y-108528414D01*
X246924970Y-108428416D01*
X246981204Y-108394985D01*
X246981205Y-108394983D01*
X246981208Y-108394982D01*
X247182652Y-108228852D01*
X247356375Y-108033920D01*
X247498306Y-107814753D01*
X247605118Y-107576489D01*
X247674307Y-107324713D01*
X247704252Y-107065325D01*
X247694251Y-106804407D01*
X247644538Y-106548073D01*
X247563886Y-106323511D01*
X247556282Y-106302338D01*
X247556281Y-106302336D01*
X247431543Y-106072946D01*
X247365473Y-105986270D01*
X247273250Y-105865284D01*
X247085114Y-105684222D01*
X247027279Y-105643542D01*
X246871542Y-105533999D01*
X246871540Y-105533998D01*
X246637543Y-105418138D01*
X246388606Y-105339359D01*
X246130555Y-105299500D01*
X245934823Y-105299500D01*
X245856891Y-105305483D01*
X245739660Y-105314483D01*
X245739645Y-105314485D01*
X245485412Y-105373979D01*
X245243239Y-105471583D01*
X245243222Y-105471592D01*
X245018795Y-105605014D01*
X245018792Y-105605017D01*
X244817344Y-105771151D01*
X244643628Y-105966075D01*
X244643624Y-105966081D01*
X244501693Y-106185247D01*
X244501693Y-106185248D01*
X244394886Y-106423500D01*
X244394882Y-106423511D01*
X244325693Y-106675287D01*
X244322331Y-106704407D01*
X244295748Y-106934673D01*
X202203077Y-106934673D01*
X202194251Y-106704407D01*
X202144538Y-106448073D01*
X202092196Y-106302336D01*
X202056282Y-106202338D01*
X202056281Y-106202336D01*
X201931543Y-105972946D01*
X201926310Y-105966081D01*
X201773250Y-105765284D01*
X201585114Y-105584222D01*
X201513710Y-105533998D01*
X201371542Y-105433999D01*
X201371540Y-105433998D01*
X201137543Y-105318138D01*
X200888606Y-105239359D01*
X200630555Y-105199500D01*
X200434823Y-105199500D01*
X200356891Y-105205483D01*
X200239660Y-105214483D01*
X200239645Y-105214485D01*
X199985412Y-105273979D01*
X199743239Y-105371583D01*
X199743222Y-105371592D01*
X199518795Y-105505014D01*
X199518792Y-105505017D01*
X199317344Y-105671151D01*
X199143628Y-105866075D01*
X199085551Y-105955756D01*
X199045163Y-105986270D01*
X198994610Y-105983685D01*
X198957546Y-105949210D01*
X198949440Y-105915986D01*
X198888648Y-95910000D01*
X204159819Y-95910000D01*
X204178426Y-96027482D01*
X204178426Y-96027483D01*
X204199232Y-96068317D01*
X204232427Y-96133465D01*
X204316535Y-96217573D01*
X204422518Y-96271574D01*
X204540000Y-96290181D01*
X204657482Y-96271574D01*
X204763465Y-96217573D01*
X204847573Y-96133465D01*
X204901574Y-96027482D01*
X204920181Y-95910000D01*
X204901574Y-95792518D01*
X204901573Y-95792516D01*
X204901573Y-95792515D01*
X204848565Y-95688482D01*
X204840499Y-95654886D01*
X204840499Y-91924403D01*
X204840499Y-83875120D01*
X204857812Y-83827557D01*
X204862162Y-83822808D01*
X209706220Y-78978750D01*
X209746967Y-78957990D01*
X209787482Y-78951574D01*
X209893465Y-78897573D01*
X209977573Y-78813465D01*
X210031574Y-78707482D01*
X210050181Y-78590000D01*
X210031574Y-78472518D01*
X209977573Y-78366535D01*
X209893465Y-78282427D01*
X209819791Y-78244888D01*
X209787483Y-78228426D01*
X209670000Y-78209819D01*
X209552517Y-78228426D01*
X209552516Y-78228426D01*
X209446533Y-78282428D01*
X209362427Y-78366534D01*
X209362427Y-78366535D01*
X209308427Y-78472515D01*
X209308425Y-78472520D01*
X209302008Y-78513034D01*
X209281245Y-78553782D01*
X204370708Y-83464319D01*
X204360865Y-83471405D01*
X204361245Y-83471908D01*
X204355773Y-83476040D01*
X204323174Y-83511797D01*
X204321997Y-83513029D01*
X204307822Y-83527206D01*
X204305326Y-83530851D01*
X204302145Y-83534866D01*
X204280085Y-83559065D01*
X204280083Y-83559067D01*
X204275483Y-83570941D01*
X204267536Y-83586017D01*
X204260344Y-83596517D01*
X204252847Y-83628390D01*
X204251330Y-83633288D01*
X204239499Y-83663828D01*
X204239499Y-83676557D01*
X204237534Y-83693491D01*
X204234621Y-83705878D01*
X204234621Y-83705881D01*
X204239145Y-83738316D01*
X204239500Y-83743424D01*
X204239500Y-95654888D01*
X204231434Y-95688484D01*
X204178426Y-95792515D01*
X204178426Y-95792517D01*
X204159819Y-95910000D01*
X198888648Y-95910000D01*
X198730835Y-69934673D01*
X199095748Y-69934673D01*
X199105749Y-70195594D01*
X199155462Y-70451928D01*
X199155463Y-70451931D01*
X199243717Y-70697661D01*
X199243718Y-70697663D01*
X199368456Y-70927053D01*
X199368458Y-70927056D01*
X199368459Y-70927057D01*
X199526750Y-71134716D01*
X199714886Y-71315778D01*
X199827491Y-71394982D01*
X199928457Y-71466000D01*
X199928459Y-71466001D01*
X200162456Y-71581861D01*
X200346937Y-71640242D01*
X200411395Y-71660641D01*
X200669445Y-71700500D01*
X200865171Y-71700500D01*
X200865177Y-71700500D01*
X201060344Y-71685516D01*
X201060350Y-71685514D01*
X201060354Y-71685514D01*
X201166647Y-71660640D01*
X201314586Y-71626021D01*
X201556766Y-71528414D01*
X201661752Y-71465999D01*
X201781204Y-71394985D01*
X201781205Y-71394983D01*
X201781208Y-71394982D01*
X201982652Y-71228852D01*
X202156375Y-71033920D01*
X202298306Y-70814753D01*
X202405118Y-70576489D01*
X202474307Y-70324713D01*
X202504252Y-70065325D01*
X202494251Y-69804407D01*
X202444538Y-69548073D01*
X202415231Y-69466472D01*
X202356282Y-69302338D01*
X202356281Y-69302336D01*
X202231543Y-69072946D01*
X202231541Y-69072943D01*
X202073250Y-68865284D01*
X201885114Y-68684222D01*
X201816976Y-68636295D01*
X201671542Y-68533999D01*
X201671540Y-68533998D01*
X201437543Y-68418138D01*
X201188606Y-68339359D01*
X200930555Y-68299500D01*
X200734823Y-68299500D01*
X200656891Y-68305483D01*
X200539660Y-68314483D01*
X200539645Y-68314485D01*
X200285412Y-68373979D01*
X200043239Y-68471583D01*
X200043222Y-68471592D01*
X199818795Y-68605014D01*
X199818792Y-68605017D01*
X199617344Y-68771151D01*
X199443628Y-68966075D01*
X199443624Y-68966081D01*
X199301693Y-69185247D01*
X199301693Y-69185248D01*
X199194886Y-69423500D01*
X199194882Y-69423511D01*
X199173101Y-69502773D01*
X199125693Y-69675287D01*
X199123742Y-69692187D01*
X199095748Y-69934673D01*
X198730835Y-69934673D01*
X198702920Y-65340000D01*
X212129819Y-65340000D01*
X212137827Y-65390559D01*
X212148426Y-65457482D01*
X212148426Y-65457484D01*
X212179448Y-65518367D01*
X212202427Y-65563465D01*
X212210826Y-65571864D01*
X212232218Y-65617739D01*
X212232500Y-65624189D01*
X212232500Y-94122661D01*
X212230632Y-94134109D01*
X212231347Y-94134209D01*
X212230399Y-94140998D01*
X212232460Y-94185559D01*
X212232500Y-94187268D01*
X212232500Y-94205713D01*
X212233213Y-94209532D01*
X212233804Y-94214622D01*
X212235192Y-94244633D01*
X212235192Y-94244636D01*
X212239674Y-94254787D01*
X212244718Y-94271074D01*
X212246757Y-94281981D01*
X212256408Y-94297569D01*
X212262564Y-94307510D01*
X212264956Y-94312048D01*
X212277096Y-94339541D01*
X212284943Y-94347388D01*
X212295532Y-94360756D01*
X212301373Y-94370189D01*
X212325348Y-94388294D01*
X212329211Y-94391656D01*
X213965124Y-96027568D01*
X213985887Y-96068317D01*
X213998426Y-96147482D01*
X214052427Y-96253465D01*
X214136535Y-96337573D01*
X214242518Y-96391574D01*
X214360000Y-96410181D01*
X214477482Y-96391574D01*
X214583465Y-96337573D01*
X214667573Y-96253465D01*
X214721574Y-96147482D01*
X214740181Y-96030000D01*
X214721574Y-95912518D01*
X214667573Y-95806535D01*
X214583465Y-95722427D01*
X214477482Y-95668426D01*
X214477480Y-95668425D01*
X214477478Y-95668425D01*
X214398318Y-95655887D01*
X214357569Y-95635124D01*
X212809174Y-94086729D01*
X212787782Y-94040853D01*
X212787500Y-94034403D01*
X212787500Y-86528999D01*
X217338280Y-86528999D01*
X217357115Y-86720232D01*
X217381403Y-86800300D01*
X217412895Y-86904114D01*
X217503477Y-87073581D01*
X217625380Y-87222120D01*
X217773919Y-87344023D01*
X217943386Y-87434605D01*
X218127269Y-87490385D01*
X218318500Y-87509220D01*
X218509731Y-87490385D01*
X218693614Y-87434605D01*
X218863081Y-87344023D01*
X219011620Y-87222120D01*
X219133523Y-87073581D01*
X219224105Y-86904114D01*
X219279885Y-86720231D01*
X219298720Y-86529000D01*
X219279885Y-86337769D01*
X219224105Y-86153886D01*
X219133523Y-85984419D01*
X219011620Y-85835880D01*
X218863081Y-85713977D01*
X218693614Y-85623395D01*
X218589800Y-85591903D01*
X218509732Y-85567615D01*
X218318500Y-85548780D01*
X218127267Y-85567615D01*
X217943383Y-85623396D01*
X217791312Y-85704680D01*
X217773919Y-85713977D01*
X217773916Y-85713978D01*
X217773912Y-85713982D01*
X217625380Y-85835880D01*
X217503482Y-85984412D01*
X217503476Y-85984421D01*
X217412896Y-86153883D01*
X217357115Y-86337767D01*
X217338280Y-86528999D01*
X212787500Y-86528999D01*
X212787500Y-80040000D01*
X222339819Y-80040000D01*
X222358426Y-80157482D01*
X222358426Y-80157483D01*
X222412426Y-80263464D01*
X222412427Y-80263465D01*
X222420824Y-80271862D01*
X222442218Y-80317737D01*
X222442500Y-80324189D01*
X222442500Y-104542661D01*
X222440632Y-104554109D01*
X222441347Y-104554209D01*
X222440399Y-104560998D01*
X222442460Y-104605559D01*
X222442500Y-104607268D01*
X222442500Y-104625713D01*
X222443213Y-104629532D01*
X222443803Y-104634617D01*
X222444442Y-104648425D01*
X222445192Y-104664633D01*
X222445192Y-104664636D01*
X222449674Y-104674787D01*
X222454718Y-104691074D01*
X222456757Y-104701981D01*
X222472564Y-104727510D01*
X222474956Y-104732048D01*
X222487096Y-104759541D01*
X222494943Y-104767388D01*
X222505532Y-104780756D01*
X222511373Y-104790189D01*
X222535348Y-104808294D01*
X222539211Y-104811656D01*
X222735124Y-105007569D01*
X222755887Y-105048318D01*
X222768426Y-105127482D01*
X222822427Y-105233465D01*
X222906535Y-105317573D01*
X223012518Y-105371574D01*
X223130000Y-105390181D01*
X223247482Y-105371574D01*
X223353465Y-105317573D01*
X223437573Y-105233465D01*
X223491574Y-105127482D01*
X223510181Y-105010000D01*
X223491574Y-104892518D01*
X223437573Y-104786535D01*
X223353465Y-104702427D01*
X223247482Y-104648426D01*
X223247480Y-104648425D01*
X223247478Y-104648425D01*
X223168317Y-104635887D01*
X223127568Y-104615124D01*
X223019174Y-104506729D01*
X222997782Y-104460852D01*
X222997500Y-104454403D01*
X222997500Y-80324190D01*
X223014813Y-80276624D01*
X223019174Y-80271864D01*
X223019177Y-80271861D01*
X223027573Y-80263465D01*
X223081574Y-80157482D01*
X223100181Y-80040000D01*
X223081574Y-79922518D01*
X223027573Y-79816535D01*
X222943465Y-79732427D01*
X222871814Y-79695919D01*
X222837483Y-79678426D01*
X222720000Y-79659819D01*
X222602517Y-79678426D01*
X222602516Y-79678426D01*
X222496533Y-79732428D01*
X222412428Y-79816533D01*
X222358426Y-79922516D01*
X222358426Y-79922517D01*
X222339819Y-80040000D01*
X212787500Y-80040000D01*
X212787500Y-66331123D01*
X212804813Y-66283557D01*
X212848650Y-66258247D01*
X212898500Y-66267037D01*
X212913826Y-66278797D01*
X213164318Y-66529289D01*
X213171404Y-66539137D01*
X213171910Y-66538756D01*
X213176041Y-66544227D01*
X213176042Y-66544228D01*
X213200511Y-66566535D01*
X213211785Y-66576812D01*
X213213022Y-66577993D01*
X213227203Y-66592174D01*
X213230856Y-66594676D01*
X213234858Y-66597847D01*
X213247990Y-66609818D01*
X213259065Y-66619915D01*
X213259066Y-66619915D01*
X213259067Y-66619916D01*
X213270934Y-66624513D01*
X213286022Y-66632465D01*
X213296519Y-66639656D01*
X213319500Y-66645061D01*
X213328387Y-66647151D01*
X213333289Y-66648669D01*
X213363826Y-66660500D01*
X213363827Y-66660500D01*
X213376553Y-66660500D01*
X213393496Y-66662466D01*
X213405881Y-66665379D01*
X213415273Y-66664068D01*
X213464773Y-66674640D01*
X213495899Y-66714558D01*
X213499499Y-66737358D01*
X213499500Y-75648912D01*
X213497547Y-75660889D01*
X213498174Y-75660977D01*
X213497226Y-75667765D01*
X213498367Y-75692427D01*
X213499461Y-75716102D01*
X213499500Y-75717787D01*
X213499500Y-75737850D01*
X213500311Y-75742186D01*
X213500903Y-75747281D01*
X213502415Y-75779994D01*
X213507554Y-75791632D01*
X213512600Y-75807923D01*
X213514938Y-75820432D01*
X213514939Y-75820433D01*
X213532175Y-75848274D01*
X213534566Y-75852809D01*
X213547794Y-75882765D01*
X213547795Y-75882766D01*
X213556793Y-75891764D01*
X213567380Y-75905130D01*
X213574081Y-75915952D01*
X213574082Y-75915953D01*
X213600212Y-75935686D01*
X213604082Y-75939053D01*
X217334318Y-79669289D01*
X217341404Y-79679137D01*
X217341910Y-79678756D01*
X217346043Y-79684229D01*
X217381785Y-79716812D01*
X217383022Y-79717993D01*
X217397203Y-79732174D01*
X217400856Y-79734676D01*
X217404858Y-79737847D01*
X217417990Y-79749818D01*
X217429065Y-79759915D01*
X217429066Y-79759915D01*
X217429067Y-79759916D01*
X217440934Y-79764513D01*
X217456022Y-79772465D01*
X217466519Y-79779656D01*
X217489500Y-79785061D01*
X217498387Y-79787151D01*
X217503289Y-79788669D01*
X217533826Y-79800500D01*
X217533827Y-79800500D01*
X217546553Y-79800500D01*
X217563496Y-79802466D01*
X217575881Y-79805379D01*
X217608315Y-79800854D01*
X217613426Y-79800500D01*
X220438913Y-79800500D01*
X220450889Y-79802453D01*
X220450977Y-79801826D01*
X220457765Y-79802773D01*
X220506103Y-79800538D01*
X220507788Y-79800500D01*
X220527842Y-79800500D01*
X220527844Y-79800500D01*
X220532187Y-79799687D01*
X220537266Y-79799097D01*
X220569992Y-79797585D01*
X220581639Y-79792441D01*
X220597927Y-79787398D01*
X220610433Y-79785061D01*
X220638281Y-79767818D01*
X220642794Y-79765438D01*
X220672765Y-79752206D01*
X220681761Y-79743208D01*
X220695138Y-79732614D01*
X220695439Y-79732428D01*
X220705952Y-79725919D01*
X220725687Y-79699783D01*
X220729051Y-79695919D01*
X221902798Y-78522174D01*
X221948675Y-78500782D01*
X221955124Y-78500500D01*
X223644877Y-78500500D01*
X223692443Y-78517813D01*
X223697203Y-78522174D01*
X224677825Y-79502796D01*
X224699217Y-79548672D01*
X224699499Y-79555122D01*
X224699499Y-87744889D01*
X224691433Y-87778484D01*
X224638427Y-87882513D01*
X224638426Y-87882517D01*
X224619819Y-88000000D01*
X224638426Y-88117482D01*
X224638426Y-88117483D01*
X224665941Y-88171483D01*
X224692427Y-88223465D01*
X224776535Y-88307573D01*
X224882518Y-88361574D01*
X225000000Y-88380181D01*
X225117482Y-88361574D01*
X225223465Y-88307573D01*
X225223466Y-88307571D01*
X225224904Y-88306839D01*
X225275146Y-88300669D01*
X225317599Y-88328238D01*
X225332500Y-88372773D01*
X225332500Y-97754402D01*
X225315187Y-97801968D01*
X225310826Y-97806728D01*
X224442430Y-98675124D01*
X224401681Y-98695887D01*
X224322521Y-98708425D01*
X224322515Y-98708427D01*
X224216535Y-98762427D01*
X224216534Y-98762427D01*
X224132428Y-98846533D01*
X224078426Y-98952516D01*
X224078426Y-98952517D01*
X224059819Y-99069999D01*
X224078426Y-99187482D01*
X224078426Y-99187483D01*
X224105941Y-99241484D01*
X224132427Y-99293465D01*
X224216535Y-99377573D01*
X224322518Y-99431574D01*
X224440000Y-99450181D01*
X224557482Y-99431574D01*
X224663465Y-99377573D01*
X224747573Y-99293465D01*
X224801574Y-99187482D01*
X224814111Y-99108318D01*
X224834872Y-99067571D01*
X225765676Y-98136766D01*
X225775092Y-98129995D01*
X225774656Y-98129418D01*
X225780128Y-98125286D01*
X225780128Y-98125285D01*
X225810203Y-98092293D01*
X225811339Y-98091103D01*
X225824405Y-98078039D01*
X225826603Y-98074828D01*
X225829779Y-98070820D01*
X225850022Y-98048615D01*
X225854031Y-98038264D01*
X225861983Y-98023179D01*
X225868252Y-98014029D01*
X225875132Y-97984774D01*
X225876638Y-97979908D01*
X225887500Y-97951874D01*
X225887500Y-97940778D01*
X225889466Y-97923835D01*
X225892006Y-97913038D01*
X225887854Y-97883274D01*
X225887500Y-97878165D01*
X225887500Y-94300000D01*
X229819819Y-94300000D01*
X229838426Y-94417482D01*
X229838426Y-94417483D01*
X229865941Y-94471484D01*
X229892427Y-94523465D01*
X229976535Y-94607573D01*
X230082518Y-94661574D01*
X230200000Y-94680181D01*
X230317482Y-94661574D01*
X230423465Y-94607573D01*
X230507573Y-94523465D01*
X230561574Y-94417482D01*
X230574111Y-94338318D01*
X230594872Y-94297571D01*
X238755676Y-86136766D01*
X238765092Y-86129995D01*
X238764656Y-86129418D01*
X238770128Y-86125286D01*
X238770127Y-86125285D01*
X238800203Y-86092293D01*
X238801339Y-86091103D01*
X238814405Y-86078039D01*
X238816603Y-86074828D01*
X238819779Y-86070820D01*
X238840022Y-86048615D01*
X238844031Y-86038264D01*
X238851983Y-86023179D01*
X238858252Y-86014029D01*
X238865132Y-85984774D01*
X238866640Y-85979904D01*
X238877500Y-85951874D01*
X238877499Y-85940780D01*
X238879465Y-85923838D01*
X238882006Y-85913038D01*
X238877852Y-85883261D01*
X238877500Y-85878181D01*
X238877500Y-81984188D01*
X238894813Y-81936622D01*
X238899157Y-81931880D01*
X238907573Y-81923465D01*
X238961574Y-81817482D01*
X238980181Y-81700000D01*
X238961574Y-81582518D01*
X238907573Y-81476535D01*
X238823465Y-81392427D01*
X238771483Y-81365941D01*
X238717483Y-81338426D01*
X238600000Y-81319819D01*
X238482517Y-81338426D01*
X238482516Y-81338426D01*
X238376533Y-81392428D01*
X238292428Y-81476533D01*
X238238426Y-81582516D01*
X238238426Y-81582517D01*
X238219819Y-81699999D01*
X238238426Y-81817482D01*
X238238426Y-81817483D01*
X238238427Y-81817484D01*
X238292425Y-81923462D01*
X238292428Y-81923466D01*
X238300825Y-81931863D01*
X238322217Y-81977739D01*
X238322499Y-81984189D01*
X238322499Y-85754403D01*
X238305186Y-85801969D01*
X238300825Y-85806729D01*
X230202430Y-93905124D01*
X230161681Y-93925887D01*
X230082521Y-93938425D01*
X230082515Y-93938427D01*
X229976535Y-93992427D01*
X229976534Y-93992427D01*
X229892428Y-94076533D01*
X229838426Y-94182516D01*
X229838426Y-94182517D01*
X229819819Y-94300000D01*
X225887500Y-94300000D01*
X225887500Y-75284189D01*
X225904813Y-75236623D01*
X225909165Y-75231872D01*
X225917573Y-75223465D01*
X225971574Y-75117482D01*
X225990181Y-75000000D01*
X225971574Y-74882518D01*
X225917573Y-74776535D01*
X225833465Y-74692427D01*
X225781484Y-74665941D01*
X225727483Y-74638426D01*
X225610000Y-74619819D01*
X225492517Y-74638426D01*
X225492516Y-74638426D01*
X225386533Y-74692428D01*
X225302428Y-74776533D01*
X225248426Y-74882516D01*
X225248426Y-74882517D01*
X225229819Y-75000000D01*
X225248426Y-75117482D01*
X225248426Y-75117484D01*
X225302425Y-75223462D01*
X225302427Y-75223465D01*
X225310825Y-75231863D01*
X225332218Y-75277736D01*
X225332500Y-75284188D01*
X225332500Y-79125922D01*
X225315187Y-79173488D01*
X225271350Y-79198798D01*
X225221500Y-79190008D01*
X225213906Y-79184976D01*
X225199791Y-79174317D01*
X225195920Y-79170949D01*
X224055682Y-78030711D01*
X224048597Y-78020862D01*
X224048091Y-78021245D01*
X224043958Y-78015772D01*
X224008213Y-77983186D01*
X224006976Y-77982005D01*
X223992796Y-77967825D01*
X223989149Y-77965326D01*
X223985132Y-77962144D01*
X223979263Y-77956794D01*
X223960933Y-77940084D01*
X223949061Y-77935484D01*
X223933981Y-77927536D01*
X223923480Y-77920343D01*
X223891612Y-77912848D01*
X223886713Y-77911331D01*
X223856174Y-77899500D01*
X223856173Y-77899500D01*
X223843447Y-77899500D01*
X223826504Y-77897534D01*
X223814119Y-77894621D01*
X223814117Y-77894621D01*
X223803641Y-77896082D01*
X223781684Y-77899145D01*
X223776574Y-77899500D01*
X221861088Y-77899500D01*
X221849111Y-77897546D01*
X221849024Y-77898174D01*
X221842235Y-77897226D01*
X221810972Y-77898672D01*
X221793897Y-77899461D01*
X221792213Y-77899500D01*
X221772149Y-77899500D01*
X221767815Y-77900311D01*
X221762725Y-77900902D01*
X221739044Y-77901997D01*
X221730006Y-77902415D01*
X221718363Y-77907556D01*
X221702077Y-77912599D01*
X221689572Y-77914937D01*
X221689566Y-77914939D01*
X221661728Y-77932175D01*
X221657196Y-77934564D01*
X221650123Y-77937687D01*
X221627234Y-77947793D01*
X221618234Y-77956794D01*
X221604871Y-77967379D01*
X221600182Y-77970282D01*
X221594046Y-77974082D01*
X221594044Y-77974084D01*
X221574313Y-78000212D01*
X221570946Y-78004081D01*
X220397203Y-79177826D01*
X220351327Y-79199218D01*
X220344877Y-79199500D01*
X217745124Y-79199500D01*
X217697558Y-79182187D01*
X217692798Y-79177826D01*
X217014972Y-78500000D01*
X219319819Y-78500000D01*
X219338426Y-78617482D01*
X219338426Y-78617483D01*
X219365941Y-78671484D01*
X219392427Y-78723465D01*
X219476535Y-78807573D01*
X219582518Y-78861574D01*
X219700000Y-78880181D01*
X219817482Y-78861574D01*
X219923465Y-78807573D01*
X220007573Y-78723465D01*
X220061574Y-78617482D01*
X220080181Y-78500000D01*
X220061574Y-78382518D01*
X220061573Y-78382516D01*
X220061573Y-78382515D01*
X220008566Y-78278484D01*
X220000500Y-78244888D01*
X220000500Y-76255111D01*
X220008565Y-76221517D01*
X220061574Y-76117482D01*
X220080181Y-76000000D01*
X220061574Y-75882518D01*
X220007573Y-75776535D01*
X219923465Y-75692427D01*
X219861568Y-75660889D01*
X219817483Y-75638426D01*
X219700000Y-75619819D01*
X219582517Y-75638426D01*
X219582516Y-75638426D01*
X219476533Y-75692428D01*
X219392428Y-75776533D01*
X219338426Y-75882516D01*
X219338426Y-75882517D01*
X219319819Y-76000000D01*
X219338426Y-76117482D01*
X219338426Y-76117483D01*
X219363353Y-76166405D01*
X219391434Y-76221517D01*
X219399500Y-76255111D01*
X219399500Y-78244888D01*
X219391434Y-78278484D01*
X219338426Y-78382515D01*
X219338426Y-78382517D01*
X219319819Y-78500000D01*
X217014972Y-78500000D01*
X214122174Y-75607202D01*
X214100782Y-75561326D01*
X214100500Y-75554876D01*
X214100500Y-74499999D01*
X226159819Y-74499999D01*
X226178426Y-74617482D01*
X226178426Y-74617484D01*
X226232425Y-74723462D01*
X226232427Y-74723465D01*
X226240825Y-74731863D01*
X226262218Y-74777736D01*
X226262500Y-74784188D01*
X226262500Y-92012661D01*
X226260632Y-92024109D01*
X226261347Y-92024209D01*
X226260399Y-92030998D01*
X226262459Y-92075558D01*
X226262499Y-92077265D01*
X226262499Y-92095713D01*
X226263213Y-92099533D01*
X226263803Y-92104623D01*
X226265191Y-92134632D01*
X226265192Y-92134636D01*
X226269674Y-92144787D01*
X226274718Y-92161074D01*
X226276757Y-92171981D01*
X226292564Y-92197510D01*
X226294956Y-92202048D01*
X226307096Y-92229541D01*
X226314943Y-92237388D01*
X226325532Y-92250756D01*
X226331373Y-92260189D01*
X226355348Y-92278294D01*
X226359211Y-92281656D01*
X227055124Y-92977568D01*
X227075887Y-93018317D01*
X227088426Y-93097482D01*
X227142427Y-93203465D01*
X227226535Y-93287573D01*
X227332518Y-93341574D01*
X227450000Y-93360181D01*
X227567482Y-93341574D01*
X227673465Y-93287573D01*
X227757573Y-93203465D01*
X227811574Y-93097482D01*
X227830181Y-92980000D01*
X227811574Y-92862518D01*
X227757573Y-92756535D01*
X227673465Y-92672427D01*
X227567482Y-92618426D01*
X227567480Y-92618425D01*
X227567478Y-92618425D01*
X227488317Y-92605887D01*
X227447568Y-92585124D01*
X226839173Y-91976729D01*
X226817781Y-91930853D01*
X226817500Y-91924425D01*
X226817500Y-86528999D01*
X227371280Y-86528999D01*
X227390115Y-86720232D01*
X227414403Y-86800300D01*
X227445895Y-86904114D01*
X227536477Y-87073581D01*
X227658380Y-87222120D01*
X227806919Y-87344023D01*
X227976386Y-87434605D01*
X228160269Y-87490385D01*
X228351500Y-87509220D01*
X228542731Y-87490385D01*
X228726614Y-87434605D01*
X228896081Y-87344023D01*
X229044620Y-87222120D01*
X229166523Y-87073581D01*
X229257105Y-86904114D01*
X229312885Y-86720231D01*
X229331720Y-86529000D01*
X229312885Y-86337769D01*
X229257105Y-86153886D01*
X229166523Y-85984419D01*
X229044620Y-85835880D01*
X228896081Y-85713977D01*
X228726614Y-85623395D01*
X228622800Y-85591903D01*
X228542732Y-85567615D01*
X228351500Y-85548780D01*
X228160267Y-85567615D01*
X227976383Y-85623396D01*
X227824312Y-85704680D01*
X227806919Y-85713977D01*
X227806916Y-85713978D01*
X227806912Y-85713982D01*
X227658380Y-85835880D01*
X227536482Y-85984412D01*
X227536476Y-85984421D01*
X227445896Y-86153883D01*
X227390115Y-86337767D01*
X227371280Y-86528999D01*
X226817500Y-86528999D01*
X226817500Y-74784187D01*
X226834813Y-74736622D01*
X226839157Y-74731880D01*
X226847573Y-74723465D01*
X226901574Y-74617482D01*
X226920181Y-74500000D01*
X226901574Y-74382518D01*
X226847573Y-74276535D01*
X226763465Y-74192427D01*
X226711484Y-74165941D01*
X226657483Y-74138426D01*
X226540000Y-74119819D01*
X226422517Y-74138426D01*
X226422516Y-74138426D01*
X226316533Y-74192428D01*
X226232428Y-74276533D01*
X226178426Y-74382516D01*
X226178426Y-74382517D01*
X226159819Y-74499999D01*
X214100500Y-74499999D01*
X214100500Y-72900000D01*
X226715319Y-72900000D01*
X226733926Y-73017482D01*
X226733926Y-73017483D01*
X226761441Y-73071483D01*
X226787927Y-73123465D01*
X226872035Y-73207573D01*
X226978018Y-73261574D01*
X227095500Y-73280181D01*
X227212982Y-73261574D01*
X227317017Y-73208565D01*
X227350611Y-73200500D01*
X233844877Y-73200500D01*
X233892443Y-73217813D01*
X233897203Y-73222174D01*
X239577826Y-78902797D01*
X239599218Y-78948673D01*
X239599500Y-78955123D01*
X239599500Y-86238912D01*
X239597547Y-86250889D01*
X239598174Y-86250977D01*
X239597226Y-86257765D01*
X239598371Y-86282516D01*
X239599461Y-86306102D01*
X239599500Y-86307787D01*
X239599500Y-86327850D01*
X239600311Y-86332186D01*
X239600902Y-86337277D01*
X239602037Y-86361820D01*
X239602415Y-86369994D01*
X239607554Y-86381632D01*
X239612600Y-86397923D01*
X239614938Y-86410432D01*
X239614939Y-86410434D01*
X239615876Y-86411947D01*
X239626046Y-86439321D01*
X239638426Y-86517482D01*
X239692427Y-86623465D01*
X239776535Y-86707573D01*
X239882518Y-86761574D01*
X240000000Y-86780181D01*
X240117482Y-86761574D01*
X240223465Y-86707573D01*
X240307573Y-86623465D01*
X240361574Y-86517482D01*
X240380181Y-86400000D01*
X240361574Y-86282518D01*
X240307573Y-86176535D01*
X240223465Y-86092427D01*
X240222174Y-86091136D01*
X240200782Y-86045260D01*
X240200500Y-86038810D01*
X240200500Y-78861089D01*
X240202454Y-78849115D01*
X240201826Y-78849028D01*
X240202773Y-78842237D01*
X240201443Y-78813465D01*
X240200538Y-78793897D01*
X240200500Y-78792211D01*
X240200500Y-78772157D01*
X240199688Y-78767817D01*
X240199096Y-78762727D01*
X240197585Y-78730008D01*
X240192441Y-78718360D01*
X240187398Y-78702070D01*
X240185061Y-78689567D01*
X240167821Y-78661723D01*
X240165436Y-78657196D01*
X240152206Y-78627235D01*
X240143207Y-78618236D01*
X240132615Y-78604863D01*
X240125920Y-78594049D01*
X240125919Y-78594048D01*
X240099784Y-78574312D01*
X240095920Y-78570949D01*
X234255682Y-72730711D01*
X234248597Y-72720862D01*
X234248091Y-72721245D01*
X234243958Y-72715772D01*
X234208213Y-72683186D01*
X234206976Y-72682005D01*
X234192796Y-72667825D01*
X234189149Y-72665326D01*
X234185132Y-72662144D01*
X234184338Y-72661420D01*
X234160933Y-72640084D01*
X234149061Y-72635484D01*
X234133981Y-72627536D01*
X234123480Y-72620343D01*
X234091612Y-72612848D01*
X234086713Y-72611331D01*
X234056174Y-72599500D01*
X234056173Y-72599500D01*
X234043447Y-72599500D01*
X234026504Y-72597534D01*
X234014119Y-72594621D01*
X234014117Y-72594621D01*
X234003641Y-72596082D01*
X233981684Y-72599145D01*
X233976574Y-72599500D01*
X227350611Y-72599500D01*
X227317017Y-72591434D01*
X227261905Y-72563353D01*
X227212983Y-72538426D01*
X227095500Y-72519819D01*
X226978017Y-72538426D01*
X226978016Y-72538426D01*
X226872033Y-72592428D01*
X226787928Y-72676533D01*
X226733926Y-72782516D01*
X226733926Y-72782517D01*
X226715319Y-72900000D01*
X214100500Y-72900000D01*
X214100500Y-66734500D01*
X214117813Y-66686934D01*
X214161650Y-66661624D01*
X214174500Y-66660500D01*
X217228913Y-66660500D01*
X217240889Y-66662453D01*
X217240977Y-66661826D01*
X217247765Y-66662773D01*
X217296103Y-66660538D01*
X217297788Y-66660500D01*
X217317842Y-66660500D01*
X217317844Y-66660500D01*
X217322187Y-66659687D01*
X217327266Y-66659097D01*
X217359992Y-66657585D01*
X217371639Y-66652441D01*
X217387927Y-66647398D01*
X217400433Y-66645061D01*
X217428281Y-66627818D01*
X217432794Y-66625438D01*
X217462765Y-66612206D01*
X217471763Y-66603206D01*
X217485135Y-66592615D01*
X217495952Y-66585919D01*
X217515688Y-66559782D01*
X217519043Y-66555926D01*
X217594021Y-66480950D01*
X217652799Y-66422174D01*
X217698675Y-66400782D01*
X217705124Y-66400500D01*
X218529810Y-66400500D01*
X218577376Y-66417813D01*
X218602686Y-66461650D01*
X218593896Y-66511500D01*
X218582136Y-66526826D01*
X218542428Y-66566533D01*
X218488426Y-66672516D01*
X218488426Y-66672517D01*
X218469819Y-66790000D01*
X218488426Y-66907482D01*
X218488426Y-66907483D01*
X218511855Y-66953465D01*
X218542427Y-67013465D01*
X218626535Y-67097573D01*
X218651278Y-67110180D01*
X218710015Y-67140108D01*
X218728746Y-67153717D01*
X222444318Y-70869289D01*
X222451404Y-70879137D01*
X222451910Y-70878756D01*
X222456043Y-70884229D01*
X222491785Y-70916812D01*
X222493022Y-70917993D01*
X222507203Y-70932174D01*
X222510856Y-70934676D01*
X222514858Y-70937847D01*
X222527990Y-70949818D01*
X222539065Y-70959915D01*
X222539066Y-70959915D01*
X222539067Y-70959916D01*
X222550934Y-70964513D01*
X222566022Y-70972465D01*
X222576519Y-70979656D01*
X222599500Y-70985061D01*
X222608387Y-70987151D01*
X222613289Y-70988669D01*
X222643826Y-71000500D01*
X222643827Y-71000500D01*
X222656553Y-71000500D01*
X222673496Y-71002466D01*
X222685881Y-71005379D01*
X222718315Y-71000854D01*
X222723426Y-71000500D01*
X232718913Y-71000500D01*
X232730889Y-71002453D01*
X232730977Y-71001826D01*
X232737765Y-71002773D01*
X232786103Y-71000538D01*
X232787788Y-71000500D01*
X232807842Y-71000500D01*
X232807844Y-71000500D01*
X232812187Y-70999687D01*
X232817266Y-70999097D01*
X232849992Y-70997585D01*
X232861639Y-70992441D01*
X232877927Y-70987398D01*
X232890433Y-70985061D01*
X232918281Y-70967818D01*
X232922794Y-70965438D01*
X232952765Y-70952206D01*
X232961761Y-70943208D01*
X232975138Y-70932614D01*
X232975856Y-70932170D01*
X232985952Y-70925919D01*
X233005687Y-70899783D01*
X233009051Y-70895919D01*
X233970297Y-69934673D01*
X244195748Y-69934673D01*
X244205749Y-70195594D01*
X244255462Y-70451928D01*
X244255463Y-70451931D01*
X244343717Y-70697661D01*
X244343718Y-70697663D01*
X244468456Y-70927053D01*
X244468458Y-70927056D01*
X244468459Y-70927057D01*
X244626750Y-71134716D01*
X244814886Y-71315778D01*
X244927491Y-71394982D01*
X245028457Y-71466000D01*
X245028459Y-71466001D01*
X245262456Y-71581861D01*
X245446937Y-71640242D01*
X245511395Y-71660641D01*
X245769445Y-71700500D01*
X245965171Y-71700500D01*
X245965177Y-71700500D01*
X246160344Y-71685516D01*
X246160350Y-71685514D01*
X246160354Y-71685514D01*
X246266647Y-71660640D01*
X246414586Y-71626021D01*
X246656766Y-71528414D01*
X246761752Y-71465999D01*
X246881204Y-71394985D01*
X246881205Y-71394983D01*
X246881208Y-71394982D01*
X247082652Y-71228852D01*
X247256375Y-71033920D01*
X247398306Y-70814753D01*
X247505118Y-70576489D01*
X247574307Y-70324713D01*
X247604252Y-70065325D01*
X247594251Y-69804407D01*
X247544538Y-69548073D01*
X247515231Y-69466472D01*
X247456282Y-69302338D01*
X247456281Y-69302336D01*
X247331543Y-69072946D01*
X247331541Y-69072943D01*
X247173250Y-68865284D01*
X246985114Y-68684222D01*
X246916976Y-68636295D01*
X246771542Y-68533999D01*
X246771540Y-68533998D01*
X246537543Y-68418138D01*
X246288606Y-68339359D01*
X246030555Y-68299500D01*
X245834823Y-68299500D01*
X245756891Y-68305483D01*
X245639660Y-68314483D01*
X245639645Y-68314485D01*
X245385412Y-68373979D01*
X245143239Y-68471583D01*
X245143222Y-68471592D01*
X244918795Y-68605014D01*
X244918792Y-68605017D01*
X244717344Y-68771151D01*
X244543628Y-68966075D01*
X244543624Y-68966081D01*
X244401693Y-69185247D01*
X244401693Y-69185248D01*
X244294886Y-69423500D01*
X244294882Y-69423511D01*
X244273101Y-69502773D01*
X244225693Y-69675287D01*
X244223742Y-69692187D01*
X244195748Y-69934673D01*
X233970297Y-69934673D01*
X236997488Y-66907482D01*
X241006218Y-62898751D01*
X241046966Y-62877990D01*
X241087482Y-62871574D01*
X241193465Y-62817573D01*
X241277573Y-62733465D01*
X241331574Y-62627482D01*
X241350181Y-62510000D01*
X241331574Y-62392518D01*
X241277573Y-62286535D01*
X241193465Y-62202427D01*
X241141483Y-62175941D01*
X241087483Y-62148426D01*
X240970000Y-62129819D01*
X240852517Y-62148426D01*
X240852516Y-62148426D01*
X240746533Y-62202428D01*
X240662427Y-62286534D01*
X240662427Y-62286535D01*
X240608427Y-62392515D01*
X240608425Y-62392520D01*
X240602008Y-62433034D01*
X240581245Y-62473782D01*
X232677203Y-70377826D01*
X232631327Y-70399218D01*
X232624877Y-70399500D01*
X232471309Y-70399500D01*
X232423743Y-70382187D01*
X232398433Y-70338350D01*
X232407223Y-70288500D01*
X232429492Y-70264448D01*
X232432760Y-70262207D01*
X232432765Y-70262206D01*
X232441761Y-70253208D01*
X232455138Y-70242614D01*
X232455856Y-70242170D01*
X232465952Y-70235919D01*
X232485687Y-70209783D01*
X232489051Y-70205919D01*
X235180254Y-67514716D01*
X237896218Y-64798751D01*
X237936966Y-64777990D01*
X237977482Y-64771574D01*
X238083465Y-64717573D01*
X238167573Y-64633465D01*
X238221574Y-64527482D01*
X238227990Y-64486966D01*
X238248751Y-64446218D01*
X243209288Y-59485681D01*
X243219136Y-59478599D01*
X243218753Y-59478092D01*
X243224221Y-59473961D01*
X243224228Y-59473958D01*
X243256837Y-59438186D01*
X243257995Y-59436975D01*
X243260843Y-59434127D01*
X243272174Y-59422797D01*
X243274673Y-59419147D01*
X243277848Y-59415138D01*
X243299916Y-59390933D01*
X243304515Y-59379058D01*
X243312468Y-59363973D01*
X243319656Y-59353481D01*
X243327152Y-59321609D01*
X243328667Y-59316713D01*
X243340500Y-59286173D01*
X243340500Y-59273441D01*
X243342464Y-59256508D01*
X243345379Y-59244119D01*
X243340852Y-59211668D01*
X243340499Y-59206588D01*
X243340500Y-58315112D01*
X243348566Y-58281516D01*
X243401573Y-58177484D01*
X243401573Y-58177483D01*
X243401574Y-58177482D01*
X243420181Y-58060000D01*
X243401574Y-57942518D01*
X243347573Y-57836535D01*
X243263465Y-57752427D01*
X243178914Y-57709346D01*
X243157483Y-57698426D01*
X243040000Y-57679819D01*
X242922517Y-57698426D01*
X242922516Y-57698426D01*
X242816533Y-57752428D01*
X242732428Y-57836533D01*
X242678426Y-57942516D01*
X242678426Y-57942517D01*
X242659819Y-58060000D01*
X242678426Y-58177482D01*
X242678426Y-58177484D01*
X242731434Y-58281516D01*
X242739500Y-58315112D01*
X242739500Y-59074876D01*
X242722187Y-59122442D01*
X242717826Y-59127202D01*
X237823782Y-64021245D01*
X237783034Y-64042008D01*
X237742520Y-64048425D01*
X237742515Y-64048427D01*
X237636535Y-64102427D01*
X237636534Y-64102427D01*
X237552427Y-64186534D01*
X237552427Y-64186535D01*
X237498427Y-64292515D01*
X237498425Y-64292520D01*
X237492008Y-64333034D01*
X237471245Y-64373782D01*
X232157203Y-69687826D01*
X232111327Y-69709218D01*
X232104877Y-69709500D01*
X224185124Y-69709500D01*
X224137558Y-69692187D01*
X224132798Y-69687826D01*
X221005682Y-66560711D01*
X220998597Y-66550862D01*
X220998091Y-66551245D01*
X220993958Y-66545772D01*
X220986262Y-66538756D01*
X220975764Y-66529186D01*
X220952276Y-66484347D01*
X220963105Y-66434900D01*
X221003185Y-66403982D01*
X221025618Y-66400500D01*
X227278913Y-66400500D01*
X227290889Y-66402453D01*
X227290977Y-66401826D01*
X227297765Y-66402773D01*
X227346103Y-66400538D01*
X227347788Y-66400500D01*
X227367842Y-66400500D01*
X227367844Y-66400500D01*
X227372187Y-66399687D01*
X227377265Y-66399097D01*
X227394753Y-66398289D01*
X227443067Y-66413389D01*
X227470371Y-66456012D01*
X227463890Y-66506215D01*
X227450492Y-66524536D01*
X226963782Y-67011245D01*
X226923034Y-67032008D01*
X226882520Y-67038425D01*
X226882515Y-67038427D01*
X226776535Y-67092427D01*
X226776534Y-67092427D01*
X226692428Y-67176533D01*
X226638426Y-67282516D01*
X226638426Y-67282517D01*
X226619819Y-67399999D01*
X226638426Y-67517482D01*
X226638426Y-67517483D01*
X226640145Y-67520856D01*
X226692427Y-67623465D01*
X226776535Y-67707573D01*
X226882518Y-67761574D01*
X227000000Y-67780181D01*
X227117482Y-67761574D01*
X227223465Y-67707573D01*
X227307573Y-67623465D01*
X227359565Y-67521423D01*
X227396586Y-67486902D01*
X227447136Y-67484253D01*
X227487562Y-67514716D01*
X227499500Y-67555019D01*
X227499500Y-67931260D01*
X227482187Y-67978826D01*
X227481426Y-67979719D01*
X227417119Y-68053934D01*
X227417118Y-68053936D01*
X227363302Y-68171776D01*
X227344867Y-68300000D01*
X227363302Y-68428223D01*
X227363302Y-68428224D01*
X227363303Y-68428226D01*
X227417118Y-68546063D01*
X227501951Y-68643967D01*
X227610931Y-68714004D01*
X227735228Y-68750500D01*
X227864772Y-68750500D01*
X227989069Y-68714004D01*
X228098049Y-68643967D01*
X228098053Y-68643962D01*
X228100918Y-68642121D01*
X228104693Y-68636298D01*
X228182882Y-68546063D01*
X228236697Y-68428226D01*
X228255133Y-68300000D01*
X228236697Y-68171774D01*
X228182882Y-68053937D01*
X228182880Y-68053935D01*
X228182880Y-68053934D01*
X228118574Y-67979719D01*
X228100509Y-67932433D01*
X228100500Y-67931260D01*
X228100500Y-67655122D01*
X228117813Y-67607556D01*
X228122174Y-67602796D01*
X230858259Y-64866711D01*
X233599288Y-62125681D01*
X233609136Y-62118599D01*
X233608754Y-62118092D01*
X233614225Y-62113960D01*
X233614225Y-62113959D01*
X233614228Y-62113958D01*
X233646843Y-62078181D01*
X233647977Y-62076993D01*
X233662174Y-62062797D01*
X233664668Y-62059156D01*
X233667848Y-62055138D01*
X233689916Y-62030933D01*
X233694515Y-62019058D01*
X233702468Y-62003973D01*
X233709656Y-61993481D01*
X233717152Y-61961609D01*
X233718667Y-61956713D01*
X233730500Y-61926173D01*
X233730500Y-61913441D01*
X233732464Y-61896508D01*
X233735379Y-61884119D01*
X233730854Y-61851683D01*
X233730500Y-61846573D01*
X233730500Y-54285122D01*
X233747813Y-54237556D01*
X233752163Y-54232807D01*
X237069288Y-50915681D01*
X237079136Y-50908599D01*
X237078753Y-50908092D01*
X237084221Y-50903961D01*
X237084228Y-50903958D01*
X237116837Y-50868186D01*
X237117995Y-50866975D01*
X237132174Y-50852797D01*
X237134673Y-50849147D01*
X237137848Y-50845138D01*
X237159916Y-50820933D01*
X237159918Y-50820926D01*
X237163525Y-50815102D01*
X237164598Y-50815766D01*
X237174669Y-50800301D01*
X237339290Y-50635680D01*
X237349136Y-50628599D01*
X237348753Y-50628092D01*
X237354221Y-50623961D01*
X237354228Y-50623958D01*
X237386828Y-50588196D01*
X237387964Y-50587006D01*
X237402175Y-50572797D01*
X237404674Y-50569146D01*
X237407850Y-50565136D01*
X237429916Y-50540933D01*
X237434510Y-50529070D01*
X237442468Y-50513973D01*
X237445398Y-50509697D01*
X237449657Y-50503480D01*
X237457153Y-50471607D01*
X237458669Y-50466711D01*
X237460940Y-50460851D01*
X237470500Y-50436173D01*
X237470500Y-50423446D01*
X237472466Y-50406502D01*
X237475379Y-50394119D01*
X237470853Y-50361684D01*
X237470499Y-50356571D01*
X237470499Y-49066968D01*
X237470499Y-47771082D01*
X237472455Y-47759115D01*
X237471826Y-47759028D01*
X237472773Y-47752237D01*
X237472773Y-47752235D01*
X237470538Y-47703897D01*
X237470500Y-47702211D01*
X237470500Y-47682157D01*
X237469688Y-47677817D01*
X237469096Y-47672727D01*
X237467585Y-47640008D01*
X237462441Y-47628360D01*
X237457398Y-47612070D01*
X237455061Y-47599567D01*
X237437821Y-47571723D01*
X237435436Y-47567196D01*
X237422206Y-47537235D01*
X237413207Y-47528236D01*
X237402615Y-47514863D01*
X237395920Y-47504049D01*
X237395919Y-47504048D01*
X237369784Y-47484312D01*
X237365920Y-47480949D01*
X236685682Y-46800711D01*
X236678597Y-46790862D01*
X236678091Y-46791245D01*
X236673958Y-46785772D01*
X236638213Y-46753186D01*
X236636976Y-46752005D01*
X236622796Y-46737825D01*
X236619149Y-46735326D01*
X236615132Y-46732144D01*
X236596175Y-46714863D01*
X236590933Y-46710084D01*
X236579061Y-46705484D01*
X236563981Y-46697536D01*
X236553480Y-46690343D01*
X236521612Y-46682848D01*
X236516713Y-46681331D01*
X236486174Y-46669500D01*
X236486173Y-46669500D01*
X236473447Y-46669500D01*
X236456504Y-46667534D01*
X236444119Y-46664621D01*
X236444117Y-46664621D01*
X236433641Y-46666082D01*
X236411684Y-46669145D01*
X236406574Y-46669500D01*
X236069508Y-46669500D01*
X236021942Y-46652187D01*
X236013583Y-46643960D01*
X235998053Y-46626037D01*
X235998051Y-46626035D01*
X235998049Y-46626033D01*
X235893235Y-46558673D01*
X235889068Y-46555995D01*
X235764772Y-46519500D01*
X235635228Y-46519500D01*
X235510931Y-46555995D01*
X235401954Y-46626031D01*
X235401950Y-46626034D01*
X235317118Y-46723936D01*
X235317117Y-46723938D01*
X235293665Y-46775290D01*
X235258157Y-46811365D01*
X235207767Y-46816176D01*
X235174027Y-46796874D01*
X234616095Y-46238942D01*
X234594703Y-46193066D01*
X234596645Y-46173565D01*
X234595944Y-46173465D01*
X234600851Y-46139334D01*
X234615133Y-46040000D01*
X234596697Y-45911774D01*
X234542882Y-45793937D01*
X234542880Y-45793935D01*
X234542880Y-45793934D01*
X234542879Y-45793932D01*
X234491347Y-45734461D01*
X234473282Y-45687176D01*
X234489838Y-45639341D01*
X234507265Y-45623750D01*
X234538049Y-45603967D01*
X234553582Y-45586040D01*
X234597816Y-45561430D01*
X234609508Y-45560500D01*
X237114877Y-45560500D01*
X237162443Y-45577813D01*
X237167203Y-45582174D01*
X238097826Y-46512797D01*
X238119218Y-46558673D01*
X238119500Y-46565123D01*
X238119500Y-50884876D01*
X238102187Y-50932442D01*
X238097826Y-50937202D01*
X234920708Y-54114319D01*
X234910865Y-54121405D01*
X234911245Y-54121908D01*
X234905773Y-54126040D01*
X234873174Y-54161797D01*
X234871997Y-54163029D01*
X234857822Y-54177206D01*
X234855326Y-54180851D01*
X234852145Y-54184866D01*
X234830085Y-54209065D01*
X234830083Y-54209067D01*
X234825483Y-54220941D01*
X234817536Y-54236017D01*
X234810344Y-54246517D01*
X234802847Y-54278390D01*
X234801330Y-54283288D01*
X234789499Y-54313828D01*
X234789499Y-54326557D01*
X234787534Y-54343491D01*
X234784621Y-54355878D01*
X234784620Y-54355885D01*
X234789144Y-54388307D01*
X234789499Y-54393425D01*
X234789499Y-62129876D01*
X234772186Y-62177442D01*
X234767825Y-62182202D01*
X228212947Y-68737081D01*
X228202186Y-68742098D01*
X228200024Y-68749054D01*
X228193463Y-68756565D01*
X228072203Y-68877826D01*
X228026327Y-68899218D01*
X228019877Y-68899500D01*
X224720123Y-68899500D01*
X224672557Y-68882187D01*
X224667797Y-68877826D01*
X224246807Y-68456836D01*
X224225415Y-68410960D01*
X224225163Y-68405216D01*
X224225132Y-68405003D01*
X224225133Y-68405000D01*
X224206697Y-68276774D01*
X224152882Y-68158937D01*
X224068049Y-68061033D01*
X224001032Y-68017964D01*
X223959068Y-67990995D01*
X223834772Y-67954500D01*
X223705228Y-67954500D01*
X223580931Y-67990995D01*
X223471954Y-68061031D01*
X223471950Y-68061034D01*
X223387119Y-68158935D01*
X223387118Y-68158936D01*
X223387118Y-68158937D01*
X223381255Y-68171776D01*
X223333302Y-68276776D01*
X223314867Y-68405000D01*
X223333302Y-68533223D01*
X223333302Y-68533224D01*
X223333303Y-68533226D01*
X223387118Y-68651063D01*
X223471951Y-68748967D01*
X223580931Y-68819004D01*
X223705228Y-68855500D01*
X223764877Y-68855500D01*
X223812443Y-68872813D01*
X223817203Y-68877174D01*
X224309318Y-69369289D01*
X224316404Y-69379137D01*
X224316910Y-69378756D01*
X224321043Y-69384229D01*
X224356785Y-69416812D01*
X224358022Y-69417993D01*
X224372203Y-69432174D01*
X224375856Y-69434676D01*
X224379858Y-69437847D01*
X224404067Y-69459916D01*
X224415934Y-69464513D01*
X224431021Y-69472465D01*
X224441520Y-69479657D01*
X224473394Y-69487154D01*
X224478283Y-69488667D01*
X224508827Y-69500500D01*
X224521553Y-69500500D01*
X224538488Y-69502464D01*
X224550881Y-69505379D01*
X224583315Y-69500854D01*
X224588426Y-69500500D01*
X228113913Y-69500500D01*
X228125889Y-69502453D01*
X228125977Y-69501826D01*
X228132765Y-69502773D01*
X228181103Y-69500538D01*
X228182788Y-69500500D01*
X228202842Y-69500500D01*
X228202844Y-69500500D01*
X228207187Y-69499687D01*
X228212266Y-69499097D01*
X228244992Y-69497585D01*
X228256639Y-69492441D01*
X228272927Y-69487398D01*
X228285433Y-69485061D01*
X228313281Y-69467818D01*
X228317794Y-69465438D01*
X228347765Y-69452206D01*
X228356761Y-69443208D01*
X228370138Y-69432614D01*
X228370856Y-69432170D01*
X228380952Y-69425919D01*
X228400687Y-69399783D01*
X228404051Y-69395919D01*
X231762144Y-66037826D01*
X234079969Y-63720000D01*
X236229819Y-63720000D01*
X236248426Y-63837482D01*
X236248426Y-63837483D01*
X236275941Y-63891484D01*
X236302427Y-63943465D01*
X236386535Y-64027573D01*
X236492518Y-64081574D01*
X236610000Y-64100181D01*
X236727482Y-64081574D01*
X236833465Y-64027573D01*
X236917573Y-63943465D01*
X236971574Y-63837482D01*
X236990181Y-63720000D01*
X236971574Y-63602518D01*
X236918565Y-63498483D01*
X236910500Y-63464888D01*
X236910500Y-59835112D01*
X236918566Y-59801516D01*
X236971573Y-59697484D01*
X236971573Y-59697483D01*
X236971574Y-59697482D01*
X236990181Y-59580000D01*
X236971574Y-59462518D01*
X236917573Y-59356535D01*
X236833465Y-59272427D01*
X236777905Y-59244118D01*
X236727483Y-59218426D01*
X236610000Y-59199819D01*
X236492517Y-59218426D01*
X236492516Y-59218426D01*
X236386533Y-59272428D01*
X236302428Y-59356533D01*
X236248426Y-59462516D01*
X236248426Y-59462517D01*
X236229819Y-59580000D01*
X236248426Y-59697482D01*
X236248426Y-59697484D01*
X236301434Y-59801516D01*
X236309500Y-59835112D01*
X236309500Y-63464888D01*
X236301434Y-63498484D01*
X236248426Y-63602516D01*
X236229819Y-63720000D01*
X234079969Y-63720000D01*
X235259288Y-62540681D01*
X235269136Y-62533599D01*
X235268753Y-62533092D01*
X235274221Y-62528961D01*
X235274228Y-62528958D01*
X235306837Y-62493186D01*
X235307995Y-62491975D01*
X235322174Y-62477797D01*
X235324673Y-62474147D01*
X235327848Y-62470138D01*
X235349916Y-62445933D01*
X235354514Y-62434063D01*
X235362465Y-62418977D01*
X235369657Y-62408480D01*
X235377153Y-62376607D01*
X235378669Y-62371711D01*
X235387228Y-62349620D01*
X235390500Y-62341173D01*
X235390500Y-62328446D01*
X235392466Y-62311502D01*
X235395379Y-62299119D01*
X235390852Y-62266668D01*
X235390499Y-62261588D01*
X235390499Y-54819999D01*
X240479819Y-54819999D01*
X240498426Y-54937482D01*
X240498426Y-54937483D01*
X240521523Y-54982813D01*
X240552427Y-55043465D01*
X240636535Y-55127573D01*
X240740497Y-55180544D01*
X240742516Y-55181573D01*
X240742517Y-55181574D01*
X240752804Y-55183203D01*
X240783032Y-55187990D01*
X240823782Y-55208753D01*
X241307826Y-55692797D01*
X241329218Y-55738673D01*
X241329500Y-55745123D01*
X241329500Y-58554888D01*
X241321434Y-58588484D01*
X241268426Y-58692515D01*
X241268426Y-58692517D01*
X241249819Y-58809999D01*
X241268426Y-58927482D01*
X241268426Y-58927483D01*
X241274804Y-58940000D01*
X241322427Y-59033465D01*
X241406535Y-59117573D01*
X241512518Y-59171574D01*
X241630000Y-59190181D01*
X241747482Y-59171574D01*
X241853465Y-59117573D01*
X241937573Y-59033465D01*
X241991574Y-58927482D01*
X242010181Y-58810000D01*
X241991574Y-58692518D01*
X241991573Y-58692516D01*
X241991573Y-58692515D01*
X241938566Y-58588484D01*
X241930500Y-58554888D01*
X241930500Y-55651089D01*
X241932454Y-55639115D01*
X241931826Y-55639028D01*
X241932773Y-55632237D01*
X241930812Y-55589819D01*
X241930538Y-55583897D01*
X241930500Y-55582211D01*
X241930500Y-55562157D01*
X241929688Y-55557817D01*
X241929096Y-55552727D01*
X241927585Y-55520008D01*
X241922442Y-55508360D01*
X241917398Y-55492069D01*
X241916263Y-55485996D01*
X241915061Y-55479567D01*
X241897826Y-55451731D01*
X241895437Y-55447199D01*
X241882206Y-55417234D01*
X241873206Y-55408234D01*
X241862615Y-55394862D01*
X241855921Y-55384051D01*
X241855918Y-55384047D01*
X241829793Y-55364319D01*
X241825922Y-55360951D01*
X241248753Y-54783781D01*
X241227990Y-54743030D01*
X241221574Y-54702517D01*
X241221573Y-54702516D01*
X241220544Y-54700496D01*
X241167573Y-54596535D01*
X241083465Y-54512427D01*
X241005685Y-54472796D01*
X240977483Y-54458426D01*
X240860000Y-54439819D01*
X240742517Y-54458426D01*
X240742516Y-54458426D01*
X240636533Y-54512428D01*
X240552428Y-54596533D01*
X240498426Y-54702516D01*
X240498426Y-54702517D01*
X240479819Y-54819999D01*
X235390499Y-54819999D01*
X235390499Y-54525121D01*
X235407812Y-54477556D01*
X235412162Y-54472807D01*
X238299427Y-51585542D01*
X241541500Y-51585542D01*
X241582443Y-51751654D01*
X241661950Y-51903141D01*
X241775399Y-52031199D01*
X241916198Y-52128385D01*
X241916199Y-52128385D01*
X241916199Y-52128386D01*
X242008736Y-52163480D01*
X242076164Y-52189052D01*
X242203389Y-52204500D01*
X243396611Y-52204500D01*
X243523836Y-52189052D01*
X243666360Y-52135000D01*
X243683800Y-52128386D01*
X243683800Y-52128385D01*
X243683802Y-52128385D01*
X243824601Y-52031199D01*
X243938050Y-51903141D01*
X244017557Y-51751654D01*
X244058500Y-51585542D01*
X244058500Y-51414458D01*
X244017557Y-51248346D01*
X243938050Y-51096859D01*
X243824601Y-50968801D01*
X243683802Y-50871615D01*
X243683800Y-50871614D01*
X243683800Y-50871613D01*
X243602720Y-50840864D01*
X245124500Y-50840864D01*
X245139310Y-50962840D01*
X245139312Y-50962844D01*
X245197481Y-51116225D01*
X245290669Y-51251231D01*
X245413449Y-51360004D01*
X245413454Y-51360008D01*
X245558705Y-51436242D01*
X245717979Y-51475500D01*
X245717983Y-51475500D01*
X245882017Y-51475500D01*
X245882021Y-51475500D01*
X246041295Y-51436242D01*
X246186546Y-51360008D01*
X246309332Y-51251229D01*
X246402518Y-51116226D01*
X246460688Y-50962845D01*
X246466415Y-50915684D01*
X246471766Y-50871613D01*
X246475500Y-50840857D01*
X246475500Y-49359143D01*
X246466738Y-49286979D01*
X246460689Y-49237159D01*
X246460688Y-49237157D01*
X246460688Y-49237155D01*
X246402518Y-49083774D01*
X246309332Y-48948771D01*
X246309330Y-48948768D01*
X246186550Y-48839995D01*
X246186547Y-48839993D01*
X246186546Y-48839992D01*
X246041295Y-48763758D01*
X245882021Y-48724500D01*
X245717979Y-48724500D01*
X245558705Y-48763758D01*
X245558703Y-48763758D01*
X245558703Y-48763759D01*
X245413452Y-48839993D01*
X245413449Y-48839995D01*
X245290669Y-48948768D01*
X245197481Y-49083774D01*
X245139312Y-49237155D01*
X245139310Y-49237159D01*
X245124500Y-49359135D01*
X245124500Y-50840864D01*
X243602720Y-50840864D01*
X243523840Y-50810949D01*
X243523836Y-50810948D01*
X243523834Y-50810947D01*
X243523826Y-50810946D01*
X243396618Y-50795500D01*
X243396611Y-50795500D01*
X242203389Y-50795500D01*
X242203381Y-50795500D01*
X242076173Y-50810946D01*
X242076159Y-50810949D01*
X241916199Y-50871613D01*
X241916199Y-50871614D01*
X241775399Y-50968801D01*
X241661950Y-51096858D01*
X241615144Y-51186040D01*
X241582443Y-51248346D01*
X241541500Y-51414458D01*
X241541500Y-51585542D01*
X238299427Y-51585542D01*
X238589288Y-51295681D01*
X238599136Y-51288599D01*
X238598753Y-51288092D01*
X238604221Y-51283961D01*
X238604228Y-51283958D01*
X238636837Y-51248186D01*
X238637995Y-51246975D01*
X238644119Y-51240851D01*
X238652174Y-51232797D01*
X238654673Y-51229147D01*
X238657848Y-51225138D01*
X238679916Y-51200933D01*
X238684515Y-51189058D01*
X238692468Y-51173973D01*
X238699656Y-51163481D01*
X238707152Y-51131609D01*
X238708667Y-51126713D01*
X238720500Y-51096173D01*
X238720500Y-51083441D01*
X238722464Y-51066508D01*
X238725379Y-51054119D01*
X238720854Y-51021683D01*
X238720500Y-51016573D01*
X238720500Y-50040864D01*
X239124500Y-50040864D01*
X239139310Y-50162840D01*
X239139312Y-50162844D01*
X239197481Y-50316225D01*
X239290669Y-50451231D01*
X239413449Y-50560004D01*
X239413454Y-50560008D01*
X239558705Y-50636242D01*
X239717979Y-50675500D01*
X239717983Y-50675500D01*
X239882017Y-50675500D01*
X239882021Y-50675500D01*
X240041295Y-50636242D01*
X240186546Y-50560008D01*
X240289154Y-50469105D01*
X240309330Y-50451231D01*
X240309330Y-50451230D01*
X240309332Y-50451229D01*
X240402518Y-50316226D01*
X240460688Y-50162845D01*
X240475500Y-50040857D01*
X240475500Y-48850936D01*
X241795631Y-48850936D01*
X241826444Y-49052071D01*
X241897113Y-49242886D01*
X241897114Y-49242887D01*
X241958751Y-49341776D01*
X242004748Y-49415571D01*
X242144941Y-49563053D01*
X242311951Y-49679295D01*
X242498942Y-49759540D01*
X242498947Y-49759541D01*
X242698252Y-49800499D01*
X242698257Y-49800499D01*
X242698259Y-49800500D01*
X242698260Y-49800500D01*
X242850741Y-49800500D01*
X242850742Y-49800500D01*
X242900341Y-49795456D01*
X243002434Y-49785075D01*
X243002435Y-49785074D01*
X243002438Y-49785074D01*
X243196588Y-49724159D01*
X243374502Y-49625409D01*
X243528895Y-49492866D01*
X243653448Y-49331958D01*
X243743060Y-49149271D01*
X243794063Y-48952285D01*
X243804369Y-48749064D01*
X243773556Y-48547929D01*
X243702886Y-48357113D01*
X243595252Y-48184429D01*
X243455059Y-48036947D01*
X243445796Y-48030500D01*
X243365469Y-47974591D01*
X243288049Y-47920705D01*
X243271322Y-47913527D01*
X243101058Y-47840460D01*
X243101052Y-47840458D01*
X242901747Y-47799500D01*
X242901741Y-47799500D01*
X242749258Y-47799500D01*
X242749250Y-47799500D01*
X242597565Y-47814924D01*
X242597560Y-47814926D01*
X242403417Y-47875838D01*
X242403412Y-47875840D01*
X242225498Y-47974591D01*
X242225495Y-47974593D01*
X242071104Y-48107135D01*
X242071099Y-48107140D01*
X241946551Y-48268043D01*
X241856941Y-48450727D01*
X241856939Y-48450731D01*
X241805936Y-48647718D01*
X241800797Y-48749064D01*
X241795631Y-48850936D01*
X240475500Y-48850936D01*
X240475500Y-48559143D01*
X240468583Y-48502174D01*
X240460689Y-48437159D01*
X240460688Y-48437157D01*
X240460688Y-48437155D01*
X240402518Y-48283774D01*
X240309332Y-48148771D01*
X240309330Y-48148768D01*
X240186550Y-48039995D01*
X240186547Y-48039993D01*
X240186546Y-48039992D01*
X240041295Y-47963758D01*
X239882021Y-47924500D01*
X239717979Y-47924500D01*
X239558705Y-47963758D01*
X239558703Y-47963758D01*
X239558703Y-47963759D01*
X239413452Y-48039993D01*
X239413449Y-48039995D01*
X239290669Y-48148768D01*
X239197481Y-48283774D01*
X239139312Y-48437155D01*
X239139310Y-48437159D01*
X239124500Y-48559135D01*
X239124500Y-50040864D01*
X238720500Y-50040864D01*
X238720500Y-46471093D01*
X238722454Y-46459116D01*
X238721827Y-46459029D01*
X238722774Y-46452238D01*
X238720539Y-46403908D01*
X238720500Y-46402199D01*
X238720500Y-46382155D01*
X238720499Y-46382153D01*
X238719689Y-46377819D01*
X238719097Y-46372717D01*
X238717585Y-46340009D01*
X238712444Y-46328366D01*
X238707398Y-46312071D01*
X238705061Y-46299568D01*
X238705060Y-46299566D01*
X238687824Y-46271728D01*
X238685434Y-46267196D01*
X238672206Y-46237235D01*
X238663207Y-46228236D01*
X238652615Y-46214863D01*
X238645920Y-46204049D01*
X238645919Y-46204048D01*
X238619784Y-46184312D01*
X238615920Y-46180949D01*
X237975835Y-45540864D01*
X239424500Y-45540864D01*
X239439310Y-45662840D01*
X239439311Y-45662843D01*
X239439312Y-45662845D01*
X239448540Y-45687176D01*
X239497481Y-45816225D01*
X239590669Y-45951231D01*
X239713449Y-46060004D01*
X239713454Y-46060008D01*
X239858705Y-46136242D01*
X240017979Y-46175500D01*
X240017983Y-46175500D01*
X240182017Y-46175500D01*
X240182021Y-46175500D01*
X240341295Y-46136242D01*
X240486546Y-46060008D01*
X240570218Y-45985881D01*
X240609330Y-45951231D01*
X240609330Y-45951230D01*
X240609332Y-45951229D01*
X240702518Y-45816226D01*
X240760688Y-45662845D01*
X240760769Y-45662183D01*
X240772503Y-45565538D01*
X240775499Y-45540864D01*
X244824500Y-45540864D01*
X244839310Y-45662840D01*
X244839311Y-45662843D01*
X244839312Y-45662845D01*
X244848540Y-45687176D01*
X244897481Y-45816225D01*
X244990669Y-45951231D01*
X245113449Y-46060004D01*
X245113454Y-46060008D01*
X245258705Y-46136242D01*
X245417979Y-46175500D01*
X245417983Y-46175500D01*
X245582017Y-46175500D01*
X245582021Y-46175500D01*
X245741295Y-46136242D01*
X245886546Y-46060008D01*
X245970218Y-45985881D01*
X246009330Y-45951231D01*
X246009330Y-45951230D01*
X246009332Y-45951229D01*
X246102518Y-45816226D01*
X246160688Y-45662845D01*
X246160769Y-45662183D01*
X246172503Y-45565538D01*
X246175500Y-45540857D01*
X246175500Y-44059143D01*
X246167453Y-43992866D01*
X246160689Y-43937159D01*
X246160688Y-43937157D01*
X246160688Y-43937155D01*
X246102518Y-43783774D01*
X246060648Y-43723115D01*
X246009330Y-43648768D01*
X245886550Y-43539995D01*
X245886547Y-43539993D01*
X245886546Y-43539992D01*
X245741295Y-43463758D01*
X245582021Y-43424500D01*
X245417979Y-43424500D01*
X245258705Y-43463758D01*
X245258703Y-43463758D01*
X245258703Y-43463759D01*
X245113452Y-43539993D01*
X245113449Y-43539995D01*
X244990669Y-43648768D01*
X244897481Y-43783774D01*
X244839312Y-43937155D01*
X244839310Y-43937159D01*
X244824500Y-44059135D01*
X244824500Y-45540864D01*
X240775499Y-45540864D01*
X240775500Y-45540857D01*
X240775500Y-44059143D01*
X240767453Y-43992866D01*
X240760689Y-43937159D01*
X240760688Y-43937157D01*
X240760688Y-43937155D01*
X240702518Y-43783774D01*
X240660648Y-43723115D01*
X240609330Y-43648768D01*
X240486550Y-43539995D01*
X240486547Y-43539993D01*
X240486546Y-43539992D01*
X240341295Y-43463758D01*
X240182021Y-43424500D01*
X240017979Y-43424500D01*
X239858705Y-43463758D01*
X239858703Y-43463758D01*
X239858703Y-43463759D01*
X239713452Y-43539993D01*
X239713449Y-43539995D01*
X239590669Y-43648768D01*
X239497481Y-43783774D01*
X239439312Y-43937155D01*
X239439310Y-43937159D01*
X239424500Y-44059135D01*
X239424500Y-45540864D01*
X237975835Y-45540864D01*
X237525682Y-45090711D01*
X237518597Y-45080862D01*
X237518091Y-45081245D01*
X237513958Y-45075772D01*
X237478213Y-45043186D01*
X237476976Y-45042005D01*
X237462796Y-45027825D01*
X237459149Y-45025326D01*
X237455132Y-45022144D01*
X237446127Y-45013935D01*
X237430933Y-45000084D01*
X237419061Y-44995484D01*
X237403981Y-44987536D01*
X237393480Y-44980343D01*
X237361612Y-44972848D01*
X237356713Y-44971331D01*
X237326174Y-44959500D01*
X237326173Y-44959500D01*
X237313447Y-44959500D01*
X237296504Y-44957534D01*
X237284119Y-44954621D01*
X237284117Y-44954621D01*
X237273641Y-44956082D01*
X237251684Y-44959145D01*
X237246574Y-44959500D01*
X234609508Y-44959500D01*
X234561942Y-44942187D01*
X234553583Y-44933960D01*
X234538053Y-44916037D01*
X234538050Y-44916035D01*
X234538049Y-44916033D01*
X234520673Y-44904866D01*
X234490019Y-44864585D01*
X234492428Y-44814023D01*
X234526775Y-44776839D01*
X234527087Y-44776680D01*
X234623465Y-44727573D01*
X234707573Y-44643465D01*
X234761574Y-44537482D01*
X234780181Y-44420000D01*
X234761574Y-44302518D01*
X234707573Y-44196535D01*
X234623465Y-44112427D01*
X234553019Y-44076533D01*
X234517483Y-44058426D01*
X234400000Y-44039819D01*
X234282517Y-44058426D01*
X234282516Y-44058426D01*
X234215967Y-44092335D01*
X234178482Y-44111434D01*
X234144889Y-44119500D01*
X233861088Y-44119500D01*
X233849111Y-44117546D01*
X233849024Y-44118174D01*
X233842235Y-44117226D01*
X233810972Y-44118672D01*
X233793897Y-44119461D01*
X233792213Y-44119500D01*
X233772149Y-44119500D01*
X233767815Y-44120311D01*
X233762725Y-44120902D01*
X233739044Y-44121997D01*
X233730006Y-44122415D01*
X233718363Y-44127556D01*
X233702077Y-44132599D01*
X233689572Y-44134937D01*
X233689566Y-44134939D01*
X233661728Y-44152175D01*
X233657196Y-44154564D01*
X233650123Y-44157687D01*
X233627234Y-44167793D01*
X233618234Y-44176794D01*
X233604870Y-44187380D01*
X233594046Y-44194082D01*
X233594044Y-44194084D01*
X233574313Y-44220212D01*
X233570946Y-44224081D01*
X233312271Y-44482757D01*
X232977203Y-44817826D01*
X232931327Y-44839218D01*
X232924877Y-44839500D01*
X229731088Y-44839500D01*
X229719111Y-44837546D01*
X229719024Y-44838174D01*
X229712235Y-44837226D01*
X229680972Y-44838672D01*
X229663897Y-44839461D01*
X229662213Y-44839500D01*
X229642149Y-44839500D01*
X229637815Y-44840311D01*
X229632725Y-44840902D01*
X229609044Y-44841997D01*
X229600006Y-44842415D01*
X229588363Y-44847556D01*
X229572077Y-44852599D01*
X229559572Y-44854937D01*
X229559566Y-44854939D01*
X229531728Y-44872175D01*
X229527196Y-44874564D01*
X229520123Y-44877687D01*
X229497234Y-44887793D01*
X229488234Y-44896794D01*
X229474870Y-44907380D01*
X229464046Y-44914082D01*
X229464044Y-44914084D01*
X229444313Y-44940212D01*
X229440946Y-44944081D01*
X228640708Y-45744319D01*
X228630865Y-45751405D01*
X228631245Y-45751908D01*
X228625773Y-45756040D01*
X228593174Y-45791797D01*
X228591997Y-45793029D01*
X228577822Y-45807206D01*
X228575326Y-45810851D01*
X228572145Y-45814866D01*
X228550085Y-45839065D01*
X228550083Y-45839067D01*
X228545483Y-45850941D01*
X228537536Y-45866017D01*
X228530344Y-45876517D01*
X228522847Y-45908390D01*
X228521330Y-45913288D01*
X228509498Y-45943831D01*
X228508411Y-45949648D01*
X228482651Y-45993222D01*
X228434908Y-46010043D01*
X228387523Y-45992240D01*
X228367798Y-45965529D01*
X228344347Y-45911540D01*
X228248932Y-45794259D01*
X228125416Y-45707072D01*
X228125413Y-45707071D01*
X227982957Y-45656442D01*
X227982945Y-45656440D01*
X227945000Y-45653843D01*
X227944999Y-46009432D01*
X227898160Y-45996105D01*
X227795000Y-46005664D01*
X227795000Y-45653834D01*
X227684087Y-45676883D01*
X227684085Y-45676884D01*
X227549842Y-45746443D01*
X227439347Y-45849639D01*
X227360791Y-45978817D01*
X227360791Y-45978818D01*
X227320000Y-46124402D01*
X227320000Y-46525000D01*
X227570000Y-46525000D01*
X227570000Y-46675000D01*
X227320000Y-46675000D01*
X227320000Y-47037627D01*
X227335415Y-47149779D01*
X227395652Y-47288459D01*
X227491067Y-47405740D01*
X227614583Y-47492927D01*
X227614586Y-47492928D01*
X227757043Y-47543557D01*
X227757053Y-47543559D01*
X227794999Y-47546155D01*
X227795000Y-47546155D01*
X227794999Y-47190567D01*
X227841840Y-47203895D01*
X227945000Y-47194335D01*
X227945000Y-47546162D01*
X228055911Y-47523116D01*
X228055913Y-47523115D01*
X228190157Y-47453556D01*
X228300652Y-47350361D01*
X228372273Y-47232586D01*
X228411780Y-47200940D01*
X228462386Y-47202092D01*
X228500411Y-47235503D01*
X228509500Y-47271035D01*
X228509500Y-53584887D01*
X228501434Y-53618482D01*
X228448427Y-53722513D01*
X228448426Y-53722517D01*
X228429819Y-53840000D01*
X228448426Y-53957482D01*
X228448426Y-53957483D01*
X228464455Y-53988941D01*
X228502427Y-54063465D01*
X228586535Y-54147573D01*
X228692518Y-54201574D01*
X228810000Y-54220181D01*
X228927482Y-54201574D01*
X229033465Y-54147573D01*
X229117573Y-54063465D01*
X229171574Y-53957482D01*
X229190181Y-53840000D01*
X229171574Y-53722518D01*
X229171572Y-53722515D01*
X229171572Y-53722513D01*
X229118566Y-53618482D01*
X229110500Y-53584887D01*
X229110500Y-46155123D01*
X229127813Y-46107557D01*
X229132174Y-46102797D01*
X229451039Y-45783932D01*
X229604595Y-45630376D01*
X229650470Y-45608985D01*
X229652301Y-45609475D01*
X229663970Y-45571950D01*
X229670525Y-45564446D01*
X229745905Y-45489067D01*
X229772799Y-45462174D01*
X229818675Y-45440782D01*
X229825124Y-45440500D01*
X229943935Y-45440500D01*
X229991501Y-45457813D01*
X230016811Y-45501650D01*
X230008021Y-45551500D01*
X229969244Y-45584037D01*
X229964783Y-45585503D01*
X229860931Y-45615995D01*
X229762863Y-45679019D01*
X229726323Y-45687271D01*
X229723987Y-45713977D01*
X229712846Y-45731162D01*
X229667121Y-45783932D01*
X229667119Y-45783934D01*
X229613302Y-45901776D01*
X229594867Y-46030000D01*
X229613302Y-46158223D01*
X229613302Y-46158224D01*
X229613303Y-46158226D01*
X229667118Y-46276063D01*
X229751951Y-46373967D01*
X229860931Y-46444004D01*
X229985228Y-46480500D01*
X230044877Y-46480500D01*
X230092443Y-46497813D01*
X230097203Y-46502174D01*
X230607826Y-47012797D01*
X230629218Y-47058673D01*
X230629500Y-47065123D01*
X230629500Y-53884876D01*
X230612187Y-53932442D01*
X230607826Y-53937202D01*
X223004264Y-61540763D01*
X222994421Y-61547849D01*
X222994801Y-61548352D01*
X222989329Y-61552484D01*
X222956730Y-61588241D01*
X222955553Y-61589473D01*
X222941378Y-61603650D01*
X222938882Y-61607295D01*
X222935701Y-61611310D01*
X222913641Y-61635509D01*
X222913639Y-61635511D01*
X222909039Y-61647385D01*
X222901092Y-61662461D01*
X222893900Y-61672961D01*
X222886403Y-61704834D01*
X222884886Y-61709732D01*
X222873055Y-61740272D01*
X222871796Y-61747012D01*
X222868819Y-61746455D01*
X222855743Y-61782383D01*
X222854982Y-61783276D01*
X222790675Y-61857491D01*
X222790674Y-61857492D01*
X222736858Y-61975332D01*
X222718423Y-62103556D01*
X222736858Y-62231779D01*
X222736858Y-62231780D01*
X222736859Y-62231782D01*
X222790674Y-62349619D01*
X222875507Y-62447523D01*
X222984487Y-62517560D01*
X223108784Y-62554056D01*
X223238328Y-62554056D01*
X223362625Y-62517560D01*
X223415493Y-62483583D01*
X223464867Y-62472431D01*
X223509859Y-62495626D01*
X223529416Y-62542314D01*
X223529500Y-62545836D01*
X223529500Y-64624876D01*
X223512187Y-64672442D01*
X223507826Y-64677202D01*
X223128235Y-65056792D01*
X223114870Y-65067379D01*
X223104048Y-65074080D01*
X223104044Y-65074084D01*
X223084313Y-65100211D01*
X223080947Y-65104080D01*
X223007204Y-65177825D01*
X222961328Y-65199218D01*
X222954877Y-65199500D01*
X220668905Y-65199500D01*
X220656928Y-65197546D01*
X220656841Y-65198174D01*
X220650052Y-65197226D01*
X220618789Y-65198672D01*
X220601714Y-65199461D01*
X220600030Y-65199500D01*
X220579967Y-65199500D01*
X220575633Y-65200311D01*
X220570541Y-65200902D01*
X220541949Y-65202224D01*
X220537825Y-65202415D01*
X220536672Y-65202924D01*
X220536058Y-65203195D01*
X220506171Y-65209500D01*
X214250604Y-65209500D01*
X214203038Y-65192187D01*
X214185935Y-65166833D01*
X214184219Y-65167708D01*
X214160349Y-65120862D01*
X214127573Y-65056535D01*
X214043465Y-64972427D01*
X213942648Y-64921058D01*
X213937483Y-64918426D01*
X213820000Y-64899819D01*
X213702517Y-64918426D01*
X213702516Y-64918426D01*
X213596533Y-64972428D01*
X213512428Y-65056533D01*
X213470434Y-65138950D01*
X213433413Y-65173472D01*
X213382864Y-65176120D01*
X213342438Y-65145657D01*
X213330500Y-65105354D01*
X213330500Y-63245122D01*
X213347813Y-63197556D01*
X213352163Y-63192807D01*
X214452797Y-62092173D01*
X214498674Y-62070782D01*
X214505123Y-62070500D01*
X217414889Y-62070500D01*
X217448482Y-62078565D01*
X217552518Y-62131574D01*
X217670000Y-62150181D01*
X217787482Y-62131574D01*
X217893465Y-62077573D01*
X217977573Y-61993465D01*
X218031574Y-61887482D01*
X218050181Y-61770000D01*
X218031574Y-61652518D01*
X217977573Y-61546535D01*
X217893465Y-61462427D01*
X217841484Y-61435941D01*
X217787483Y-61408426D01*
X217670000Y-61389819D01*
X217552517Y-61408426D01*
X217552516Y-61408426D01*
X217485967Y-61442335D01*
X217448482Y-61461434D01*
X217414889Y-61469500D01*
X214411088Y-61469500D01*
X214399111Y-61467546D01*
X214399024Y-61468174D01*
X214392235Y-61467226D01*
X214360972Y-61468672D01*
X214343897Y-61469461D01*
X214342213Y-61469500D01*
X214322149Y-61469500D01*
X214317815Y-61470311D01*
X214312725Y-61470902D01*
X214289044Y-61471997D01*
X214280006Y-61472415D01*
X214268363Y-61477556D01*
X214252077Y-61482599D01*
X214239572Y-61484937D01*
X214239566Y-61484939D01*
X214211728Y-61502175D01*
X214207196Y-61504564D01*
X214200123Y-61507687D01*
X214177234Y-61517793D01*
X214168234Y-61526794D01*
X214154870Y-61537380D01*
X214144046Y-61544082D01*
X214144044Y-61544084D01*
X214124313Y-61570212D01*
X214120946Y-61574081D01*
X212860708Y-62834319D01*
X212850865Y-62841405D01*
X212851245Y-62841908D01*
X212845773Y-62846040D01*
X212813174Y-62881797D01*
X212811997Y-62883029D01*
X212797822Y-62897206D01*
X212795326Y-62900851D01*
X212792145Y-62904866D01*
X212770085Y-62929065D01*
X212770083Y-62929067D01*
X212765483Y-62940941D01*
X212757536Y-62956017D01*
X212750344Y-62966517D01*
X212742847Y-62998390D01*
X212741330Y-63003288D01*
X212729499Y-63033828D01*
X212729499Y-63046557D01*
X212727534Y-63063491D01*
X212724621Y-63075878D01*
X212724621Y-63075881D01*
X212729145Y-63108316D01*
X212729500Y-63113424D01*
X212729500Y-64909720D01*
X212712187Y-64957286D01*
X212668350Y-64982596D01*
X212632641Y-64980101D01*
X212627485Y-64978426D01*
X212510000Y-64959819D01*
X212392517Y-64978426D01*
X212392516Y-64978426D01*
X212286533Y-65032428D01*
X212202428Y-65116533D01*
X212148426Y-65222516D01*
X212148426Y-65222517D01*
X212148425Y-65222518D01*
X212148426Y-65222518D01*
X212129819Y-65340000D01*
X198702920Y-65340000D01*
X198645567Y-55900000D01*
X202034867Y-55900000D01*
X202053302Y-56028223D01*
X202107119Y-56146065D01*
X202107121Y-56146067D01*
X202171425Y-56220278D01*
X202189491Y-56267564D01*
X202189500Y-56268738D01*
X202189500Y-60628912D01*
X202187547Y-60640889D01*
X202188174Y-60640977D01*
X202187226Y-60647765D01*
X202188648Y-60678509D01*
X202189461Y-60696102D01*
X202189500Y-60697787D01*
X202189500Y-60717850D01*
X202190311Y-60722186D01*
X202190903Y-60727281D01*
X202192415Y-60759994D01*
X202197554Y-60771632D01*
X202202600Y-60787923D01*
X202204938Y-60800432D01*
X202204939Y-60800433D01*
X202222175Y-60828274D01*
X202224566Y-60832809D01*
X202237794Y-60862765D01*
X202237795Y-60862766D01*
X202246793Y-60871764D01*
X202257380Y-60885130D01*
X202264081Y-60895952D01*
X202264082Y-60895953D01*
X202290212Y-60915686D01*
X202294082Y-60919053D01*
X204513193Y-63138164D01*
X204534585Y-63184040D01*
X204534836Y-63189784D01*
X204553302Y-63318223D01*
X204553302Y-63318224D01*
X204553303Y-63318226D01*
X204607118Y-63436063D01*
X204691951Y-63533967D01*
X204800931Y-63604004D01*
X204925228Y-63640500D01*
X205054772Y-63640500D01*
X205179069Y-63604004D01*
X205288049Y-63533967D01*
X205372882Y-63436063D01*
X205426697Y-63318226D01*
X205445133Y-63190000D01*
X205426697Y-63061774D01*
X205372882Y-62943937D01*
X205288049Y-62846033D01*
X205221032Y-62802964D01*
X205179068Y-62775995D01*
X205054772Y-62739500D01*
X204995123Y-62739500D01*
X204947557Y-62722187D01*
X204942797Y-62717826D01*
X202812174Y-60587202D01*
X202790782Y-60541326D01*
X202790500Y-60534876D01*
X202790500Y-58763741D01*
X202807813Y-58716175D01*
X202851650Y-58690865D01*
X202901500Y-58699655D01*
X202904484Y-58701474D01*
X202943431Y-58726504D01*
X203067728Y-58763000D01*
X203197272Y-58763000D01*
X203321569Y-58726504D01*
X203430549Y-58656467D01*
X203515382Y-58558563D01*
X203558678Y-58463758D01*
X203594187Y-58427683D01*
X203625991Y-58420500D01*
X204780492Y-58420500D01*
X204828058Y-58437813D01*
X204836417Y-58446040D01*
X204851946Y-58463962D01*
X204851947Y-58463963D01*
X204851951Y-58463967D01*
X204960931Y-58534004D01*
X205085228Y-58570500D01*
X205214772Y-58570500D01*
X205339069Y-58534004D01*
X205448049Y-58463967D01*
X205532882Y-58366063D01*
X205586697Y-58248226D01*
X205605133Y-58120000D01*
X205586697Y-57991774D01*
X205532882Y-57873937D01*
X205448049Y-57776033D01*
X205344282Y-57709346D01*
X205339068Y-57705995D01*
X205214772Y-57669500D01*
X205085228Y-57669500D01*
X204960931Y-57705995D01*
X204851954Y-57776031D01*
X204851946Y-57776037D01*
X204836417Y-57793960D01*
X204792184Y-57818570D01*
X204780492Y-57819500D01*
X203386087Y-57819500D01*
X203374110Y-57817546D01*
X203374023Y-57818174D01*
X203367234Y-57817226D01*
X203335971Y-57818672D01*
X203318896Y-57819461D01*
X203317212Y-57819500D01*
X203297149Y-57819500D01*
X203292815Y-57820311D01*
X203287723Y-57820902D01*
X203262331Y-57822076D01*
X203255006Y-57822415D01*
X203243358Y-57827558D01*
X203227072Y-57832600D01*
X203225064Y-57832976D01*
X203214569Y-57834938D01*
X203214564Y-57834940D01*
X203186764Y-57852152D01*
X203182309Y-57854507D01*
X203179800Y-57855622D01*
X203149746Y-57862000D01*
X203067728Y-57862000D01*
X202943431Y-57898495D01*
X202904507Y-57923511D01*
X202855132Y-57934663D01*
X202810140Y-57911468D01*
X202790584Y-57864779D01*
X202790500Y-57861258D01*
X202790500Y-56268738D01*
X202807813Y-56221172D01*
X202808575Y-56220278D01*
X202872882Y-56146063D01*
X202926697Y-56028226D01*
X202945133Y-55900000D01*
X202926697Y-55771774D01*
X202872882Y-55653937D01*
X202788049Y-55556033D01*
X202713873Y-55508363D01*
X202679068Y-55485995D01*
X202554772Y-55449500D01*
X202425228Y-55449500D01*
X202300931Y-55485995D01*
X202191954Y-55556031D01*
X202191950Y-55556034D01*
X202107119Y-55653935D01*
X202107118Y-55653936D01*
X202107118Y-55653937D01*
X202093615Y-55683504D01*
X202053302Y-55771776D01*
X202034867Y-55900000D01*
X198645567Y-55900000D01*
X198644959Y-55799947D01*
X198661983Y-55752279D01*
X198705666Y-55726704D01*
X198718958Y-55725500D01*
X199789819Y-55725500D01*
X199789820Y-55725500D01*
X199833722Y-55716767D01*
X199883504Y-55683504D01*
X199916767Y-55633722D01*
X199925500Y-55589820D01*
X199925500Y-55039499D01*
X199942813Y-54991934D01*
X199986650Y-54966624D01*
X199999500Y-54965500D01*
X207664902Y-54965500D01*
X207712468Y-54982813D01*
X207717228Y-54987174D01*
X210057826Y-57327771D01*
X210079218Y-57373647D01*
X210079500Y-57380097D01*
X210079500Y-57416741D01*
X210077717Y-57432885D01*
X210077240Y-57435017D01*
X210077239Y-57435026D01*
X210078582Y-57477753D01*
X210079482Y-57506379D01*
X210079500Y-57507497D01*
X210079500Y-57537651D01*
X210080567Y-57546107D01*
X210080840Y-57549578D01*
X210082402Y-57599291D01*
X210082404Y-57599304D01*
X210089420Y-57623454D01*
X210091774Y-57634820D01*
X210094928Y-57659781D01*
X210094929Y-57659785D01*
X210102861Y-57679819D01*
X210113245Y-57706047D01*
X210114374Y-57709346D01*
X210126891Y-57752427D01*
X210128256Y-57757125D01*
X210139438Y-57776033D01*
X210141061Y-57778776D01*
X210146169Y-57789205D01*
X210155428Y-57812592D01*
X210155431Y-57812597D01*
X210184676Y-57852851D01*
X210186590Y-57855765D01*
X210211919Y-57898592D01*
X210229710Y-57916383D01*
X210237252Y-57925214D01*
X210249822Y-57942516D01*
X210252037Y-57945564D01*
X210290379Y-57977283D01*
X210292949Y-57979622D01*
X211656743Y-59343416D01*
X211666896Y-59356089D01*
X211668070Y-59357939D01*
X211720087Y-59406786D01*
X211720922Y-59407595D01*
X211742238Y-59428911D01*
X211748962Y-59434127D01*
X211751613Y-59436391D01*
X211775980Y-59459273D01*
X211783357Y-59467979D01*
X211783558Y-59467815D01*
X211785863Y-59470624D01*
X211785864Y-59470625D01*
X211904643Y-59615357D01*
X212049375Y-59734136D01*
X212049380Y-59734138D01*
X212049382Y-59734140D01*
X212214494Y-59822394D01*
X212214496Y-59822394D01*
X212214499Y-59822396D01*
X212393669Y-59876747D01*
X212580000Y-59895099D01*
X212766331Y-59876747D01*
X212945501Y-59822396D01*
X213110625Y-59734136D01*
X213255357Y-59615357D01*
X213374136Y-59470625D01*
X213462396Y-59305501D01*
X213516747Y-59126331D01*
X213535099Y-58940000D01*
X213516747Y-58753669D01*
X213462396Y-58574499D01*
X213462394Y-58574496D01*
X213462394Y-58574494D01*
X213374140Y-58409382D01*
X213374138Y-58409380D01*
X213374136Y-58409375D01*
X213255357Y-58264643D01*
X213110625Y-58145864D01*
X213110622Y-58145862D01*
X213110617Y-58145859D01*
X212945505Y-58057605D01*
X212766332Y-58003253D01*
X212649803Y-57991776D01*
X212580000Y-57984901D01*
X212579999Y-57984901D01*
X212393667Y-58003253D01*
X212254122Y-58045584D01*
X212203578Y-58042824D01*
X212180315Y-58027096D01*
X211402174Y-57248954D01*
X211380782Y-57203077D01*
X211380500Y-57196630D01*
X211380500Y-57159975D01*
X211382281Y-57143841D01*
X211382760Y-57141703D01*
X211380517Y-57070346D01*
X211380500Y-57069227D01*
X211380500Y-57039070D01*
X211379434Y-57030640D01*
X211379159Y-57027159D01*
X211377597Y-56977431D01*
X211377596Y-56977424D01*
X211370579Y-56953274D01*
X211368224Y-56941909D01*
X211365071Y-56916942D01*
X211346756Y-56870684D01*
X211345626Y-56867384D01*
X211341291Y-56852464D01*
X211331744Y-56819601D01*
X211318934Y-56797941D01*
X211313827Y-56787516D01*
X211304569Y-56764131D01*
X211304565Y-56764125D01*
X211275327Y-56723882D01*
X211273412Y-56720967D01*
X211248081Y-56678135D01*
X211230291Y-56660345D01*
X211222750Y-56651516D01*
X211207963Y-56631163D01*
X211169630Y-56599451D01*
X211167050Y-56597104D01*
X208922174Y-54352227D01*
X208900782Y-54306351D01*
X208900500Y-54299901D01*
X208900500Y-51580000D01*
X209674867Y-51580000D01*
X209693302Y-51708223D01*
X209693302Y-51708224D01*
X209693303Y-51708226D01*
X209747118Y-51826063D01*
X209831951Y-51923967D01*
X209940931Y-51994004D01*
X210065228Y-52030500D01*
X210194772Y-52030500D01*
X210319069Y-51994004D01*
X210428049Y-51923967D01*
X210512882Y-51826063D01*
X210566697Y-51708226D01*
X210585133Y-51580000D01*
X210585132Y-51579999D01*
X210585886Y-51574761D01*
X210587151Y-51574942D01*
X210602446Y-51532923D01*
X210606807Y-51528163D01*
X213014971Y-49120000D01*
X214170000Y-49120000D01*
X214200000Y-59650000D01*
X214200000Y-59649999D01*
X214200001Y-59650000D01*
X219375004Y-59614999D01*
X224550000Y-59580000D01*
X224570000Y-49220000D01*
X214170000Y-49120000D01*
X213014971Y-49120000D01*
X214232797Y-47902174D01*
X214278673Y-47880782D01*
X214285123Y-47880500D01*
X216880992Y-47880500D01*
X216928558Y-47897813D01*
X216936917Y-47906040D01*
X216952446Y-47923962D01*
X216952447Y-47923963D01*
X216952451Y-47923967D01*
X217061431Y-47994004D01*
X217185728Y-48030500D01*
X217315272Y-48030500D01*
X217439569Y-47994004D01*
X217548549Y-47923967D01*
X217633382Y-47826063D01*
X217687197Y-47708226D01*
X217705633Y-47580000D01*
X217687197Y-47451774D01*
X217633382Y-47333937D01*
X217548549Y-47236033D01*
X217481532Y-47192964D01*
X217439568Y-47165995D01*
X217315272Y-47129500D01*
X217185728Y-47129500D01*
X217061431Y-47165995D01*
X216952454Y-47236031D01*
X216952446Y-47236037D01*
X216936917Y-47253960D01*
X216892684Y-47278570D01*
X216880992Y-47279500D01*
X214191087Y-47279500D01*
X214179110Y-47277546D01*
X214179023Y-47278174D01*
X214172234Y-47277226D01*
X214140971Y-47278672D01*
X214123896Y-47279461D01*
X214122212Y-47279500D01*
X214102149Y-47279500D01*
X214097815Y-47280311D01*
X214092723Y-47280902D01*
X214067331Y-47282076D01*
X214060006Y-47282415D01*
X214048358Y-47287558D01*
X214032072Y-47292600D01*
X214030064Y-47292976D01*
X214019569Y-47294938D01*
X214019563Y-47294940D01*
X213991729Y-47312173D01*
X213987195Y-47314564D01*
X213957236Y-47327793D01*
X213957233Y-47327795D01*
X213948230Y-47336797D01*
X213934872Y-47347377D01*
X213924050Y-47354079D01*
X213924044Y-47354084D01*
X213904313Y-47380212D01*
X213900946Y-47384081D01*
X210177203Y-51107826D01*
X210131327Y-51129218D01*
X210124877Y-51129500D01*
X210065228Y-51129500D01*
X209940931Y-51165995D01*
X209831954Y-51236031D01*
X209831950Y-51236034D01*
X209747119Y-51333935D01*
X209747118Y-51333936D01*
X209747118Y-51333937D01*
X209735213Y-51360006D01*
X209693302Y-51451776D01*
X209674867Y-51580000D01*
X208900500Y-51580000D01*
X208900500Y-47037627D01*
X218680000Y-47037627D01*
X218695415Y-47149779D01*
X218755652Y-47288459D01*
X218851067Y-47405740D01*
X218974583Y-47492927D01*
X218974586Y-47492928D01*
X219117043Y-47543557D01*
X219117053Y-47543559D01*
X219154999Y-47546155D01*
X219155000Y-47546155D01*
X219155000Y-47190567D01*
X219201840Y-47203895D01*
X219305000Y-47194335D01*
X219305000Y-47546163D01*
X219415911Y-47523116D01*
X219415913Y-47523115D01*
X219550157Y-47453556D01*
X219660652Y-47350360D01*
X219739208Y-47221182D01*
X219739208Y-47221181D01*
X219780000Y-47075597D01*
X219780000Y-46675000D01*
X219530000Y-46675000D01*
X219530000Y-46525000D01*
X219779999Y-46525000D01*
X219780000Y-46162385D01*
X219779999Y-46162372D01*
X219764584Y-46050220D01*
X219704347Y-45911540D01*
X219608932Y-45794259D01*
X219485416Y-45707072D01*
X219485413Y-45707071D01*
X219342957Y-45656442D01*
X219342945Y-45656440D01*
X219305000Y-45653843D01*
X219305000Y-46009432D01*
X219258160Y-45996105D01*
X219154999Y-46005664D01*
X219155000Y-45653834D01*
X219044087Y-45676883D01*
X219044085Y-45676884D01*
X218909842Y-45746443D01*
X218799347Y-45849639D01*
X218720791Y-45978817D01*
X218720791Y-45978818D01*
X218680000Y-46124402D01*
X218680000Y-46525000D01*
X218930000Y-46525000D01*
X218930000Y-46675000D01*
X218680000Y-46675000D01*
X218680000Y-47037627D01*
X208900500Y-47037627D01*
X208900500Y-46400000D01*
X211319819Y-46400000D01*
X211338426Y-46517482D01*
X211338426Y-46517483D01*
X211347082Y-46534471D01*
X211392427Y-46623465D01*
X211476535Y-46707573D01*
X211582518Y-46761574D01*
X211700000Y-46780181D01*
X211817482Y-46761574D01*
X211923465Y-46707573D01*
X212007573Y-46623465D01*
X212061574Y-46517482D01*
X212080181Y-46400000D01*
X212061574Y-46282518D01*
X212061573Y-46282516D01*
X212061573Y-46282515D01*
X212008566Y-46178484D01*
X212000500Y-46144888D01*
X212000500Y-43355122D01*
X212017813Y-43307556D01*
X212022174Y-43302796D01*
X212087343Y-43237627D01*
X218680000Y-43237627D01*
X218695415Y-43349779D01*
X218755652Y-43488459D01*
X218851067Y-43605740D01*
X218974583Y-43692927D01*
X218974586Y-43692928D01*
X219117043Y-43743557D01*
X219117053Y-43743559D01*
X219154999Y-43746155D01*
X219155000Y-43746154D01*
X219155000Y-43390567D01*
X219201840Y-43403895D01*
X219305000Y-43394335D01*
X219305000Y-43746163D01*
X219415911Y-43723116D01*
X219415913Y-43723115D01*
X219550157Y-43653556D01*
X219660652Y-43550360D01*
X219739208Y-43421182D01*
X219739208Y-43421181D01*
X219780000Y-43275597D01*
X219780000Y-42875000D01*
X219530000Y-42875000D01*
X219530000Y-42725000D01*
X219779999Y-42725000D01*
X219780000Y-42362385D01*
X219779999Y-42362372D01*
X219764584Y-42250220D01*
X219704347Y-42111540D01*
X219608932Y-41994259D01*
X219485416Y-41907072D01*
X219485413Y-41907071D01*
X219342957Y-41856442D01*
X219342945Y-41856440D01*
X219305000Y-41853843D01*
X219305000Y-42209432D01*
X219258160Y-42196105D01*
X219154999Y-42205664D01*
X219155000Y-41853834D01*
X219044087Y-41876883D01*
X219044085Y-41876884D01*
X218909842Y-41946443D01*
X218799347Y-42049639D01*
X218720791Y-42178817D01*
X218720791Y-42178818D01*
X218680000Y-42324402D01*
X218680000Y-42725000D01*
X218930000Y-42725000D01*
X218930000Y-42875000D01*
X218680000Y-42875000D01*
X218680000Y-43237627D01*
X212087343Y-43237627D01*
X214002797Y-41322174D01*
X214048673Y-41300782D01*
X214055123Y-41300500D01*
X222909810Y-41300500D01*
X222957376Y-41317813D01*
X222982686Y-41361650D01*
X222973896Y-41411500D01*
X222962136Y-41426826D01*
X222887427Y-41501534D01*
X222887427Y-41501535D01*
X222833427Y-41607515D01*
X222833425Y-41607521D01*
X222826541Y-41650984D01*
X222808140Y-41689259D01*
X222790085Y-41709065D01*
X222790083Y-41709067D01*
X222785483Y-41720941D01*
X222777536Y-41736017D01*
X222770344Y-41746517D01*
X222762847Y-41778390D01*
X222761330Y-41783288D01*
X222749499Y-41813828D01*
X222749499Y-41826557D01*
X222747534Y-41843491D01*
X222744621Y-41855878D01*
X222744621Y-41855881D01*
X222749145Y-41888316D01*
X222749500Y-41893424D01*
X222749500Y-43174888D01*
X222741434Y-43208484D01*
X222688426Y-43312515D01*
X222688426Y-43312517D01*
X222669819Y-43430000D01*
X222688426Y-43547482D01*
X222688426Y-43547484D01*
X222731441Y-43631904D01*
X222737610Y-43682146D01*
X222710042Y-43724599D01*
X222665507Y-43739500D01*
X220721088Y-43739500D01*
X220709111Y-43737546D01*
X220709024Y-43738174D01*
X220702235Y-43737226D01*
X220670972Y-43738672D01*
X220653897Y-43739461D01*
X220652213Y-43739500D01*
X220632149Y-43739500D01*
X220627815Y-43740311D01*
X220622723Y-43740902D01*
X220597331Y-43742076D01*
X220590006Y-43742415D01*
X220578358Y-43747558D01*
X220562072Y-43752600D01*
X220560064Y-43752976D01*
X220549569Y-43754938D01*
X220549563Y-43754940D01*
X220521729Y-43772173D01*
X220517195Y-43774564D01*
X220487236Y-43787793D01*
X220487233Y-43787795D01*
X220478230Y-43796797D01*
X220464872Y-43807377D01*
X220454050Y-43814079D01*
X220454044Y-43814084D01*
X220434313Y-43840212D01*
X220430946Y-43844081D01*
X219897203Y-44377826D01*
X219851327Y-44399218D01*
X219844877Y-44399500D01*
X218061088Y-44399500D01*
X218049111Y-44397546D01*
X218049024Y-44398174D01*
X218042235Y-44397226D01*
X218010972Y-44398672D01*
X217993897Y-44399461D01*
X217992213Y-44399500D01*
X217972149Y-44399500D01*
X217967815Y-44400311D01*
X217962725Y-44400902D01*
X217939044Y-44401997D01*
X217930006Y-44402415D01*
X217918363Y-44407556D01*
X217902077Y-44412599D01*
X217889572Y-44414937D01*
X217889566Y-44414939D01*
X217861728Y-44432175D01*
X217857196Y-44434564D01*
X217850123Y-44437687D01*
X217827234Y-44447793D01*
X217818234Y-44456794D01*
X217804870Y-44467380D01*
X217794046Y-44474082D01*
X217794044Y-44474084D01*
X217774313Y-44500212D01*
X217770946Y-44504081D01*
X216363782Y-45911245D01*
X216323034Y-45932008D01*
X216282520Y-45938425D01*
X216282515Y-45938427D01*
X216176535Y-45992427D01*
X216176534Y-45992427D01*
X216092428Y-46076533D01*
X216038426Y-46182516D01*
X216038426Y-46182517D01*
X216019819Y-46300000D01*
X216038426Y-46417482D01*
X216038426Y-46417483D01*
X216065742Y-46471093D01*
X216092427Y-46523465D01*
X216176535Y-46607573D01*
X216282518Y-46661574D01*
X216400000Y-46680181D01*
X216517482Y-46661574D01*
X216623465Y-46607573D01*
X216707573Y-46523465D01*
X216761574Y-46417482D01*
X216767990Y-46376966D01*
X216788751Y-46336218D01*
X218102796Y-45022174D01*
X218148674Y-45000782D01*
X218155123Y-45000500D01*
X219938913Y-45000500D01*
X219950889Y-45002453D01*
X219950977Y-45001826D01*
X219957765Y-45002773D01*
X220006103Y-45000538D01*
X220007788Y-45000500D01*
X220027842Y-45000500D01*
X220027844Y-45000500D01*
X220032187Y-44999687D01*
X220037266Y-44999097D01*
X220069992Y-44997585D01*
X220081639Y-44992441D01*
X220097927Y-44987398D01*
X220110433Y-44985061D01*
X220138281Y-44967818D01*
X220142794Y-44965438D01*
X220172765Y-44952206D01*
X220181761Y-44943208D01*
X220195138Y-44932614D01*
X220199356Y-44930003D01*
X220205952Y-44925919D01*
X220225687Y-44899783D01*
X220229051Y-44895919D01*
X220762797Y-44362174D01*
X220808674Y-44340782D01*
X220815123Y-44340500D01*
X221519321Y-44340500D01*
X221566887Y-44357813D01*
X221592197Y-44401650D01*
X221583407Y-44451500D01*
X221568393Y-44469887D01*
X221554258Y-44482410D01*
X221539516Y-44495470D01*
X221449779Y-44625478D01*
X221449778Y-44625478D01*
X221393764Y-44773177D01*
X221393761Y-44773191D01*
X221374722Y-44929996D01*
X221374722Y-44930003D01*
X221393761Y-45086808D01*
X221393764Y-45086822D01*
X221449778Y-45234521D01*
X221534819Y-45357724D01*
X221539517Y-45364530D01*
X221657760Y-45469283D01*
X221797635Y-45542696D01*
X221951015Y-45580500D01*
X221951019Y-45580500D01*
X222108981Y-45580500D01*
X222108985Y-45580500D01*
X222262365Y-45542696D01*
X222402240Y-45469283D01*
X222452158Y-45425060D01*
X222470163Y-45409110D01*
X222517247Y-45390527D01*
X222519233Y-45390500D01*
X224547189Y-45390500D01*
X224594755Y-45407813D01*
X224608088Y-45422461D01*
X224609514Y-45424527D01*
X224609515Y-45424528D01*
X224609516Y-45424529D01*
X224609517Y-45424530D01*
X224727760Y-45529283D01*
X224867635Y-45602696D01*
X225021015Y-45640500D01*
X225021019Y-45640500D01*
X225178981Y-45640500D01*
X225178985Y-45640500D01*
X225332365Y-45602696D01*
X225472240Y-45529283D01*
X225590483Y-45424530D01*
X225680220Y-45294523D01*
X225736237Y-45146818D01*
X225744245Y-45080862D01*
X225755278Y-44990003D01*
X225755278Y-44989996D01*
X225736238Y-44833191D01*
X225736237Y-44833182D01*
X225714809Y-44776680D01*
X225680221Y-44685478D01*
X225590483Y-44555470D01*
X225570603Y-44537858D01*
X225493880Y-44469888D01*
X225469758Y-44425389D01*
X225479882Y-44375793D01*
X225519518Y-44344309D01*
X225542952Y-44340500D01*
X226384877Y-44340500D01*
X226432443Y-44357813D01*
X226437201Y-44362172D01*
X226492510Y-44417482D01*
X226544319Y-44469291D01*
X226551404Y-44479137D01*
X226551910Y-44478756D01*
X226556041Y-44484227D01*
X226556042Y-44484228D01*
X226573575Y-44500212D01*
X226591774Y-44516802D01*
X226593011Y-44517983D01*
X226607202Y-44532174D01*
X226610850Y-44534674D01*
X226614870Y-44537857D01*
X226639067Y-44559916D01*
X226639070Y-44559917D01*
X226650932Y-44564512D01*
X226666024Y-44572467D01*
X226676520Y-44579657D01*
X226708408Y-44587156D01*
X226713280Y-44588665D01*
X226737076Y-44597884D01*
X226743826Y-44600500D01*
X226743827Y-44600500D01*
X226756554Y-44600500D01*
X226773496Y-44602465D01*
X226785882Y-44605379D01*
X226818319Y-44600854D01*
X226823428Y-44600500D01*
X229944889Y-44600500D01*
X229978482Y-44608565D01*
X230082518Y-44661574D01*
X230200000Y-44680181D01*
X230317482Y-44661574D01*
X230423465Y-44607573D01*
X230507573Y-44523465D01*
X230561574Y-44417482D01*
X230580181Y-44300000D01*
X230561574Y-44182518D01*
X230507573Y-44076535D01*
X230423465Y-43992427D01*
X230371484Y-43965941D01*
X230317483Y-43938426D01*
X230200000Y-43919819D01*
X230082517Y-43938426D01*
X230082516Y-43938426D01*
X230015967Y-43972335D01*
X229978482Y-43991434D01*
X229944889Y-43999500D01*
X226955123Y-43999500D01*
X226907557Y-43982187D01*
X226902797Y-43977826D01*
X226795682Y-43870711D01*
X226788597Y-43860862D01*
X226788091Y-43861245D01*
X226783958Y-43855772D01*
X226766890Y-43840212D01*
X226748208Y-43823181D01*
X226746976Y-43822005D01*
X226732796Y-43807825D01*
X226729149Y-43805326D01*
X226725132Y-43802144D01*
X226724338Y-43801420D01*
X226700933Y-43780084D01*
X226689061Y-43775484D01*
X226673981Y-43767536D01*
X226663480Y-43760343D01*
X226631612Y-43752848D01*
X226626713Y-43751331D01*
X226596174Y-43739500D01*
X226596173Y-43739500D01*
X226583447Y-43739500D01*
X226566504Y-43737534D01*
X226554119Y-43734621D01*
X226554117Y-43734621D01*
X226543641Y-43736082D01*
X226521684Y-43739145D01*
X226516574Y-43739500D01*
X224429397Y-43739500D01*
X224381831Y-43722187D01*
X224356521Y-43678350D01*
X224363462Y-43631905D01*
X224411574Y-43537482D01*
X224430181Y-43420000D01*
X224411574Y-43302518D01*
X224411573Y-43302516D01*
X224411573Y-43302515D01*
X224378511Y-43237627D01*
X227320000Y-43237627D01*
X227335415Y-43349779D01*
X227395652Y-43488459D01*
X227491067Y-43605740D01*
X227614583Y-43692927D01*
X227614586Y-43692928D01*
X227757043Y-43743557D01*
X227757053Y-43743559D01*
X227794999Y-43746155D01*
X227795000Y-43746154D01*
X227794999Y-43390567D01*
X227841840Y-43403895D01*
X227944999Y-43394335D01*
X227944999Y-43746162D01*
X228055911Y-43723116D01*
X228055913Y-43723115D01*
X228190157Y-43653556D01*
X228300652Y-43550360D01*
X228379208Y-43421182D01*
X228379208Y-43421181D01*
X228398890Y-43350936D01*
X241795631Y-43350936D01*
X241826444Y-43552071D01*
X241862258Y-43648771D01*
X241897114Y-43742887D01*
X241970886Y-43861245D01*
X242004748Y-43915571D01*
X242144941Y-44063053D01*
X242311951Y-44179295D01*
X242498942Y-44259540D01*
X242498947Y-44259541D01*
X242698252Y-44300499D01*
X242698257Y-44300499D01*
X242698259Y-44300500D01*
X242698260Y-44300500D01*
X242850741Y-44300500D01*
X242850742Y-44300500D01*
X242900341Y-44295456D01*
X243002434Y-44285075D01*
X243002435Y-44285074D01*
X243002438Y-44285074D01*
X243196588Y-44224159D01*
X243374502Y-44125409D01*
X243528895Y-43992866D01*
X243653448Y-43831958D01*
X243743060Y-43649271D01*
X243794063Y-43452285D01*
X243804369Y-43249064D01*
X243773556Y-43047929D01*
X243702886Y-42857113D01*
X243595252Y-42684429D01*
X243455059Y-42536947D01*
X243288049Y-42420705D01*
X243152118Y-42362372D01*
X243101058Y-42340460D01*
X243101052Y-42340458D01*
X242901747Y-42299500D01*
X242901741Y-42299500D01*
X242749258Y-42299500D01*
X242749250Y-42299500D01*
X242597565Y-42314924D01*
X242597560Y-42314926D01*
X242403417Y-42375838D01*
X242403412Y-42375840D01*
X242225498Y-42474591D01*
X242225495Y-42474593D01*
X242071104Y-42607135D01*
X242071099Y-42607140D01*
X241946551Y-42768043D01*
X241856941Y-42950727D01*
X241856939Y-42950731D01*
X241805936Y-43147718D01*
X241797831Y-43307556D01*
X241795631Y-43350936D01*
X228398890Y-43350936D01*
X228420000Y-43275597D01*
X228420000Y-42875000D01*
X228170000Y-42875000D01*
X228170000Y-42725000D01*
X228420000Y-42725000D01*
X228419999Y-42724999D01*
X228420000Y-42362385D01*
X228419999Y-42362372D01*
X228404584Y-42250220D01*
X228344347Y-42111540D01*
X228248932Y-41994259D01*
X228125416Y-41907072D01*
X228125413Y-41907071D01*
X227982957Y-41856442D01*
X227982945Y-41856440D01*
X227945000Y-41853843D01*
X227944999Y-41853843D01*
X227944999Y-42209431D01*
X227898160Y-42196105D01*
X227795000Y-42205664D01*
X227795000Y-41853834D01*
X227684087Y-41876883D01*
X227684085Y-41876884D01*
X227549842Y-41946443D01*
X227439347Y-42049639D01*
X227360791Y-42178817D01*
X227360791Y-42178818D01*
X227320000Y-42324402D01*
X227320000Y-42725000D01*
X227570000Y-42725000D01*
X227570000Y-42875000D01*
X227320000Y-42875000D01*
X227320000Y-43237627D01*
X224378511Y-43237627D01*
X224358566Y-43198484D01*
X224350500Y-43164888D01*
X224350500Y-42100603D01*
X224367813Y-42053037D01*
X224393171Y-42035944D01*
X224392292Y-42034219D01*
X224422837Y-42018654D01*
X224503465Y-41977573D01*
X224587573Y-41893465D01*
X224641574Y-41787482D01*
X224660181Y-41670000D01*
X224641574Y-41552518D01*
X224587573Y-41446535D01*
X224567864Y-41426826D01*
X224546472Y-41380950D01*
X224559573Y-41332055D01*
X224601037Y-41303021D01*
X224620190Y-41300500D01*
X231944877Y-41300500D01*
X231992443Y-41317813D01*
X231997203Y-41322174D01*
X232400706Y-41725677D01*
X232422098Y-41771553D01*
X232421469Y-41789576D01*
X232419819Y-41799996D01*
X232419819Y-41799999D01*
X232438426Y-41917482D01*
X232438426Y-41917483D01*
X232454213Y-41948466D01*
X232492427Y-42023465D01*
X232576535Y-42107573D01*
X232682518Y-42161574D01*
X232800000Y-42180181D01*
X232917482Y-42161574D01*
X233023465Y-42107573D01*
X233107573Y-42023465D01*
X233161574Y-41917482D01*
X233180181Y-41800000D01*
X233161574Y-41682518D01*
X233107573Y-41576535D01*
X233033344Y-41502306D01*
X233030702Y-41498969D01*
X233030540Y-41499117D01*
X233025919Y-41494048D01*
X232999793Y-41474319D01*
X232995922Y-41470951D01*
X232355682Y-40830711D01*
X232348597Y-40820862D01*
X232348091Y-40821245D01*
X232343958Y-40815772D01*
X232308213Y-40783186D01*
X232306976Y-40782005D01*
X232292796Y-40767825D01*
X232289149Y-40765326D01*
X232285132Y-40762144D01*
X232279263Y-40756794D01*
X232260933Y-40740084D01*
X232249061Y-40735484D01*
X232233981Y-40727536D01*
X232223480Y-40720343D01*
X232191612Y-40712848D01*
X232186713Y-40711331D01*
X232156174Y-40699500D01*
X232156173Y-40699500D01*
X232143447Y-40699500D01*
X232126504Y-40697534D01*
X232114119Y-40694621D01*
X232114117Y-40694621D01*
X232103641Y-40696082D01*
X232081684Y-40699145D01*
X232076574Y-40699500D01*
X213961088Y-40699500D01*
X213949111Y-40697546D01*
X213949024Y-40698174D01*
X213942235Y-40697226D01*
X213910972Y-40698672D01*
X213893897Y-40699461D01*
X213892213Y-40699500D01*
X213872149Y-40699500D01*
X213867815Y-40700311D01*
X213862725Y-40700902D01*
X213839044Y-40701997D01*
X213830006Y-40702415D01*
X213818363Y-40707556D01*
X213802077Y-40712599D01*
X213789572Y-40714937D01*
X213789566Y-40714939D01*
X213761728Y-40732175D01*
X213757196Y-40734564D01*
X213750123Y-40737687D01*
X213727234Y-40747793D01*
X213718234Y-40756794D01*
X213704871Y-40767379D01*
X213700182Y-40770282D01*
X213694046Y-40774082D01*
X213694044Y-40774084D01*
X213674313Y-40800212D01*
X213670946Y-40804081D01*
X211530708Y-42944319D01*
X211520865Y-42951405D01*
X211521245Y-42951908D01*
X211515773Y-42956040D01*
X211483174Y-42991797D01*
X211481997Y-42993029D01*
X211467822Y-43007206D01*
X211465326Y-43010851D01*
X211462145Y-43014866D01*
X211440085Y-43039065D01*
X211440083Y-43039067D01*
X211435483Y-43050941D01*
X211427536Y-43066017D01*
X211420344Y-43076517D01*
X211412847Y-43108390D01*
X211411330Y-43113288D01*
X211399499Y-43143828D01*
X211399499Y-43156557D01*
X211397534Y-43173491D01*
X211394621Y-43185878D01*
X211394621Y-43185881D01*
X211399145Y-43218316D01*
X211399500Y-43223425D01*
X211399499Y-46144887D01*
X211391434Y-46178482D01*
X211338426Y-46282517D01*
X211319819Y-46400000D01*
X208900500Y-46400000D01*
X208900500Y-45895122D01*
X208917813Y-45847556D01*
X208922174Y-45842796D01*
X209399051Y-45365919D01*
X209876219Y-44888750D01*
X209916968Y-44867989D01*
X209957482Y-44861574D01*
X210063465Y-44807573D01*
X210147573Y-44723465D01*
X210201574Y-44617482D01*
X210220181Y-44500000D01*
X210201574Y-44382518D01*
X210147573Y-44276535D01*
X210063465Y-44192427D01*
X209989161Y-44154567D01*
X209957483Y-44138426D01*
X209840000Y-44119819D01*
X209722517Y-44138426D01*
X209722516Y-44138426D01*
X209616533Y-44192428D01*
X209532427Y-44276534D01*
X209532427Y-44276535D01*
X209478427Y-44382515D01*
X209478425Y-44382520D01*
X209472008Y-44423034D01*
X209451245Y-44463782D01*
X208582319Y-45332708D01*
X208536822Y-45354066D01*
X208516344Y-45355963D01*
X208516334Y-45355966D01*
X208512804Y-45357724D01*
X208493439Y-45364214D01*
X208489569Y-45364937D01*
X208489564Y-45364939D01*
X208455073Y-45386295D01*
X208452088Y-45387958D01*
X208415773Y-45406041D01*
X208413120Y-45408951D01*
X208397397Y-45422007D01*
X208394048Y-45424080D01*
X208394047Y-45424081D01*
X208369596Y-45456458D01*
X208367413Y-45459087D01*
X208340083Y-45489067D01*
X208338660Y-45492741D01*
X208328720Y-45510588D01*
X208326344Y-45513735D01*
X208315240Y-45552757D01*
X208314154Y-45555997D01*
X208299500Y-45593827D01*
X208299500Y-45597759D01*
X208296675Y-45618010D01*
X208295598Y-45621792D01*
X208295988Y-45625996D01*
X208299200Y-45660658D01*
X208299342Y-45662183D01*
X208299500Y-45665599D01*
X208299500Y-53633885D01*
X208282187Y-53681451D01*
X208238350Y-53706761D01*
X208207094Y-53705559D01*
X208181989Y-53699112D01*
X208171008Y-53695352D01*
X208147930Y-53685365D01*
X208147925Y-53685364D01*
X208098785Y-53677581D01*
X208095374Y-53676874D01*
X208087517Y-53674857D01*
X208047181Y-53664500D01*
X208047177Y-53664500D01*
X208022021Y-53664500D01*
X208010445Y-53663589D01*
X208001921Y-53662239D01*
X207985595Y-53659653D01*
X207985594Y-53659653D01*
X207936056Y-53664336D01*
X207932572Y-53664500D01*
X199764986Y-53664500D01*
X199748842Y-53662717D01*
X199746709Y-53662240D01*
X199746699Y-53662239D01*
X199681648Y-53664284D01*
X199633561Y-53648475D01*
X199606887Y-53605454D01*
X199614106Y-53555353D01*
X199635829Y-53530453D01*
X199655069Y-53516474D01*
X199771114Y-53387594D01*
X199771117Y-53387591D01*
X199857827Y-53237402D01*
X199911414Y-53072478D01*
X199921661Y-52975000D01*
X199493107Y-52975000D01*
X199504986Y-52900000D01*
X199493107Y-52825000D01*
X199921661Y-52825000D01*
X199921660Y-52824999D01*
X199911414Y-52727521D01*
X199857827Y-52562597D01*
X199771117Y-52412408D01*
X199771114Y-52412405D01*
X199655070Y-52283526D01*
X199514778Y-52181597D01*
X199514771Y-52181593D01*
X199356344Y-52111057D01*
X199356342Y-52111056D01*
X199186710Y-52075000D01*
X199175000Y-52075000D01*
X199175000Y-52506892D01*
X199131481Y-52500000D01*
X199068519Y-52500000D01*
X199025000Y-52506892D01*
X199025000Y-52075000D01*
X199013290Y-52075000D01*
X198843657Y-52111056D01*
X198843651Y-52111058D01*
X198726553Y-52163194D01*
X198676058Y-52166725D01*
X198635106Y-52136972D01*
X198622456Y-52096044D01*
X198619355Y-51585542D01*
X203141500Y-51585542D01*
X203182443Y-51751654D01*
X203261950Y-51903141D01*
X203375399Y-52031199D01*
X203516198Y-52128385D01*
X203516199Y-52128385D01*
X203516199Y-52128386D01*
X203608736Y-52163480D01*
X203676164Y-52189052D01*
X203803389Y-52204500D01*
X204996611Y-52204500D01*
X205123836Y-52189052D01*
X205266360Y-52135000D01*
X205283800Y-52128386D01*
X205283800Y-52128385D01*
X205283802Y-52128385D01*
X205424601Y-52031199D01*
X205538050Y-51903141D01*
X205617557Y-51751654D01*
X205658500Y-51585542D01*
X205658500Y-51414458D01*
X205617557Y-51248346D01*
X205538050Y-51096859D01*
X205424601Y-50968801D01*
X205283802Y-50871615D01*
X205283800Y-50871614D01*
X205283800Y-50871613D01*
X205202720Y-50840864D01*
X206724500Y-50840864D01*
X206739310Y-50962840D01*
X206739312Y-50962844D01*
X206797481Y-51116225D01*
X206890669Y-51251231D01*
X207013449Y-51360004D01*
X207013454Y-51360008D01*
X207158705Y-51436242D01*
X207317979Y-51475500D01*
X207317983Y-51475500D01*
X207482017Y-51475500D01*
X207482021Y-51475500D01*
X207641295Y-51436242D01*
X207786546Y-51360008D01*
X207909332Y-51251229D01*
X208002518Y-51116226D01*
X208060688Y-50962845D01*
X208066415Y-50915684D01*
X208071766Y-50871613D01*
X208075500Y-50840857D01*
X208075500Y-49359143D01*
X208066738Y-49286979D01*
X208060689Y-49237159D01*
X208060688Y-49237157D01*
X208060688Y-49237155D01*
X208002518Y-49083774D01*
X207909332Y-48948771D01*
X207909330Y-48948768D01*
X207786550Y-48839995D01*
X207786547Y-48839993D01*
X207786546Y-48839992D01*
X207641295Y-48763758D01*
X207482021Y-48724500D01*
X207317979Y-48724500D01*
X207158705Y-48763758D01*
X207158703Y-48763758D01*
X207158703Y-48763759D01*
X207013452Y-48839993D01*
X207013449Y-48839995D01*
X206890669Y-48948768D01*
X206797481Y-49083774D01*
X206739312Y-49237155D01*
X206739310Y-49237159D01*
X206724500Y-49359135D01*
X206724500Y-50840864D01*
X205202720Y-50840864D01*
X205123840Y-50810949D01*
X205123836Y-50810948D01*
X205123834Y-50810947D01*
X205123826Y-50810946D01*
X204996618Y-50795500D01*
X204996611Y-50795500D01*
X203803389Y-50795500D01*
X203803381Y-50795500D01*
X203676173Y-50810946D01*
X203676159Y-50810949D01*
X203516199Y-50871613D01*
X203516199Y-50871614D01*
X203375399Y-50968801D01*
X203261950Y-51096858D01*
X203215144Y-51186040D01*
X203182443Y-51248346D01*
X203141500Y-51414458D01*
X203141500Y-51585542D01*
X198619355Y-51585542D01*
X198609970Y-50040864D01*
X200724500Y-50040864D01*
X200739310Y-50162840D01*
X200739312Y-50162844D01*
X200797481Y-50316225D01*
X200890669Y-50451231D01*
X201013449Y-50560004D01*
X201013454Y-50560008D01*
X201158705Y-50636242D01*
X201317979Y-50675500D01*
X201317983Y-50675500D01*
X201482017Y-50675500D01*
X201482021Y-50675500D01*
X201641295Y-50636242D01*
X201786546Y-50560008D01*
X201889154Y-50469105D01*
X201909330Y-50451231D01*
X201909330Y-50451230D01*
X201909332Y-50451229D01*
X202002518Y-50316226D01*
X202060688Y-50162845D01*
X202075500Y-50040857D01*
X202075500Y-48850936D01*
X203395631Y-48850936D01*
X203426444Y-49052071D01*
X203497113Y-49242886D01*
X203497114Y-49242887D01*
X203558751Y-49341776D01*
X203604748Y-49415571D01*
X203744941Y-49563053D01*
X203911951Y-49679295D01*
X204098942Y-49759540D01*
X204098947Y-49759541D01*
X204298252Y-49800499D01*
X204298257Y-49800499D01*
X204298259Y-49800500D01*
X204298260Y-49800500D01*
X204450741Y-49800500D01*
X204450742Y-49800500D01*
X204500341Y-49795456D01*
X204602434Y-49785075D01*
X204602435Y-49785074D01*
X204602438Y-49785074D01*
X204796588Y-49724159D01*
X204974502Y-49625409D01*
X205128895Y-49492866D01*
X205253448Y-49331958D01*
X205343060Y-49149271D01*
X205394063Y-48952285D01*
X205404369Y-48749064D01*
X205373556Y-48547929D01*
X205302886Y-48357113D01*
X205195252Y-48184429D01*
X205055059Y-48036947D01*
X205045796Y-48030500D01*
X204965469Y-47974591D01*
X204888049Y-47920705D01*
X204871322Y-47913527D01*
X204701058Y-47840460D01*
X204701052Y-47840458D01*
X204501747Y-47799500D01*
X204501741Y-47799500D01*
X204349258Y-47799500D01*
X204349250Y-47799500D01*
X204197565Y-47814924D01*
X204197560Y-47814926D01*
X204003417Y-47875838D01*
X204003412Y-47875840D01*
X203825498Y-47974591D01*
X203825495Y-47974593D01*
X203671104Y-48107135D01*
X203671099Y-48107140D01*
X203546551Y-48268043D01*
X203456941Y-48450727D01*
X203456939Y-48450731D01*
X203405936Y-48647718D01*
X203400797Y-48749064D01*
X203395631Y-48850936D01*
X202075500Y-48850936D01*
X202075500Y-48559143D01*
X202068583Y-48502174D01*
X202060689Y-48437159D01*
X202060688Y-48437157D01*
X202060688Y-48437155D01*
X202002518Y-48283774D01*
X201909332Y-48148771D01*
X201909330Y-48148768D01*
X201786550Y-48039995D01*
X201786547Y-48039993D01*
X201786546Y-48039992D01*
X201641295Y-47963758D01*
X201482021Y-47924500D01*
X201317979Y-47924500D01*
X201158705Y-47963758D01*
X201158703Y-47963758D01*
X201158703Y-47963759D01*
X201013452Y-48039993D01*
X201013449Y-48039995D01*
X200890669Y-48148768D01*
X200797481Y-48283774D01*
X200739312Y-48437155D01*
X200739310Y-48437159D01*
X200724500Y-48559135D01*
X200724500Y-50040864D01*
X198609970Y-50040864D01*
X198582630Y-45540864D01*
X201024500Y-45540864D01*
X201039310Y-45662840D01*
X201039311Y-45662843D01*
X201039312Y-45662845D01*
X201048540Y-45687176D01*
X201097481Y-45816225D01*
X201190669Y-45951231D01*
X201313449Y-46060004D01*
X201313454Y-46060008D01*
X201458705Y-46136242D01*
X201617979Y-46175500D01*
X201617983Y-46175500D01*
X201782017Y-46175500D01*
X201782021Y-46175500D01*
X201941295Y-46136242D01*
X202086546Y-46060008D01*
X202170218Y-45985881D01*
X202209330Y-45951231D01*
X202209330Y-45951230D01*
X202209332Y-45951229D01*
X202302518Y-45816226D01*
X202360688Y-45662845D01*
X202360769Y-45662183D01*
X202372503Y-45565538D01*
X202375499Y-45540864D01*
X206424500Y-45540864D01*
X206439310Y-45662840D01*
X206439311Y-45662843D01*
X206439312Y-45662845D01*
X206448540Y-45687176D01*
X206497481Y-45816225D01*
X206590669Y-45951231D01*
X206713449Y-46060004D01*
X206713454Y-46060008D01*
X206858705Y-46136242D01*
X207017979Y-46175500D01*
X207017983Y-46175500D01*
X207182017Y-46175500D01*
X207182021Y-46175500D01*
X207341295Y-46136242D01*
X207486546Y-46060008D01*
X207570218Y-45985881D01*
X207609330Y-45951231D01*
X207609330Y-45951230D01*
X207609332Y-45951229D01*
X207702518Y-45816226D01*
X207760688Y-45662845D01*
X207760769Y-45662183D01*
X207772503Y-45565538D01*
X207775500Y-45540857D01*
X207775500Y-44059143D01*
X207767453Y-43992866D01*
X207760689Y-43937159D01*
X207760688Y-43937157D01*
X207760688Y-43937155D01*
X207702518Y-43783774D01*
X207660648Y-43723115D01*
X207609330Y-43648768D01*
X207486550Y-43539995D01*
X207486547Y-43539993D01*
X207486546Y-43539992D01*
X207341295Y-43463758D01*
X207182021Y-43424500D01*
X207017979Y-43424500D01*
X206858705Y-43463758D01*
X206858703Y-43463758D01*
X206858703Y-43463759D01*
X206713452Y-43539993D01*
X206713449Y-43539995D01*
X206590669Y-43648768D01*
X206497481Y-43783774D01*
X206439312Y-43937155D01*
X206439310Y-43937159D01*
X206424500Y-44059135D01*
X206424500Y-45540864D01*
X202375499Y-45540864D01*
X202375500Y-45540857D01*
X202375500Y-44059143D01*
X202367453Y-43992866D01*
X202360689Y-43937159D01*
X202360688Y-43937157D01*
X202360688Y-43937155D01*
X202302518Y-43783774D01*
X202260648Y-43723115D01*
X202209330Y-43648768D01*
X202086550Y-43539995D01*
X202086547Y-43539993D01*
X202086546Y-43539992D01*
X201941295Y-43463758D01*
X201782021Y-43424500D01*
X201617979Y-43424500D01*
X201458705Y-43463758D01*
X201458703Y-43463758D01*
X201458703Y-43463759D01*
X201313452Y-43539993D01*
X201313449Y-43539995D01*
X201190669Y-43648768D01*
X201097481Y-43783774D01*
X201039312Y-43937155D01*
X201039310Y-43937159D01*
X201024500Y-44059135D01*
X201024500Y-45540864D01*
X198582630Y-45540864D01*
X198569325Y-43350936D01*
X203395631Y-43350936D01*
X203426444Y-43552071D01*
X203462258Y-43648771D01*
X203497114Y-43742887D01*
X203570886Y-43861245D01*
X203604748Y-43915571D01*
X203744941Y-44063053D01*
X203911951Y-44179295D01*
X204098942Y-44259540D01*
X204098947Y-44259541D01*
X204298252Y-44300499D01*
X204298257Y-44300499D01*
X204298259Y-44300500D01*
X204298260Y-44300500D01*
X204450741Y-44300500D01*
X204450742Y-44300500D01*
X204500341Y-44295456D01*
X204602434Y-44285075D01*
X204602435Y-44285074D01*
X204602438Y-44285074D01*
X204796588Y-44224159D01*
X204974502Y-44125409D01*
X205128895Y-43992866D01*
X205253448Y-43831958D01*
X205343060Y-43649271D01*
X205394063Y-43452285D01*
X205404369Y-43249064D01*
X205373556Y-43047929D01*
X205302886Y-42857113D01*
X205195252Y-42684429D01*
X205055059Y-42536947D01*
X204888049Y-42420705D01*
X204752118Y-42362372D01*
X204701058Y-42340460D01*
X204701052Y-42340458D01*
X204501747Y-42299500D01*
X204501741Y-42299500D01*
X204349258Y-42299500D01*
X204349250Y-42299500D01*
X204197565Y-42314924D01*
X204197560Y-42314926D01*
X204003417Y-42375838D01*
X204003412Y-42375840D01*
X203825498Y-42474591D01*
X203825495Y-42474593D01*
X203671104Y-42607135D01*
X203671099Y-42607140D01*
X203546551Y-42768043D01*
X203456941Y-42950727D01*
X203456939Y-42950731D01*
X203405936Y-43147718D01*
X203397831Y-43307556D01*
X203395631Y-43350936D01*
X198569325Y-43350936D01*
X198550454Y-40244809D01*
X198567478Y-40197140D01*
X198611161Y-40171565D01*
X198624804Y-40170362D01*
X247976434Y-40409643D01*
G37*
G04 #@! TD.AperFunction*
G04 #@! TA.AperFunction,Conductor*
G36*
X199175000Y-53725000D02*
G01*
X199176951Y-53726951D01*
X199219156Y-53742313D01*
X199244466Y-53786150D01*
X199235676Y-53836000D01*
X199228607Y-53846171D01*
X199204452Y-53875368D01*
X199202105Y-53877947D01*
X199027228Y-54052826D01*
X198981352Y-54074218D01*
X198974902Y-54074500D01*
X198708028Y-54074500D01*
X198660462Y-54057187D01*
X198635152Y-54013350D01*
X198634030Y-54000962D01*
X198632257Y-53709216D01*
X198649280Y-53661550D01*
X198692962Y-53635975D01*
X198736354Y-53641169D01*
X198843655Y-53688942D01*
X198843657Y-53688943D01*
X199013290Y-53725000D01*
X199025000Y-53725000D01*
X199025000Y-53293107D01*
X199068519Y-53300000D01*
X199131481Y-53300000D01*
X199175000Y-53293107D01*
X199175000Y-53725000D01*
G37*
G04 #@! TD.AperFunction*
G04 #@! TD*
M02*
