G04 #@! TF.GenerationSoftware,KiCad,Pcbnew,7.0.5*
G04 #@! TF.CreationDate,2023-11-03T09:35:20+00:00*
G04 #@! TF.ProjectId,MaxTENS,4d617854-454e-4532-9e6b-696361645f70,rev?*
G04 #@! TF.SameCoordinates,Original*
G04 #@! TF.FileFunction,Legend,Bot*
G04 #@! TF.FilePolarity,Positive*
%FSLAX46Y46*%
G04 Gerber Fmt 4.6, Leading zero omitted, Abs format (unit mm)*
G04 Created by KiCad (PCBNEW 7.0.5) date 2023-11-03 09:35:20*
%MOMM*%
%LPD*%
G01*
G04 APERTURE LIST*
%ADD10C,0.200000*%
%ADD11C,0.150000*%
%ADD12C,0.508000*%
%ADD13C,0.120000*%
G04 APERTURE END LIST*
D10*
X198430000Y-46800000D02*
X248450000Y-46800000D01*
X248450000Y-109990000D01*
X198430000Y-109990000D01*
X198430000Y-46800000D01*
D11*
G04 #@! TO.C,J6*
X209802295Y-44183333D02*
X210373723Y-44183333D01*
X210373723Y-44183333D02*
X210488009Y-44145238D01*
X210488009Y-44145238D02*
X210564200Y-44069047D01*
X210564200Y-44069047D02*
X210602295Y-43954762D01*
X210602295Y-43954762D02*
X210602295Y-43878571D01*
X209802295Y-44907143D02*
X209802295Y-44754762D01*
X209802295Y-44754762D02*
X209840390Y-44678571D01*
X209840390Y-44678571D02*
X209878485Y-44640476D01*
X209878485Y-44640476D02*
X209992771Y-44564286D01*
X209992771Y-44564286D02*
X210145152Y-44526190D01*
X210145152Y-44526190D02*
X210449914Y-44526190D01*
X210449914Y-44526190D02*
X210526104Y-44564286D01*
X210526104Y-44564286D02*
X210564200Y-44602381D01*
X210564200Y-44602381D02*
X210602295Y-44678571D01*
X210602295Y-44678571D02*
X210602295Y-44830952D01*
X210602295Y-44830952D02*
X210564200Y-44907143D01*
X210564200Y-44907143D02*
X210526104Y-44945238D01*
X210526104Y-44945238D02*
X210449914Y-44983333D01*
X210449914Y-44983333D02*
X210259438Y-44983333D01*
X210259438Y-44983333D02*
X210183247Y-44945238D01*
X210183247Y-44945238D02*
X210145152Y-44907143D01*
X210145152Y-44907143D02*
X210107057Y-44830952D01*
X210107057Y-44830952D02*
X210107057Y-44678571D01*
X210107057Y-44678571D02*
X210145152Y-44602381D01*
X210145152Y-44602381D02*
X210183247Y-44564286D01*
X210183247Y-44564286D02*
X210259438Y-44526190D01*
D12*
G04 #@! TO.C,J5*
X244721001Y-87737000D02*
G75*
G03*
X244721001Y-87737000I-381000J0D01*
G01*
D13*
G04 #@! TO.C,J6*
X215360000Y-43390000D02*
X215360000Y-45510000D01*
X213300000Y-43390000D02*
X215360000Y-43390000D01*
X213300000Y-43390000D02*
X213300000Y-45510000D01*
X212300000Y-43390000D02*
X211240000Y-43390000D01*
X211240000Y-43390000D02*
X211240000Y-44450000D01*
X213300000Y-45510000D02*
X215360000Y-45510000D01*
G04 #@! TD*
M02*
