G04 #@! TF.GenerationSoftware,KiCad,Pcbnew,7.0.5*
G04 #@! TF.CreationDate,2023-11-03T09:35:19+00:00*
G04 #@! TF.ProjectId,MaxTENS,4d617854-454e-4532-9e6b-696361645f70,rev?*
G04 #@! TF.SameCoordinates,Original*
G04 #@! TF.FileFunction,Copper,L2,Bot*
G04 #@! TF.FilePolarity,Positive*
%FSLAX46Y46*%
G04 Gerber Fmt 4.6, Leading zero omitted, Abs format (unit mm)*
G04 Created by KiCad (PCBNEW 7.0.5) date 2023-11-03 09:35:19*
%MOMM*%
%LPD*%
G01*
G04 APERTURE LIST*
G04 #@! TA.AperFunction,ComponentPad*
%ADD10O,0.800000X1.600000*%
G04 #@! TD*
G04 #@! TA.AperFunction,ComponentPad*
%ADD11C,1.650000*%
G04 #@! TD*
G04 #@! TA.AperFunction,ComponentPad*
%ADD12R,1.350000X1.350000*%
G04 #@! TD*
G04 #@! TA.AperFunction,ComponentPad*
%ADD13O,1.350000X1.350000*%
G04 #@! TD*
G04 #@! TA.AperFunction,ViaPad*
%ADD14C,1.600000*%
G04 #@! TD*
G04 #@! TA.AperFunction,ViaPad*
%ADD15C,0.450000*%
G04 #@! TD*
G04 #@! TA.AperFunction,ViaPad*
%ADD16C,0.600000*%
G04 #@! TD*
G04 #@! TA.AperFunction,ViaPad*
%ADD17C,1.000000*%
G04 #@! TD*
G04 #@! TA.AperFunction,Conductor*
%ADD18C,0.300000*%
G04 #@! TD*
G04 #@! TA.AperFunction,Conductor*
%ADD19C,1.000000*%
G04 #@! TD*
G04 #@! TA.AperFunction,Conductor*
%ADD20C,0.400000*%
G04 #@! TD*
G04 #@! TA.AperFunction,Conductor*
%ADD21C,0.500000*%
G04 #@! TD*
G04 #@! TA.AperFunction,Conductor*
%ADD22C,0.254000*%
G04 #@! TD*
G04 #@! TA.AperFunction,Conductor*
%ADD23C,0.200000*%
G04 #@! TD*
G04 APERTURE END LIST*
D10*
G04 #@! TO.P,J1,S1,SHIELD*
G04 #@! TO.N,GND*
X227870000Y-46600000D03*
G04 #@! TO.P,J1,S2,SHIELD*
X219230000Y-46600000D03*
G04 #@! TO.P,J1,S3,SHIELD*
X227870000Y-42800000D03*
G04 #@! TO.P,J1,S4,SHIELD*
X219230000Y-42800000D03*
G04 #@! TD*
D11*
G04 #@! TO.P,J4,0*
G04 #@! TO.N,N/C*
X218318500Y-86529000D03*
X228351500Y-86529000D03*
G04 #@! TD*
D12*
G04 #@! TO.P,J6,1,Pin_1*
G04 #@! TO.N,+BATT*
X212300000Y-44450000D03*
D13*
G04 #@! TO.P,J6,2,Pin_2*
G04 #@! TO.N,GND*
X214300000Y-44450000D03*
G04 #@! TD*
D14*
G04 #@! TO.N,+BATT*
X209535000Y-56265000D03*
D15*
X209840000Y-44500000D03*
G04 #@! TO.N,GND*
X235830000Y-63350000D03*
X202240000Y-55140000D03*
X224800000Y-74700000D03*
X227810000Y-55900000D03*
X206060000Y-51480000D03*
X218100000Y-85000000D03*
X223940000Y-71410000D03*
X205930000Y-55830000D03*
X221900000Y-92250000D03*
X222730000Y-79090000D03*
X220270000Y-43060000D03*
X202300000Y-91800000D03*
X218540000Y-72800000D03*
X227525000Y-92150000D03*
X209980000Y-67090000D03*
X207448023Y-87548023D03*
D14*
X206850000Y-50225000D03*
D15*
X218500000Y-71290000D03*
X209450000Y-89425000D03*
X242154500Y-58075000D03*
X224510000Y-62480000D03*
X201250000Y-89425000D03*
X214050000Y-61800000D03*
X207800000Y-91000000D03*
X226900000Y-73750000D03*
X244620000Y-51350000D03*
X218700000Y-69070000D03*
X221310000Y-74230000D03*
X208612500Y-91000000D03*
X210550000Y-88375000D03*
X206869774Y-88313529D03*
X209275000Y-66600000D03*
X240490000Y-54140000D03*
X224000000Y-88100000D03*
X223700000Y-92300000D03*
X218290000Y-67360000D03*
X201025000Y-93900000D03*
X203450000Y-57595500D03*
X221940000Y-79680000D03*
X214025000Y-88275000D03*
X223960000Y-98320000D03*
X210525000Y-97425000D03*
X210500000Y-45400000D03*
X202500000Y-64825000D03*
X224680385Y-68569615D03*
X220810000Y-45310000D03*
X222460000Y-41600000D03*
X221730000Y-80290000D03*
X207825000Y-90225000D03*
X228970000Y-62780000D03*
X236830000Y-64480000D03*
X210050000Y-83925000D03*
X237870000Y-50000000D03*
X246700000Y-91350000D03*
X235960000Y-59290000D03*
X207025000Y-52100000D03*
X205240000Y-62220000D03*
X206000000Y-96375000D03*
X216950000Y-96529500D03*
X231340000Y-42030000D03*
X202610000Y-51590000D03*
X240490000Y-55530000D03*
X224000000Y-99800000D03*
X219400000Y-91100000D03*
X223400000Y-80400000D03*
X215925000Y-94550000D03*
X237290000Y-63180000D03*
X223530000Y-79770000D03*
X211775500Y-93450000D03*
X229300000Y-43720000D03*
X223830000Y-73300000D03*
X224020000Y-72350000D03*
X237400000Y-46870000D03*
X211750000Y-65250000D03*
X217950000Y-66750000D03*
X223430000Y-73850000D03*
X223450000Y-106150000D03*
X227340000Y-93810000D03*
X206275000Y-87075000D03*
X222500000Y-105710000D03*
X237390000Y-59600000D03*
X222810000Y-74210000D03*
X205350000Y-94700000D03*
X221930000Y-104090000D03*
X228590000Y-54630000D03*
X207825000Y-89425000D03*
X218560000Y-41650000D03*
X210730000Y-50010000D03*
X210160000Y-66240000D03*
X218470000Y-69880000D03*
X228370000Y-67790000D03*
X209425000Y-91000000D03*
X223720000Y-104040000D03*
X209525000Y-95050000D03*
X211675000Y-48480000D03*
X215250000Y-90650000D03*
X208637500Y-89425000D03*
X209450000Y-90225000D03*
X219830000Y-74190000D03*
X203650000Y-58950000D03*
X224980000Y-42050000D03*
X229300000Y-44774500D03*
X214000000Y-60350000D03*
X224450000Y-100250000D03*
X230310000Y-43140000D03*
X213050000Y-47875000D03*
X226660000Y-42630000D03*
X220430000Y-67440000D03*
X208637500Y-90225000D03*
X204900000Y-51105000D03*
X218850000Y-73740000D03*
X210850000Y-86400000D03*
X202275000Y-96200000D03*
G04 #@! TO.N,VCC*
X231880000Y-48990000D03*
D16*
X211705500Y-51877985D03*
X217300000Y-47600000D03*
D15*
X234680000Y-48180000D03*
G04 #@! TO.N,+3.3V*
X208275500Y-86500000D03*
X216975000Y-58325000D03*
X207800000Y-67300000D03*
X245125000Y-88350000D03*
X203900000Y-82475000D03*
X246650000Y-85400000D03*
X227520000Y-65920000D03*
X225000000Y-88000000D03*
D17*
G04 #@! TO.N,+5V*
X222030000Y-44930000D03*
X225100000Y-44990000D03*
D15*
G04 #@! TO.N,/MCU/RIGHT_BTN*
X231350000Y-92950000D03*
X237140000Y-81700000D03*
X216375000Y-96028000D03*
X212510000Y-65340000D03*
G04 #@! TO.N,/MCU/SCLK*
X227000000Y-67400000D03*
X238540000Y-86400000D03*
X227095500Y-72900000D03*
X213820000Y-65280000D03*
G04 #@! TO.N,/MCU/MOSI*
X219700000Y-76000000D03*
X208800000Y-87000000D03*
X209800000Y-68405000D03*
X219700000Y-78500000D03*
G04 #@! TO.N,/MCU/OK_BTN*
X225610000Y-75000000D03*
X224440000Y-99070000D03*
G04 #@! TO.N,/MCU/TIMER_BTN*
X227450000Y-92980000D03*
X226540000Y-74500000D03*
G04 #@! TO.N,/MCU/CH1_BTN*
X244000000Y-94325000D03*
X228400000Y-91650000D03*
G04 #@! TO.N,/MCU/RXD*
X228700000Y-93650000D03*
X238325000Y-92725000D03*
G04 #@! TO.N,/MCU/TXD*
X238350000Y-91375000D03*
X229350000Y-94050000D03*
G04 #@! TO.N,/MCU/MODE_BTN*
X222720000Y-80040000D03*
X223130000Y-105010000D03*
G04 #@! TO.N,Net-(J1-CC1)*
X224280000Y-41670000D03*
X224050000Y-43420000D03*
G04 #@! TO.N,Net-(J1-CC2)*
X223195000Y-41725000D03*
X223050000Y-43430000D03*
G04 #@! TO.N,/ElectrodeChannels/CH2_2*
X218850000Y-66790000D03*
X240625000Y-62675000D03*
G04 #@! TO.N,/ElectrodeChannels/CH2_1*
X220270000Y-66730000D03*
X243040000Y-59000000D03*
X237860000Y-64410000D03*
D16*
G04 #@! TO.N,/BoostConverter/VFB*
X234520000Y-51680000D03*
X225260000Y-62520000D03*
D15*
G04 #@! TO.N,/Opamp/P0W*
X201375000Y-93225000D03*
X199825000Y-93625000D03*
X199887500Y-89062500D03*
X211700000Y-46060000D03*
X207525000Y-45625000D03*
X203475000Y-84225000D03*
G04 #@! TO.N,/Opamp/P1W*
X236200000Y-44100000D03*
X214550000Y-96550000D03*
X214200000Y-86450000D03*
X216475000Y-91875000D03*
X216400000Y-46450000D03*
D16*
G04 #@! TO.N,Net-(Q5-B)*
X205150000Y-58120000D03*
X203132500Y-58312500D03*
D15*
G04 #@! TO.N,Net-(Q7-C)*
X241630000Y-58810000D03*
X240860000Y-54820000D03*
G04 #@! TO.N,Net-(Q20-B)*
X236610000Y-63720000D03*
X236610000Y-59580000D03*
G04 #@! TO.N,/Opamp/P030*
X203950000Y-93650000D03*
X202125000Y-95200000D03*
G04 #@! TO.N,/Opamp/P015*
X203843041Y-89553031D03*
X202100000Y-90800000D03*
G04 #@! TO.N,/Opamp/P010*
X203675000Y-87875000D03*
X206712500Y-87612500D03*
G04 #@! TO.N,/Opamp/SCL*
X210225000Y-77375000D03*
X207300000Y-82425000D03*
X209450000Y-86950000D03*
G04 #@! TO.N,/Opamp/P125*
X214000000Y-89225000D03*
X214300000Y-92350000D03*
G04 #@! TO.N,/Opamp/P140*
X211775000Y-86500000D03*
X210250000Y-84675000D03*
D16*
G04 #@! TO.N,Net-(Q4-B)*
X202490000Y-55900000D03*
X204990000Y-63190000D03*
G04 #@! TD*
D18*
G04 #@! TO.N,+BATT*
X212250000Y-44500000D02*
X212300000Y-44450000D01*
D19*
X211225000Y-47250000D02*
X212225000Y-47250000D01*
D18*
X209840000Y-44500000D02*
X212250000Y-44500000D01*
D19*
X212225000Y-47250000D02*
X212700000Y-46775000D01*
X209650000Y-48825000D02*
X211225000Y-47250000D01*
X209535000Y-56265000D02*
X209650000Y-56150000D01*
X212700000Y-46775000D02*
X212700000Y-44850000D01*
X209650000Y-56150000D02*
X209650000Y-48825000D01*
X212700000Y-44850000D02*
X212300000Y-44450000D01*
D18*
G04 #@! TO.N,GND*
X244300000Y-91350000D02*
X246700000Y-91350000D01*
G04 #@! TO.N,VCC*
X231880000Y-48990000D02*
X232690000Y-48180000D01*
X232690000Y-48180000D02*
X234680000Y-48180000D01*
X215620000Y-47580000D02*
X217280000Y-47580000D01*
X211705500Y-51494500D02*
X215620000Y-47580000D01*
X217280000Y-47580000D02*
X217300000Y-47600000D01*
X211705500Y-51877985D02*
X211705500Y-51494500D01*
G04 #@! TO.N,+3.3V*
X217290000Y-66360000D02*
X213800000Y-66360000D01*
X223435000Y-93307463D02*
X225000000Y-91742463D01*
X208800000Y-68300000D02*
X207800000Y-67300000D01*
X227520000Y-65920000D02*
X227340000Y-66100000D01*
X213800000Y-75710000D02*
X217590000Y-79500000D01*
X220500000Y-79500000D02*
X221800000Y-78200000D01*
X217590000Y-79500000D02*
X220500000Y-79500000D01*
X223800000Y-78200000D02*
X225000000Y-79400000D01*
X208275500Y-86500000D02*
X208275500Y-87225500D01*
X220750000Y-106950000D02*
X224050000Y-106950000D01*
X213150000Y-62970000D02*
X213150000Y-65525000D01*
X216975000Y-58325000D02*
X216975000Y-62150000D01*
D20*
X245950000Y-88350000D02*
X246650000Y-87650000D01*
D18*
X224245000Y-106755000D02*
X224245000Y-101220000D01*
X213150000Y-65525000D02*
X213800000Y-66175000D01*
X208275500Y-86500000D02*
X207550000Y-86500000D01*
D20*
X245125000Y-88350000D02*
X245950000Y-88350000D01*
D18*
X225000000Y-91742463D02*
X225000000Y-88000000D01*
X223450000Y-100425000D02*
X223450000Y-98552463D01*
X213800000Y-66175000D02*
X213800000Y-66360000D01*
X221800000Y-78200000D02*
X223800000Y-78200000D01*
X211250500Y-97450500D02*
X220750000Y-106950000D01*
X208275500Y-87225500D02*
X211250500Y-90200500D01*
X208800000Y-77575000D02*
X208800000Y-68300000D01*
X223450000Y-98552463D02*
X223435000Y-98537463D01*
X224245000Y-101220000D02*
X223450000Y-100425000D01*
X223435000Y-98537463D02*
X223435000Y-93307463D01*
D20*
X216740000Y-62385000D02*
X213735000Y-62385000D01*
D18*
X203900000Y-82475000D02*
X208800000Y-77575000D01*
X225000000Y-79400000D02*
X225000000Y-88000000D01*
X207550000Y-86500000D02*
X203900000Y-82850000D01*
X224050000Y-106950000D02*
X224245000Y-106755000D01*
X203900000Y-82850000D02*
X203900000Y-82475000D01*
X211250500Y-90200500D02*
X211250500Y-97450500D01*
X217550000Y-66100000D02*
X217290000Y-66360000D01*
X213800000Y-66360000D02*
X213800000Y-75710000D01*
D20*
X246650000Y-87650000D02*
X246650000Y-85400000D01*
D18*
X213735000Y-62385000D02*
X213150000Y-62970000D01*
X227340000Y-66100000D02*
X217550000Y-66100000D01*
D20*
X216975000Y-62150000D02*
X216740000Y-62385000D01*
D21*
G04 #@! TO.N,+5V*
X222030000Y-44930000D02*
X222090000Y-44990000D01*
X222090000Y-44990000D02*
X225100000Y-44990000D01*
D22*
G04 #@! TO.N,/MCU/RIGHT_BTN*
X216375000Y-96028000D02*
X215825646Y-96028000D01*
X231350000Y-92950000D02*
X231550000Y-92950000D01*
X215825646Y-96028000D02*
X213100000Y-93302354D01*
X237140000Y-87360000D02*
X237140000Y-85810000D01*
X212510000Y-66285000D02*
X212510000Y-65340000D01*
X237140000Y-81700000D02*
X237140000Y-85900000D01*
X213100000Y-66875000D02*
X212510000Y-66285000D01*
X213100000Y-93302354D02*
X213100000Y-66875000D01*
X231550000Y-92950000D02*
X237140000Y-87360000D01*
D18*
G04 #@! TO.N,/MCU/SCLK*
X220597818Y-65510000D02*
X220607818Y-65500000D01*
X223310000Y-65300000D02*
X227800000Y-65300000D01*
X223110000Y-65500000D02*
X223310000Y-65300000D01*
X213820000Y-65280000D02*
X214050000Y-65510000D01*
X238540000Y-86400000D02*
X238540000Y-77440000D01*
X220607818Y-65500000D02*
X223110000Y-65500000D01*
X234000000Y-72900000D02*
X227095500Y-72900000D01*
X214050000Y-65510000D02*
X220597818Y-65510000D01*
X228100000Y-65600000D02*
X228100000Y-66300000D01*
X227800000Y-65300000D02*
X228100000Y-65600000D01*
X228100000Y-66300000D02*
X227000000Y-67400000D01*
X238540000Y-77440000D02*
X234000000Y-72900000D01*
G04 #@! TO.N,/MCU/MOSI*
X206275000Y-83700000D02*
X208800000Y-86225000D01*
X219700000Y-76000000D02*
X219700000Y-78500000D01*
X206275000Y-81625000D02*
X206275000Y-83700000D01*
X209625000Y-68580000D02*
X209625000Y-78275000D01*
X208800000Y-86225000D02*
X208800000Y-87000000D01*
X209800000Y-68405000D02*
X209625000Y-68580000D01*
X209625000Y-78275000D02*
X206275000Y-81625000D01*
D22*
G04 #@! TO.N,/MCU/OK_BTN*
X225610000Y-75000000D02*
X225610000Y-97900000D01*
X225610000Y-97900000D02*
X224440000Y-99070000D01*
G04 #@! TO.N,/MCU/TIMER_BTN*
X226540000Y-92070000D02*
X227450000Y-92980000D01*
X226540000Y-74500000D02*
X226540000Y-92070000D01*
D18*
G04 #@! TO.N,/MCU/CH1_BTN*
X228100000Y-93275000D02*
X228100000Y-95525000D01*
X228400000Y-91650000D02*
X228100000Y-91950000D01*
X228625000Y-96050000D02*
X242275000Y-96050000D01*
X242275000Y-96050000D02*
X244000000Y-94325000D01*
X228100000Y-95525000D02*
X228625000Y-96050000D01*
X228100000Y-91950000D02*
X228100000Y-93275000D01*
G04 #@! TO.N,/MCU/RXD*
X228700000Y-94800000D02*
X229250000Y-95350000D01*
X234175000Y-95350000D02*
X236800000Y-92725000D01*
X236800000Y-92725000D02*
X238325000Y-92725000D01*
X229250000Y-95350000D02*
X234175000Y-95350000D01*
X228700000Y-93650000D02*
X228700000Y-94800000D01*
G04 #@! TO.N,/MCU/TXD*
X229350000Y-94050000D02*
X229875000Y-94575000D01*
X232050000Y-94575000D02*
X235250000Y-91375000D01*
X235250000Y-91375000D02*
X238350000Y-91375000D01*
X229875000Y-94575000D02*
X232050000Y-94575000D01*
D22*
G04 #@! TO.N,/MCU/MODE_BTN*
X222720000Y-80040000D02*
X222720000Y-104600000D01*
X222720000Y-104600000D02*
X223130000Y-105010000D01*
D18*
G04 #@! TO.N,Net-(J1-CC1)*
X224280000Y-41670000D02*
X224050000Y-41900000D01*
X224050000Y-41900000D02*
X224050000Y-43420000D01*
G04 #@! TO.N,Net-(J1-CC2)*
X223050000Y-43430000D02*
X223050000Y-41870000D01*
X223050000Y-41870000D02*
X223195000Y-41725000D01*
G04 #@! TO.N,/ElectrodeChannels/CH2_2*
X240625000Y-62675000D02*
X232600000Y-70700000D01*
X218850000Y-66790000D02*
X218850000Y-66850000D01*
X222700000Y-70700000D02*
X232600000Y-70700000D01*
X218850000Y-66850000D02*
X222700000Y-70700000D01*
G04 #@! TO.N,/ElectrodeChannels/CH2_1*
X243040000Y-59000000D02*
X243040000Y-59230000D01*
X224030000Y-70010000D02*
X232260000Y-70010000D01*
X243040000Y-59230000D02*
X237860000Y-64410000D01*
X220750000Y-66730000D02*
X224030000Y-70010000D01*
X232260000Y-70010000D02*
X237860000Y-64410000D01*
X220270000Y-66730000D02*
X220750000Y-66730000D01*
G04 #@! TO.N,/BoostConverter/VFB*
X234520000Y-51680000D02*
X234520000Y-52040000D01*
X225260000Y-61300000D02*
X225260000Y-62520000D01*
X234520000Y-52040000D02*
X225260000Y-61300000D01*
G04 #@! TO.N,/Opamp/P0W*
X199950000Y-80700000D02*
X199950000Y-51800000D01*
X201850000Y-49900000D02*
X203250000Y-49900000D01*
D23*
X200225000Y-93225000D02*
X199825000Y-93625000D01*
D18*
X203475000Y-84225000D02*
X199950000Y-80700000D01*
X199950000Y-51800000D02*
X201850000Y-49900000D01*
X211700000Y-46060000D02*
X207960000Y-46060000D01*
X203250000Y-49900000D02*
X207525000Y-45625000D01*
X207960000Y-46060000D02*
X207525000Y-45625000D01*
D23*
X201375000Y-93225000D02*
X200225000Y-93225000D01*
X199825000Y-89125000D02*
X199887500Y-89062500D01*
X199825000Y-93625000D02*
X199825000Y-89125000D01*
D18*
G04 #@! TO.N,/Opamp/P1W*
X210850000Y-50800000D02*
X210867463Y-50800000D01*
X227800000Y-44250000D02*
X226750000Y-44250000D01*
X212300000Y-94250000D02*
X212300000Y-78500000D01*
X214550000Y-96500000D02*
X212300000Y-94250000D01*
X211225000Y-66025000D02*
X211225000Y-52900000D01*
X227800000Y-44250000D02*
X236050000Y-44250000D01*
X214550000Y-96550000D02*
X215350000Y-97350000D01*
X214550000Y-96550000D02*
X214550000Y-96500000D01*
X217900000Y-93650000D02*
X216475000Y-92225000D01*
X210867463Y-50800000D02*
X215217463Y-46450000D01*
X220000000Y-44700000D02*
X218150000Y-44700000D01*
X211225000Y-52900000D02*
X210850000Y-52525000D01*
X226750000Y-44250000D02*
X226540000Y-44040000D01*
X215350000Y-97350000D02*
X217325000Y-97350000D01*
X218150000Y-44700000D02*
X216400000Y-46450000D01*
X217325000Y-97350000D02*
X217900000Y-96775000D01*
X216475000Y-92225000D02*
X216475000Y-91875000D01*
D23*
X214200000Y-86450000D02*
X216475000Y-88725000D01*
D18*
X212300000Y-78500000D02*
X212300000Y-67100000D01*
X217900000Y-96775000D02*
X217900000Y-93650000D01*
X226540000Y-44040000D02*
X220660000Y-44040000D01*
X215217463Y-46450000D02*
X216400000Y-46450000D01*
X236050000Y-44250000D02*
X236200000Y-44100000D01*
X212300000Y-67100000D02*
X211225000Y-66025000D01*
X220660000Y-44040000D02*
X220000000Y-44700000D01*
D23*
X216475000Y-88725000D02*
X216475000Y-91875000D01*
D18*
X210850000Y-52525000D02*
X210850000Y-50800000D01*
G04 #@! TO.N,Net-(Q5-B)*
X203325000Y-58120000D02*
X205150000Y-58120000D01*
X203132500Y-58312500D02*
X203325000Y-58120000D01*
G04 #@! TO.N,Net-(Q7-C)*
X241630000Y-55590000D02*
X240860000Y-54820000D01*
X241630000Y-58810000D02*
X241630000Y-55590000D01*
G04 #@! TO.N,Net-(Q20-B)*
X236610000Y-59580000D02*
X236610000Y-63720000D01*
D23*
G04 #@! TO.N,/Opamp/P030*
X202200000Y-95125000D02*
X202125000Y-95200000D01*
X203950000Y-93650000D02*
X202725000Y-93650000D01*
X202200000Y-94175000D02*
X202200000Y-95125000D01*
X202725000Y-93650000D02*
X202200000Y-94175000D01*
G04 #@! TO.N,/Opamp/P015*
X202250000Y-90650000D02*
X202100000Y-90800000D01*
X202571969Y-89553031D02*
X202250000Y-89875000D01*
X203843041Y-89553031D02*
X202571969Y-89553031D01*
X202250000Y-89875000D02*
X202250000Y-90650000D01*
G04 #@! TO.N,/Opamp/P010*
X206450000Y-87875000D02*
X203675000Y-87875000D01*
X206712500Y-87612500D02*
X206450000Y-87875000D01*
D18*
G04 #@! TO.N,/Opamp/SCL*
X207375000Y-82425000D02*
X209450000Y-84500000D01*
X210225000Y-78825000D02*
X207300000Y-81750000D01*
X210225000Y-77375000D02*
X210225000Y-78825000D01*
X207300000Y-81750000D02*
X207300000Y-82425000D01*
D23*
X207300000Y-82425000D02*
X207375000Y-82425000D01*
D18*
X209450000Y-84500000D02*
X209450000Y-86950000D01*
D23*
G04 #@! TO.N,/Opamp/P125*
X214300000Y-92350000D02*
X214300000Y-89525000D01*
X214300000Y-89525000D02*
X214000000Y-89225000D01*
G04 #@! TO.N,/Opamp/P140*
X211775000Y-85875000D02*
X210600000Y-84700000D01*
X211775000Y-86500000D02*
X211775000Y-85875000D01*
X210275000Y-84700000D02*
X210250000Y-84675000D01*
X210600000Y-84700000D02*
X210275000Y-84700000D01*
D18*
G04 #@! TO.N,Net-(Q4-B)*
X202490000Y-55900000D02*
X202490000Y-60690000D01*
X202490000Y-60690000D02*
X204990000Y-63190000D01*
G04 #@! TD*
G04 #@! TA.AperFunction,Conductor*
G04 #@! TO.N,GND*
G36*
X212656180Y-66825035D02*
G01*
X212665445Y-66832890D01*
X212800826Y-66968270D01*
X212822218Y-67014146D01*
X212822500Y-67020596D01*
X212822500Y-93245015D01*
X212820632Y-93256463D01*
X212821347Y-93256563D01*
X212820399Y-93263352D01*
X212822460Y-93307913D01*
X212822500Y-93309622D01*
X212822500Y-93328067D01*
X212823213Y-93331886D01*
X212823803Y-93336971D01*
X212824150Y-93344462D01*
X212825192Y-93366987D01*
X212825192Y-93366990D01*
X212829674Y-93377141D01*
X212834718Y-93393428D01*
X212836757Y-93404335D01*
X212850502Y-93426535D01*
X212852564Y-93429864D01*
X212854956Y-93434402D01*
X212867096Y-93461895D01*
X212874943Y-93469742D01*
X212885532Y-93483110D01*
X212888254Y-93487506D01*
X212891373Y-93492543D01*
X212915348Y-93510648D01*
X212919211Y-93514010D01*
X215588880Y-96183679D01*
X215595651Y-96193089D01*
X215596227Y-96192655D01*
X215600360Y-96198128D01*
X215632935Y-96227824D01*
X215633313Y-96228168D01*
X215634549Y-96229349D01*
X215647602Y-96242401D01*
X215647607Y-96242406D01*
X215650812Y-96244602D01*
X215654830Y-96247783D01*
X215677031Y-96268022D01*
X215685558Y-96271325D01*
X215687374Y-96272029D01*
X215702459Y-96279980D01*
X215706305Y-96282614D01*
X215711617Y-96286253D01*
X215740862Y-96293131D01*
X215745764Y-96294649D01*
X215773771Y-96305500D01*
X215773772Y-96305500D01*
X215784867Y-96305500D01*
X215801809Y-96307465D01*
X215812609Y-96310006D01*
X215842372Y-96305854D01*
X215847481Y-96305500D01*
X216090810Y-96305500D01*
X216138376Y-96322813D01*
X216143136Y-96327174D01*
X216151535Y-96335573D01*
X216257518Y-96389574D01*
X216375000Y-96408181D01*
X216492482Y-96389574D01*
X216598465Y-96335573D01*
X216682573Y-96251465D01*
X216736574Y-96145482D01*
X216755181Y-96028000D01*
X216736574Y-95910518D01*
X216682573Y-95804535D01*
X216598465Y-95720427D01*
X216546484Y-95693941D01*
X216492483Y-95666426D01*
X216375000Y-95647819D01*
X216257517Y-95666426D01*
X216257516Y-95666426D01*
X216151533Y-95720428D01*
X216143136Y-95728826D01*
X216097260Y-95750218D01*
X216090810Y-95750500D01*
X215971242Y-95750500D01*
X215923676Y-95733187D01*
X215918916Y-95728826D01*
X213399173Y-93209083D01*
X213377781Y-93163207D01*
X213377499Y-93156779D01*
X213377499Y-89225000D01*
X213619819Y-89225000D01*
X213638426Y-89342482D01*
X213638426Y-89342483D01*
X213665941Y-89396484D01*
X213692427Y-89448465D01*
X213776535Y-89532573D01*
X213880496Y-89585544D01*
X213882516Y-89586573D01*
X213882517Y-89586574D01*
X213897924Y-89589014D01*
X213987077Y-89603134D01*
X214031348Y-89627673D01*
X214049489Y-89674930D01*
X214049500Y-89676222D01*
X214049500Y-92038810D01*
X214032187Y-92086376D01*
X214027833Y-92091127D01*
X214020497Y-92098465D01*
X213992423Y-92126539D01*
X213938427Y-92232513D01*
X213938426Y-92232517D01*
X213920640Y-92344819D01*
X213919819Y-92350000D01*
X213933693Y-92437599D01*
X213938426Y-92467482D01*
X213938426Y-92467483D01*
X213945718Y-92481794D01*
X213992427Y-92573465D01*
X214076535Y-92657573D01*
X214182518Y-92711574D01*
X214300000Y-92730181D01*
X214417482Y-92711574D01*
X214523465Y-92657573D01*
X214607573Y-92573465D01*
X214661574Y-92467482D01*
X214680181Y-92350000D01*
X214661574Y-92232518D01*
X214607573Y-92126535D01*
X214572174Y-92091136D01*
X214550782Y-92045260D01*
X214550500Y-92038810D01*
X214550500Y-89556961D01*
X214551922Y-89542523D01*
X214555408Y-89525000D01*
X214535966Y-89427259D01*
X214499330Y-89372430D01*
X214480601Y-89344399D01*
X214480599Y-89344398D01*
X214480599Y-89344397D01*
X214465739Y-89334468D01*
X214454526Y-89325266D01*
X214401855Y-89272595D01*
X214382257Y-89230568D01*
X214381092Y-89230753D01*
X214371921Y-89172850D01*
X214361574Y-89107518D01*
X214307573Y-89001535D01*
X214223465Y-88917427D01*
X214171483Y-88890941D01*
X214117483Y-88863426D01*
X214000000Y-88844819D01*
X213882517Y-88863426D01*
X213882516Y-88863426D01*
X213776533Y-88917428D01*
X213692428Y-89001533D01*
X213638426Y-89107516D01*
X213638426Y-89107517D01*
X213619819Y-89225000D01*
X213377499Y-89225000D01*
X213377499Y-75858541D01*
X213394812Y-75810976D01*
X213438649Y-75785666D01*
X213488499Y-75794456D01*
X213514417Y-75819590D01*
X213532176Y-75848274D01*
X213534566Y-75852809D01*
X213547794Y-75882765D01*
X213547795Y-75882766D01*
X213556793Y-75891764D01*
X213567380Y-75905130D01*
X213574081Y-75915952D01*
X213574082Y-75915953D01*
X213600212Y-75935686D01*
X213604082Y-75939053D01*
X217334318Y-79669289D01*
X217341404Y-79679137D01*
X217341910Y-79678756D01*
X217346043Y-79684229D01*
X217381785Y-79716812D01*
X217383022Y-79717993D01*
X217397203Y-79732174D01*
X217400856Y-79734676D01*
X217404858Y-79737847D01*
X217417990Y-79749818D01*
X217429065Y-79759915D01*
X217429066Y-79759915D01*
X217429067Y-79759916D01*
X217440934Y-79764513D01*
X217456022Y-79772465D01*
X217466519Y-79779656D01*
X217489500Y-79785061D01*
X217498387Y-79787151D01*
X217503289Y-79788669D01*
X217533826Y-79800500D01*
X217533827Y-79800500D01*
X217546553Y-79800500D01*
X217563496Y-79802466D01*
X217575881Y-79805379D01*
X217608315Y-79800854D01*
X217613426Y-79800500D01*
X220438913Y-79800500D01*
X220450889Y-79802453D01*
X220450977Y-79801826D01*
X220457765Y-79802773D01*
X220506103Y-79800538D01*
X220507788Y-79800500D01*
X220527842Y-79800500D01*
X220527844Y-79800500D01*
X220532187Y-79799687D01*
X220537266Y-79799097D01*
X220569992Y-79797585D01*
X220581639Y-79792441D01*
X220597927Y-79787398D01*
X220610433Y-79785061D01*
X220638281Y-79767818D01*
X220642794Y-79765438D01*
X220672765Y-79752206D01*
X220681761Y-79743208D01*
X220695138Y-79732614D01*
X220695439Y-79732428D01*
X220705952Y-79725919D01*
X220725687Y-79699783D01*
X220729051Y-79695919D01*
X221902798Y-78522174D01*
X221948675Y-78500782D01*
X221955124Y-78500500D01*
X223644877Y-78500500D01*
X223692443Y-78517813D01*
X223697203Y-78522174D01*
X224677825Y-79502796D01*
X224699217Y-79548672D01*
X224699499Y-79555122D01*
X224699499Y-87744889D01*
X224691433Y-87778484D01*
X224638427Y-87882513D01*
X224638426Y-87882517D01*
X224619819Y-88000000D01*
X224638426Y-88117482D01*
X224691434Y-88221517D01*
X224699499Y-88255112D01*
X224699500Y-91587339D01*
X224682187Y-91634905D01*
X224677826Y-91639665D01*
X223265708Y-93051782D01*
X223255865Y-93058868D01*
X223256245Y-93059371D01*
X223250773Y-93063503D01*
X223218174Y-93099260D01*
X223216997Y-93100492D01*
X223202822Y-93114669D01*
X223200326Y-93118314D01*
X223197145Y-93122329D01*
X223175085Y-93146528D01*
X223175083Y-93146530D01*
X223170483Y-93158404D01*
X223162536Y-93173480D01*
X223155344Y-93183980D01*
X223147847Y-93215853D01*
X223146330Y-93220750D01*
X223140504Y-93235791D01*
X223107179Y-93273892D01*
X223057160Y-93281659D01*
X223013850Y-93255457D01*
X222997500Y-93209062D01*
X222997500Y-80324190D01*
X223014813Y-80276624D01*
X223019174Y-80271864D01*
X223019177Y-80271861D01*
X223027573Y-80263465D01*
X223081574Y-80157482D01*
X223100181Y-80040000D01*
X223081574Y-79922518D01*
X223027573Y-79816535D01*
X222943465Y-79732427D01*
X222871814Y-79695919D01*
X222837483Y-79678426D01*
X222720000Y-79659819D01*
X222602517Y-79678426D01*
X222602516Y-79678426D01*
X222496533Y-79732428D01*
X222412428Y-79816533D01*
X222358426Y-79922516D01*
X222358426Y-79922517D01*
X222339819Y-80040000D01*
X222358426Y-80157482D01*
X222358426Y-80157483D01*
X222412426Y-80263464D01*
X222412427Y-80263465D01*
X222420824Y-80271862D01*
X222442218Y-80317737D01*
X222442500Y-80324189D01*
X222442500Y-104542661D01*
X222440632Y-104554109D01*
X222441347Y-104554209D01*
X222440399Y-104560998D01*
X222442460Y-104605559D01*
X222442500Y-104607268D01*
X222442500Y-104625713D01*
X222443213Y-104629532D01*
X222443803Y-104634617D01*
X222444442Y-104648425D01*
X222445192Y-104664633D01*
X222445192Y-104664636D01*
X222449674Y-104674787D01*
X222454718Y-104691074D01*
X222456757Y-104701981D01*
X222472564Y-104727510D01*
X222474956Y-104732048D01*
X222487096Y-104759541D01*
X222494943Y-104767388D01*
X222505532Y-104780756D01*
X222511373Y-104790189D01*
X222535348Y-104808294D01*
X222539211Y-104811656D01*
X222735124Y-105007569D01*
X222755887Y-105048318D01*
X222759231Y-105069432D01*
X222768426Y-105127482D01*
X222822427Y-105233465D01*
X222906535Y-105317573D01*
X223012518Y-105371574D01*
X223130000Y-105390181D01*
X223247482Y-105371574D01*
X223353465Y-105317573D01*
X223437573Y-105233465D01*
X223491574Y-105127482D01*
X223510181Y-105010000D01*
X223491574Y-104892518D01*
X223437573Y-104786535D01*
X223353465Y-104702427D01*
X223247482Y-104648426D01*
X223247480Y-104648425D01*
X223247478Y-104648425D01*
X223168317Y-104635887D01*
X223127568Y-104615124D01*
X223019174Y-104506729D01*
X222997782Y-104460852D01*
X222997500Y-104454403D01*
X222997500Y-98641376D01*
X223014813Y-98593810D01*
X223058650Y-98568500D01*
X223108500Y-98577290D01*
X223139196Y-98611489D01*
X223142557Y-98619102D01*
X223147602Y-98635395D01*
X223148240Y-98638809D01*
X223149499Y-98652403D01*
X223149500Y-100363912D01*
X223147547Y-100375889D01*
X223148174Y-100375977D01*
X223147226Y-100382765D01*
X223148648Y-100413509D01*
X223149461Y-100431102D01*
X223149500Y-100432787D01*
X223149500Y-100452850D01*
X223150311Y-100457186D01*
X223150903Y-100462281D01*
X223152415Y-100494994D01*
X223157554Y-100506632D01*
X223162600Y-100522923D01*
X223164938Y-100535432D01*
X223164939Y-100535433D01*
X223182175Y-100563274D01*
X223184566Y-100567809D01*
X223197794Y-100597765D01*
X223197795Y-100597766D01*
X223206793Y-100606764D01*
X223217380Y-100620130D01*
X223224081Y-100630952D01*
X223224082Y-100630953D01*
X223250212Y-100650686D01*
X223254082Y-100654053D01*
X223594346Y-100994317D01*
X223922826Y-101322796D01*
X223944218Y-101368672D01*
X223944500Y-101375122D01*
X223944500Y-106575500D01*
X223927187Y-106623066D01*
X223883350Y-106648376D01*
X223870500Y-106649500D01*
X220905123Y-106649500D01*
X220857557Y-106632187D01*
X220852797Y-106627826D01*
X211572674Y-97347702D01*
X211551282Y-97301826D01*
X211551000Y-97295376D01*
X211551000Y-90261589D01*
X211552954Y-90249615D01*
X211552326Y-90249528D01*
X211553273Y-90242737D01*
X211553273Y-90242735D01*
X211551038Y-90194397D01*
X211551000Y-90192711D01*
X211551000Y-90172657D01*
X211550188Y-90168317D01*
X211549596Y-90163227D01*
X211548085Y-90130508D01*
X211542942Y-90118860D01*
X211537898Y-90102569D01*
X211535561Y-90090068D01*
X211535561Y-90090067D01*
X211518326Y-90062231D01*
X211515937Y-90057699D01*
X211502706Y-90027734D01*
X211493706Y-90018734D01*
X211483116Y-90005364D01*
X211476419Y-89994548D01*
X211476418Y-89994547D01*
X211469263Y-89989144D01*
X211450288Y-89974815D01*
X211446424Y-89971452D01*
X210199972Y-88725000D01*
X208935883Y-87460912D01*
X208914492Y-87415037D01*
X208927593Y-87366142D01*
X208954609Y-87342656D01*
X209023465Y-87307573D01*
X209097675Y-87233362D01*
X209143550Y-87211971D01*
X209192444Y-87225071D01*
X209202320Y-87233358D01*
X209226535Y-87257573D01*
X209332518Y-87311574D01*
X209450000Y-87330181D01*
X209567482Y-87311574D01*
X209673465Y-87257573D01*
X209757573Y-87173465D01*
X209811574Y-87067482D01*
X209830181Y-86950000D01*
X209811574Y-86832518D01*
X209758564Y-86728480D01*
X209750499Y-86694892D01*
X209750499Y-84830017D01*
X209767812Y-84782452D01*
X209811649Y-84757142D01*
X209861499Y-84765932D01*
X209890433Y-84796422D01*
X209917411Y-84849369D01*
X209942427Y-84898465D01*
X210026535Y-84982573D01*
X210132518Y-85036574D01*
X210250000Y-85055181D01*
X210367482Y-85036574D01*
X210461896Y-84988467D01*
X210512134Y-84982298D01*
X210547815Y-85002076D01*
X211502826Y-85957086D01*
X211524218Y-86002962D01*
X211524500Y-86009412D01*
X211524500Y-86188809D01*
X211507187Y-86236375D01*
X211502827Y-86241134D01*
X211467428Y-86276533D01*
X211413426Y-86382516D01*
X211413426Y-86382517D01*
X211394819Y-86499999D01*
X211413426Y-86617482D01*
X211413426Y-86617483D01*
X211416474Y-86623465D01*
X211467427Y-86723465D01*
X211551535Y-86807573D01*
X211657518Y-86861574D01*
X211775000Y-86880181D01*
X211892482Y-86861574D01*
X211892487Y-86861571D01*
X211898023Y-86859774D01*
X211898442Y-86861066D01*
X211942146Y-86855699D01*
X211984599Y-86883268D01*
X211999500Y-86927803D01*
X211999500Y-94188912D01*
X211997547Y-94200889D01*
X211998174Y-94200977D01*
X211997226Y-94207765D01*
X211998648Y-94238509D01*
X211999461Y-94256102D01*
X211999500Y-94257787D01*
X211999500Y-94277850D01*
X212000311Y-94282186D01*
X212000903Y-94287281D01*
X212002415Y-94319994D01*
X212007554Y-94331632D01*
X212012600Y-94347923D01*
X212014938Y-94360432D01*
X212014939Y-94360433D01*
X212032175Y-94388274D01*
X212034566Y-94392809D01*
X212047794Y-94422765D01*
X212047795Y-94422766D01*
X212056793Y-94431764D01*
X212067380Y-94445130D01*
X212074081Y-94455952D01*
X212074082Y-94455953D01*
X212100212Y-94475686D01*
X212104082Y-94479053D01*
X214151836Y-96526808D01*
X214172599Y-96567557D01*
X214188426Y-96667483D01*
X214190831Y-96672203D01*
X214242427Y-96773465D01*
X214326535Y-96857573D01*
X214406818Y-96898479D01*
X214432516Y-96911573D01*
X214432517Y-96911574D01*
X214442804Y-96913203D01*
X214473032Y-96917990D01*
X214513782Y-96938753D01*
X215094318Y-97519289D01*
X215101404Y-97529137D01*
X215101910Y-97528756D01*
X215106043Y-97534229D01*
X215141785Y-97566812D01*
X215143022Y-97567993D01*
X215157203Y-97582174D01*
X215160856Y-97584676D01*
X215164858Y-97587847D01*
X215170850Y-97593309D01*
X215189065Y-97609915D01*
X215189066Y-97609915D01*
X215189067Y-97609916D01*
X215196528Y-97612806D01*
X215200931Y-97614512D01*
X215216021Y-97622465D01*
X215226519Y-97629657D01*
X215258388Y-97637152D01*
X215263287Y-97638668D01*
X215293827Y-97650500D01*
X215306553Y-97650500D01*
X215323488Y-97652464D01*
X215335881Y-97655379D01*
X215368315Y-97650854D01*
X215373426Y-97650500D01*
X217263913Y-97650500D01*
X217275889Y-97652453D01*
X217275977Y-97651826D01*
X217282765Y-97652773D01*
X217331103Y-97650538D01*
X217332788Y-97650500D01*
X217352842Y-97650500D01*
X217352844Y-97650500D01*
X217357187Y-97649687D01*
X217362266Y-97649097D01*
X217394992Y-97647585D01*
X217406639Y-97642441D01*
X217422927Y-97637398D01*
X217435433Y-97635061D01*
X217463281Y-97617818D01*
X217467794Y-97615438D01*
X217497765Y-97602206D01*
X217506761Y-97593208D01*
X217520138Y-97582614D01*
X217520856Y-97582170D01*
X217530952Y-97575919D01*
X217550687Y-97549783D01*
X217554051Y-97545919D01*
X217804594Y-97295376D01*
X218069288Y-97030681D01*
X218079136Y-97023599D01*
X218078753Y-97023092D01*
X218084221Y-97018961D01*
X218084228Y-97018958D01*
X218116837Y-96983186D01*
X218117995Y-96981975D01*
X218132174Y-96967797D01*
X218134673Y-96964147D01*
X218137848Y-96960138D01*
X218159916Y-96935933D01*
X218164513Y-96924064D01*
X218172468Y-96908974D01*
X218179657Y-96898481D01*
X218182745Y-96885348D01*
X218187154Y-96866607D01*
X218188671Y-96861705D01*
X218190273Y-96857571D01*
X218200500Y-96831173D01*
X218200500Y-96818446D01*
X218202466Y-96801503D01*
X218205379Y-96789119D01*
X218200854Y-96756683D01*
X218200500Y-96751573D01*
X218200500Y-93711089D01*
X218202454Y-93699115D01*
X218201826Y-93699028D01*
X218202773Y-93692237D01*
X218202597Y-93688426D01*
X218200538Y-93643897D01*
X218200500Y-93642211D01*
X218200500Y-93622157D01*
X218199688Y-93617817D01*
X218199096Y-93612727D01*
X218197585Y-93580008D01*
X218192442Y-93568360D01*
X218187398Y-93552069D01*
X218185061Y-93539568D01*
X218185061Y-93539567D01*
X218167826Y-93511731D01*
X218165437Y-93507199D01*
X218152206Y-93477234D01*
X218143206Y-93468234D01*
X218132616Y-93454864D01*
X218125919Y-93444048D01*
X218125918Y-93444047D01*
X218118763Y-93438644D01*
X218099788Y-93424315D01*
X218095924Y-93420952D01*
X216817506Y-92142535D01*
X216796114Y-92096659D01*
X216803898Y-92056614D01*
X216836572Y-91992486D01*
X216836573Y-91992483D01*
X216836574Y-91992482D01*
X216855181Y-91875000D01*
X216836574Y-91757518D01*
X216836413Y-91757203D01*
X216828564Y-91741797D01*
X216782573Y-91651535D01*
X216765943Y-91634905D01*
X216747173Y-91616134D01*
X216725782Y-91570258D01*
X216725500Y-91563809D01*
X216725500Y-88756962D01*
X216726922Y-88742525D01*
X216729377Y-88730181D01*
X216730408Y-88725000D01*
X216710966Y-88627260D01*
X216669578Y-88565317D01*
X216669577Y-88565316D01*
X216655601Y-88544399D01*
X216640738Y-88534468D01*
X216629530Y-88525269D01*
X214633260Y-86528999D01*
X217338280Y-86528999D01*
X217357115Y-86720232D01*
X217376986Y-86785737D01*
X217412895Y-86904114D01*
X217503477Y-87073581D01*
X217625380Y-87222120D01*
X217773919Y-87344023D01*
X217943386Y-87434605D01*
X218127269Y-87490385D01*
X218318500Y-87509220D01*
X218509731Y-87490385D01*
X218693614Y-87434605D01*
X218863081Y-87344023D01*
X219011620Y-87222120D01*
X219133523Y-87073581D01*
X219224105Y-86904114D01*
X219279885Y-86720231D01*
X219298720Y-86529000D01*
X219279885Y-86337769D01*
X219224105Y-86153886D01*
X219133523Y-85984419D01*
X219011620Y-85835880D01*
X218863081Y-85713977D01*
X218693614Y-85623395D01*
X218589800Y-85591903D01*
X218509732Y-85567615D01*
X218318500Y-85548780D01*
X218127267Y-85567615D01*
X217943383Y-85623396D01*
X217810547Y-85694399D01*
X217773919Y-85713977D01*
X217773916Y-85713978D01*
X217773912Y-85713982D01*
X217625380Y-85835880D01*
X217503482Y-85984412D01*
X217503476Y-85984421D01*
X217412896Y-86153883D01*
X217357115Y-86337767D01*
X217338280Y-86528999D01*
X214633260Y-86528999D01*
X214601855Y-86497594D01*
X214582258Y-86455568D01*
X214581092Y-86455753D01*
X214580181Y-86450000D01*
X214561574Y-86332518D01*
X214507573Y-86226535D01*
X214423465Y-86142427D01*
X214368787Y-86114567D01*
X214317483Y-86088426D01*
X214200000Y-86069819D01*
X214082517Y-86088426D01*
X214082516Y-86088426D01*
X213976533Y-86142428D01*
X213892428Y-86226533D01*
X213838426Y-86332516D01*
X213838426Y-86332517D01*
X213819819Y-86450000D01*
X213838426Y-86567482D01*
X213838426Y-86567483D01*
X213863902Y-86617482D01*
X213892427Y-86673465D01*
X213976535Y-86757573D01*
X214082518Y-86811574D01*
X214200000Y-86830181D01*
X214200000Y-86830180D01*
X214205753Y-86831092D01*
X214205317Y-86833838D01*
X214242835Y-86847494D01*
X214247595Y-86851855D01*
X216202826Y-88807086D01*
X216224218Y-88852962D01*
X216224500Y-88859412D01*
X216224500Y-91563810D01*
X216207187Y-91611376D01*
X216202833Y-91616127D01*
X216184057Y-91634905D01*
X216167423Y-91651539D01*
X216113427Y-91757513D01*
X216113426Y-91757517D01*
X216094819Y-91875000D01*
X216113426Y-91992482D01*
X216113426Y-91992483D01*
X216124792Y-92014789D01*
X216166434Y-92096517D01*
X216174500Y-92130111D01*
X216174500Y-92163912D01*
X216172547Y-92175889D01*
X216173174Y-92175977D01*
X216172226Y-92182765D01*
X216173010Y-92199704D01*
X216174461Y-92231102D01*
X216174500Y-92232787D01*
X216174500Y-92252850D01*
X216175311Y-92257186D01*
X216175902Y-92262277D01*
X216177037Y-92286820D01*
X216177415Y-92294994D01*
X216182554Y-92306632D01*
X216187600Y-92322923D01*
X216189938Y-92335432D01*
X216189939Y-92335433D01*
X216207175Y-92363274D01*
X216209566Y-92367809D01*
X216222794Y-92397765D01*
X216222795Y-92397766D01*
X216231793Y-92406764D01*
X216242380Y-92420130D01*
X216249081Y-92430952D01*
X216249082Y-92430953D01*
X216275212Y-92450686D01*
X216279082Y-92454052D01*
X217577826Y-93752797D01*
X217599218Y-93798672D01*
X217599500Y-93805122D01*
X217599500Y-96619877D01*
X217582187Y-96667443D01*
X217577826Y-96672203D01*
X217222203Y-97027826D01*
X217176327Y-97049218D01*
X217169877Y-97049500D01*
X215505123Y-97049500D01*
X215457557Y-97032187D01*
X215452797Y-97027826D01*
X214938753Y-96513782D01*
X214917990Y-96473031D01*
X214911574Y-96432517D01*
X214911573Y-96432516D01*
X214910544Y-96430496D01*
X214857573Y-96326535D01*
X214773465Y-96242427D01*
X214675782Y-96192655D01*
X214669596Y-96189503D01*
X214650866Y-96175895D01*
X212622174Y-94147202D01*
X212600782Y-94101326D01*
X212600500Y-94094876D01*
X212600500Y-67161093D01*
X212602454Y-67149116D01*
X212601827Y-67149029D01*
X212602774Y-67142238D01*
X212602774Y-67142236D01*
X212600538Y-67093887D01*
X212600500Y-67092199D01*
X212600500Y-67072155D01*
X212600499Y-67072153D01*
X212599689Y-67067819D01*
X212599097Y-67062717D01*
X212597585Y-67030009D01*
X212592444Y-67018366D01*
X212587398Y-67002071D01*
X212585595Y-66992427D01*
X212585061Y-66989567D01*
X212567824Y-66961728D01*
X212565434Y-66957196D01*
X212552206Y-66927235D01*
X212552203Y-66927232D01*
X212552072Y-66927040D01*
X212552005Y-66926780D01*
X212549436Y-66920961D01*
X212550399Y-66920535D01*
X212539470Y-66878015D01*
X212561330Y-66832359D01*
X212607422Y-66811436D01*
X212656180Y-66825035D01*
G37*
G04 #@! TD.AperFunction*
G04 #@! TA.AperFunction,Conductor*
G36*
X219943264Y-66417813D02*
G01*
X219968574Y-66461650D01*
X219961632Y-66508094D01*
X219959334Y-66512606D01*
X219908426Y-66612515D01*
X219908426Y-66612517D01*
X219894327Y-66701540D01*
X219889819Y-66730000D01*
X219901836Y-66805875D01*
X219908426Y-66847482D01*
X219908426Y-66847483D01*
X219935941Y-66901483D01*
X219962427Y-66953465D01*
X220046535Y-67037573D01*
X220152518Y-67091574D01*
X220270000Y-67110181D01*
X220387482Y-67091574D01*
X220491517Y-67038565D01*
X220525111Y-67030500D01*
X220594877Y-67030500D01*
X220642443Y-67047813D01*
X220647203Y-67052174D01*
X223774318Y-70179289D01*
X223781404Y-70189137D01*
X223781910Y-70188756D01*
X223786043Y-70194229D01*
X223821785Y-70226812D01*
X223823022Y-70227993D01*
X223837203Y-70242174D01*
X223840856Y-70244676D01*
X223844858Y-70247847D01*
X223856927Y-70258849D01*
X223870052Y-70270815D01*
X223893539Y-70315655D01*
X223882709Y-70365102D01*
X223842628Y-70396018D01*
X223820197Y-70399500D01*
X222855123Y-70399500D01*
X222807557Y-70382187D01*
X222802797Y-70377826D01*
X219250044Y-66825073D01*
X219229282Y-66784324D01*
X219211574Y-66672518D01*
X219211574Y-66672517D01*
X219211573Y-66672516D01*
X219205470Y-66660539D01*
X219157573Y-66566535D01*
X219117864Y-66526826D01*
X219096472Y-66480950D01*
X219109573Y-66432055D01*
X219151037Y-66403021D01*
X219170190Y-66400500D01*
X219895698Y-66400500D01*
X219943264Y-66417813D01*
G37*
G04 #@! TD.AperFunction*
G04 #@! TA.AperFunction,Conductor*
G36*
X247775913Y-40362813D02*
G01*
X247801223Y-40406650D01*
X247802345Y-40418998D01*
X247924817Y-58463968D01*
X248118151Y-86949999D01*
X248119500Y-87148665D01*
X248119500Y-109522489D01*
X248102187Y-109570055D01*
X248058350Y-109595365D01*
X248046087Y-109596487D01*
X199195557Y-109984113D01*
X199147855Y-109967178D01*
X199122198Y-109923543D01*
X199120976Y-109910994D01*
X199077430Y-106200005D01*
X210169532Y-106200005D01*
X210189364Y-106426688D01*
X210189365Y-106426696D01*
X210248258Y-106646488D01*
X210248260Y-106646492D01*
X210248261Y-106646496D01*
X210344432Y-106852734D01*
X210344434Y-106852736D01*
X210344435Y-106852739D01*
X210455029Y-107010685D01*
X210474953Y-107039139D01*
X210635861Y-107200047D01*
X210822266Y-107330568D01*
X211028504Y-107426739D01*
X211028510Y-107426740D01*
X211028511Y-107426741D01*
X211248303Y-107485634D01*
X211248305Y-107485634D01*
X211248308Y-107485635D01*
X211321125Y-107492005D01*
X211418212Y-107500500D01*
X211418216Y-107500500D01*
X211531788Y-107500500D01*
X211616737Y-107493067D01*
X211701692Y-107485635D01*
X211921496Y-107426739D01*
X212127734Y-107330568D01*
X212314139Y-107200047D01*
X212475047Y-107039139D01*
X212605568Y-106852734D01*
X212701739Y-106646496D01*
X212760635Y-106426692D01*
X212780468Y-106200000D01*
X212780468Y-106199994D01*
X212760635Y-105973311D01*
X212760634Y-105973303D01*
X212701741Y-105753511D01*
X212701740Y-105753510D01*
X212701739Y-105753504D01*
X212605568Y-105547266D01*
X212475047Y-105360861D01*
X212314139Y-105199953D01*
X212210642Y-105127484D01*
X212127739Y-105069435D01*
X212127736Y-105069434D01*
X212127734Y-105069432D01*
X211921496Y-104973261D01*
X211921492Y-104973260D01*
X211921488Y-104973258D01*
X211701696Y-104914365D01*
X211701688Y-104914364D01*
X211531788Y-104899500D01*
X211531784Y-104899500D01*
X211418216Y-104899500D01*
X211418212Y-104899500D01*
X211248311Y-104914364D01*
X211248303Y-104914365D01*
X211028511Y-104973258D01*
X211028504Y-104973260D01*
X211028504Y-104973261D01*
X210949718Y-105010000D01*
X210822260Y-105069435D01*
X210635860Y-105199953D01*
X210474953Y-105360860D01*
X210344435Y-105547260D01*
X210248263Y-105753500D01*
X210248258Y-105753511D01*
X210189365Y-105973303D01*
X210189364Y-105973311D01*
X210169532Y-106199994D01*
X210169532Y-106200005D01*
X199077430Y-106200005D01*
X198948352Y-95200000D01*
X201744819Y-95200000D01*
X201763426Y-95317482D01*
X201763426Y-95317483D01*
X201790122Y-95369876D01*
X201817427Y-95423465D01*
X201901535Y-95507573D01*
X202007518Y-95561574D01*
X202125000Y-95580181D01*
X202242482Y-95561574D01*
X202348465Y-95507573D01*
X202432573Y-95423465D01*
X202486574Y-95317482D01*
X202505181Y-95200000D01*
X202486574Y-95082518D01*
X202464929Y-95040036D01*
X202458565Y-95027546D01*
X202450500Y-94993951D01*
X202450500Y-94309411D01*
X202467813Y-94261845D01*
X202472174Y-94257085D01*
X202807086Y-93922174D01*
X202852963Y-93900782D01*
X202859412Y-93900500D01*
X203638810Y-93900500D01*
X203686376Y-93917813D01*
X203691136Y-93922173D01*
X203726535Y-93957573D01*
X203832518Y-94011574D01*
X203950000Y-94030181D01*
X204067482Y-94011574D01*
X204173465Y-93957573D01*
X204257573Y-93873465D01*
X204311574Y-93767482D01*
X204330181Y-93650000D01*
X204311574Y-93532518D01*
X204257573Y-93426535D01*
X204173465Y-93342427D01*
X204109082Y-93309622D01*
X204067483Y-93288426D01*
X203950000Y-93269819D01*
X203832517Y-93288426D01*
X203832516Y-93288426D01*
X203726533Y-93342428D01*
X203691136Y-93377826D01*
X203645260Y-93399218D01*
X203638810Y-93399500D01*
X202756962Y-93399500D01*
X202742525Y-93398078D01*
X202725000Y-93394592D01*
X202627258Y-93414034D01*
X202597996Y-93433587D01*
X202544399Y-93469398D01*
X202544397Y-93469400D01*
X202534466Y-93484262D01*
X202525266Y-93495472D01*
X202045472Y-93975266D01*
X202034262Y-93984466D01*
X202019400Y-93994397D01*
X201997339Y-94027415D01*
X201964034Y-94077259D01*
X201944592Y-94175000D01*
X201948078Y-94192525D01*
X201949500Y-94206962D01*
X201949500Y-94822640D01*
X201932187Y-94870206D01*
X201909098Y-94888573D01*
X201901535Y-94892426D01*
X201817428Y-94976533D01*
X201763426Y-95082516D01*
X201763426Y-95082517D01*
X201744819Y-95200000D01*
X198948352Y-95200000D01*
X198929870Y-93625000D01*
X199444819Y-93625000D01*
X199463426Y-93742482D01*
X199463426Y-93742483D01*
X199479725Y-93774471D01*
X199517427Y-93848465D01*
X199601535Y-93932573D01*
X199707518Y-93986574D01*
X199825000Y-94005181D01*
X199942482Y-93986574D01*
X200048465Y-93932573D01*
X200132573Y-93848465D01*
X200186574Y-93742482D01*
X200205181Y-93625000D01*
X200205180Y-93624999D01*
X200206092Y-93619247D01*
X200208838Y-93619681D01*
X200222494Y-93582164D01*
X200226855Y-93577404D01*
X200307086Y-93497174D01*
X200352963Y-93475782D01*
X200359412Y-93475500D01*
X201063810Y-93475500D01*
X201111376Y-93492813D01*
X201116136Y-93497173D01*
X201151535Y-93532573D01*
X201257518Y-93586574D01*
X201375000Y-93605181D01*
X201492482Y-93586574D01*
X201598465Y-93532573D01*
X201682573Y-93448465D01*
X201736574Y-93342482D01*
X201755181Y-93225000D01*
X201736574Y-93107518D01*
X201682573Y-93001535D01*
X201598465Y-92917427D01*
X201546483Y-92890941D01*
X201492483Y-92863426D01*
X201375000Y-92844819D01*
X201257517Y-92863426D01*
X201257516Y-92863426D01*
X201151533Y-92917428D01*
X201116136Y-92952826D01*
X201070260Y-92974218D01*
X201063810Y-92974500D01*
X200256962Y-92974500D01*
X200242525Y-92973078D01*
X200225001Y-92969592D01*
X200225000Y-92969592D01*
X200200327Y-92974500D01*
X200200326Y-92974500D01*
X200190725Y-92976409D01*
X200163936Y-92981738D01*
X200113906Y-92974037D01*
X200080531Y-92935980D01*
X200075500Y-92909160D01*
X200075500Y-90800000D01*
X201719819Y-90800000D01*
X201738426Y-90917482D01*
X201738426Y-90917483D01*
X201765941Y-90971484D01*
X201792427Y-91023465D01*
X201876535Y-91107573D01*
X201982518Y-91161574D01*
X202100000Y-91180181D01*
X202217482Y-91161574D01*
X202323465Y-91107573D01*
X202407573Y-91023465D01*
X202461574Y-90917482D01*
X202480181Y-90800000D01*
X202479058Y-90792911D01*
X202483782Y-90753011D01*
X202485962Y-90747745D01*
X202485966Y-90747741D01*
X202505408Y-90650000D01*
X202501922Y-90632473D01*
X202500500Y-90618037D01*
X202500500Y-90009411D01*
X202517813Y-89961845D01*
X202522174Y-89957085D01*
X202654055Y-89825205D01*
X202699932Y-89803813D01*
X202706381Y-89803531D01*
X203531851Y-89803531D01*
X203579417Y-89820844D01*
X203584177Y-89825205D01*
X203619576Y-89860604D01*
X203725559Y-89914605D01*
X203843041Y-89933212D01*
X203960523Y-89914605D01*
X204066506Y-89860604D01*
X204150614Y-89776496D01*
X204204615Y-89670513D01*
X204223222Y-89553031D01*
X204204615Y-89435549D01*
X204150614Y-89329566D01*
X204066506Y-89245458D01*
X204014524Y-89218972D01*
X203960524Y-89191457D01*
X203843041Y-89172850D01*
X203725558Y-89191457D01*
X203725557Y-89191457D01*
X203619574Y-89245459D01*
X203584177Y-89280857D01*
X203538301Y-89302249D01*
X203531851Y-89302531D01*
X202603931Y-89302531D01*
X202589494Y-89301109D01*
X202571969Y-89297623D01*
X202547295Y-89302531D01*
X202474228Y-89317065D01*
X202391368Y-89372429D01*
X202391366Y-89372431D01*
X202381435Y-89387293D01*
X202372235Y-89398503D01*
X202095472Y-89675266D01*
X202084262Y-89684466D01*
X202069399Y-89694397D01*
X202043184Y-89733630D01*
X202043185Y-89733631D01*
X202014034Y-89777258D01*
X201994592Y-89875000D01*
X201998078Y-89892525D01*
X201999500Y-89906962D01*
X201999500Y-90384426D01*
X201982187Y-90431992D01*
X201959096Y-90450360D01*
X201876533Y-90492428D01*
X201792428Y-90576533D01*
X201738426Y-90682516D01*
X201738426Y-90682517D01*
X201719819Y-90800000D01*
X200075500Y-90800000D01*
X200075500Y-89433490D01*
X200092813Y-89385924D01*
X200107067Y-89374617D01*
X200106253Y-89373497D01*
X200110963Y-89370074D01*
X200110962Y-89370074D01*
X200110965Y-89370073D01*
X200195073Y-89285965D01*
X200249074Y-89179982D01*
X200267681Y-89062500D01*
X200249074Y-88945018D01*
X200195073Y-88839035D01*
X200110965Y-88754927D01*
X200052230Y-88725000D01*
X200004983Y-88700926D01*
X199887500Y-88682319D01*
X199770017Y-88700926D01*
X199770016Y-88700926D01*
X199664033Y-88754928D01*
X199579928Y-88839033D01*
X199525926Y-88945016D01*
X199525926Y-88945017D01*
X199507319Y-89062500D01*
X199525926Y-89179982D01*
X199566434Y-89259483D01*
X199574500Y-89293078D01*
X199574500Y-93313810D01*
X199557187Y-93361376D01*
X199552826Y-93366136D01*
X199517428Y-93401533D01*
X199463426Y-93507516D01*
X199463426Y-93507517D01*
X199444819Y-93625000D01*
X198929870Y-93625000D01*
X198871309Y-88634468D01*
X198862397Y-87875000D01*
X203294819Y-87875000D01*
X203313426Y-87992482D01*
X203313426Y-87992483D01*
X203324570Y-88014353D01*
X203367427Y-88098465D01*
X203451535Y-88182573D01*
X203557518Y-88236574D01*
X203675000Y-88255181D01*
X203792482Y-88236574D01*
X203898465Y-88182573D01*
X203933864Y-88147173D01*
X203979740Y-88125782D01*
X203986190Y-88125500D01*
X206418038Y-88125500D01*
X206432474Y-88126921D01*
X206450000Y-88130408D01*
X206547741Y-88110966D01*
X206588716Y-88083587D01*
X206630601Y-88055601D01*
X206640533Y-88040734D01*
X206649729Y-88029529D01*
X206664905Y-88014353D01*
X206706931Y-87994757D01*
X206706747Y-87993592D01*
X206712499Y-87992680D01*
X206712500Y-87992681D01*
X206829982Y-87974074D01*
X206935965Y-87920073D01*
X207020073Y-87835965D01*
X207074074Y-87729982D01*
X207092681Y-87612500D01*
X207074074Y-87495018D01*
X207020073Y-87389035D01*
X206935965Y-87304927D01*
X206883983Y-87278441D01*
X206829983Y-87250926D01*
X206712500Y-87232319D01*
X206595017Y-87250926D01*
X206595016Y-87250926D01*
X206489033Y-87304928D01*
X206404928Y-87389033D01*
X206350926Y-87495016D01*
X206350926Y-87495017D01*
X206340305Y-87562076D01*
X206315764Y-87606349D01*
X206268507Y-87624489D01*
X206267216Y-87624500D01*
X203986190Y-87624500D01*
X203938624Y-87607187D01*
X203933864Y-87602826D01*
X203898466Y-87567428D01*
X203898465Y-87567427D01*
X203840788Y-87538039D01*
X203792483Y-87513426D01*
X203675000Y-87494819D01*
X203557517Y-87513426D01*
X203557516Y-87513426D01*
X203451533Y-87567428D01*
X203367428Y-87651533D01*
X203313426Y-87757516D01*
X203313426Y-87757517D01*
X203294819Y-87875000D01*
X198862397Y-87875000D01*
X198850500Y-86861141D01*
X198850500Y-51785885D01*
X199644620Y-51785885D01*
X199649144Y-51818307D01*
X199649499Y-51823425D01*
X199649499Y-80638916D01*
X199647546Y-80650889D01*
X199648173Y-80650977D01*
X199647226Y-80657764D01*
X199648623Y-80687976D01*
X199649461Y-80706102D01*
X199649500Y-80707787D01*
X199649500Y-80727850D01*
X199650311Y-80732186D01*
X199650903Y-80737281D01*
X199652415Y-80769994D01*
X199657554Y-80781632D01*
X199662600Y-80797923D01*
X199664938Y-80810432D01*
X199664939Y-80810433D01*
X199682175Y-80838274D01*
X199684566Y-80842809D01*
X199697794Y-80872765D01*
X199697795Y-80872766D01*
X199706793Y-80881764D01*
X199717380Y-80895130D01*
X199724081Y-80905952D01*
X199724082Y-80905953D01*
X199750212Y-80925686D01*
X199754082Y-80929053D01*
X203086245Y-84261216D01*
X203107008Y-84301965D01*
X203111011Y-84327235D01*
X203113426Y-84342482D01*
X203167427Y-84448465D01*
X203251535Y-84532573D01*
X203357518Y-84586574D01*
X203475000Y-84605181D01*
X203592482Y-84586574D01*
X203698465Y-84532573D01*
X203782573Y-84448465D01*
X203836574Y-84342482D01*
X203855181Y-84225000D01*
X203836574Y-84107518D01*
X203782573Y-84001535D01*
X203698465Y-83917427D01*
X203592482Y-83863426D01*
X203592480Y-83863425D01*
X203592478Y-83863425D01*
X203551965Y-83857008D01*
X203511216Y-83836245D01*
X202149970Y-82474999D01*
X203519819Y-82474999D01*
X203538426Y-82592482D01*
X203538426Y-82592483D01*
X203563353Y-82641405D01*
X203591434Y-82696517D01*
X203599500Y-82730111D01*
X203599500Y-82788912D01*
X203597547Y-82800889D01*
X203598174Y-82800977D01*
X203597226Y-82807765D01*
X203598109Y-82826855D01*
X203599461Y-82856102D01*
X203599500Y-82857787D01*
X203599500Y-82877850D01*
X203600311Y-82882186D01*
X203600903Y-82887281D01*
X203602415Y-82919994D01*
X203607554Y-82931632D01*
X203612600Y-82947923D01*
X203614938Y-82960432D01*
X203614939Y-82960433D01*
X203632175Y-82988274D01*
X203634566Y-82992809D01*
X203647794Y-83022765D01*
X203647795Y-83022766D01*
X203656793Y-83031764D01*
X203667380Y-83045130D01*
X203674081Y-83055952D01*
X203674082Y-83055953D01*
X203700212Y-83075686D01*
X203704082Y-83079053D01*
X207294319Y-86669291D01*
X207301404Y-86679137D01*
X207301910Y-86678756D01*
X207306043Y-86684229D01*
X207341774Y-86716802D01*
X207343011Y-86717983D01*
X207357202Y-86732174D01*
X207360850Y-86734674D01*
X207364870Y-86737857D01*
X207389067Y-86759916D01*
X207400932Y-86764512D01*
X207416024Y-86772467D01*
X207426520Y-86779657D01*
X207458408Y-86787156D01*
X207463280Y-86788665D01*
X207487076Y-86797884D01*
X207493826Y-86800500D01*
X207493827Y-86800500D01*
X207506554Y-86800500D01*
X207523496Y-86802465D01*
X207535882Y-86805379D01*
X207568319Y-86800854D01*
X207573428Y-86800500D01*
X207901000Y-86800500D01*
X207948566Y-86817813D01*
X207973876Y-86861650D01*
X207975000Y-86874500D01*
X207975000Y-87164412D01*
X207973047Y-87176389D01*
X207973674Y-87176477D01*
X207972726Y-87183265D01*
X207974054Y-87211971D01*
X207974961Y-87231602D01*
X207975000Y-87233287D01*
X207975000Y-87253350D01*
X207975811Y-87257686D01*
X207976403Y-87262781D01*
X207977915Y-87295494D01*
X207983054Y-87307132D01*
X207988100Y-87323423D01*
X207990438Y-87335932D01*
X207990439Y-87335933D01*
X208007675Y-87363774D01*
X208010066Y-87368309D01*
X208014508Y-87378368D01*
X208023294Y-87398265D01*
X208023295Y-87398266D01*
X208032293Y-87407264D01*
X208042880Y-87420630D01*
X208049581Y-87431452D01*
X208049582Y-87431453D01*
X208075712Y-87451186D01*
X208079582Y-87454553D01*
X210928326Y-90303296D01*
X210949718Y-90349172D01*
X210950000Y-90355622D01*
X210950000Y-97389412D01*
X210948047Y-97401389D01*
X210948674Y-97401477D01*
X210947726Y-97408265D01*
X210949148Y-97439009D01*
X210949961Y-97456602D01*
X210950000Y-97458287D01*
X210950000Y-97478350D01*
X210950811Y-97482686D01*
X210951403Y-97487781D01*
X210952915Y-97520494D01*
X210958054Y-97532132D01*
X210963100Y-97548423D01*
X210965438Y-97560932D01*
X210965439Y-97560933D01*
X210982675Y-97588774D01*
X210985066Y-97593309D01*
X210998294Y-97623265D01*
X210998295Y-97623266D01*
X211007293Y-97632264D01*
X211017880Y-97645630D01*
X211024581Y-97656452D01*
X211024582Y-97656453D01*
X211050712Y-97676186D01*
X211054582Y-97679553D01*
X220494318Y-107119289D01*
X220501404Y-107129137D01*
X220501910Y-107128756D01*
X220506043Y-107134229D01*
X220541785Y-107166812D01*
X220543022Y-107167993D01*
X220557203Y-107182174D01*
X220560856Y-107184676D01*
X220564858Y-107187847D01*
X220589067Y-107209916D01*
X220600934Y-107214513D01*
X220616021Y-107222465D01*
X220626520Y-107229657D01*
X220658394Y-107237154D01*
X220663283Y-107238667D01*
X220693827Y-107250500D01*
X220706553Y-107250500D01*
X220723488Y-107252464D01*
X220735881Y-107255379D01*
X220768315Y-107250854D01*
X220773426Y-107250500D01*
X223988913Y-107250500D01*
X224000889Y-107252453D01*
X224000977Y-107251826D01*
X224007765Y-107252773D01*
X224056103Y-107250538D01*
X224057788Y-107250500D01*
X224077842Y-107250500D01*
X224077844Y-107250500D01*
X224082187Y-107249687D01*
X224087266Y-107249097D01*
X224119992Y-107247585D01*
X224131639Y-107242441D01*
X224147927Y-107237398D01*
X224160433Y-107235061D01*
X224188281Y-107217818D01*
X224192794Y-107215438D01*
X224222765Y-107202206D01*
X224231763Y-107193206D01*
X224245135Y-107182615D01*
X224255952Y-107175919D01*
X224275690Y-107149781D01*
X224279046Y-107145924D01*
X224414287Y-107010682D01*
X224424135Y-107003600D01*
X224423752Y-107003093D01*
X224429226Y-106998959D01*
X224429226Y-106998958D01*
X224429228Y-106998958D01*
X224461828Y-106963195D01*
X224462965Y-106962005D01*
X224477175Y-106947797D01*
X224479674Y-106944146D01*
X224482850Y-106940136D01*
X224504916Y-106915933D01*
X224509510Y-106904070D01*
X224517468Y-106888973D01*
X224524656Y-106878481D01*
X224524655Y-106878481D01*
X224524657Y-106878480D01*
X224532153Y-106846607D01*
X224533669Y-106841711D01*
X224545500Y-106811172D01*
X224545500Y-106798446D01*
X224547466Y-106781502D01*
X224550379Y-106769119D01*
X224545854Y-106736683D01*
X224545500Y-106731573D01*
X224545500Y-106200005D01*
X233444532Y-106200005D01*
X233464364Y-106426688D01*
X233464365Y-106426696D01*
X233523258Y-106646488D01*
X233523260Y-106646492D01*
X233523261Y-106646496D01*
X233619432Y-106852734D01*
X233619434Y-106852736D01*
X233619435Y-106852739D01*
X233730029Y-107010685D01*
X233749953Y-107039139D01*
X233910861Y-107200047D01*
X234097266Y-107330568D01*
X234303504Y-107426739D01*
X234303510Y-107426740D01*
X234303511Y-107426741D01*
X234523303Y-107485634D01*
X234523305Y-107485634D01*
X234523308Y-107485635D01*
X234596125Y-107492005D01*
X234693212Y-107500500D01*
X234693216Y-107500500D01*
X234806788Y-107500500D01*
X234891738Y-107493067D01*
X234976692Y-107485635D01*
X235196496Y-107426739D01*
X235402734Y-107330568D01*
X235589139Y-107200047D01*
X235750047Y-107039139D01*
X235880568Y-106852734D01*
X235976739Y-106646496D01*
X236035635Y-106426692D01*
X236055468Y-106200000D01*
X236055468Y-106199994D01*
X236035635Y-105973311D01*
X236035634Y-105973303D01*
X235976741Y-105753511D01*
X235976740Y-105753510D01*
X235976739Y-105753504D01*
X235880568Y-105547266D01*
X235750047Y-105360861D01*
X235589139Y-105199953D01*
X235485642Y-105127484D01*
X235402739Y-105069435D01*
X235402736Y-105069434D01*
X235402734Y-105069432D01*
X235196496Y-104973261D01*
X235196492Y-104973260D01*
X235196488Y-104973258D01*
X234976696Y-104914365D01*
X234976688Y-104914364D01*
X234806788Y-104899500D01*
X234806784Y-104899500D01*
X234693216Y-104899500D01*
X234693212Y-104899500D01*
X234523311Y-104914364D01*
X234523303Y-104914365D01*
X234303511Y-104973258D01*
X234303504Y-104973260D01*
X234303504Y-104973261D01*
X234224718Y-105010000D01*
X234097260Y-105069435D01*
X233910860Y-105199953D01*
X233749953Y-105360860D01*
X233619435Y-105547260D01*
X233523263Y-105753500D01*
X233523258Y-105753511D01*
X233464365Y-105973303D01*
X233464364Y-105973311D01*
X233444532Y-106199994D01*
X233444532Y-106200005D01*
X224545500Y-106200005D01*
X224545500Y-101281089D01*
X224547454Y-101269115D01*
X224546826Y-101269028D01*
X224547773Y-101262238D01*
X224545538Y-101213920D01*
X224545499Y-101212209D01*
X224545500Y-101192156D01*
X224544687Y-101187811D01*
X224544096Y-101182727D01*
X224542585Y-101150009D01*
X224537441Y-101138361D01*
X224532398Y-101122071D01*
X224530061Y-101109568D01*
X224530060Y-101109566D01*
X224512824Y-101081728D01*
X224510434Y-101077196D01*
X224497206Y-101047235D01*
X224488207Y-101038236D01*
X224477615Y-101024863D01*
X224470920Y-101014049D01*
X224470919Y-101014048D01*
X224444784Y-100994312D01*
X224440920Y-100990949D01*
X223772174Y-100322203D01*
X223750782Y-100276327D01*
X223750500Y-100269877D01*
X223750500Y-98613552D01*
X223752454Y-98601578D01*
X223751826Y-98601491D01*
X223752773Y-98594700D01*
X223751414Y-98565307D01*
X223750538Y-98546360D01*
X223750500Y-98544674D01*
X223750500Y-98524620D01*
X223749688Y-98520280D01*
X223749096Y-98515190D01*
X223747585Y-98482471D01*
X223742441Y-98470823D01*
X223737396Y-98454523D01*
X223736758Y-98451107D01*
X223735500Y-98437521D01*
X223735500Y-93462585D01*
X223752813Y-93415019D01*
X223757163Y-93410270D01*
X225169288Y-91998144D01*
X225179136Y-91991062D01*
X225178753Y-91990555D01*
X225184221Y-91986424D01*
X225184228Y-91986421D01*
X225203813Y-91964936D01*
X225248651Y-91941447D01*
X225298098Y-91952275D01*
X225329017Y-91992354D01*
X225332500Y-92014789D01*
X225332500Y-97754402D01*
X225315187Y-97801968D01*
X225310826Y-97806728D01*
X224442430Y-98675124D01*
X224401681Y-98695887D01*
X224322521Y-98708425D01*
X224322515Y-98708427D01*
X224216535Y-98762427D01*
X224216534Y-98762427D01*
X224132428Y-98846533D01*
X224078426Y-98952516D01*
X224078426Y-98952517D01*
X224059819Y-99069999D01*
X224078426Y-99187482D01*
X224078426Y-99187483D01*
X224105941Y-99241484D01*
X224132427Y-99293465D01*
X224216535Y-99377573D01*
X224322518Y-99431574D01*
X224440000Y-99450181D01*
X224557482Y-99431574D01*
X224663465Y-99377573D01*
X224747573Y-99293465D01*
X224801574Y-99187482D01*
X224814111Y-99108318D01*
X224834872Y-99067571D01*
X225765676Y-98136766D01*
X225775092Y-98129995D01*
X225774656Y-98129418D01*
X225780128Y-98125286D01*
X225780128Y-98125285D01*
X225810203Y-98092293D01*
X225811339Y-98091103D01*
X225824405Y-98078039D01*
X225826603Y-98074828D01*
X225829779Y-98070820D01*
X225850022Y-98048615D01*
X225854031Y-98038264D01*
X225861983Y-98023179D01*
X225868252Y-98014029D01*
X225875132Y-97984774D01*
X225876638Y-97979908D01*
X225887500Y-97951874D01*
X225887500Y-97940778D01*
X225889466Y-97923835D01*
X225892006Y-97913038D01*
X225887854Y-97883274D01*
X225887500Y-97878165D01*
X225887500Y-75284189D01*
X225904813Y-75236623D01*
X225909165Y-75231872D01*
X225917573Y-75223465D01*
X225971574Y-75117482D01*
X225990181Y-75000000D01*
X225971574Y-74882518D01*
X225917573Y-74776535D01*
X225833465Y-74692427D01*
X225781484Y-74665941D01*
X225727483Y-74638426D01*
X225610000Y-74619819D01*
X225492517Y-74638426D01*
X225492516Y-74638426D01*
X225386533Y-74692428D01*
X225302428Y-74776533D01*
X225248426Y-74882516D01*
X225248426Y-74882517D01*
X225229819Y-75000000D01*
X225248426Y-75117482D01*
X225248426Y-75117484D01*
X225302425Y-75223462D01*
X225302427Y-75223465D01*
X225310825Y-75231863D01*
X225332218Y-75277736D01*
X225332500Y-75284188D01*
X225332500Y-79125922D01*
X225315187Y-79173488D01*
X225271350Y-79198798D01*
X225221500Y-79190008D01*
X225213906Y-79184976D01*
X225199791Y-79174317D01*
X225195920Y-79170949D01*
X224055682Y-78030711D01*
X224048597Y-78020862D01*
X224048091Y-78021245D01*
X224043958Y-78015772D01*
X224008213Y-77983186D01*
X224006976Y-77982005D01*
X223992796Y-77967825D01*
X223989149Y-77965326D01*
X223985132Y-77962144D01*
X223979263Y-77956794D01*
X223960933Y-77940084D01*
X223949061Y-77935484D01*
X223933981Y-77927536D01*
X223923480Y-77920343D01*
X223891612Y-77912848D01*
X223886713Y-77911331D01*
X223856174Y-77899500D01*
X223856173Y-77899500D01*
X223843447Y-77899500D01*
X223826504Y-77897534D01*
X223814119Y-77894621D01*
X223814117Y-77894621D01*
X223803641Y-77896082D01*
X223781684Y-77899145D01*
X223776574Y-77899500D01*
X221861088Y-77899500D01*
X221849111Y-77897546D01*
X221849024Y-77898174D01*
X221842235Y-77897226D01*
X221810972Y-77898672D01*
X221793897Y-77899461D01*
X221792213Y-77899500D01*
X221772149Y-77899500D01*
X221767815Y-77900311D01*
X221762725Y-77900902D01*
X221739044Y-77901997D01*
X221730006Y-77902415D01*
X221718363Y-77907556D01*
X221702077Y-77912599D01*
X221689572Y-77914937D01*
X221689566Y-77914939D01*
X221661728Y-77932175D01*
X221657196Y-77934564D01*
X221650123Y-77937687D01*
X221627234Y-77947793D01*
X221618234Y-77956794D01*
X221604871Y-77967379D01*
X221600182Y-77970282D01*
X221594046Y-77974082D01*
X221594044Y-77974084D01*
X221574313Y-78000212D01*
X221570946Y-78004081D01*
X220397203Y-79177826D01*
X220351327Y-79199218D01*
X220344877Y-79199500D01*
X217745124Y-79199500D01*
X217697558Y-79182187D01*
X217692798Y-79177826D01*
X217014972Y-78500000D01*
X219319819Y-78500000D01*
X219338426Y-78617482D01*
X219338426Y-78617483D01*
X219365122Y-78669876D01*
X219392427Y-78723465D01*
X219476535Y-78807573D01*
X219582518Y-78861574D01*
X219700000Y-78880181D01*
X219817482Y-78861574D01*
X219923465Y-78807573D01*
X220007573Y-78723465D01*
X220061574Y-78617482D01*
X220080181Y-78500000D01*
X220061574Y-78382518D01*
X220061573Y-78382516D01*
X220061573Y-78382515D01*
X220008566Y-78278484D01*
X220000500Y-78244888D01*
X220000500Y-76255111D01*
X220008565Y-76221517D01*
X220061574Y-76117482D01*
X220080181Y-76000000D01*
X220061574Y-75882518D01*
X220007573Y-75776535D01*
X219923465Y-75692427D01*
X219861753Y-75660983D01*
X219817483Y-75638426D01*
X219700000Y-75619819D01*
X219582517Y-75638426D01*
X219582516Y-75638426D01*
X219476533Y-75692428D01*
X219392428Y-75776533D01*
X219338426Y-75882516D01*
X219338426Y-75882517D01*
X219319819Y-76000000D01*
X219338426Y-76117482D01*
X219338426Y-76117483D01*
X219363353Y-76166405D01*
X219391434Y-76221517D01*
X219399500Y-76255111D01*
X219399500Y-78244888D01*
X219391434Y-78278484D01*
X219338426Y-78382515D01*
X219338426Y-78382517D01*
X219319819Y-78500000D01*
X217014972Y-78500000D01*
X214122174Y-75607202D01*
X214100782Y-75561326D01*
X214100500Y-75554876D01*
X214100500Y-74499999D01*
X226159819Y-74499999D01*
X226178426Y-74617482D01*
X226178426Y-74617484D01*
X226232425Y-74723462D01*
X226232427Y-74723465D01*
X226240825Y-74731863D01*
X226262218Y-74777736D01*
X226262500Y-74784188D01*
X226262500Y-92012661D01*
X226260632Y-92024109D01*
X226261347Y-92024209D01*
X226260399Y-92030998D01*
X226262459Y-92075558D01*
X226262499Y-92077265D01*
X226262499Y-92095713D01*
X226263213Y-92099533D01*
X226263803Y-92104623D01*
X226265191Y-92134632D01*
X226265192Y-92134636D01*
X226269674Y-92144787D01*
X226274718Y-92161074D01*
X226276757Y-92171981D01*
X226292564Y-92197510D01*
X226294956Y-92202048D01*
X226307096Y-92229541D01*
X226314943Y-92237388D01*
X226325532Y-92250756D01*
X226331373Y-92260189D01*
X226355348Y-92278294D01*
X226359211Y-92281656D01*
X227055124Y-92977568D01*
X227075887Y-93018317D01*
X227083674Y-93067483D01*
X227088426Y-93097482D01*
X227142427Y-93203465D01*
X227226535Y-93287573D01*
X227332518Y-93341574D01*
X227450000Y-93360181D01*
X227567482Y-93341574D01*
X227673465Y-93287573D01*
X227673467Y-93287570D01*
X227678181Y-93284147D01*
X227678931Y-93285180D01*
X227719041Y-93266471D01*
X227767937Y-93279566D01*
X227796976Y-93321027D01*
X227799500Y-93340189D01*
X227799500Y-95463912D01*
X227797547Y-95475889D01*
X227798174Y-95475977D01*
X227797226Y-95482765D01*
X227798374Y-95507571D01*
X227799461Y-95531102D01*
X227799500Y-95532787D01*
X227799500Y-95552850D01*
X227800311Y-95557186D01*
X227800903Y-95562281D01*
X227802415Y-95594994D01*
X227807554Y-95606632D01*
X227812600Y-95622923D01*
X227814938Y-95635432D01*
X227814939Y-95635433D01*
X227832175Y-95663274D01*
X227834566Y-95667809D01*
X227847794Y-95697765D01*
X227847795Y-95697766D01*
X227856793Y-95706764D01*
X227867380Y-95720130D01*
X227874081Y-95730952D01*
X227874082Y-95730953D01*
X227900212Y-95750686D01*
X227904082Y-95754053D01*
X228369318Y-96219289D01*
X228376404Y-96229137D01*
X228376910Y-96228756D01*
X228381043Y-96234229D01*
X228416785Y-96266812D01*
X228418022Y-96267993D01*
X228432203Y-96282174D01*
X228435856Y-96284676D01*
X228439858Y-96287847D01*
X228446300Y-96293719D01*
X228464065Y-96309915D01*
X228464066Y-96309915D01*
X228464067Y-96309916D01*
X228475934Y-96314513D01*
X228491022Y-96322465D01*
X228501519Y-96329656D01*
X228524500Y-96335061D01*
X228533387Y-96337151D01*
X228538289Y-96338669D01*
X228568826Y-96350500D01*
X228568827Y-96350500D01*
X228581553Y-96350500D01*
X228598496Y-96352466D01*
X228610881Y-96355379D01*
X228643315Y-96350854D01*
X228648426Y-96350500D01*
X242213913Y-96350500D01*
X242225889Y-96352453D01*
X242225977Y-96351826D01*
X242232765Y-96352773D01*
X242281103Y-96350538D01*
X242282788Y-96350500D01*
X242302842Y-96350500D01*
X242302844Y-96350500D01*
X242307187Y-96349687D01*
X242312266Y-96349097D01*
X242344992Y-96347585D01*
X242356639Y-96342441D01*
X242372927Y-96337398D01*
X242385433Y-96335061D01*
X242413281Y-96317818D01*
X242417794Y-96315438D01*
X242447765Y-96302206D01*
X242456761Y-96293208D01*
X242470138Y-96282614D01*
X242470856Y-96282170D01*
X242480952Y-96275919D01*
X242500687Y-96249783D01*
X242504051Y-96245919D01*
X243267205Y-95482765D01*
X244036218Y-94713751D01*
X244076966Y-94692990D01*
X244117482Y-94686574D01*
X244223465Y-94632573D01*
X244307573Y-94548465D01*
X244361574Y-94442482D01*
X244380181Y-94325000D01*
X244361574Y-94207518D01*
X244307573Y-94101535D01*
X244223465Y-94017427D01*
X244162911Y-93986573D01*
X244117483Y-93963426D01*
X244000000Y-93944819D01*
X243882517Y-93963426D01*
X243882516Y-93963426D01*
X243776533Y-94017428D01*
X243692428Y-94101533D01*
X243638426Y-94207516D01*
X243632009Y-94248032D01*
X243611246Y-94288781D01*
X242172203Y-95727826D01*
X242126327Y-95749218D01*
X242119877Y-95749500D01*
X234364974Y-95749500D01*
X234317408Y-95732187D01*
X234292098Y-95688350D01*
X234300888Y-95638500D01*
X234335084Y-95607805D01*
X234347765Y-95602206D01*
X234356761Y-95593208D01*
X234370138Y-95582614D01*
X234370856Y-95582170D01*
X234380952Y-95575919D01*
X234400687Y-95549783D01*
X234404051Y-95545919D01*
X236902798Y-93047174D01*
X236948675Y-93025782D01*
X236955124Y-93025500D01*
X238069889Y-93025500D01*
X238103482Y-93033565D01*
X238207518Y-93086574D01*
X238325000Y-93105181D01*
X238442482Y-93086574D01*
X238548465Y-93032573D01*
X238632573Y-92948465D01*
X238686574Y-92842482D01*
X238705181Y-92725000D01*
X238686574Y-92607518D01*
X238632573Y-92501535D01*
X238548465Y-92417427D01*
X238496484Y-92390941D01*
X238442483Y-92363426D01*
X238325000Y-92344819D01*
X238207517Y-92363426D01*
X238207516Y-92363426D01*
X238140967Y-92397335D01*
X238103482Y-92416434D01*
X238069889Y-92424500D01*
X236861091Y-92424500D01*
X236849111Y-92422545D01*
X236849024Y-92423173D01*
X236842235Y-92422225D01*
X236809234Y-92423751D01*
X236793887Y-92424461D01*
X236792199Y-92424500D01*
X236772156Y-92424500D01*
X236767807Y-92425312D01*
X236762724Y-92425901D01*
X236738816Y-92427007D01*
X236730007Y-92427415D01*
X236730006Y-92427415D01*
X236718363Y-92432556D01*
X236702077Y-92437599D01*
X236689572Y-92439937D01*
X236689566Y-92439939D01*
X236661728Y-92457175D01*
X236657196Y-92459564D01*
X236650123Y-92462687D01*
X236627234Y-92472793D01*
X236618234Y-92481794D01*
X236604870Y-92492380D01*
X236594046Y-92499082D01*
X236594044Y-92499084D01*
X236574313Y-92525212D01*
X236570946Y-92529081D01*
X234072203Y-95027826D01*
X234026327Y-95049218D01*
X234019877Y-95049500D01*
X229405124Y-95049500D01*
X229357558Y-95032187D01*
X229352798Y-95027826D01*
X229022174Y-94697202D01*
X229000782Y-94651326D01*
X229000500Y-94644876D01*
X229000500Y-94410190D01*
X229017813Y-94362624D01*
X229061650Y-94337314D01*
X229111500Y-94346104D01*
X229124876Y-94356368D01*
X229126532Y-94357571D01*
X229126534Y-94357572D01*
X229126535Y-94357573D01*
X229191070Y-94390455D01*
X229232516Y-94411573D01*
X229232517Y-94411574D01*
X229242804Y-94413203D01*
X229273032Y-94417990D01*
X229313782Y-94438753D01*
X229619318Y-94744289D01*
X229626404Y-94754137D01*
X229626910Y-94753756D01*
X229631043Y-94759229D01*
X229666785Y-94791812D01*
X229668022Y-94792993D01*
X229682203Y-94807174D01*
X229685856Y-94809676D01*
X229689858Y-94812847D01*
X229700601Y-94822640D01*
X229714065Y-94834915D01*
X229714066Y-94834915D01*
X229714067Y-94834916D01*
X229725934Y-94839513D01*
X229741022Y-94847465D01*
X229751519Y-94854656D01*
X229774500Y-94860061D01*
X229783387Y-94862151D01*
X229788289Y-94863669D01*
X229818826Y-94875500D01*
X229818827Y-94875500D01*
X229831553Y-94875500D01*
X229848496Y-94877466D01*
X229860881Y-94880379D01*
X229893315Y-94875854D01*
X229898426Y-94875500D01*
X231988913Y-94875500D01*
X232000889Y-94877453D01*
X232000977Y-94876826D01*
X232007765Y-94877773D01*
X232056103Y-94875538D01*
X232057788Y-94875500D01*
X232077842Y-94875500D01*
X232077844Y-94875500D01*
X232082187Y-94874687D01*
X232087266Y-94874097D01*
X232119992Y-94872585D01*
X232131639Y-94867441D01*
X232147927Y-94862398D01*
X232160433Y-94860061D01*
X232188281Y-94842818D01*
X232192794Y-94840438D01*
X232222765Y-94827206D01*
X232231761Y-94818208D01*
X232245138Y-94807614D01*
X232245856Y-94807170D01*
X232255952Y-94800919D01*
X232275687Y-94774783D01*
X232279051Y-94770919D01*
X235352797Y-91697174D01*
X235398673Y-91675782D01*
X235405123Y-91675500D01*
X238094889Y-91675500D01*
X238128482Y-91683565D01*
X238232518Y-91736574D01*
X238350000Y-91755181D01*
X238467482Y-91736574D01*
X238573465Y-91682573D01*
X238657573Y-91598465D01*
X238711574Y-91492482D01*
X238730181Y-91375000D01*
X238711574Y-91257518D01*
X238657573Y-91151535D01*
X238573465Y-91067427D01*
X238487185Y-91023465D01*
X238467483Y-91013426D01*
X238350000Y-90994819D01*
X238232517Y-91013426D01*
X238232516Y-91013426D01*
X238165967Y-91047335D01*
X238128482Y-91066434D01*
X238094889Y-91074500D01*
X235311087Y-91074500D01*
X235299110Y-91072546D01*
X235299023Y-91073174D01*
X235292234Y-91072226D01*
X235260971Y-91073672D01*
X235243896Y-91074461D01*
X235242212Y-91074500D01*
X235222149Y-91074500D01*
X235217815Y-91075311D01*
X235212725Y-91075902D01*
X235186594Y-91077110D01*
X235180006Y-91077415D01*
X235180004Y-91077416D01*
X235168356Y-91082558D01*
X235152075Y-91087600D01*
X235139567Y-91089938D01*
X235139563Y-91089940D01*
X235111732Y-91107171D01*
X235107197Y-91109562D01*
X235077239Y-91122790D01*
X235077232Y-91122795D01*
X235068230Y-91131797D01*
X235054868Y-91142380D01*
X235044050Y-91149079D01*
X235044044Y-91149084D01*
X235024316Y-91175208D01*
X235020949Y-91179077D01*
X231947203Y-94252826D01*
X231901327Y-94274218D01*
X231894877Y-94274500D01*
X230030123Y-94274500D01*
X229982557Y-94257187D01*
X229977797Y-94252826D01*
X229738753Y-94013782D01*
X229717990Y-93973031D01*
X229711574Y-93932517D01*
X229711573Y-93932516D01*
X229699500Y-93908821D01*
X229657573Y-93826535D01*
X229573465Y-93742427D01*
X229511961Y-93711089D01*
X229467483Y-93688426D01*
X229350000Y-93669819D01*
X229232517Y-93688426D01*
X229187776Y-93711223D01*
X229137534Y-93717391D01*
X229095082Y-93689822D01*
X229083551Y-93655362D01*
X229081092Y-93655752D01*
X229069437Y-93582164D01*
X229061574Y-93532518D01*
X229007573Y-93426535D01*
X228923465Y-93342427D01*
X228859082Y-93309622D01*
X228817483Y-93288426D01*
X228700000Y-93269819D01*
X228582517Y-93288426D01*
X228582515Y-93288426D01*
X228508096Y-93326346D01*
X228457854Y-93332515D01*
X228415401Y-93304947D01*
X228400500Y-93260412D01*
X228400500Y-92950000D01*
X230969819Y-92950000D01*
X230988426Y-93067482D01*
X230988426Y-93067483D01*
X231008824Y-93107516D01*
X231042427Y-93173465D01*
X231126535Y-93257573D01*
X231232518Y-93311574D01*
X231350000Y-93330181D01*
X231467482Y-93311574D01*
X231573465Y-93257573D01*
X231589802Y-93241234D01*
X231612230Y-93225870D01*
X231614634Y-93224808D01*
X231614635Y-93224808D01*
X231624781Y-93220327D01*
X231641077Y-93215280D01*
X231651981Y-93213243D01*
X231677524Y-93197426D01*
X231682049Y-93195041D01*
X231709542Y-93182903D01*
X231717391Y-93175052D01*
X231730755Y-93164467D01*
X231740189Y-93158627D01*
X231758295Y-93134649D01*
X231761650Y-93130793D01*
X236542444Y-88349999D01*
X244744819Y-88349999D01*
X244763426Y-88467482D01*
X244763426Y-88467483D01*
X244790941Y-88521484D01*
X244817427Y-88573465D01*
X244901535Y-88657573D01*
X245007518Y-88711574D01*
X245125000Y-88730181D01*
X245242482Y-88711574D01*
X245242484Y-88711573D01*
X245248389Y-88708565D01*
X245281983Y-88700500D01*
X245905975Y-88700500D01*
X245921159Y-88702074D01*
X245935315Y-88705043D01*
X245969481Y-88700783D01*
X245974061Y-88700500D01*
X245979034Y-88700500D01*
X245979040Y-88700500D01*
X245999824Y-88697031D01*
X246001287Y-88696818D01*
X246051393Y-88690573D01*
X246051399Y-88690569D01*
X246057268Y-88688823D01*
X246057371Y-88689170D01*
X246059696Y-88688425D01*
X246059579Y-88688084D01*
X246065377Y-88686093D01*
X246065377Y-88686092D01*
X246065381Y-88686092D01*
X246109789Y-88662057D01*
X246111096Y-88661384D01*
X246156484Y-88639198D01*
X246161476Y-88635634D01*
X246161684Y-88635926D01*
X246163640Y-88634468D01*
X246163419Y-88634184D01*
X246168258Y-88630418D01*
X246171166Y-88627259D01*
X246202462Y-88593260D01*
X246203467Y-88592213D01*
X246866715Y-87928965D01*
X246878561Y-87919346D01*
X246890669Y-87911437D01*
X246911817Y-87884263D01*
X246914843Y-87880838D01*
X246918375Y-87877307D01*
X246930614Y-87860163D01*
X246931516Y-87858955D01*
X246962517Y-87819126D01*
X246962519Y-87819120D01*
X246965435Y-87813733D01*
X246965753Y-87813905D01*
X246966869Y-87811738D01*
X246966544Y-87811579D01*
X246969237Y-87806070D01*
X246969237Y-87806069D01*
X246969239Y-87806067D01*
X246983643Y-87757685D01*
X246984110Y-87756227D01*
X247000500Y-87708488D01*
X247000500Y-87708485D01*
X247001510Y-87702438D01*
X247001862Y-87702496D01*
X247002214Y-87700084D01*
X247001858Y-87700040D01*
X247002615Y-87693960D01*
X247002617Y-87693954D01*
X247000862Y-87651533D01*
X247000531Y-87643526D01*
X247000499Y-87641997D01*
X247000499Y-86617482D01*
X247000499Y-85556976D01*
X247008566Y-85523383D01*
X247011574Y-85517482D01*
X247030181Y-85400000D01*
X247011574Y-85282518D01*
X246957573Y-85176535D01*
X246873465Y-85092427D01*
X246800364Y-85055180D01*
X246767483Y-85038426D01*
X246650000Y-85019819D01*
X246532517Y-85038426D01*
X246532516Y-85038426D01*
X246426533Y-85092428D01*
X246342428Y-85176533D01*
X246288426Y-85282516D01*
X246288426Y-85282517D01*
X246269819Y-85400000D01*
X246288425Y-85517479D01*
X246288425Y-85517480D01*
X246288426Y-85517482D01*
X246291434Y-85523386D01*
X246299500Y-85556981D01*
X246299500Y-87474165D01*
X246282187Y-87521731D01*
X246277826Y-87526491D01*
X245826492Y-87977826D01*
X245780616Y-87999218D01*
X245774166Y-87999500D01*
X245281983Y-87999500D01*
X245248389Y-87991435D01*
X245242483Y-87988426D01*
X245125000Y-87969819D01*
X245007517Y-87988426D01*
X245007516Y-87988426D01*
X244901533Y-88042428D01*
X244817428Y-88126533D01*
X244763426Y-88232516D01*
X244763426Y-88232517D01*
X244744819Y-88349999D01*
X236542444Y-88349999D01*
X237295678Y-87596765D01*
X237305092Y-87589996D01*
X237304656Y-87589418D01*
X237310128Y-87585286D01*
X237310128Y-87585285D01*
X237340193Y-87552304D01*
X237341329Y-87551114D01*
X237354406Y-87538039D01*
X237356598Y-87534837D01*
X237359777Y-87530821D01*
X237380022Y-87508615D01*
X237384031Y-87498264D01*
X237391983Y-87483179D01*
X237398252Y-87474029D01*
X237405132Y-87444774D01*
X237406638Y-87439908D01*
X237417500Y-87411874D01*
X237417500Y-87400778D01*
X237419466Y-87383835D01*
X237422006Y-87373038D01*
X237417854Y-87343274D01*
X237417500Y-87338165D01*
X237417500Y-81984189D01*
X237434813Y-81936623D01*
X237439166Y-81931871D01*
X237447573Y-81923465D01*
X237501574Y-81817482D01*
X237520181Y-81700000D01*
X237501574Y-81582518D01*
X237447573Y-81476535D01*
X237363465Y-81392427D01*
X237311484Y-81365941D01*
X237257483Y-81338426D01*
X237140000Y-81319819D01*
X237022517Y-81338426D01*
X237022516Y-81338426D01*
X236916533Y-81392428D01*
X236832428Y-81476533D01*
X236778426Y-81582516D01*
X236778426Y-81582517D01*
X236759819Y-81700000D01*
X236778426Y-81817482D01*
X236778426Y-81817483D01*
X236778427Y-81817484D01*
X236823081Y-81905123D01*
X236832428Y-81923466D01*
X236840825Y-81931863D01*
X236862217Y-81977739D01*
X236862499Y-81984189D01*
X236862499Y-85772842D01*
X236862500Y-85772847D01*
X236862500Y-87214403D01*
X236845187Y-87261969D01*
X236840826Y-87266729D01*
X231538528Y-92569026D01*
X231492652Y-92590418D01*
X231473409Y-92588227D01*
X231473234Y-92589337D01*
X231350000Y-92569819D01*
X231232517Y-92588426D01*
X231232516Y-92588426D01*
X231126533Y-92642428D01*
X231042428Y-92726533D01*
X230988426Y-92832516D01*
X230988426Y-92832517D01*
X230969819Y-92950000D01*
X228400500Y-92950000D01*
X228400500Y-92105121D01*
X228417813Y-92057555D01*
X228422154Y-92052815D01*
X228436217Y-92038752D01*
X228476965Y-92017990D01*
X228517482Y-92011574D01*
X228623465Y-91957573D01*
X228707573Y-91873465D01*
X228761574Y-91767482D01*
X228780181Y-91650000D01*
X228761574Y-91532518D01*
X228707573Y-91426535D01*
X228623465Y-91342427D01*
X228571484Y-91315941D01*
X228517483Y-91288426D01*
X228400000Y-91269819D01*
X228282517Y-91288426D01*
X228282516Y-91288426D01*
X228176533Y-91342428D01*
X228092427Y-91426534D01*
X228092427Y-91426535D01*
X228038427Y-91532515D01*
X228038425Y-91532520D01*
X228032008Y-91573034D01*
X228011245Y-91613782D01*
X227930708Y-91694319D01*
X227920865Y-91701405D01*
X227921245Y-91701908D01*
X227915773Y-91706040D01*
X227883174Y-91741797D01*
X227881997Y-91743029D01*
X227867822Y-91757206D01*
X227865326Y-91760851D01*
X227862145Y-91764866D01*
X227840085Y-91789065D01*
X227840083Y-91789067D01*
X227835483Y-91800941D01*
X227827536Y-91816017D01*
X227820344Y-91826517D01*
X227812847Y-91858390D01*
X227811330Y-91863288D01*
X227799499Y-91893828D01*
X227799499Y-91906557D01*
X227797534Y-91923491D01*
X227794621Y-91935878D01*
X227794621Y-91935881D01*
X227799145Y-91968316D01*
X227799500Y-91973424D01*
X227799500Y-92619810D01*
X227782187Y-92667376D01*
X227738350Y-92692686D01*
X227688500Y-92683896D01*
X227675123Y-92673631D01*
X227673467Y-92672429D01*
X227673465Y-92672427D01*
X227567482Y-92618426D01*
X227567480Y-92618425D01*
X227567478Y-92618425D01*
X227488317Y-92605887D01*
X227447568Y-92585124D01*
X226839173Y-91976729D01*
X226817781Y-91930853D01*
X226817500Y-91924425D01*
X226817500Y-86528999D01*
X227371280Y-86528999D01*
X227390115Y-86720232D01*
X227409986Y-86785737D01*
X227445895Y-86904114D01*
X227536477Y-87073581D01*
X227658380Y-87222120D01*
X227806919Y-87344023D01*
X227976386Y-87434605D01*
X228160269Y-87490385D01*
X228351500Y-87509220D01*
X228542731Y-87490385D01*
X228726614Y-87434605D01*
X228896081Y-87344023D01*
X229044620Y-87222120D01*
X229166523Y-87073581D01*
X229257105Y-86904114D01*
X229312885Y-86720231D01*
X229331720Y-86529000D01*
X229312885Y-86337769D01*
X229257105Y-86153886D01*
X229166523Y-85984419D01*
X229044620Y-85835880D01*
X228896081Y-85713977D01*
X228726614Y-85623395D01*
X228622800Y-85591903D01*
X228542732Y-85567615D01*
X228351500Y-85548780D01*
X228160267Y-85567615D01*
X227976383Y-85623396D01*
X227843547Y-85694399D01*
X227806919Y-85713977D01*
X227806916Y-85713978D01*
X227806912Y-85713982D01*
X227658380Y-85835880D01*
X227536482Y-85984412D01*
X227536476Y-85984421D01*
X227445896Y-86153883D01*
X227390115Y-86337767D01*
X227371280Y-86528999D01*
X226817500Y-86528999D01*
X226817500Y-74784187D01*
X226834813Y-74736622D01*
X226839157Y-74731880D01*
X226847573Y-74723465D01*
X226901574Y-74617482D01*
X226920181Y-74500000D01*
X226901574Y-74382518D01*
X226847573Y-74276535D01*
X226763465Y-74192427D01*
X226711484Y-74165941D01*
X226657483Y-74138426D01*
X226540000Y-74119819D01*
X226422517Y-74138426D01*
X226422516Y-74138426D01*
X226316533Y-74192428D01*
X226232428Y-74276533D01*
X226178426Y-74382516D01*
X226178426Y-74382517D01*
X226159819Y-74499999D01*
X214100500Y-74499999D01*
X214100500Y-72900000D01*
X226715319Y-72900000D01*
X226733926Y-73017482D01*
X226733926Y-73017483D01*
X226761441Y-73071483D01*
X226787927Y-73123465D01*
X226872035Y-73207573D01*
X226978018Y-73261574D01*
X227095500Y-73280181D01*
X227212982Y-73261574D01*
X227317017Y-73208565D01*
X227350611Y-73200500D01*
X233844877Y-73200500D01*
X233892443Y-73217813D01*
X233897203Y-73222174D01*
X238217826Y-77542797D01*
X238239218Y-77588673D01*
X238239500Y-77595123D01*
X238239500Y-86144887D01*
X238231434Y-86178482D01*
X238178427Y-86282513D01*
X238178426Y-86282517D01*
X238159819Y-86400000D01*
X238178426Y-86517482D01*
X238178426Y-86517483D01*
X238203902Y-86567482D01*
X238232427Y-86623465D01*
X238316535Y-86707573D01*
X238422518Y-86761574D01*
X238540000Y-86780181D01*
X238657482Y-86761574D01*
X238763465Y-86707573D01*
X238847573Y-86623465D01*
X238901574Y-86517482D01*
X238920181Y-86400000D01*
X238901574Y-86282518D01*
X238901573Y-86282516D01*
X238901573Y-86282515D01*
X238848566Y-86178484D01*
X238840500Y-86144888D01*
X238840500Y-77501092D01*
X238842454Y-77489116D01*
X238841827Y-77489029D01*
X238842774Y-77482238D01*
X238842310Y-77472202D01*
X238840537Y-77433886D01*
X238840499Y-77432197D01*
X238840500Y-77412156D01*
X238839686Y-77407805D01*
X238839097Y-77402731D01*
X238837585Y-77370009D01*
X238832444Y-77358366D01*
X238827398Y-77342071D01*
X238825061Y-77329568D01*
X238825060Y-77329566D01*
X238807824Y-77301728D01*
X238805434Y-77297196D01*
X238792206Y-77267235D01*
X238783207Y-77258236D01*
X238772615Y-77244863D01*
X238765920Y-77234049D01*
X238765919Y-77234048D01*
X238739784Y-77214312D01*
X238735920Y-77210949D01*
X234255682Y-72730711D01*
X234248597Y-72720862D01*
X234248091Y-72721245D01*
X234243958Y-72715772D01*
X234208213Y-72683186D01*
X234206976Y-72682005D01*
X234192796Y-72667825D01*
X234189149Y-72665326D01*
X234185132Y-72662144D01*
X234184338Y-72661420D01*
X234160933Y-72640084D01*
X234149061Y-72635484D01*
X234133981Y-72627536D01*
X234123480Y-72620343D01*
X234091612Y-72612848D01*
X234086713Y-72611331D01*
X234056174Y-72599500D01*
X234056173Y-72599500D01*
X234043447Y-72599500D01*
X234026504Y-72597534D01*
X234014119Y-72594621D01*
X234014117Y-72594621D01*
X234003641Y-72596082D01*
X233981684Y-72599145D01*
X233976574Y-72599500D01*
X227350611Y-72599500D01*
X227317017Y-72591434D01*
X227261905Y-72563353D01*
X227212983Y-72538426D01*
X227095500Y-72519819D01*
X226978017Y-72538426D01*
X226978016Y-72538426D01*
X226872033Y-72592428D01*
X226787928Y-72676533D01*
X226733926Y-72782516D01*
X226733926Y-72782517D01*
X226715319Y-72900000D01*
X214100500Y-72900000D01*
X214100500Y-72275005D01*
X241669532Y-72275005D01*
X241689364Y-72501688D01*
X241689365Y-72501696D01*
X241748258Y-72721488D01*
X241748260Y-72721492D01*
X241748261Y-72721496D01*
X241844432Y-72927734D01*
X241844434Y-72927736D01*
X241844435Y-72927739D01*
X241907274Y-73017483D01*
X241974953Y-73114139D01*
X242135861Y-73275047D01*
X242322266Y-73405568D01*
X242528504Y-73501739D01*
X242528510Y-73501740D01*
X242528511Y-73501741D01*
X242748303Y-73560634D01*
X242748305Y-73560634D01*
X242748308Y-73560635D01*
X242821125Y-73567005D01*
X242918212Y-73575500D01*
X242918216Y-73575500D01*
X243031788Y-73575500D01*
X243116737Y-73568067D01*
X243201692Y-73560635D01*
X243421496Y-73501739D01*
X243627734Y-73405568D01*
X243814139Y-73275047D01*
X243975047Y-73114139D01*
X244105568Y-72927734D01*
X244201739Y-72721496D01*
X244260635Y-72501692D01*
X244269449Y-72400940D01*
X244280468Y-72275005D01*
X244280468Y-72274994D01*
X244260635Y-72048311D01*
X244260634Y-72048303D01*
X244201741Y-71828511D01*
X244201740Y-71828510D01*
X244201739Y-71828504D01*
X244105568Y-71622266D01*
X243975047Y-71435861D01*
X243814139Y-71274953D01*
X243677720Y-71179432D01*
X243627739Y-71144435D01*
X243627736Y-71144434D01*
X243627734Y-71144432D01*
X243421496Y-71048261D01*
X243421492Y-71048260D01*
X243421488Y-71048258D01*
X243201696Y-70989365D01*
X243201688Y-70989364D01*
X243031788Y-70974500D01*
X243031784Y-70974500D01*
X242918216Y-70974500D01*
X242918212Y-70974500D01*
X242748311Y-70989364D01*
X242748303Y-70989365D01*
X242528511Y-71048258D01*
X242528504Y-71048260D01*
X242528504Y-71048261D01*
X242453443Y-71083263D01*
X242322260Y-71144435D01*
X242135860Y-71274953D01*
X241974953Y-71435860D01*
X241844435Y-71622260D01*
X241748263Y-71828500D01*
X241748258Y-71828511D01*
X241689365Y-72048303D01*
X241689364Y-72048311D01*
X241669532Y-72274994D01*
X241669532Y-72275005D01*
X214100500Y-72275005D01*
X214100500Y-66734500D01*
X214117813Y-66686934D01*
X214161650Y-66661624D01*
X214174500Y-66660500D01*
X217228913Y-66660500D01*
X217240889Y-66662453D01*
X217240977Y-66661826D01*
X217247765Y-66662773D01*
X217296103Y-66660538D01*
X217297788Y-66660500D01*
X217317842Y-66660500D01*
X217317844Y-66660500D01*
X217322187Y-66659687D01*
X217327266Y-66659097D01*
X217359992Y-66657585D01*
X217371639Y-66652441D01*
X217387927Y-66647398D01*
X217400433Y-66645061D01*
X217428281Y-66627818D01*
X217432794Y-66625438D01*
X217462765Y-66612206D01*
X217471763Y-66603206D01*
X217485135Y-66592615D01*
X217495952Y-66585919D01*
X217515688Y-66559782D01*
X217519043Y-66555926D01*
X217599782Y-66475189D01*
X217652799Y-66422174D01*
X217698675Y-66400782D01*
X217705124Y-66400500D01*
X218529810Y-66400500D01*
X218577376Y-66417813D01*
X218602686Y-66461650D01*
X218593896Y-66511500D01*
X218582136Y-66526826D01*
X218542428Y-66566533D01*
X218488426Y-66672516D01*
X218488426Y-66672517D01*
X218469819Y-66790000D01*
X218488426Y-66907482D01*
X218488426Y-66907483D01*
X218498491Y-66927236D01*
X218542427Y-67013465D01*
X218626535Y-67097573D01*
X218651278Y-67110180D01*
X218710015Y-67140108D01*
X218728746Y-67153717D01*
X222444318Y-70869289D01*
X222451404Y-70879137D01*
X222451910Y-70878756D01*
X222456043Y-70884229D01*
X222491785Y-70916812D01*
X222493022Y-70917993D01*
X222507203Y-70932174D01*
X222510856Y-70934676D01*
X222514858Y-70937847D01*
X222527990Y-70949818D01*
X222539065Y-70959915D01*
X222539066Y-70959915D01*
X222539067Y-70959916D01*
X222550934Y-70964513D01*
X222566022Y-70972465D01*
X222576519Y-70979656D01*
X222599500Y-70985061D01*
X222608387Y-70987151D01*
X222613289Y-70988669D01*
X222643826Y-71000500D01*
X222643827Y-71000500D01*
X222656553Y-71000500D01*
X222673496Y-71002466D01*
X222685881Y-71005379D01*
X222718315Y-71000854D01*
X222723426Y-71000500D01*
X232538913Y-71000500D01*
X232550889Y-71002453D01*
X232550977Y-71001826D01*
X232557765Y-71002773D01*
X232606103Y-71000538D01*
X232607788Y-71000500D01*
X232627842Y-71000500D01*
X232627844Y-71000500D01*
X232632187Y-70999687D01*
X232637266Y-70999097D01*
X232669992Y-70997585D01*
X232681639Y-70992441D01*
X232697927Y-70987398D01*
X232710433Y-70985061D01*
X232738281Y-70967818D01*
X232742794Y-70965438D01*
X232772765Y-70952206D01*
X232781761Y-70943208D01*
X232795138Y-70932614D01*
X232795856Y-70932170D01*
X232805952Y-70925919D01*
X232825687Y-70899783D01*
X232829051Y-70895919D01*
X236735404Y-66989566D01*
X240661218Y-63063751D01*
X240701966Y-63042990D01*
X240742482Y-63036574D01*
X240848465Y-62982573D01*
X240932573Y-62898465D01*
X240986574Y-62792482D01*
X241005181Y-62675000D01*
X240986574Y-62557518D01*
X240932573Y-62451535D01*
X240848465Y-62367427D01*
X240796483Y-62340941D01*
X240742483Y-62313426D01*
X240625000Y-62294819D01*
X240624999Y-62294819D01*
X240582780Y-62301505D01*
X240533091Y-62291846D01*
X240501236Y-62252507D01*
X240502121Y-62201896D01*
X240518877Y-62176092D01*
X243209288Y-59485681D01*
X243219136Y-59478599D01*
X243218753Y-59478092D01*
X243224221Y-59473961D01*
X243224228Y-59473958D01*
X243256837Y-59438186D01*
X243257995Y-59436975D01*
X243272174Y-59422797D01*
X243274673Y-59419147D01*
X243277848Y-59415138D01*
X243299916Y-59390933D01*
X243304515Y-59379058D01*
X243312468Y-59363973D01*
X243319656Y-59353481D01*
X243327152Y-59321609D01*
X243328667Y-59316713D01*
X243340500Y-59286173D01*
X243340500Y-59273441D01*
X243342464Y-59256508D01*
X243345379Y-59244119D01*
X243345378Y-59244113D01*
X243345472Y-59242095D01*
X243353458Y-59211914D01*
X243401574Y-59117482D01*
X243420181Y-59000000D01*
X243401574Y-58882518D01*
X243347573Y-58776535D01*
X243263465Y-58692427D01*
X243211483Y-58665941D01*
X243157483Y-58638426D01*
X243040000Y-58619819D01*
X242922517Y-58638426D01*
X242922516Y-58638426D01*
X242816533Y-58692428D01*
X242732428Y-58776533D01*
X242678426Y-58882516D01*
X242678426Y-58882517D01*
X242659819Y-59000000D01*
X242679243Y-59122645D01*
X242669584Y-59172334D01*
X242658480Y-59186547D01*
X237823782Y-64021245D01*
X237783034Y-64042008D01*
X237742520Y-64048425D01*
X237742515Y-64048427D01*
X237636535Y-64102427D01*
X237636534Y-64102427D01*
X237552427Y-64186534D01*
X237552427Y-64186535D01*
X237498427Y-64292515D01*
X237498425Y-64292520D01*
X237492008Y-64333034D01*
X237471245Y-64373782D01*
X232157203Y-69687826D01*
X232111327Y-69709218D01*
X232104877Y-69709500D01*
X224185124Y-69709500D01*
X224137558Y-69692187D01*
X224132798Y-69687826D01*
X221005682Y-66560711D01*
X220998597Y-66550862D01*
X220998091Y-66551245D01*
X220993958Y-66545772D01*
X220975765Y-66529187D01*
X220952276Y-66484347D01*
X220963105Y-66434900D01*
X221003185Y-66403982D01*
X221025618Y-66400500D01*
X227278913Y-66400500D01*
X227290889Y-66402453D01*
X227290977Y-66401826D01*
X227297765Y-66402773D01*
X227346103Y-66400538D01*
X227347788Y-66400500D01*
X227367842Y-66400500D01*
X227367844Y-66400500D01*
X227372187Y-66399687D01*
X227377265Y-66399097D01*
X227394753Y-66398289D01*
X227443067Y-66413389D01*
X227470371Y-66456012D01*
X227463890Y-66506215D01*
X227450492Y-66524536D01*
X226963782Y-67011245D01*
X226923034Y-67032008D01*
X226882520Y-67038425D01*
X226882515Y-67038427D01*
X226776535Y-67092427D01*
X226776534Y-67092427D01*
X226692428Y-67176533D01*
X226638426Y-67282516D01*
X226638426Y-67282517D01*
X226619819Y-67399999D01*
X226638426Y-67517482D01*
X226638426Y-67517483D01*
X226641474Y-67523465D01*
X226692427Y-67623465D01*
X226776535Y-67707573D01*
X226882518Y-67761574D01*
X227000000Y-67780181D01*
X227117482Y-67761574D01*
X227223465Y-67707573D01*
X227307573Y-67623465D01*
X227361574Y-67517482D01*
X227367990Y-67476966D01*
X227388751Y-67436218D01*
X228269288Y-66555681D01*
X228279136Y-66548599D01*
X228278753Y-66548092D01*
X228284221Y-66543961D01*
X228284228Y-66543958D01*
X228316837Y-66508186D01*
X228317995Y-66506975D01*
X228318755Y-66506215D01*
X228332174Y-66492797D01*
X228334673Y-66489147D01*
X228337848Y-66485138D01*
X228359916Y-66460933D01*
X228364513Y-66449064D01*
X228372468Y-66433974D01*
X228373783Y-66432055D01*
X228379657Y-66423481D01*
X228384469Y-66403021D01*
X228387154Y-66391607D01*
X228388671Y-66386705D01*
X228389308Y-66385061D01*
X228400500Y-66356173D01*
X228400500Y-66343446D01*
X228402466Y-66326503D01*
X228405379Y-66314119D01*
X228400854Y-66281683D01*
X228400500Y-66276573D01*
X228400500Y-65969047D01*
X228400500Y-65661082D01*
X228402455Y-65649115D01*
X228401826Y-65649028D01*
X228402773Y-65642237D01*
X228402742Y-65641574D01*
X228400538Y-65593897D01*
X228400500Y-65592211D01*
X228400500Y-65572157D01*
X228399688Y-65567817D01*
X228399096Y-65562727D01*
X228397585Y-65530008D01*
X228392441Y-65518360D01*
X228387398Y-65502070D01*
X228385061Y-65489567D01*
X228367821Y-65461723D01*
X228365436Y-65457196D01*
X228352206Y-65427235D01*
X228343207Y-65418236D01*
X228332615Y-65404863D01*
X228325920Y-65394049D01*
X228325919Y-65394048D01*
X228299784Y-65374312D01*
X228295920Y-65370949D01*
X228055682Y-65130711D01*
X228048597Y-65120862D01*
X228048091Y-65121245D01*
X228043958Y-65115772D01*
X228029138Y-65102262D01*
X228008208Y-65083181D01*
X228006976Y-65082005D01*
X227992796Y-65067825D01*
X227989149Y-65065326D01*
X227985132Y-65062144D01*
X227978977Y-65056533D01*
X227960933Y-65040084D01*
X227949061Y-65035484D01*
X227933981Y-65027536D01*
X227923480Y-65020343D01*
X227891612Y-65012848D01*
X227886713Y-65011331D01*
X227856174Y-64999500D01*
X227856173Y-64999500D01*
X227843447Y-64999500D01*
X227826504Y-64997534D01*
X227814119Y-64994621D01*
X227814117Y-64994621D01*
X227803641Y-64996082D01*
X227781684Y-64999145D01*
X227776574Y-64999500D01*
X223371088Y-64999500D01*
X223359111Y-64997546D01*
X223359024Y-64998174D01*
X223352235Y-64997226D01*
X223320972Y-64998672D01*
X223303897Y-64999461D01*
X223302213Y-64999500D01*
X223282149Y-64999500D01*
X223277815Y-65000311D01*
X223272725Y-65000902D01*
X223249044Y-65001997D01*
X223240006Y-65002415D01*
X223228363Y-65007556D01*
X223212077Y-65012599D01*
X223199572Y-65014937D01*
X223199566Y-65014939D01*
X223171728Y-65032175D01*
X223167196Y-65034564D01*
X223164887Y-65035584D01*
X223137234Y-65047793D01*
X223128234Y-65056794D01*
X223114871Y-65067379D01*
X223110182Y-65070282D01*
X223104046Y-65074082D01*
X223104044Y-65074084D01*
X223084313Y-65100211D01*
X223080947Y-65104080D01*
X223007204Y-65177825D01*
X222961328Y-65199218D01*
X222954877Y-65199500D01*
X220668905Y-65199500D01*
X220656928Y-65197546D01*
X220656841Y-65198174D01*
X220650052Y-65197226D01*
X220618789Y-65198672D01*
X220601714Y-65199461D01*
X220600030Y-65199500D01*
X220579967Y-65199500D01*
X220575633Y-65200311D01*
X220570541Y-65200902D01*
X220541949Y-65202224D01*
X220537825Y-65202415D01*
X220536672Y-65202924D01*
X220536058Y-65203195D01*
X220506171Y-65209500D01*
X214250604Y-65209500D01*
X214203038Y-65192187D01*
X214185935Y-65166833D01*
X214184219Y-65167708D01*
X214160349Y-65120862D01*
X214127573Y-65056535D01*
X214043465Y-64972427D01*
X213979449Y-64939809D01*
X213937483Y-64918426D01*
X213820000Y-64899819D01*
X213702517Y-64918426D01*
X213702516Y-64918426D01*
X213596533Y-64972428D01*
X213576825Y-64992136D01*
X213530948Y-65013528D01*
X213482054Y-65000425D01*
X213453021Y-64958960D01*
X213450500Y-64939809D01*
X213450500Y-63720000D01*
X236229819Y-63720000D01*
X236248426Y-63837482D01*
X236248426Y-63837483D01*
X236275941Y-63891484D01*
X236302427Y-63943465D01*
X236386535Y-64027573D01*
X236492518Y-64081574D01*
X236610000Y-64100181D01*
X236727482Y-64081574D01*
X236833465Y-64027573D01*
X236917573Y-63943465D01*
X236971574Y-63837482D01*
X236990181Y-63720000D01*
X236971574Y-63602518D01*
X236918565Y-63498483D01*
X236910500Y-63464888D01*
X236910500Y-59835112D01*
X236918566Y-59801516D01*
X236971573Y-59697484D01*
X236971573Y-59697483D01*
X236971574Y-59697482D01*
X236990181Y-59580000D01*
X236971574Y-59462518D01*
X236917573Y-59356535D01*
X236833465Y-59272427D01*
X236773935Y-59242095D01*
X236727483Y-59218426D01*
X236610000Y-59199819D01*
X236492517Y-59218426D01*
X236492516Y-59218426D01*
X236386533Y-59272428D01*
X236302428Y-59356533D01*
X236248426Y-59462516D01*
X236248426Y-59462517D01*
X236229819Y-59580000D01*
X236248426Y-59697482D01*
X236248426Y-59697484D01*
X236301434Y-59801516D01*
X236309500Y-59835112D01*
X236309500Y-63464888D01*
X236301434Y-63498484D01*
X236248426Y-63602516D01*
X236229819Y-63720000D01*
X213450500Y-63720000D01*
X213450500Y-63125122D01*
X213467813Y-63077556D01*
X213472163Y-63072807D01*
X213787797Y-62757173D01*
X213833674Y-62735782D01*
X213840123Y-62735500D01*
X216695975Y-62735500D01*
X216711159Y-62737074D01*
X216725315Y-62740043D01*
X216759481Y-62735783D01*
X216764061Y-62735500D01*
X216769034Y-62735500D01*
X216769040Y-62735500D01*
X216789824Y-62732031D01*
X216791287Y-62731818D01*
X216841393Y-62725573D01*
X216841399Y-62725569D01*
X216847268Y-62723823D01*
X216847371Y-62724170D01*
X216849696Y-62723425D01*
X216849579Y-62723084D01*
X216855377Y-62721093D01*
X216855377Y-62721092D01*
X216855381Y-62721092D01*
X216899789Y-62697057D01*
X216901096Y-62696384D01*
X216946484Y-62674198D01*
X216951476Y-62670634D01*
X216951684Y-62670926D01*
X216953640Y-62669468D01*
X216953419Y-62669184D01*
X216958258Y-62665418D01*
X216958257Y-62665418D01*
X216992462Y-62628260D01*
X216993467Y-62627213D01*
X217100682Y-62519999D01*
X224804867Y-62519999D01*
X224823302Y-62648223D01*
X224823302Y-62648224D01*
X224823303Y-62648226D01*
X224877118Y-62766063D01*
X224961951Y-62863967D01*
X225070931Y-62934004D01*
X225195228Y-62970500D01*
X225324772Y-62970500D01*
X225449069Y-62934004D01*
X225558049Y-62863967D01*
X225642882Y-62766063D01*
X225696697Y-62648226D01*
X225715133Y-62520000D01*
X225696697Y-62391774D01*
X225642882Y-62273937D01*
X225642880Y-62273935D01*
X225642880Y-62273934D01*
X225578574Y-62199719D01*
X225560509Y-62152433D01*
X225560500Y-62151260D01*
X225560500Y-61455122D01*
X225577813Y-61407556D01*
X225582163Y-61402807D01*
X232164971Y-54819999D01*
X240479819Y-54819999D01*
X240498426Y-54937482D01*
X240498426Y-54937483D01*
X240525941Y-54991484D01*
X240552427Y-55043465D01*
X240636535Y-55127573D01*
X240740497Y-55180544D01*
X240742516Y-55181573D01*
X240742517Y-55181574D01*
X240752804Y-55183203D01*
X240783032Y-55187990D01*
X240823782Y-55208753D01*
X241307826Y-55692797D01*
X241329218Y-55738673D01*
X241329500Y-55745123D01*
X241329500Y-58554888D01*
X241321434Y-58588484D01*
X241268426Y-58692515D01*
X241268426Y-58692517D01*
X241249819Y-58809999D01*
X241268426Y-58927482D01*
X241268426Y-58927483D01*
X241295941Y-58981483D01*
X241322427Y-59033465D01*
X241406535Y-59117573D01*
X241512518Y-59171574D01*
X241630000Y-59190181D01*
X241747482Y-59171574D01*
X241853465Y-59117573D01*
X241937573Y-59033465D01*
X241991574Y-58927482D01*
X242010181Y-58810000D01*
X241991574Y-58692518D01*
X241991573Y-58692516D01*
X241991573Y-58692515D01*
X241938566Y-58588484D01*
X241930500Y-58554888D01*
X241930500Y-55651089D01*
X241932454Y-55639115D01*
X241931826Y-55639028D01*
X241932773Y-55632237D01*
X241930804Y-55589642D01*
X241930538Y-55583897D01*
X241930500Y-55582211D01*
X241930500Y-55562157D01*
X241929688Y-55557817D01*
X241929096Y-55552727D01*
X241927585Y-55520008D01*
X241922442Y-55508360D01*
X241917398Y-55492069D01*
X241916263Y-55485996D01*
X241915061Y-55479567D01*
X241897826Y-55451731D01*
X241895437Y-55447199D01*
X241882206Y-55417234D01*
X241873206Y-55408234D01*
X241862615Y-55394862D01*
X241855921Y-55384051D01*
X241855918Y-55384047D01*
X241829793Y-55364319D01*
X241825922Y-55360951D01*
X241248753Y-54783781D01*
X241227990Y-54743030D01*
X241221574Y-54702517D01*
X241221573Y-54702516D01*
X241220544Y-54700496D01*
X241167573Y-54596535D01*
X241083465Y-54512427D01*
X241031484Y-54485941D01*
X240977483Y-54458426D01*
X240860000Y-54439819D01*
X240742517Y-54458426D01*
X240742516Y-54458426D01*
X240636533Y-54512428D01*
X240552428Y-54596533D01*
X240498426Y-54702516D01*
X240498426Y-54702517D01*
X240479819Y-54819999D01*
X232164971Y-54819999D01*
X234689290Y-52295680D01*
X234699136Y-52288599D01*
X234698753Y-52288092D01*
X234704221Y-52283961D01*
X234704228Y-52283958D01*
X234736828Y-52248196D01*
X234737964Y-52247006D01*
X234752175Y-52232797D01*
X234754674Y-52229146D01*
X234757850Y-52225136D01*
X234779916Y-52200933D01*
X234784510Y-52189070D01*
X234792468Y-52173973D01*
X234799656Y-52163481D01*
X234799655Y-52163481D01*
X234799657Y-52163480D01*
X234807153Y-52131607D01*
X234808669Y-52126711D01*
X234809701Y-52124049D01*
X234820500Y-52096173D01*
X234820500Y-52083446D01*
X234822466Y-52066502D01*
X234825379Y-52054119D01*
X234825378Y-52054113D01*
X234825696Y-52047265D01*
X234826841Y-52047318D01*
X234835956Y-52004646D01*
X234842748Y-51995461D01*
X234856918Y-51979108D01*
X234902882Y-51926063D01*
X234956697Y-51808226D01*
X234975133Y-51680000D01*
X234956697Y-51551774D01*
X234902882Y-51433937D01*
X234818049Y-51336033D01*
X234740658Y-51286297D01*
X234709068Y-51265995D01*
X234584772Y-51229500D01*
X234455228Y-51229500D01*
X234330931Y-51265995D01*
X234221954Y-51336031D01*
X234221950Y-51336034D01*
X234137119Y-51433935D01*
X234083302Y-51551776D01*
X234064867Y-51680000D01*
X234083302Y-51808223D01*
X234083302Y-51808224D01*
X234083303Y-51808226D01*
X234136390Y-51924470D01*
X234138299Y-51928648D01*
X234142310Y-51979108D01*
X234123312Y-52011715D01*
X225090708Y-61044319D01*
X225080865Y-61051405D01*
X225081245Y-61051908D01*
X225075773Y-61056040D01*
X225043174Y-61091797D01*
X225041997Y-61093029D01*
X225027822Y-61107206D01*
X225025326Y-61110851D01*
X225022145Y-61114866D01*
X225000085Y-61139065D01*
X225000083Y-61139067D01*
X224995483Y-61150941D01*
X224987536Y-61166017D01*
X224980344Y-61176517D01*
X224972847Y-61208390D01*
X224971330Y-61213288D01*
X224959499Y-61243828D01*
X224959499Y-61256557D01*
X224957534Y-61273491D01*
X224954621Y-61285878D01*
X224954621Y-61285881D01*
X224959145Y-61318316D01*
X224959500Y-61323424D01*
X224959500Y-62151260D01*
X224942187Y-62198826D01*
X224941426Y-62199719D01*
X224877119Y-62273934D01*
X224877118Y-62273936D01*
X224823302Y-62391776D01*
X224804867Y-62519999D01*
X217100682Y-62519999D01*
X217243375Y-62377307D01*
X217294239Y-62306066D01*
X217327617Y-62193954D01*
X217322783Y-62077078D01*
X217280561Y-61968873D01*
X217275500Y-61941975D01*
X217275500Y-58580112D01*
X217283566Y-58546516D01*
X217336573Y-58442484D01*
X217336573Y-58442483D01*
X217336574Y-58442482D01*
X217355181Y-58325000D01*
X217336574Y-58207518D01*
X217282573Y-58101535D01*
X217198465Y-58017427D01*
X217146483Y-57990941D01*
X217092483Y-57963426D01*
X216975000Y-57944819D01*
X216857517Y-57963426D01*
X216857516Y-57963426D01*
X216751533Y-58017428D01*
X216667428Y-58101533D01*
X216613426Y-58207516D01*
X216613426Y-58207517D01*
X216594819Y-58325000D01*
X216613426Y-58442482D01*
X216613426Y-58442483D01*
X216638353Y-58491405D01*
X216666434Y-58546516D01*
X216674500Y-58580111D01*
X216674500Y-61924165D01*
X216657187Y-61971731D01*
X216652827Y-61976490D01*
X216616493Y-62012825D01*
X216570617Y-62034218D01*
X216564166Y-62034500D01*
X213705960Y-62034500D01*
X213641204Y-62045306D01*
X213619618Y-62048908D01*
X213516744Y-62104580D01*
X213516742Y-62104581D01*
X213437517Y-62190641D01*
X213437515Y-62190645D01*
X213390859Y-62297009D01*
X213375418Y-62319609D01*
X212980708Y-62714319D01*
X212970865Y-62721405D01*
X212971245Y-62721908D01*
X212965773Y-62726040D01*
X212933174Y-62761797D01*
X212931997Y-62763029D01*
X212917822Y-62777206D01*
X212915326Y-62780851D01*
X212912145Y-62784866D01*
X212890085Y-62809065D01*
X212890083Y-62809067D01*
X212885483Y-62820941D01*
X212877536Y-62836017D01*
X212870344Y-62846517D01*
X212862847Y-62878390D01*
X212861330Y-62883288D01*
X212849499Y-62913828D01*
X212849499Y-62926557D01*
X212847534Y-62943491D01*
X212844621Y-62955878D01*
X212844621Y-62955881D01*
X212849145Y-62988316D01*
X212849500Y-62993424D01*
X212849500Y-64971498D01*
X212832187Y-65019064D01*
X212788350Y-65044374D01*
X212738500Y-65035584D01*
X212734271Y-65032838D01*
X212733465Y-65032427D01*
X212671362Y-65000784D01*
X212627483Y-64978426D01*
X212510000Y-64959819D01*
X212392517Y-64978426D01*
X212392516Y-64978426D01*
X212286533Y-65032428D01*
X212202428Y-65116533D01*
X212148426Y-65222516D01*
X212148426Y-65222517D01*
X212129819Y-65339999D01*
X212148426Y-65457482D01*
X212148426Y-65457483D01*
X212164774Y-65489567D01*
X212202043Y-65562712D01*
X212202428Y-65563466D01*
X212210825Y-65571863D01*
X212232217Y-65617739D01*
X212232499Y-65624189D01*
X212232500Y-66227661D01*
X212230632Y-66239109D01*
X212231347Y-66239209D01*
X212230399Y-66245998D01*
X212232460Y-66290559D01*
X212232500Y-66292268D01*
X212232500Y-66310713D01*
X212233213Y-66314532D01*
X212233804Y-66319622D01*
X212235192Y-66349633D01*
X212235192Y-66349636D01*
X212239674Y-66359787D01*
X212244718Y-66376074D01*
X212246757Y-66386981D01*
X212260897Y-66409819D01*
X212262564Y-66412510D01*
X212264956Y-66417048D01*
X212277097Y-66444542D01*
X212277233Y-66444741D01*
X212277300Y-66445002D01*
X212279866Y-66450813D01*
X212278902Y-66451238D01*
X212289829Y-66493767D01*
X212267964Y-66539421D01*
X212221870Y-66560339D01*
X212173113Y-66546734D01*
X212163855Y-66538884D01*
X211547174Y-65922203D01*
X211525782Y-65876327D01*
X211525500Y-65869877D01*
X211525500Y-56351986D01*
X214969576Y-56351986D01*
X223919576Y-56301986D01*
X223969576Y-49051986D01*
X217011647Y-48990000D01*
X231499819Y-48990000D01*
X231512009Y-49066968D01*
X231518426Y-49107482D01*
X231518426Y-49107483D01*
X231527401Y-49125097D01*
X231572427Y-49213465D01*
X231656535Y-49297573D01*
X231762518Y-49351574D01*
X231880000Y-49370181D01*
X231997482Y-49351574D01*
X232103465Y-49297573D01*
X232187573Y-49213465D01*
X232241574Y-49107482D01*
X232247990Y-49066966D01*
X232268751Y-49026218D01*
X232792796Y-48502174D01*
X232838674Y-48480782D01*
X232845123Y-48480500D01*
X234424889Y-48480500D01*
X234458482Y-48488565D01*
X234562518Y-48541574D01*
X234680000Y-48560181D01*
X234797482Y-48541574D01*
X234903465Y-48487573D01*
X234987573Y-48403465D01*
X235041574Y-48297482D01*
X235060181Y-48180000D01*
X235041574Y-48062518D01*
X234987573Y-47956535D01*
X234903465Y-47872427D01*
X234831918Y-47835972D01*
X234797483Y-47818426D01*
X234680000Y-47799819D01*
X234562517Y-47818426D01*
X234562516Y-47818426D01*
X234508277Y-47846063D01*
X234458482Y-47871434D01*
X234424889Y-47879500D01*
X232751087Y-47879500D01*
X232739110Y-47877546D01*
X232739023Y-47878174D01*
X232732234Y-47877226D01*
X232700971Y-47878672D01*
X232683896Y-47879461D01*
X232682212Y-47879500D01*
X232662149Y-47879500D01*
X232657815Y-47880311D01*
X232652723Y-47880902D01*
X232627331Y-47882076D01*
X232620006Y-47882415D01*
X232608358Y-47887558D01*
X232592072Y-47892600D01*
X232590064Y-47892976D01*
X232579569Y-47894938D01*
X232579563Y-47894940D01*
X232551729Y-47912173D01*
X232547195Y-47914564D01*
X232517236Y-47927793D01*
X232517233Y-47927795D01*
X232508230Y-47936797D01*
X232494872Y-47947377D01*
X232484050Y-47954079D01*
X232484044Y-47954084D01*
X232464313Y-47980212D01*
X232460946Y-47984081D01*
X231843782Y-48601245D01*
X231803034Y-48622008D01*
X231762520Y-48628425D01*
X231762515Y-48628427D01*
X231656535Y-48682427D01*
X231656534Y-48682427D01*
X231572428Y-48766533D01*
X231518426Y-48872516D01*
X231518426Y-48872517D01*
X231518425Y-48872518D01*
X231518426Y-48872518D01*
X231499819Y-48990000D01*
X217011647Y-48990000D01*
X214989576Y-48971986D01*
X214969712Y-56301986D01*
X214969576Y-56351986D01*
X211525500Y-56351986D01*
X211525500Y-52961089D01*
X211527454Y-52949115D01*
X211526826Y-52949028D01*
X211527773Y-52942237D01*
X211527773Y-52942235D01*
X211525538Y-52893897D01*
X211525500Y-52892211D01*
X211525500Y-52872157D01*
X211524688Y-52867817D01*
X211524096Y-52862727D01*
X211522585Y-52830008D01*
X211517441Y-52818360D01*
X211512398Y-52802070D01*
X211510061Y-52789567D01*
X211492821Y-52761723D01*
X211490436Y-52757196D01*
X211477206Y-52727235D01*
X211468207Y-52718236D01*
X211457615Y-52704863D01*
X211450920Y-52694049D01*
X211450919Y-52694048D01*
X211424784Y-52674312D01*
X211420920Y-52670949D01*
X211172174Y-52422203D01*
X211150782Y-52376327D01*
X211150500Y-52369877D01*
X211150500Y-52087335D01*
X211167813Y-52039769D01*
X211211650Y-52014459D01*
X211261500Y-52023249D01*
X211291811Y-52056592D01*
X211322618Y-52124048D01*
X211407451Y-52221952D01*
X211516431Y-52291989D01*
X211640728Y-52328485D01*
X211770272Y-52328485D01*
X211894569Y-52291989D01*
X212003549Y-52221952D01*
X212088382Y-52124048D01*
X212142197Y-52006211D01*
X212160633Y-51877985D01*
X212142197Y-51749759D01*
X212088382Y-51631922D01*
X212088380Y-51631920D01*
X212085520Y-51627469D01*
X212086837Y-51626622D01*
X212071176Y-51585624D01*
X212087735Y-51537790D01*
X212092831Y-51532138D01*
X215722796Y-47902174D01*
X215768673Y-47880782D01*
X215775123Y-47880500D01*
X216913162Y-47880500D01*
X216960728Y-47897813D01*
X216969083Y-47906035D01*
X217001951Y-47943967D01*
X217110931Y-48014004D01*
X217235228Y-48050500D01*
X217364772Y-48050500D01*
X217489069Y-48014004D01*
X217598049Y-47943967D01*
X217682882Y-47846063D01*
X217736697Y-47728226D01*
X217755133Y-47600000D01*
X217736697Y-47471774D01*
X217682882Y-47353937D01*
X217598049Y-47256033D01*
X217520257Y-47206039D01*
X217489068Y-47185995D01*
X217364772Y-47149500D01*
X217235228Y-47149500D01*
X217110931Y-47185995D01*
X217001954Y-47256031D01*
X217001951Y-47256033D01*
X217001948Y-47256035D01*
X216997951Y-47259500D01*
X216996598Y-47257938D01*
X216959512Y-47278571D01*
X216947822Y-47279500D01*
X215681087Y-47279500D01*
X215669110Y-47277546D01*
X215669023Y-47278174D01*
X215662234Y-47277226D01*
X215630971Y-47278672D01*
X215613896Y-47279461D01*
X215612212Y-47279500D01*
X215592149Y-47279500D01*
X215587815Y-47280311D01*
X215582723Y-47280902D01*
X215557331Y-47282076D01*
X215550006Y-47282415D01*
X215538358Y-47287558D01*
X215522072Y-47292600D01*
X215520064Y-47292976D01*
X215509569Y-47294938D01*
X215509563Y-47294940D01*
X215481729Y-47312173D01*
X215477195Y-47314564D01*
X215447236Y-47327793D01*
X215447233Y-47327795D01*
X215438230Y-47336797D01*
X215424872Y-47347377D01*
X215414050Y-47354079D01*
X215414044Y-47354084D01*
X215394313Y-47380212D01*
X215390946Y-47384081D01*
X211536208Y-51238819D01*
X211526365Y-51245905D01*
X211526745Y-51246408D01*
X211521273Y-51250540D01*
X211488674Y-51286297D01*
X211487497Y-51287529D01*
X211473322Y-51301706D01*
X211470826Y-51305351D01*
X211467645Y-51309366D01*
X211445585Y-51333565D01*
X211445583Y-51333567D01*
X211440983Y-51345441D01*
X211433036Y-51360517D01*
X211425844Y-51371017D01*
X211418347Y-51402890D01*
X211416830Y-51407788D01*
X211406702Y-51433935D01*
X211405000Y-51438328D01*
X211405000Y-51451053D01*
X211403035Y-51467988D01*
X211400899Y-51477069D01*
X211400120Y-51480384D01*
X211400120Y-51480385D01*
X211402938Y-51500582D01*
X211392363Y-51550084D01*
X211385574Y-51559264D01*
X211322619Y-51631919D01*
X211322615Y-51631926D01*
X211291812Y-51699375D01*
X211256304Y-51735451D01*
X211205914Y-51740262D01*
X211164221Y-51711558D01*
X211150500Y-51668634D01*
X211150500Y-50972585D01*
X211167813Y-50925019D01*
X211172163Y-50920270D01*
X215054806Y-47037627D01*
X218680000Y-47037627D01*
X218695415Y-47149779D01*
X218755652Y-47288459D01*
X218851067Y-47405740D01*
X218974583Y-47492927D01*
X218974586Y-47492928D01*
X219117043Y-47543557D01*
X219117053Y-47543559D01*
X219154999Y-47546155D01*
X219155000Y-47546155D01*
X219155000Y-47190567D01*
X219201840Y-47203895D01*
X219305000Y-47194335D01*
X219305000Y-47546163D01*
X219415911Y-47523116D01*
X219415913Y-47523115D01*
X219550157Y-47453556D01*
X219660652Y-47350360D01*
X219739208Y-47221182D01*
X219739208Y-47221181D01*
X219780000Y-47075597D01*
X219780000Y-47037627D01*
X227320000Y-47037627D01*
X227335415Y-47149779D01*
X227395652Y-47288459D01*
X227491067Y-47405740D01*
X227614583Y-47492927D01*
X227614586Y-47492928D01*
X227757043Y-47543557D01*
X227757053Y-47543559D01*
X227794999Y-47546155D01*
X227795000Y-47546155D01*
X227794999Y-47190567D01*
X227841840Y-47203895D01*
X227944999Y-47194335D01*
X227944999Y-47546162D01*
X228055911Y-47523116D01*
X228055913Y-47523115D01*
X228190157Y-47453556D01*
X228300652Y-47350360D01*
X228379208Y-47221182D01*
X228379208Y-47221181D01*
X228420000Y-47075597D01*
X228420000Y-46675000D01*
X228170000Y-46675000D01*
X228170000Y-46525000D01*
X228419999Y-46525000D01*
X228420000Y-46258687D01*
X242245739Y-46258687D01*
X242255754Y-46443398D01*
X242255754Y-46443402D01*
X242255755Y-46443407D01*
X242305246Y-46621659D01*
X242391900Y-46785104D01*
X242511663Y-46926100D01*
X242658374Y-47037627D01*
X242658936Y-47038054D01*
X242658938Y-47038055D01*
X242811765Y-47108761D01*
X242826833Y-47115732D01*
X243007503Y-47155500D01*
X243007508Y-47155500D01*
X243146104Y-47155500D01*
X243146113Y-47155500D01*
X243283910Y-47140514D01*
X243459221Y-47081444D01*
X243617736Y-46986070D01*
X243752041Y-46858849D01*
X243855858Y-46705730D01*
X243924331Y-46533875D01*
X243954260Y-46351317D01*
X243954116Y-46348669D01*
X243947362Y-46224081D01*
X243944245Y-46166593D01*
X243894754Y-45988341D01*
X243808100Y-45824896D01*
X243688337Y-45683900D01*
X243581514Y-45602695D01*
X243541063Y-45571945D01*
X243541061Y-45571944D01*
X243373177Y-45494272D01*
X243373172Y-45494270D01*
X243373167Y-45494268D01*
X243192497Y-45454500D01*
X243053887Y-45454500D01*
X243053881Y-45454500D01*
X243053873Y-45454501D01*
X242939826Y-45466904D01*
X242916090Y-45469486D01*
X242916087Y-45469486D01*
X242916087Y-45469487D01*
X242740786Y-45528553D01*
X242740779Y-45528556D01*
X242582263Y-45623930D01*
X242447959Y-45751151D01*
X242447958Y-45751152D01*
X242344142Y-45904268D01*
X242275669Y-46076124D01*
X242275668Y-46076125D01*
X242245740Y-46258683D01*
X242245739Y-46258687D01*
X228420000Y-46258687D01*
X228420000Y-46162385D01*
X228419999Y-46162372D01*
X228404584Y-46050220D01*
X228344347Y-45911540D01*
X228248932Y-45794259D01*
X228125416Y-45707072D01*
X228125413Y-45707071D01*
X227982957Y-45656442D01*
X227982945Y-45656440D01*
X227945000Y-45653843D01*
X227944999Y-45653843D01*
X227944999Y-46009431D01*
X227898160Y-45996105D01*
X227795000Y-46005664D01*
X227795000Y-45653834D01*
X227684087Y-45676883D01*
X227684085Y-45676884D01*
X227549842Y-45746443D01*
X227439347Y-45849639D01*
X227360791Y-45978817D01*
X227360791Y-45978818D01*
X227320000Y-46124402D01*
X227320000Y-46525000D01*
X227570000Y-46525000D01*
X227570000Y-46675000D01*
X227320000Y-46675000D01*
X227320000Y-47037627D01*
X219780000Y-47037627D01*
X219780000Y-46675000D01*
X219530000Y-46675000D01*
X219530000Y-46525000D01*
X219779999Y-46525000D01*
X219780000Y-46162385D01*
X219779999Y-46162372D01*
X219764584Y-46050220D01*
X219704347Y-45911540D01*
X219608932Y-45794259D01*
X219485416Y-45707072D01*
X219485413Y-45707071D01*
X219342957Y-45656442D01*
X219342945Y-45656440D01*
X219305000Y-45653843D01*
X219305000Y-46009432D01*
X219258160Y-45996105D01*
X219154999Y-46005664D01*
X219155000Y-45653834D01*
X219044087Y-45676883D01*
X219044085Y-45676884D01*
X218909842Y-45746443D01*
X218799347Y-45849639D01*
X218720791Y-45978817D01*
X218720791Y-45978818D01*
X218680000Y-46124402D01*
X218680000Y-46525000D01*
X218930000Y-46525000D01*
X218930000Y-46675000D01*
X218680000Y-46675000D01*
X218680000Y-47037627D01*
X215054806Y-47037627D01*
X215320260Y-46772173D01*
X215366136Y-46750782D01*
X215372586Y-46750500D01*
X216144889Y-46750500D01*
X216178482Y-46758565D01*
X216282518Y-46811574D01*
X216400000Y-46830181D01*
X216517482Y-46811574D01*
X216623465Y-46757573D01*
X216707573Y-46673465D01*
X216761574Y-46567482D01*
X216767990Y-46526966D01*
X216788751Y-46486218D01*
X218252796Y-45022174D01*
X218298674Y-45000782D01*
X218305123Y-45000500D01*
X219938913Y-45000500D01*
X219950889Y-45002453D01*
X219950977Y-45001826D01*
X219957765Y-45002773D01*
X220006103Y-45000538D01*
X220007788Y-45000500D01*
X220027842Y-45000500D01*
X220027844Y-45000500D01*
X220032187Y-44999687D01*
X220037266Y-44999097D01*
X220069992Y-44997585D01*
X220081639Y-44992441D01*
X220097927Y-44987398D01*
X220110433Y-44985061D01*
X220138281Y-44967818D01*
X220142794Y-44965438D01*
X220172765Y-44952206D01*
X220181761Y-44943208D01*
X220195138Y-44932614D01*
X220199356Y-44930003D01*
X220205952Y-44925919D01*
X220225687Y-44899783D01*
X220229051Y-44895919D01*
X220762797Y-44362174D01*
X220808674Y-44340782D01*
X220815123Y-44340500D01*
X221519321Y-44340500D01*
X221566887Y-44357813D01*
X221592197Y-44401650D01*
X221583407Y-44451500D01*
X221568393Y-44469887D01*
X221561586Y-44475919D01*
X221539516Y-44495470D01*
X221449779Y-44625478D01*
X221449778Y-44625478D01*
X221393764Y-44773177D01*
X221393761Y-44773191D01*
X221374722Y-44929996D01*
X221374722Y-44930003D01*
X221393761Y-45086808D01*
X221393764Y-45086822D01*
X221449778Y-45234521D01*
X221539516Y-45364529D01*
X221539517Y-45364530D01*
X221657760Y-45469283D01*
X221797635Y-45542696D01*
X221951015Y-45580500D01*
X221951019Y-45580500D01*
X222108981Y-45580500D01*
X222108985Y-45580500D01*
X222262365Y-45542696D01*
X222402240Y-45469283D01*
X222446493Y-45430078D01*
X222470163Y-45409110D01*
X222517247Y-45390527D01*
X222519233Y-45390500D01*
X224547189Y-45390500D01*
X224594755Y-45407813D01*
X224608088Y-45422461D01*
X224609514Y-45424527D01*
X224609515Y-45424528D01*
X224609516Y-45424529D01*
X224609517Y-45424530D01*
X224727760Y-45529283D01*
X224867635Y-45602696D01*
X225021015Y-45640500D01*
X225021019Y-45640500D01*
X225178981Y-45640500D01*
X225178985Y-45640500D01*
X225332365Y-45602696D01*
X225472240Y-45529283D01*
X225590483Y-45424530D01*
X225680220Y-45294523D01*
X225687435Y-45275500D01*
X225722241Y-45183722D01*
X225736237Y-45146818D01*
X225745993Y-45066473D01*
X225755278Y-44990003D01*
X225755278Y-44989996D01*
X225736238Y-44833191D01*
X225736237Y-44833182D01*
X225726524Y-44807571D01*
X225680221Y-44685478D01*
X225590483Y-44555470D01*
X225584872Y-44550499D01*
X225493880Y-44469888D01*
X225469758Y-44425389D01*
X225479882Y-44375793D01*
X225519518Y-44344309D01*
X225542952Y-44340500D01*
X226384877Y-44340500D01*
X226432443Y-44357813D01*
X226437203Y-44362174D01*
X226494318Y-44419289D01*
X226501404Y-44429137D01*
X226501910Y-44428756D01*
X226506041Y-44434227D01*
X226506042Y-44434228D01*
X226524129Y-44450717D01*
X226541785Y-44466812D01*
X226543022Y-44467993D01*
X226557203Y-44482174D01*
X226560856Y-44484676D01*
X226564858Y-44487847D01*
X226577990Y-44499818D01*
X226589065Y-44509915D01*
X226589066Y-44509915D01*
X226589067Y-44509916D01*
X226596528Y-44512806D01*
X226600931Y-44514512D01*
X226616021Y-44522465D01*
X226626519Y-44529657D01*
X226658388Y-44537152D01*
X226663287Y-44538668D01*
X226693827Y-44550500D01*
X226706553Y-44550500D01*
X226723488Y-44552464D01*
X226735881Y-44555379D01*
X226768315Y-44550854D01*
X226773426Y-44550500D01*
X227743827Y-44550500D01*
X235988913Y-44550500D01*
X236000889Y-44552453D01*
X236000977Y-44551826D01*
X236007765Y-44552773D01*
X236056103Y-44550538D01*
X236057788Y-44550500D01*
X236077842Y-44550500D01*
X236077844Y-44550500D01*
X236082187Y-44549687D01*
X236087266Y-44549097D01*
X236119992Y-44547585D01*
X236131639Y-44542441D01*
X236147927Y-44537398D01*
X236160433Y-44535061D01*
X236188281Y-44517818D01*
X236192794Y-44515438D01*
X236222765Y-44502206D01*
X236231763Y-44493206D01*
X236245131Y-44482618D01*
X236253280Y-44477573D01*
X236280648Y-44467407D01*
X236317482Y-44461574D01*
X236423465Y-44407573D01*
X236507573Y-44323465D01*
X236561574Y-44217482D01*
X236580181Y-44100000D01*
X236561574Y-43982518D01*
X236507573Y-43876535D01*
X236423465Y-43792427D01*
X236345787Y-43752848D01*
X236317483Y-43738426D01*
X236200000Y-43719819D01*
X236082517Y-43738426D01*
X236082516Y-43738426D01*
X235976533Y-43792428D01*
X235892427Y-43876534D01*
X235875837Y-43909095D01*
X235838816Y-43943617D01*
X235809902Y-43949500D01*
X226905123Y-43949500D01*
X226857557Y-43932187D01*
X226852797Y-43927826D01*
X226795682Y-43870711D01*
X226788597Y-43860862D01*
X226788091Y-43861245D01*
X226783958Y-43855772D01*
X226766890Y-43840212D01*
X226748208Y-43823181D01*
X226746976Y-43822005D01*
X226732796Y-43807825D01*
X226729149Y-43805326D01*
X226725132Y-43802144D01*
X226724338Y-43801420D01*
X226700933Y-43780084D01*
X226689061Y-43775484D01*
X226673981Y-43767536D01*
X226663480Y-43760343D01*
X226631612Y-43752848D01*
X226626713Y-43751331D01*
X226596174Y-43739500D01*
X226596173Y-43739500D01*
X226583447Y-43739500D01*
X226566504Y-43737534D01*
X226554119Y-43734621D01*
X226554117Y-43734621D01*
X226543641Y-43736082D01*
X226521684Y-43739145D01*
X226516574Y-43739500D01*
X224429397Y-43739500D01*
X224381831Y-43722187D01*
X224356521Y-43678350D01*
X224363462Y-43631905D01*
X224411574Y-43537482D01*
X224430181Y-43420000D01*
X224411574Y-43302518D01*
X224411573Y-43302516D01*
X224411573Y-43302515D01*
X224378511Y-43237627D01*
X227320000Y-43237627D01*
X227335415Y-43349779D01*
X227395652Y-43488459D01*
X227491067Y-43605740D01*
X227614583Y-43692927D01*
X227614586Y-43692928D01*
X227757043Y-43743557D01*
X227757053Y-43743559D01*
X227794999Y-43746155D01*
X227795000Y-43746154D01*
X227794999Y-43390567D01*
X227841840Y-43403895D01*
X227944999Y-43394335D01*
X227944999Y-43746162D01*
X228055911Y-43723116D01*
X228055913Y-43723115D01*
X228190157Y-43653556D01*
X228300652Y-43550360D01*
X228379208Y-43421182D01*
X228379208Y-43421181D01*
X228420000Y-43275597D01*
X228420000Y-42875000D01*
X228170000Y-42875000D01*
X228170000Y-42725000D01*
X228420000Y-42725000D01*
X228419999Y-42724999D01*
X228420000Y-42362385D01*
X228419999Y-42362372D01*
X228404584Y-42250220D01*
X228344347Y-42111540D01*
X228248932Y-41994259D01*
X228125416Y-41907072D01*
X228125413Y-41907071D01*
X227982957Y-41856442D01*
X227982945Y-41856440D01*
X227945000Y-41853843D01*
X227944999Y-41853843D01*
X227944999Y-42209431D01*
X227898160Y-42196105D01*
X227795000Y-42205664D01*
X227795000Y-41853834D01*
X227684087Y-41876883D01*
X227684085Y-41876884D01*
X227549842Y-41946443D01*
X227439347Y-42049639D01*
X227360791Y-42178817D01*
X227360791Y-42178818D01*
X227320000Y-42324402D01*
X227320000Y-42725000D01*
X227570000Y-42725000D01*
X227570000Y-42875000D01*
X227320000Y-42875000D01*
X227320000Y-43237627D01*
X224378511Y-43237627D01*
X224358566Y-43198484D01*
X224350500Y-43164888D01*
X224350500Y-42100603D01*
X224367813Y-42053037D01*
X224393171Y-42035944D01*
X224392292Y-42034219D01*
X224422837Y-42018654D01*
X224503465Y-41977573D01*
X224587573Y-41893465D01*
X224641574Y-41787482D01*
X224660181Y-41670000D01*
X224641574Y-41552518D01*
X224587573Y-41446535D01*
X224503465Y-41362427D01*
X224451484Y-41335941D01*
X224397483Y-41308426D01*
X224280000Y-41289819D01*
X224162517Y-41308426D01*
X224162516Y-41308426D01*
X224056533Y-41362428D01*
X223972427Y-41446534D01*
X223972427Y-41446535D01*
X223918427Y-41552515D01*
X223918425Y-41552520D01*
X223912008Y-41593034D01*
X223891245Y-41633782D01*
X223880708Y-41644319D01*
X223870865Y-41651405D01*
X223871245Y-41651908D01*
X223865773Y-41656040D01*
X223833174Y-41691797D01*
X223831997Y-41693029D01*
X223817822Y-41707206D01*
X223815326Y-41710851D01*
X223812145Y-41714866D01*
X223790085Y-41739065D01*
X223790083Y-41739067D01*
X223785483Y-41750941D01*
X223777536Y-41766017D01*
X223770344Y-41776517D01*
X223762847Y-41808390D01*
X223761330Y-41813288D01*
X223749499Y-41843828D01*
X223749499Y-41856557D01*
X223747534Y-41873491D01*
X223744621Y-41885878D01*
X223744621Y-41885881D01*
X223749145Y-41918316D01*
X223749500Y-41923424D01*
X223749500Y-43164887D01*
X223741434Y-43198482D01*
X223688427Y-43302513D01*
X223688426Y-43302517D01*
X223669819Y-43420000D01*
X223688426Y-43537482D01*
X223688426Y-43537483D01*
X223710132Y-43580082D01*
X223736537Y-43631905D01*
X223742707Y-43682146D01*
X223715138Y-43724599D01*
X223670603Y-43739500D01*
X223434493Y-43739500D01*
X223386927Y-43722187D01*
X223361617Y-43678350D01*
X223368559Y-43631904D01*
X223411573Y-43547484D01*
X223411573Y-43547483D01*
X223411574Y-43547482D01*
X223430181Y-43430000D01*
X223411574Y-43312518D01*
X223411573Y-43312516D01*
X223411573Y-43312515D01*
X223358566Y-43208484D01*
X223350500Y-43174888D01*
X223350500Y-42724999D01*
X223350500Y-42112547D01*
X223367812Y-42064984D01*
X223390905Y-42046615D01*
X223418465Y-42032573D01*
X223502573Y-41948465D01*
X223556574Y-41842482D01*
X223575181Y-41725000D01*
X223556574Y-41607518D01*
X223502573Y-41501535D01*
X223418465Y-41417427D01*
X223366483Y-41390941D01*
X223312483Y-41363426D01*
X223195000Y-41344819D01*
X223077517Y-41363426D01*
X223077516Y-41363426D01*
X222971533Y-41417428D01*
X222887427Y-41501534D01*
X222887427Y-41501535D01*
X222833427Y-41607515D01*
X222833425Y-41607521D01*
X222826541Y-41650984D01*
X222808140Y-41689259D01*
X222790085Y-41709065D01*
X222790083Y-41709067D01*
X222785483Y-41720941D01*
X222777536Y-41736017D01*
X222770344Y-41746517D01*
X222762847Y-41778390D01*
X222761330Y-41783288D01*
X222749499Y-41813828D01*
X222749499Y-41826557D01*
X222747534Y-41843491D01*
X222744621Y-41855878D01*
X222744621Y-41855881D01*
X222749145Y-41888316D01*
X222749500Y-41893424D01*
X222749500Y-43174888D01*
X222741434Y-43208484D01*
X222688426Y-43312515D01*
X222688426Y-43312517D01*
X222669819Y-43430000D01*
X222688426Y-43547482D01*
X222688426Y-43547484D01*
X222731441Y-43631904D01*
X222737610Y-43682146D01*
X222710042Y-43724599D01*
X222665507Y-43739500D01*
X220721088Y-43739500D01*
X220709111Y-43737546D01*
X220709024Y-43738174D01*
X220702235Y-43737226D01*
X220670972Y-43738672D01*
X220653897Y-43739461D01*
X220652213Y-43739500D01*
X220632149Y-43739500D01*
X220627815Y-43740311D01*
X220622723Y-43740902D01*
X220597331Y-43742076D01*
X220590006Y-43742415D01*
X220578358Y-43747558D01*
X220562072Y-43752600D01*
X220560064Y-43752976D01*
X220549569Y-43754938D01*
X220549563Y-43754940D01*
X220521729Y-43772173D01*
X220517195Y-43774564D01*
X220487236Y-43787793D01*
X220487233Y-43787795D01*
X220478230Y-43796797D01*
X220464872Y-43807377D01*
X220454050Y-43814079D01*
X220454044Y-43814084D01*
X220434313Y-43840212D01*
X220430946Y-43844081D01*
X219897203Y-44377826D01*
X219851327Y-44399218D01*
X219844877Y-44399500D01*
X218211088Y-44399500D01*
X218199111Y-44397546D01*
X218199024Y-44398174D01*
X218192235Y-44397226D01*
X218160972Y-44398672D01*
X218143897Y-44399461D01*
X218142213Y-44399500D01*
X218122149Y-44399500D01*
X218117815Y-44400311D01*
X218112725Y-44400902D01*
X218089044Y-44401997D01*
X218080006Y-44402415D01*
X218068363Y-44407556D01*
X218052077Y-44412599D01*
X218039572Y-44414937D01*
X218039566Y-44414939D01*
X218011728Y-44432175D01*
X218007196Y-44434564D01*
X218000123Y-44437687D01*
X217977234Y-44447793D01*
X217968234Y-44456794D01*
X217954870Y-44467380D01*
X217944046Y-44474082D01*
X217944044Y-44474084D01*
X217924313Y-44500212D01*
X217920946Y-44504081D01*
X216363782Y-46061245D01*
X216323034Y-46082008D01*
X216282520Y-46088425D01*
X216282515Y-46088427D01*
X216178484Y-46141434D01*
X216144889Y-46149500D01*
X215278550Y-46149500D01*
X215266573Y-46147546D01*
X215266486Y-46148174D01*
X215259697Y-46147226D01*
X215228434Y-46148672D01*
X215211359Y-46149461D01*
X215209675Y-46149500D01*
X215189612Y-46149500D01*
X215185278Y-46150311D01*
X215180186Y-46150902D01*
X215154794Y-46152076D01*
X215147469Y-46152415D01*
X215135821Y-46157558D01*
X215119535Y-46162600D01*
X215117527Y-46162976D01*
X215107032Y-46164938D01*
X215107026Y-46164940D01*
X215079192Y-46182173D01*
X215074658Y-46184564D01*
X215044699Y-46197793D01*
X215044696Y-46197795D01*
X215035693Y-46206797D01*
X215022335Y-46217377D01*
X215011513Y-46224079D01*
X215011507Y-46224084D01*
X214991776Y-46250212D01*
X214988409Y-46254081D01*
X210715492Y-50526998D01*
X210696152Y-50540913D01*
X210665773Y-50556040D01*
X210663120Y-50558951D01*
X210647397Y-50572007D01*
X210644048Y-50574080D01*
X210644047Y-50574081D01*
X210619596Y-50606458D01*
X210617413Y-50609087D01*
X210590083Y-50639067D01*
X210588660Y-50642741D01*
X210578720Y-50660588D01*
X210576344Y-50663735D01*
X210565240Y-50702757D01*
X210564154Y-50705998D01*
X210549499Y-50743828D01*
X210549499Y-50747766D01*
X210546678Y-50767998D01*
X210545598Y-50771793D01*
X210549342Y-50812183D01*
X210549500Y-50815599D01*
X210549500Y-52463912D01*
X210547547Y-52475889D01*
X210548174Y-52475977D01*
X210547226Y-52482765D01*
X210548648Y-52513509D01*
X210549461Y-52531102D01*
X210549500Y-52532787D01*
X210549500Y-52552850D01*
X210550311Y-52557186D01*
X210550903Y-52562281D01*
X210552415Y-52594994D01*
X210557554Y-52606632D01*
X210562600Y-52622923D01*
X210564938Y-52635432D01*
X210564939Y-52635433D01*
X210582175Y-52663274D01*
X210584566Y-52667809D01*
X210597794Y-52697765D01*
X210597795Y-52697766D01*
X210606793Y-52706764D01*
X210617380Y-52720130D01*
X210624081Y-52730952D01*
X210624082Y-52730953D01*
X210650212Y-52750686D01*
X210654082Y-52754053D01*
X210902826Y-53002797D01*
X210924218Y-53048673D01*
X210924500Y-53055123D01*
X210924500Y-65963912D01*
X210922547Y-65975889D01*
X210923174Y-65975977D01*
X210922226Y-65982765D01*
X210923127Y-66002235D01*
X210924461Y-66031102D01*
X210924500Y-66032787D01*
X210924500Y-66052850D01*
X210925311Y-66057186D01*
X210925903Y-66062281D01*
X210927415Y-66094994D01*
X210932554Y-66106632D01*
X210937600Y-66122923D01*
X210939938Y-66135432D01*
X210939939Y-66135433D01*
X210957175Y-66163274D01*
X210959566Y-66167809D01*
X210962975Y-66175529D01*
X210972794Y-66197765D01*
X210972795Y-66197766D01*
X210981793Y-66206764D01*
X210992380Y-66220130D01*
X210999081Y-66230952D01*
X210999082Y-66230953D01*
X211025212Y-66250686D01*
X211029082Y-66254052D01*
X211977826Y-67202797D01*
X211999218Y-67248672D01*
X211999500Y-67255122D01*
X211999500Y-85566588D01*
X211982187Y-85614154D01*
X211938350Y-85639464D01*
X211888500Y-85630674D01*
X211873174Y-85618914D01*
X210799732Y-84545472D01*
X210790531Y-84534260D01*
X210780601Y-84519399D01*
X210742468Y-84493919D01*
X210709895Y-84472155D01*
X210697741Y-84464034D01*
X210600000Y-84444592D01*
X210597612Y-84445067D01*
X210594527Y-84444592D01*
X210592712Y-84444592D01*
X210592712Y-84444312D01*
X210547582Y-84437364D01*
X210530852Y-84424814D01*
X210473466Y-84367428D01*
X210473465Y-84367428D01*
X210473465Y-84367427D01*
X210394584Y-84327235D01*
X210367483Y-84313426D01*
X210250000Y-84294819D01*
X210132517Y-84313426D01*
X210132516Y-84313426D01*
X210026533Y-84367428D01*
X209942428Y-84451533D01*
X209891647Y-84551195D01*
X209854626Y-84585717D01*
X209804077Y-84588365D01*
X209763651Y-84557902D01*
X209751792Y-84521016D01*
X209750539Y-84493919D01*
X209750500Y-84492211D01*
X209750500Y-84472157D01*
X209749688Y-84467817D01*
X209749096Y-84462727D01*
X209747585Y-84430008D01*
X209742441Y-84418360D01*
X209737398Y-84402070D01*
X209735061Y-84389567D01*
X209717821Y-84361723D01*
X209715436Y-84357196D01*
X209702206Y-84327235D01*
X209693207Y-84318236D01*
X209682615Y-84304863D01*
X209675920Y-84294049D01*
X209675919Y-84294048D01*
X209649784Y-84274312D01*
X209645920Y-84270949D01*
X207648133Y-82273162D01*
X207634525Y-82254433D01*
X207608564Y-82203480D01*
X207600500Y-82169888D01*
X207600500Y-81905123D01*
X207617813Y-81857557D01*
X207622174Y-81852797D01*
X208930095Y-80544876D01*
X210394290Y-79080680D01*
X210404136Y-79073599D01*
X210403753Y-79073092D01*
X210409221Y-79068961D01*
X210409228Y-79068958D01*
X210441828Y-79033196D01*
X210442964Y-79032006D01*
X210457175Y-79017797D01*
X210459674Y-79014146D01*
X210462850Y-79010136D01*
X210484916Y-78985933D01*
X210489510Y-78974070D01*
X210497468Y-78958973D01*
X210504656Y-78948481D01*
X210504655Y-78948481D01*
X210504657Y-78948480D01*
X210512153Y-78916607D01*
X210513669Y-78911711D01*
X210525500Y-78881172D01*
X210525500Y-78868446D01*
X210527466Y-78851502D01*
X210530379Y-78839119D01*
X210525853Y-78806684D01*
X210525499Y-78801571D01*
X210525499Y-78244888D01*
X210525499Y-77630106D01*
X210533563Y-77596520D01*
X210586574Y-77492482D01*
X210605181Y-77375000D01*
X210586574Y-77257518D01*
X210532573Y-77151535D01*
X210448465Y-77067427D01*
X210396484Y-77040941D01*
X210342483Y-77013426D01*
X210225000Y-76994819D01*
X210107517Y-77013426D01*
X210033094Y-77051346D01*
X209982852Y-77057514D01*
X209940400Y-77029945D01*
X209925500Y-76985413D01*
X209925500Y-68807835D01*
X209942813Y-68760269D01*
X209965904Y-68741901D01*
X210023465Y-68712573D01*
X210107573Y-68628465D01*
X210161574Y-68522482D01*
X210180181Y-68405000D01*
X210161574Y-68287518D01*
X210107573Y-68181535D01*
X210023465Y-68097427D01*
X209971484Y-68070941D01*
X209917483Y-68043426D01*
X209800000Y-68024819D01*
X209682517Y-68043426D01*
X209682516Y-68043426D01*
X209576533Y-68097428D01*
X209492427Y-68181534D01*
X209492427Y-68181535D01*
X209438427Y-68287515D01*
X209438425Y-68287520D01*
X209432098Y-68327465D01*
X209413703Y-68365733D01*
X209408191Y-68371780D01*
X209407009Y-68373019D01*
X209392822Y-68387207D01*
X209390326Y-68390851D01*
X209387145Y-68394866D01*
X209365085Y-68419065D01*
X209365083Y-68419067D01*
X209360483Y-68430941D01*
X209352536Y-68446017D01*
X209345344Y-68456517D01*
X209337847Y-68488390D01*
X209336330Y-68493288D01*
X209324500Y-68523828D01*
X209324500Y-68536553D01*
X209322535Y-68553488D01*
X209319621Y-68565881D01*
X209324145Y-68598316D01*
X209324500Y-68603424D01*
X209324500Y-78119875D01*
X209307187Y-78167441D01*
X209302826Y-78172201D01*
X206105708Y-81369319D01*
X206095865Y-81376405D01*
X206096245Y-81376908D01*
X206090773Y-81381040D01*
X206058174Y-81416797D01*
X206056997Y-81418029D01*
X206042822Y-81432206D01*
X206040326Y-81435851D01*
X206037145Y-81439866D01*
X206015085Y-81464065D01*
X206015083Y-81464067D01*
X206010483Y-81475941D01*
X206002536Y-81491017D01*
X205995344Y-81501517D01*
X205987847Y-81533390D01*
X205986330Y-81538288D01*
X205976035Y-81564866D01*
X205974500Y-81568828D01*
X205974500Y-81581553D01*
X205972535Y-81598488D01*
X205969621Y-81610881D01*
X205974145Y-81643316D01*
X205974500Y-81648424D01*
X205974500Y-83638912D01*
X205972547Y-83650889D01*
X205973174Y-83650977D01*
X205972226Y-83657765D01*
X205973648Y-83688509D01*
X205974461Y-83706102D01*
X205974500Y-83707787D01*
X205974500Y-83727850D01*
X205975311Y-83732186D01*
X205975903Y-83737281D01*
X205977415Y-83769994D01*
X205982554Y-83781632D01*
X205987600Y-83797923D01*
X205989938Y-83810432D01*
X205989939Y-83810433D01*
X206007175Y-83838274D01*
X206009566Y-83842809D01*
X206022794Y-83872765D01*
X206022795Y-83872766D01*
X206031793Y-83881764D01*
X206042380Y-83895130D01*
X206049081Y-83905952D01*
X206049082Y-83905953D01*
X206075212Y-83925686D01*
X206079082Y-83929053D01*
X208172407Y-86022378D01*
X208193799Y-86068254D01*
X208180698Y-86117149D01*
X208153677Y-86140637D01*
X208053982Y-86191434D01*
X208020389Y-86199500D01*
X207705123Y-86199500D01*
X207657557Y-86182187D01*
X207652797Y-86177826D01*
X204234067Y-82759096D01*
X204212675Y-82713220D01*
X204220459Y-82673174D01*
X204261574Y-82592482D01*
X204267990Y-82551966D01*
X204288751Y-82511218D01*
X208969288Y-77830681D01*
X208979136Y-77823599D01*
X208978753Y-77823092D01*
X208984221Y-77818961D01*
X208984228Y-77818958D01*
X209016837Y-77783186D01*
X209017995Y-77781975D01*
X209032174Y-77767797D01*
X209034673Y-77764147D01*
X209037848Y-77760138D01*
X209059916Y-77735933D01*
X209064515Y-77724058D01*
X209072468Y-77708973D01*
X209079656Y-77698481D01*
X209087152Y-77666609D01*
X209088667Y-77661713D01*
X209100500Y-77631173D01*
X209100500Y-77618441D01*
X209102464Y-77601508D01*
X209105379Y-77589119D01*
X209100854Y-77556684D01*
X209100500Y-77551574D01*
X209100500Y-68361093D01*
X209102454Y-68349116D01*
X209101827Y-68349029D01*
X209102774Y-68342238D01*
X209100539Y-68293908D01*
X209100500Y-68292199D01*
X209100500Y-68272155D01*
X209100499Y-68272153D01*
X209099689Y-68267819D01*
X209099097Y-68262717D01*
X209097585Y-68230009D01*
X209092444Y-68218366D01*
X209087398Y-68202071D01*
X209085061Y-68189568D01*
X209085060Y-68189566D01*
X209080086Y-68181533D01*
X209067824Y-68161728D01*
X209065434Y-68157196D01*
X209052206Y-68127235D01*
X209043207Y-68118236D01*
X209032615Y-68104863D01*
X209025920Y-68094049D01*
X209025919Y-68094048D01*
X208999784Y-68074312D01*
X208995920Y-68070949D01*
X208188753Y-67263782D01*
X208167990Y-67223031D01*
X208164785Y-67202796D01*
X208161574Y-67182518D01*
X208161574Y-67182517D01*
X208161573Y-67182516D01*
X208160544Y-67180496D01*
X208107573Y-67076535D01*
X208023465Y-66992427D01*
X207963215Y-66961728D01*
X207917483Y-66938426D01*
X207800000Y-66919819D01*
X207682517Y-66938426D01*
X207682516Y-66938426D01*
X207576533Y-66992428D01*
X207492428Y-67076533D01*
X207438426Y-67182516D01*
X207438426Y-67182517D01*
X207419819Y-67299999D01*
X207438426Y-67417482D01*
X207438426Y-67417483D01*
X207447971Y-67436216D01*
X207492427Y-67523465D01*
X207576535Y-67607573D01*
X207680496Y-67660544D01*
X207682516Y-67661573D01*
X207682517Y-67661574D01*
X207693869Y-67663371D01*
X207723031Y-67667990D01*
X207763781Y-67688753D01*
X208477826Y-68402797D01*
X208499218Y-68448673D01*
X208499500Y-68455123D01*
X208499500Y-77419876D01*
X208482187Y-77467442D01*
X208477826Y-77472202D01*
X203863782Y-82086245D01*
X203823034Y-82107008D01*
X203782520Y-82113425D01*
X203782515Y-82113427D01*
X203676535Y-82167427D01*
X203676534Y-82167427D01*
X203592428Y-82251533D01*
X203538426Y-82357516D01*
X203538426Y-82357517D01*
X203519819Y-82474999D01*
X202149970Y-82474999D01*
X200272173Y-80597202D01*
X200250781Y-80551326D01*
X200250499Y-80544876D01*
X200250499Y-72310005D01*
X202474532Y-72310005D01*
X202494364Y-72536688D01*
X202494365Y-72536696D01*
X202553258Y-72756488D01*
X202553260Y-72756492D01*
X202553261Y-72756496D01*
X202649432Y-72962734D01*
X202649434Y-72962736D01*
X202649435Y-72962739D01*
X202687767Y-73017483D01*
X202779953Y-73149139D01*
X202940861Y-73310047D01*
X203127266Y-73440568D01*
X203333504Y-73536739D01*
X203333510Y-73536740D01*
X203333511Y-73536741D01*
X203553303Y-73595634D01*
X203553305Y-73595634D01*
X203553308Y-73595635D01*
X203626125Y-73602005D01*
X203723212Y-73610500D01*
X203723216Y-73610500D01*
X203836788Y-73610500D01*
X203921737Y-73603067D01*
X204006692Y-73595635D01*
X204226496Y-73536739D01*
X204432734Y-73440568D01*
X204619139Y-73310047D01*
X204780047Y-73149139D01*
X204910568Y-72962734D01*
X205006739Y-72756496D01*
X205065635Y-72536692D01*
X205085468Y-72310000D01*
X205085468Y-72309994D01*
X205065635Y-72083311D01*
X205065634Y-72083303D01*
X205006741Y-71863511D01*
X205006740Y-71863510D01*
X205006739Y-71863504D01*
X204910568Y-71657266D01*
X204780047Y-71470861D01*
X204619139Y-71309953D01*
X204432739Y-71179435D01*
X204432736Y-71179434D01*
X204432734Y-71179432D01*
X204226496Y-71083261D01*
X204226492Y-71083260D01*
X204226488Y-71083258D01*
X204006696Y-71024365D01*
X204006688Y-71024364D01*
X203836788Y-71009500D01*
X203836784Y-71009500D01*
X203723216Y-71009500D01*
X203723212Y-71009500D01*
X203553311Y-71024364D01*
X203553303Y-71024365D01*
X203333511Y-71083258D01*
X203333504Y-71083260D01*
X203333504Y-71083261D01*
X203202324Y-71144432D01*
X203127260Y-71179435D01*
X202940860Y-71309953D01*
X202779953Y-71470860D01*
X202649435Y-71657260D01*
X202553263Y-71863500D01*
X202553258Y-71863511D01*
X202494365Y-72083303D01*
X202494364Y-72083311D01*
X202474532Y-72309994D01*
X202474532Y-72310005D01*
X200250499Y-72310005D01*
X200250499Y-66250686D01*
X200250499Y-55900000D01*
X202034867Y-55900000D01*
X202053302Y-56028223D01*
X202107119Y-56146065D01*
X202107121Y-56146067D01*
X202171425Y-56220278D01*
X202189491Y-56267564D01*
X202189500Y-56268738D01*
X202189500Y-60628912D01*
X202187547Y-60640889D01*
X202188174Y-60640977D01*
X202187226Y-60647765D01*
X202188648Y-60678509D01*
X202189461Y-60696102D01*
X202189500Y-60697787D01*
X202189500Y-60717850D01*
X202190311Y-60722186D01*
X202190903Y-60727281D01*
X202192415Y-60759994D01*
X202197554Y-60771632D01*
X202202600Y-60787923D01*
X202204938Y-60800432D01*
X202204939Y-60800433D01*
X202222175Y-60828274D01*
X202224566Y-60832809D01*
X202237794Y-60862765D01*
X202237795Y-60862766D01*
X202246793Y-60871764D01*
X202257380Y-60885130D01*
X202264081Y-60895952D01*
X202264082Y-60895953D01*
X202290212Y-60915686D01*
X202294082Y-60919053D01*
X204513193Y-63138164D01*
X204534585Y-63184040D01*
X204534836Y-63189784D01*
X204553302Y-63318223D01*
X204553302Y-63318224D01*
X204553303Y-63318226D01*
X204607118Y-63436063D01*
X204691951Y-63533967D01*
X204800931Y-63604004D01*
X204925228Y-63640500D01*
X205054772Y-63640500D01*
X205179069Y-63604004D01*
X205288049Y-63533967D01*
X205372882Y-63436063D01*
X205426697Y-63318226D01*
X205445133Y-63190000D01*
X205426697Y-63061774D01*
X205372882Y-62943937D01*
X205288049Y-62846033D01*
X205221032Y-62802964D01*
X205179068Y-62775995D01*
X205054772Y-62739500D01*
X204995123Y-62739500D01*
X204947557Y-62722187D01*
X204942797Y-62717826D01*
X202812174Y-60587202D01*
X202790782Y-60541326D01*
X202790500Y-60534876D01*
X202790500Y-58763741D01*
X202807813Y-58716175D01*
X202851650Y-58690865D01*
X202901500Y-58699655D01*
X202904484Y-58701474D01*
X202943431Y-58726504D01*
X203067728Y-58763000D01*
X203197272Y-58763000D01*
X203321569Y-58726504D01*
X203430549Y-58656467D01*
X203515382Y-58558563D01*
X203558678Y-58463758D01*
X203594187Y-58427683D01*
X203625991Y-58420500D01*
X204780492Y-58420500D01*
X204828058Y-58437813D01*
X204836417Y-58446040D01*
X204851946Y-58463962D01*
X204851947Y-58463963D01*
X204851951Y-58463967D01*
X204960931Y-58534004D01*
X205085228Y-58570500D01*
X205214772Y-58570500D01*
X205339069Y-58534004D01*
X205448049Y-58463967D01*
X205532882Y-58366063D01*
X205586697Y-58248226D01*
X205605133Y-58120000D01*
X205586697Y-57991774D01*
X205532882Y-57873937D01*
X205448049Y-57776033D01*
X205381032Y-57732964D01*
X205339068Y-57705995D01*
X205214772Y-57669500D01*
X205085228Y-57669500D01*
X204960931Y-57705995D01*
X204851954Y-57776031D01*
X204851946Y-57776037D01*
X204836417Y-57793960D01*
X204792184Y-57818570D01*
X204780492Y-57819500D01*
X203386087Y-57819500D01*
X203374110Y-57817546D01*
X203374023Y-57818174D01*
X203367234Y-57817226D01*
X203335971Y-57818672D01*
X203318896Y-57819461D01*
X203317212Y-57819500D01*
X203297149Y-57819500D01*
X203292815Y-57820311D01*
X203287723Y-57820902D01*
X203262331Y-57822076D01*
X203255006Y-57822415D01*
X203243358Y-57827558D01*
X203227072Y-57832600D01*
X203225064Y-57832976D01*
X203214569Y-57834938D01*
X203214564Y-57834940D01*
X203186764Y-57852152D01*
X203182309Y-57854507D01*
X203179800Y-57855622D01*
X203149746Y-57862000D01*
X203067728Y-57862000D01*
X202943431Y-57898495D01*
X202904507Y-57923511D01*
X202855132Y-57934663D01*
X202810140Y-57911468D01*
X202790584Y-57864779D01*
X202790500Y-57861258D01*
X202790500Y-56268738D01*
X202807813Y-56221172D01*
X202808575Y-56220278D01*
X202872882Y-56146063D01*
X202926697Y-56028226D01*
X202945133Y-55900000D01*
X202926697Y-55771774D01*
X202872882Y-55653937D01*
X202788049Y-55556033D01*
X202713873Y-55508363D01*
X202679068Y-55485995D01*
X202554772Y-55449500D01*
X202425228Y-55449500D01*
X202300931Y-55485995D01*
X202191954Y-55556031D01*
X202191950Y-55556034D01*
X202107119Y-55653935D01*
X202053302Y-55771776D01*
X202034867Y-55900000D01*
X200250499Y-55900000D01*
X200250499Y-51955119D01*
X200267812Y-51907556D01*
X200272161Y-51902808D01*
X201952796Y-50222174D01*
X201998674Y-50200782D01*
X202005123Y-50200500D01*
X203188913Y-50200500D01*
X203200889Y-50202453D01*
X203200977Y-50201826D01*
X203207765Y-50202773D01*
X203256103Y-50200538D01*
X203257788Y-50200500D01*
X203277842Y-50200500D01*
X203277844Y-50200500D01*
X203282187Y-50199687D01*
X203287266Y-50199097D01*
X203319992Y-50197585D01*
X203331639Y-50192441D01*
X203347927Y-50187398D01*
X203360433Y-50185061D01*
X203388281Y-50167818D01*
X203392794Y-50165438D01*
X203422765Y-50152206D01*
X203431761Y-50143208D01*
X203445138Y-50132614D01*
X203455952Y-50125919D01*
X203455952Y-50125918D01*
X203475687Y-50099783D01*
X203479051Y-50095919D01*
X205394971Y-48179999D01*
X207472676Y-46102294D01*
X207518549Y-46080904D01*
X207567444Y-46094005D01*
X207577325Y-46102296D01*
X207704318Y-46229289D01*
X207711404Y-46239137D01*
X207711910Y-46238756D01*
X207716041Y-46244227D01*
X207716042Y-46244228D01*
X207746723Y-46272198D01*
X207751785Y-46276812D01*
X207753022Y-46277993D01*
X207767203Y-46292174D01*
X207770856Y-46294676D01*
X207774858Y-46297847D01*
X207787990Y-46309818D01*
X207799065Y-46319915D01*
X207799066Y-46319915D01*
X207799067Y-46319916D01*
X207806528Y-46322806D01*
X207810931Y-46324512D01*
X207826021Y-46332465D01*
X207836519Y-46339657D01*
X207868388Y-46347152D01*
X207873287Y-46348668D01*
X207903827Y-46360500D01*
X207916553Y-46360500D01*
X207933488Y-46362464D01*
X207945881Y-46365379D01*
X207978315Y-46360854D01*
X207983426Y-46360500D01*
X211444889Y-46360500D01*
X211478482Y-46368565D01*
X211582518Y-46421574D01*
X211700000Y-46440181D01*
X211817482Y-46421574D01*
X211923465Y-46367573D01*
X211923467Y-46367570D01*
X211928181Y-46364147D01*
X211928931Y-46365179D01*
X211969050Y-46346472D01*
X212017945Y-46359573D01*
X212046979Y-46401037D01*
X212049500Y-46420190D01*
X212049500Y-46474902D01*
X212032187Y-46522468D01*
X212027826Y-46527228D01*
X211977228Y-46577826D01*
X211931352Y-46599218D01*
X211924902Y-46599500D01*
X211304985Y-46599500D01*
X211288841Y-46597717D01*
X211286708Y-46597240D01*
X211286699Y-46597239D01*
X211243488Y-46598598D01*
X211215346Y-46599482D01*
X211214229Y-46599500D01*
X211184073Y-46599500D01*
X211175620Y-46600567D01*
X211172149Y-46600840D01*
X211122432Y-46602402D01*
X211105233Y-46607398D01*
X211098269Y-46609421D01*
X211086906Y-46611774D01*
X211061949Y-46614927D01*
X211061939Y-46614930D01*
X211015684Y-46633243D01*
X211012386Y-46634372D01*
X210964604Y-46648254D01*
X210964598Y-46648257D01*
X210942937Y-46661066D01*
X210932517Y-46666171D01*
X210909128Y-46675432D01*
X210868876Y-46704675D01*
X210865963Y-46706589D01*
X210823135Y-46731918D01*
X210823130Y-46731922D01*
X210805341Y-46749710D01*
X210796518Y-46757247D01*
X210776160Y-46772039D01*
X210744452Y-46810368D01*
X210742105Y-46812947D01*
X209246581Y-48308471D01*
X209233916Y-48318619D01*
X209232063Y-48319795D01*
X209232058Y-48319798D01*
X209183212Y-48371814D01*
X209182404Y-48372647D01*
X209161091Y-48393962D01*
X209161088Y-48393965D01*
X209155870Y-48400691D01*
X209153609Y-48403337D01*
X209119551Y-48439607D01*
X209107428Y-48461657D01*
X209101057Y-48471356D01*
X209085638Y-48491235D01*
X209065880Y-48536892D01*
X209064346Y-48540023D01*
X209040373Y-48583629D01*
X209040373Y-48583630D01*
X209034112Y-48608010D01*
X209030354Y-48618986D01*
X209020364Y-48642075D01*
X209012581Y-48691213D01*
X209011874Y-48694628D01*
X208999499Y-48742821D01*
X208999499Y-48767982D01*
X208998588Y-48779553D01*
X208994652Y-48804404D01*
X208999336Y-48853944D01*
X208999500Y-48857428D01*
X208999500Y-55439864D01*
X208982187Y-55487430D01*
X208972446Y-55497066D01*
X208859644Y-55589642D01*
X208859643Y-55589643D01*
X208740865Y-55734373D01*
X208740859Y-55734382D01*
X208652605Y-55899494D01*
X208598253Y-56078667D01*
X208579901Y-56265000D01*
X208598253Y-56451332D01*
X208652605Y-56630505D01*
X208740859Y-56795617D01*
X208740862Y-56795622D01*
X208740864Y-56795625D01*
X208859643Y-56940357D01*
X209004375Y-57059136D01*
X209004380Y-57059138D01*
X209004382Y-57059140D01*
X209169494Y-57147394D01*
X209169496Y-57147394D01*
X209169499Y-57147396D01*
X209348669Y-57201747D01*
X209535000Y-57220099D01*
X209721331Y-57201747D01*
X209900501Y-57147396D01*
X210065625Y-57059136D01*
X210210357Y-56940357D01*
X210329136Y-56795625D01*
X210417396Y-56630501D01*
X210471747Y-56451331D01*
X210490099Y-56265000D01*
X210471747Y-56078669D01*
X210417396Y-55899499D01*
X210417394Y-55899496D01*
X210417394Y-55899494D01*
X210329140Y-55734382D01*
X210329138Y-55734380D01*
X210329136Y-55734375D01*
X210317297Y-55719949D01*
X210300500Y-55673004D01*
X210300500Y-49125097D01*
X210317813Y-49077531D01*
X210322174Y-49072771D01*
X211472772Y-47922174D01*
X211518649Y-47900782D01*
X211525098Y-47900500D01*
X212145014Y-47900500D01*
X212161158Y-47902283D01*
X212163290Y-47902759D01*
X212163293Y-47902759D01*
X212163296Y-47902760D01*
X212163298Y-47902759D01*
X212163299Y-47902760D01*
X212171436Y-47902504D01*
X212234652Y-47900517D01*
X212235770Y-47900500D01*
X212265929Y-47900500D01*
X212274360Y-47899434D01*
X212277835Y-47899159D01*
X212327569Y-47897597D01*
X212351734Y-47890576D01*
X212363085Y-47888225D01*
X212388058Y-47885071D01*
X212434320Y-47866753D01*
X212437621Y-47865624D01*
X212447319Y-47862806D01*
X212485398Y-47851744D01*
X212507055Y-47838934D01*
X212517471Y-47833831D01*
X212540871Y-47824568D01*
X212581138Y-47795311D01*
X212584020Y-47793419D01*
X212626865Y-47768081D01*
X212644656Y-47750288D01*
X212653479Y-47742753D01*
X212673837Y-47727963D01*
X212705552Y-47689624D01*
X212707889Y-47687055D01*
X213103419Y-47291525D01*
X213116088Y-47281377D01*
X213117940Y-47280202D01*
X213166821Y-47228146D01*
X213167597Y-47227348D01*
X213173764Y-47221181D01*
X213188911Y-47206035D01*
X213194135Y-47199299D01*
X213196374Y-47196676D01*
X213230448Y-47160393D01*
X213242571Y-47138338D01*
X213248939Y-47128645D01*
X213264362Y-47108764D01*
X213284129Y-47063080D01*
X213285643Y-47059991D01*
X213309627Y-47016368D01*
X213315884Y-46991994D01*
X213319643Y-46981012D01*
X213329635Y-46957927D01*
X213329635Y-46957925D01*
X213329636Y-46957924D01*
X213334406Y-46927802D01*
X213337418Y-46908782D01*
X213338118Y-46905398D01*
X213350500Y-46857177D01*
X213350500Y-46832015D01*
X213351411Y-46820439D01*
X213355346Y-46795596D01*
X213350664Y-46746064D01*
X213350500Y-46742580D01*
X213350500Y-44929983D01*
X213352282Y-44913842D01*
X213352760Y-44911702D01*
X213352760Y-44911698D01*
X213351769Y-44880180D01*
X213350517Y-44840346D01*
X213350500Y-44839227D01*
X213350500Y-44809070D01*
X213349434Y-44800640D01*
X213349159Y-44797159D01*
X213347597Y-44747431D01*
X213347596Y-44747424D01*
X213340579Y-44723274D01*
X213338224Y-44711909D01*
X213335071Y-44686942D01*
X213316756Y-44640684D01*
X213315626Y-44637384D01*
X213309844Y-44617482D01*
X213301744Y-44589601D01*
X213288934Y-44567941D01*
X213283827Y-44557516D01*
X213283017Y-44555471D01*
X213276487Y-44538976D01*
X213274569Y-44534131D01*
X213274565Y-44534125D01*
X213267935Y-44525000D01*
X213478339Y-44525000D01*
X213488585Y-44622478D01*
X213542172Y-44787402D01*
X213628882Y-44937591D01*
X213628885Y-44937594D01*
X213744929Y-45066473D01*
X213885221Y-45168402D01*
X213885228Y-45168406D01*
X214043655Y-45238942D01*
X214043657Y-45238943D01*
X214213290Y-45275000D01*
X214225000Y-45275000D01*
X214225000Y-44843107D01*
X214268519Y-44850000D01*
X214331481Y-44850000D01*
X214375000Y-44843107D01*
X214375000Y-45275000D01*
X214386710Y-45275000D01*
X214556342Y-45238943D01*
X214556344Y-45238942D01*
X214714771Y-45168406D01*
X214714778Y-45168402D01*
X214855070Y-45066473D01*
X214971114Y-44937594D01*
X214971117Y-44937591D01*
X215057827Y-44787402D01*
X215111414Y-44622478D01*
X215121661Y-44525000D01*
X214693107Y-44525000D01*
X214704986Y-44450000D01*
X214693107Y-44375000D01*
X215121661Y-44375000D01*
X215121660Y-44374999D01*
X215111414Y-44277521D01*
X215057827Y-44112597D01*
X214971117Y-43962408D01*
X214971114Y-43962405D01*
X214855070Y-43833526D01*
X214714778Y-43731597D01*
X214714771Y-43731593D01*
X214556344Y-43661057D01*
X214556342Y-43661056D01*
X214386710Y-43625000D01*
X214375000Y-43625000D01*
X214375000Y-44056892D01*
X214331481Y-44050000D01*
X214268519Y-44050000D01*
X214225000Y-44056892D01*
X214225000Y-43625000D01*
X214213290Y-43625000D01*
X214043657Y-43661056D01*
X214043655Y-43661057D01*
X213885228Y-43731593D01*
X213885221Y-43731597D01*
X213744929Y-43833526D01*
X213628885Y-43962405D01*
X213628882Y-43962408D01*
X213542172Y-44112597D01*
X213488585Y-44277521D01*
X213478339Y-44374999D01*
X213478339Y-44375000D01*
X213906893Y-44375000D01*
X213895014Y-44450000D01*
X213906893Y-44525000D01*
X213478339Y-44525000D01*
X213267935Y-44525000D01*
X213261739Y-44516472D01*
X213245326Y-44493881D01*
X213243412Y-44490967D01*
X213218081Y-44448135D01*
X213200291Y-44430345D01*
X213192750Y-44421516D01*
X213191132Y-44419289D01*
X213177963Y-44401163D01*
X213152329Y-44379957D01*
X213126716Y-44336298D01*
X213125500Y-44322940D01*
X213125500Y-43760180D01*
X213124457Y-43754938D01*
X213116767Y-43716278D01*
X213083504Y-43666496D01*
X213075362Y-43661056D01*
X213033722Y-43633233D01*
X213027041Y-43631904D01*
X212989820Y-43624500D01*
X211610180Y-43624500D01*
X211588228Y-43628866D01*
X211566277Y-43633233D01*
X211516496Y-43666495D01*
X211516495Y-43666496D01*
X211483233Y-43716277D01*
X211474500Y-43760180D01*
X211474500Y-44125500D01*
X211457187Y-44173066D01*
X211413350Y-44198376D01*
X211400500Y-44199500D01*
X210095111Y-44199500D01*
X210061517Y-44191434D01*
X210006405Y-44163353D01*
X209957483Y-44138426D01*
X209840000Y-44119819D01*
X209722517Y-44138426D01*
X209722516Y-44138426D01*
X209616533Y-44192428D01*
X209532428Y-44276533D01*
X209478426Y-44382516D01*
X209478426Y-44382517D01*
X209463924Y-44474084D01*
X209459819Y-44500000D01*
X209468932Y-44557537D01*
X209478426Y-44617482D01*
X209478426Y-44617483D01*
X209490248Y-44640684D01*
X209532427Y-44723465D01*
X209616535Y-44807573D01*
X209722518Y-44861574D01*
X209840000Y-44880181D01*
X209957482Y-44861574D01*
X210061517Y-44808565D01*
X210095111Y-44800500D01*
X211400500Y-44800500D01*
X211448066Y-44817813D01*
X211473376Y-44861650D01*
X211474500Y-44874500D01*
X211474500Y-45139820D01*
X211483233Y-45183722D01*
X211516496Y-45233504D01*
X211566278Y-45266767D01*
X211610180Y-45275500D01*
X211975500Y-45275500D01*
X212023066Y-45292813D01*
X212048376Y-45336650D01*
X212049500Y-45349500D01*
X212049500Y-45699810D01*
X212032187Y-45747376D01*
X211988350Y-45772686D01*
X211938500Y-45763896D01*
X211925123Y-45753631D01*
X211923467Y-45752428D01*
X211817483Y-45698426D01*
X211700000Y-45679819D01*
X211582517Y-45698426D01*
X211582516Y-45698426D01*
X211515967Y-45732335D01*
X211478482Y-45751434D01*
X211444889Y-45759500D01*
X208115123Y-45759500D01*
X208067557Y-45742187D01*
X208062797Y-45737826D01*
X207913753Y-45588782D01*
X207892990Y-45548031D01*
X207892145Y-45542696D01*
X207886574Y-45507518D01*
X207886574Y-45507517D01*
X207886573Y-45507516D01*
X207867196Y-45469487D01*
X207832573Y-45401535D01*
X207748465Y-45317427D01*
X207666179Y-45275500D01*
X207642483Y-45263426D01*
X207525000Y-45244819D01*
X207407517Y-45263426D01*
X207407516Y-45263426D01*
X207301533Y-45317428D01*
X207217427Y-45401534D01*
X207217427Y-45401535D01*
X207163427Y-45507515D01*
X207163425Y-45507520D01*
X207157008Y-45548034D01*
X207136245Y-45588782D01*
X203147203Y-49577826D01*
X203101327Y-49599218D01*
X203094877Y-49599500D01*
X201911088Y-49599500D01*
X201899111Y-49597546D01*
X201899024Y-49598174D01*
X201892235Y-49597226D01*
X201860972Y-49598672D01*
X201843897Y-49599461D01*
X201842213Y-49599500D01*
X201822149Y-49599500D01*
X201817815Y-49600311D01*
X201812725Y-49600902D01*
X201789044Y-49601997D01*
X201780006Y-49602415D01*
X201768363Y-49607556D01*
X201752077Y-49612599D01*
X201739572Y-49614937D01*
X201739566Y-49614939D01*
X201711728Y-49632175D01*
X201707196Y-49634564D01*
X201700123Y-49637687D01*
X201677234Y-49647793D01*
X201668234Y-49656794D01*
X201654870Y-49667380D01*
X201644046Y-49674082D01*
X201644044Y-49674084D01*
X201624313Y-49700212D01*
X201620946Y-49704081D01*
X199780708Y-51544319D01*
X199770865Y-51551405D01*
X199771245Y-51551908D01*
X199765773Y-51556040D01*
X199733174Y-51591797D01*
X199731997Y-51593029D01*
X199717822Y-51607206D01*
X199715326Y-51610851D01*
X199712145Y-51614866D01*
X199690085Y-51639065D01*
X199690083Y-51639067D01*
X199685483Y-51650941D01*
X199677536Y-51666017D01*
X199670344Y-51676517D01*
X199662847Y-51708390D01*
X199661330Y-51713288D01*
X199649499Y-51743828D01*
X199649499Y-51756557D01*
X199647534Y-51773491D01*
X199644621Y-51785878D01*
X199644620Y-51785885D01*
X198850500Y-51785885D01*
X198850500Y-46258687D01*
X203095739Y-46258687D01*
X203105754Y-46443398D01*
X203105754Y-46443402D01*
X203105755Y-46443407D01*
X203155246Y-46621659D01*
X203241900Y-46785104D01*
X203361663Y-46926100D01*
X203508374Y-47037627D01*
X203508936Y-47038054D01*
X203508938Y-47038055D01*
X203661765Y-47108761D01*
X203676833Y-47115732D01*
X203857503Y-47155500D01*
X203857508Y-47155500D01*
X203996104Y-47155500D01*
X203996113Y-47155500D01*
X204133910Y-47140514D01*
X204309221Y-47081444D01*
X204467736Y-46986070D01*
X204602041Y-46858849D01*
X204705858Y-46705730D01*
X204774331Y-46533875D01*
X204804260Y-46351317D01*
X204804116Y-46348669D01*
X204797362Y-46224081D01*
X204794245Y-46166593D01*
X204744754Y-45988341D01*
X204658100Y-45824896D01*
X204538337Y-45683900D01*
X204431514Y-45602695D01*
X204391063Y-45571945D01*
X204391061Y-45571944D01*
X204223177Y-45494272D01*
X204223172Y-45494270D01*
X204223167Y-45494268D01*
X204042497Y-45454500D01*
X203903887Y-45454500D01*
X203903881Y-45454500D01*
X203903873Y-45454501D01*
X203789826Y-45466904D01*
X203766090Y-45469486D01*
X203766087Y-45469486D01*
X203766087Y-45469487D01*
X203590786Y-45528553D01*
X203590779Y-45528556D01*
X203432263Y-45623930D01*
X203297959Y-45751151D01*
X203297958Y-45751152D01*
X203194142Y-45904268D01*
X203125669Y-46076124D01*
X203125668Y-46076125D01*
X203095740Y-46258683D01*
X203095739Y-46258687D01*
X198850500Y-46258687D01*
X198850500Y-43237627D01*
X218680000Y-43237627D01*
X218695415Y-43349779D01*
X218755652Y-43488459D01*
X218851067Y-43605740D01*
X218974583Y-43692927D01*
X218974586Y-43692928D01*
X219117043Y-43743557D01*
X219117053Y-43743559D01*
X219154999Y-43746155D01*
X219155000Y-43746154D01*
X219155000Y-43390567D01*
X219201840Y-43403895D01*
X219305000Y-43394335D01*
X219305000Y-43746163D01*
X219415911Y-43723116D01*
X219415913Y-43723115D01*
X219550157Y-43653556D01*
X219660652Y-43550360D01*
X219739208Y-43421182D01*
X219739208Y-43421181D01*
X219780000Y-43275597D01*
X219780000Y-42875000D01*
X219530000Y-42875000D01*
X219530000Y-42725000D01*
X219779999Y-42725000D01*
X219780000Y-42362385D01*
X219779999Y-42362372D01*
X219764584Y-42250220D01*
X219704347Y-42111540D01*
X219608932Y-41994259D01*
X219485416Y-41907072D01*
X219485413Y-41907071D01*
X219342957Y-41856442D01*
X219342945Y-41856440D01*
X219305000Y-41853843D01*
X219305000Y-42209432D01*
X219258160Y-42196105D01*
X219154999Y-42205664D01*
X219155000Y-41853834D01*
X219044087Y-41876883D01*
X219044085Y-41876884D01*
X218909842Y-41946443D01*
X218799347Y-42049639D01*
X218720791Y-42178817D01*
X218720791Y-42178818D01*
X218680000Y-42324402D01*
X218680000Y-42725000D01*
X218930000Y-42725000D01*
X218930000Y-42875000D01*
X218680000Y-42875000D01*
X218680000Y-43237627D01*
X198850500Y-43237627D01*
X198850500Y-40419500D01*
X198867813Y-40371934D01*
X198911650Y-40346624D01*
X198924500Y-40345500D01*
X247728347Y-40345500D01*
X247775913Y-40362813D01*
G37*
G04 #@! TD.AperFunction*
G04 #@! TD*
M02*
