G04 #@! TF.GenerationSoftware,KiCad,Pcbnew,7.0.5*
G04 #@! TF.CreationDate,2023-11-03T09:35:20+00:00*
G04 #@! TF.ProjectId,MaxTENS,4d617854-454e-4532-9e6b-696361645f70,rev?*
G04 #@! TF.SameCoordinates,Original*
G04 #@! TF.FileFunction,Soldermask,Top*
G04 #@! TF.FilePolarity,Negative*
%FSLAX46Y46*%
G04 Gerber Fmt 4.6, Leading zero omitted, Abs format (unit mm)*
G04 Created by KiCad (PCBNEW 7.0.5) date 2023-11-03 09:35:20*
%MOMM*%
%LPD*%
G01*
G04 APERTURE LIST*
G04 Aperture macros list*
%AMRoundRect*
0 Rectangle with rounded corners*
0 $1 Rounding radius*
0 $2 $3 $4 $5 $6 $7 $8 $9 X,Y pos of 4 corners*
0 Add a 4 corners polygon primitive as box body*
4,1,4,$2,$3,$4,$5,$6,$7,$8,$9,$2,$3,0*
0 Add four circle primitives for the rounded corners*
1,1,$1+$1,$2,$3*
1,1,$1+$1,$4,$5*
1,1,$1+$1,$6,$7*
1,1,$1+$1,$8,$9*
0 Add four rect primitives between the rounded corners*
20,1,$1+$1,$2,$3,$4,$5,0*
20,1,$1+$1,$4,$5,$6,$7,0*
20,1,$1+$1,$6,$7,$8,$9,0*
20,1,$1+$1,$8,$9,$2,$3,0*%
G04 Aperture macros list end*
%ADD10C,0.010000*%
%ADD11RoundRect,0.135000X-0.185000X0.135000X-0.185000X-0.135000X0.185000X-0.135000X0.185000X0.135000X0*%
%ADD12RoundRect,0.135000X-0.135000X-0.185000X0.135000X-0.185000X0.135000X0.185000X-0.135000X0.185000X0*%
%ADD13RoundRect,0.150000X0.150000X-0.587500X0.150000X0.587500X-0.150000X0.587500X-0.150000X-0.587500X0*%
%ADD14R,1.150000X0.600000*%
%ADD15RoundRect,0.135000X0.135000X0.185000X-0.135000X0.185000X-0.135000X-0.185000X0.135000X-0.185000X0*%
%ADD16R,0.990600X0.711200*%
%ADD17RoundRect,0.135000X0.185000X-0.135000X0.185000X0.135000X-0.185000X0.135000X-0.185000X-0.135000X0*%
%ADD18RoundRect,0.150000X-0.150000X0.587500X-0.150000X-0.587500X0.150000X-0.587500X0.150000X0.587500X0*%
%ADD19RoundRect,0.150000X-0.587500X-0.150000X0.587500X-0.150000X0.587500X0.150000X-0.587500X0.150000X0*%
%ADD20R,1.016000X0.355600*%
%ADD21RoundRect,0.250000X-0.650000X0.325000X-0.650000X-0.325000X0.650000X-0.325000X0.650000X0.325000X0*%
%ADD22C,2.200000*%
%ADD23R,1.320800X0.508000*%
%ADD24R,0.711200X0.990600*%
%ADD25RoundRect,0.140000X-0.170000X0.140000X-0.170000X-0.140000X0.170000X-0.140000X0.170000X0.140000X0*%
%ADD26RoundRect,0.140000X-0.140000X-0.170000X0.140000X-0.170000X0.140000X0.170000X-0.140000X0.170000X0*%
%ADD27C,1.500000*%
%ADD28R,2.387600X0.762000*%
%ADD29RoundRect,0.058100X-0.421900X-0.126900X0.421900X-0.126900X0.421900X0.126900X-0.421900X0.126900X0*%
%ADD30RoundRect,0.110100X-0.421900X-0.126900X0.421900X-0.126900X0.421900X0.126900X-0.421900X0.126900X0*%
%ADD31RoundRect,0.058100X0.126900X-0.421900X0.126900X0.421900X-0.126900X0.421900X-0.126900X-0.421900X0*%
%ADD32RoundRect,0.110100X0.126900X-0.421900X0.126900X0.421900X-0.126900X0.421900X-0.126900X-0.421900X0*%
%ADD33RoundRect,0.102000X-1.300000X-1.300000X1.300000X-1.300000X1.300000X1.300000X-1.300000X1.300000X0*%
%ADD34RoundRect,0.225000X0.250000X-0.225000X0.250000X0.225000X-0.250000X0.225000X-0.250000X-0.225000X0*%
%ADD35RoundRect,0.140000X0.170000X-0.140000X0.170000X0.140000X-0.170000X0.140000X-0.170000X-0.140000X0*%
%ADD36RoundRect,0.250000X-0.475000X0.250000X-0.475000X-0.250000X0.475000X-0.250000X0.475000X0.250000X0*%
%ADD37R,0.900000X1.500000*%
%ADD38R,1.500000X0.900000*%
%ADD39R,0.900000X0.900000*%
%ADD40C,1.300000*%
%ADD41RoundRect,0.102000X-1.000000X0.950000X-1.000000X-0.950000X1.000000X-0.950000X1.000000X0.950000X0*%
%ADD42RoundRect,0.102000X-1.050000X1.000000X-1.050000X-1.000000X1.050000X-1.000000X1.050000X1.000000X0*%
%ADD43RoundRect,0.150000X0.587500X0.150000X-0.587500X0.150000X-0.587500X-0.150000X0.587500X-0.150000X0*%
%ADD44RoundRect,0.250000X1.000000X0.900000X-1.000000X0.900000X-1.000000X-0.900000X1.000000X-0.900000X0*%
%ADD45RoundRect,0.250000X-0.250000X-0.475000X0.250000X-0.475000X0.250000X0.475000X-0.250000X0.475000X0*%
%ADD46R,2.819400X0.508000*%
%ADD47RoundRect,0.102000X0.350000X0.600000X-0.350000X0.600000X-0.350000X-0.600000X0.350000X-0.600000X0*%
%ADD48RoundRect,0.102000X0.380000X0.600000X-0.380000X0.600000X-0.380000X-0.600000X0.380000X-0.600000X0*%
%ADD49RoundRect,0.102000X0.400000X0.600000X-0.400000X0.600000X-0.400000X-0.600000X0.400000X-0.600000X0*%
%ADD50RoundRect,0.225000X-0.250000X0.225000X-0.250000X-0.225000X0.250000X-0.225000X0.250000X0.225000X0*%
%ADD51R,1.524000X0.457200*%
%ADD52C,1.650000*%
%ADD53RoundRect,0.101600X-0.175000X0.800000X-0.175000X-0.800000X0.175000X-0.800000X0.175000X0.800000X0*%
%ADD54R,2.550000X3.200000*%
%ADD55R,1.350000X1.350000*%
%ADD56O,1.350000X1.350000*%
G04 APERTURE END LIST*
G04 #@! TO.C,J1*
D10*
X227904000Y-45651000D02*
X227938000Y-45654000D01*
X227972000Y-45658000D01*
X228005000Y-45664000D01*
X228038000Y-45672000D01*
X228071000Y-45682000D01*
X228103000Y-45693000D01*
X228134000Y-45706000D01*
X228165000Y-45721000D01*
X228195000Y-45737000D01*
X228224000Y-45755000D01*
X228252000Y-45774000D01*
X228279000Y-45795000D01*
X228305000Y-45817000D01*
X228330000Y-45840000D01*
X228353000Y-45865000D01*
X228375000Y-45891000D01*
X228396000Y-45918000D01*
X228415000Y-45946000D01*
X228433000Y-45975000D01*
X228449000Y-46005000D01*
X228464000Y-46036000D01*
X228477000Y-46067000D01*
X228488000Y-46099000D01*
X228498000Y-46132000D01*
X228506000Y-46165000D01*
X228512000Y-46198000D01*
X228516000Y-46232000D01*
X228519000Y-46266000D01*
X228520000Y-46300000D01*
X228520000Y-46900000D01*
X228519000Y-46934000D01*
X228516000Y-46968000D01*
X228512000Y-47002000D01*
X228506000Y-47035000D01*
X228498000Y-47068000D01*
X228488000Y-47101000D01*
X228477000Y-47133000D01*
X228464000Y-47164000D01*
X228449000Y-47195000D01*
X228433000Y-47225000D01*
X228415000Y-47254000D01*
X228396000Y-47282000D01*
X228375000Y-47309000D01*
X228353000Y-47335000D01*
X228330000Y-47360000D01*
X228305000Y-47383000D01*
X228279000Y-47405000D01*
X228252000Y-47426000D01*
X228224000Y-47445000D01*
X228195000Y-47463000D01*
X228165000Y-47479000D01*
X228134000Y-47494000D01*
X228103000Y-47507000D01*
X228071000Y-47518000D01*
X228038000Y-47528000D01*
X228005000Y-47536000D01*
X227972000Y-47542000D01*
X227938000Y-47546000D01*
X227904000Y-47549000D01*
X227870000Y-47550000D01*
X227836000Y-47549000D01*
X227802000Y-47546000D01*
X227768000Y-47542000D01*
X227735000Y-47536000D01*
X227702000Y-47528000D01*
X227669000Y-47518000D01*
X227637000Y-47507000D01*
X227606000Y-47494000D01*
X227575000Y-47479000D01*
X227545000Y-47463000D01*
X227516000Y-47445000D01*
X227488000Y-47426000D01*
X227461000Y-47405000D01*
X227435000Y-47383000D01*
X227410000Y-47360000D01*
X227387000Y-47335000D01*
X227365000Y-47309000D01*
X227344000Y-47282000D01*
X227325000Y-47254000D01*
X227307000Y-47225000D01*
X227291000Y-47195000D01*
X227276000Y-47164000D01*
X227263000Y-47133000D01*
X227252000Y-47101000D01*
X227242000Y-47068000D01*
X227234000Y-47035000D01*
X227228000Y-47002000D01*
X227224000Y-46968000D01*
X227221000Y-46934000D01*
X227220000Y-46900000D01*
X227220000Y-46300000D01*
X227221000Y-46266000D01*
X227224000Y-46232000D01*
X227228000Y-46198000D01*
X227234000Y-46165000D01*
X227242000Y-46132000D01*
X227252000Y-46099000D01*
X227263000Y-46067000D01*
X227276000Y-46036000D01*
X227291000Y-46005000D01*
X227307000Y-45975000D01*
X227325000Y-45946000D01*
X227344000Y-45918000D01*
X227365000Y-45891000D01*
X227387000Y-45865000D01*
X227410000Y-45840000D01*
X227435000Y-45817000D01*
X227461000Y-45795000D01*
X227488000Y-45774000D01*
X227516000Y-45755000D01*
X227545000Y-45737000D01*
X227575000Y-45721000D01*
X227606000Y-45706000D01*
X227637000Y-45693000D01*
X227669000Y-45682000D01*
X227702000Y-45672000D01*
X227735000Y-45664000D01*
X227768000Y-45658000D01*
X227802000Y-45654000D01*
X227836000Y-45651000D01*
X227870000Y-45650000D01*
X227904000Y-45651000D01*
G36*
X227904000Y-45651000D02*
G01*
X227938000Y-45654000D01*
X227972000Y-45658000D01*
X228005000Y-45664000D01*
X228038000Y-45672000D01*
X228071000Y-45682000D01*
X228103000Y-45693000D01*
X228134000Y-45706000D01*
X228165000Y-45721000D01*
X228195000Y-45737000D01*
X228224000Y-45755000D01*
X228252000Y-45774000D01*
X228279000Y-45795000D01*
X228305000Y-45817000D01*
X228330000Y-45840000D01*
X228353000Y-45865000D01*
X228375000Y-45891000D01*
X228396000Y-45918000D01*
X228415000Y-45946000D01*
X228433000Y-45975000D01*
X228449000Y-46005000D01*
X228464000Y-46036000D01*
X228477000Y-46067000D01*
X228488000Y-46099000D01*
X228498000Y-46132000D01*
X228506000Y-46165000D01*
X228512000Y-46198000D01*
X228516000Y-46232000D01*
X228519000Y-46266000D01*
X228520000Y-46300000D01*
X228520000Y-46900000D01*
X228519000Y-46934000D01*
X228516000Y-46968000D01*
X228512000Y-47002000D01*
X228506000Y-47035000D01*
X228498000Y-47068000D01*
X228488000Y-47101000D01*
X228477000Y-47133000D01*
X228464000Y-47164000D01*
X228449000Y-47195000D01*
X228433000Y-47225000D01*
X228415000Y-47254000D01*
X228396000Y-47282000D01*
X228375000Y-47309000D01*
X228353000Y-47335000D01*
X228330000Y-47360000D01*
X228305000Y-47383000D01*
X228279000Y-47405000D01*
X228252000Y-47426000D01*
X228224000Y-47445000D01*
X228195000Y-47463000D01*
X228165000Y-47479000D01*
X228134000Y-47494000D01*
X228103000Y-47507000D01*
X228071000Y-47518000D01*
X228038000Y-47528000D01*
X228005000Y-47536000D01*
X227972000Y-47542000D01*
X227938000Y-47546000D01*
X227904000Y-47549000D01*
X227870000Y-47550000D01*
X227836000Y-47549000D01*
X227802000Y-47546000D01*
X227768000Y-47542000D01*
X227735000Y-47536000D01*
X227702000Y-47528000D01*
X227669000Y-47518000D01*
X227637000Y-47507000D01*
X227606000Y-47494000D01*
X227575000Y-47479000D01*
X227545000Y-47463000D01*
X227516000Y-47445000D01*
X227488000Y-47426000D01*
X227461000Y-47405000D01*
X227435000Y-47383000D01*
X227410000Y-47360000D01*
X227387000Y-47335000D01*
X227365000Y-47309000D01*
X227344000Y-47282000D01*
X227325000Y-47254000D01*
X227307000Y-47225000D01*
X227291000Y-47195000D01*
X227276000Y-47164000D01*
X227263000Y-47133000D01*
X227252000Y-47101000D01*
X227242000Y-47068000D01*
X227234000Y-47035000D01*
X227228000Y-47002000D01*
X227224000Y-46968000D01*
X227221000Y-46934000D01*
X227220000Y-46900000D01*
X227220000Y-46300000D01*
X227221000Y-46266000D01*
X227224000Y-46232000D01*
X227228000Y-46198000D01*
X227234000Y-46165000D01*
X227242000Y-46132000D01*
X227252000Y-46099000D01*
X227263000Y-46067000D01*
X227276000Y-46036000D01*
X227291000Y-46005000D01*
X227307000Y-45975000D01*
X227325000Y-45946000D01*
X227344000Y-45918000D01*
X227365000Y-45891000D01*
X227387000Y-45865000D01*
X227410000Y-45840000D01*
X227435000Y-45817000D01*
X227461000Y-45795000D01*
X227488000Y-45774000D01*
X227516000Y-45755000D01*
X227545000Y-45737000D01*
X227575000Y-45721000D01*
X227606000Y-45706000D01*
X227637000Y-45693000D01*
X227669000Y-45682000D01*
X227702000Y-45672000D01*
X227735000Y-45664000D01*
X227768000Y-45658000D01*
X227802000Y-45654000D01*
X227836000Y-45651000D01*
X227870000Y-45650000D01*
X227904000Y-45651000D01*
G37*
X227904000Y-41851000D02*
X227938000Y-41854000D01*
X227972000Y-41858000D01*
X228005000Y-41864000D01*
X228038000Y-41872000D01*
X228071000Y-41882000D01*
X228103000Y-41893000D01*
X228134000Y-41906000D01*
X228165000Y-41921000D01*
X228195000Y-41937000D01*
X228224000Y-41955000D01*
X228252000Y-41974000D01*
X228279000Y-41995000D01*
X228305000Y-42017000D01*
X228330000Y-42040000D01*
X228353000Y-42065000D01*
X228375000Y-42091000D01*
X228396000Y-42118000D01*
X228415000Y-42146000D01*
X228433000Y-42175000D01*
X228449000Y-42205000D01*
X228464000Y-42236000D01*
X228477000Y-42267000D01*
X228488000Y-42299000D01*
X228498000Y-42332000D01*
X228506000Y-42365000D01*
X228512000Y-42398000D01*
X228516000Y-42432000D01*
X228519000Y-42466000D01*
X228520000Y-42500000D01*
X228520000Y-43100000D01*
X228519000Y-43134000D01*
X228516000Y-43168000D01*
X228512000Y-43202000D01*
X228506000Y-43235000D01*
X228498000Y-43268000D01*
X228488000Y-43301000D01*
X228477000Y-43333000D01*
X228464000Y-43364000D01*
X228449000Y-43395000D01*
X228433000Y-43425000D01*
X228415000Y-43454000D01*
X228396000Y-43482000D01*
X228375000Y-43509000D01*
X228353000Y-43535000D01*
X228330000Y-43560000D01*
X228305000Y-43583000D01*
X228279000Y-43605000D01*
X228252000Y-43626000D01*
X228224000Y-43645000D01*
X228195000Y-43663000D01*
X228165000Y-43679000D01*
X228134000Y-43694000D01*
X228103000Y-43707000D01*
X228071000Y-43718000D01*
X228038000Y-43728000D01*
X228005000Y-43736000D01*
X227972000Y-43742000D01*
X227938000Y-43746000D01*
X227904000Y-43749000D01*
X227870000Y-43750000D01*
X227836000Y-43749000D01*
X227802000Y-43746000D01*
X227768000Y-43742000D01*
X227735000Y-43736000D01*
X227702000Y-43728000D01*
X227669000Y-43718000D01*
X227637000Y-43707000D01*
X227606000Y-43694000D01*
X227575000Y-43679000D01*
X227545000Y-43663000D01*
X227516000Y-43645000D01*
X227488000Y-43626000D01*
X227461000Y-43605000D01*
X227435000Y-43583000D01*
X227410000Y-43560000D01*
X227387000Y-43535000D01*
X227365000Y-43509000D01*
X227344000Y-43482000D01*
X227325000Y-43454000D01*
X227307000Y-43425000D01*
X227291000Y-43395000D01*
X227276000Y-43364000D01*
X227263000Y-43333000D01*
X227252000Y-43301000D01*
X227242000Y-43268000D01*
X227234000Y-43235000D01*
X227228000Y-43202000D01*
X227224000Y-43168000D01*
X227221000Y-43134000D01*
X227220000Y-43100000D01*
X227220000Y-42500000D01*
X227221000Y-42466000D01*
X227224000Y-42432000D01*
X227228000Y-42398000D01*
X227234000Y-42365000D01*
X227242000Y-42332000D01*
X227252000Y-42299000D01*
X227263000Y-42267000D01*
X227276000Y-42236000D01*
X227291000Y-42205000D01*
X227307000Y-42175000D01*
X227325000Y-42146000D01*
X227344000Y-42118000D01*
X227365000Y-42091000D01*
X227387000Y-42065000D01*
X227410000Y-42040000D01*
X227435000Y-42017000D01*
X227461000Y-41995000D01*
X227488000Y-41974000D01*
X227516000Y-41955000D01*
X227545000Y-41937000D01*
X227575000Y-41921000D01*
X227606000Y-41906000D01*
X227637000Y-41893000D01*
X227669000Y-41882000D01*
X227702000Y-41872000D01*
X227735000Y-41864000D01*
X227768000Y-41858000D01*
X227802000Y-41854000D01*
X227836000Y-41851000D01*
X227870000Y-41850000D01*
X227904000Y-41851000D01*
G36*
X227904000Y-41851000D02*
G01*
X227938000Y-41854000D01*
X227972000Y-41858000D01*
X228005000Y-41864000D01*
X228038000Y-41872000D01*
X228071000Y-41882000D01*
X228103000Y-41893000D01*
X228134000Y-41906000D01*
X228165000Y-41921000D01*
X228195000Y-41937000D01*
X228224000Y-41955000D01*
X228252000Y-41974000D01*
X228279000Y-41995000D01*
X228305000Y-42017000D01*
X228330000Y-42040000D01*
X228353000Y-42065000D01*
X228375000Y-42091000D01*
X228396000Y-42118000D01*
X228415000Y-42146000D01*
X228433000Y-42175000D01*
X228449000Y-42205000D01*
X228464000Y-42236000D01*
X228477000Y-42267000D01*
X228488000Y-42299000D01*
X228498000Y-42332000D01*
X228506000Y-42365000D01*
X228512000Y-42398000D01*
X228516000Y-42432000D01*
X228519000Y-42466000D01*
X228520000Y-42500000D01*
X228520000Y-43100000D01*
X228519000Y-43134000D01*
X228516000Y-43168000D01*
X228512000Y-43202000D01*
X228506000Y-43235000D01*
X228498000Y-43268000D01*
X228488000Y-43301000D01*
X228477000Y-43333000D01*
X228464000Y-43364000D01*
X228449000Y-43395000D01*
X228433000Y-43425000D01*
X228415000Y-43454000D01*
X228396000Y-43482000D01*
X228375000Y-43509000D01*
X228353000Y-43535000D01*
X228330000Y-43560000D01*
X228305000Y-43583000D01*
X228279000Y-43605000D01*
X228252000Y-43626000D01*
X228224000Y-43645000D01*
X228195000Y-43663000D01*
X228165000Y-43679000D01*
X228134000Y-43694000D01*
X228103000Y-43707000D01*
X228071000Y-43718000D01*
X228038000Y-43728000D01*
X228005000Y-43736000D01*
X227972000Y-43742000D01*
X227938000Y-43746000D01*
X227904000Y-43749000D01*
X227870000Y-43750000D01*
X227836000Y-43749000D01*
X227802000Y-43746000D01*
X227768000Y-43742000D01*
X227735000Y-43736000D01*
X227702000Y-43728000D01*
X227669000Y-43718000D01*
X227637000Y-43707000D01*
X227606000Y-43694000D01*
X227575000Y-43679000D01*
X227545000Y-43663000D01*
X227516000Y-43645000D01*
X227488000Y-43626000D01*
X227461000Y-43605000D01*
X227435000Y-43583000D01*
X227410000Y-43560000D01*
X227387000Y-43535000D01*
X227365000Y-43509000D01*
X227344000Y-43482000D01*
X227325000Y-43454000D01*
X227307000Y-43425000D01*
X227291000Y-43395000D01*
X227276000Y-43364000D01*
X227263000Y-43333000D01*
X227252000Y-43301000D01*
X227242000Y-43268000D01*
X227234000Y-43235000D01*
X227228000Y-43202000D01*
X227224000Y-43168000D01*
X227221000Y-43134000D01*
X227220000Y-43100000D01*
X227220000Y-42500000D01*
X227221000Y-42466000D01*
X227224000Y-42432000D01*
X227228000Y-42398000D01*
X227234000Y-42365000D01*
X227242000Y-42332000D01*
X227252000Y-42299000D01*
X227263000Y-42267000D01*
X227276000Y-42236000D01*
X227291000Y-42205000D01*
X227307000Y-42175000D01*
X227325000Y-42146000D01*
X227344000Y-42118000D01*
X227365000Y-42091000D01*
X227387000Y-42065000D01*
X227410000Y-42040000D01*
X227435000Y-42017000D01*
X227461000Y-41995000D01*
X227488000Y-41974000D01*
X227516000Y-41955000D01*
X227545000Y-41937000D01*
X227575000Y-41921000D01*
X227606000Y-41906000D01*
X227637000Y-41893000D01*
X227669000Y-41882000D01*
X227702000Y-41872000D01*
X227735000Y-41864000D01*
X227768000Y-41858000D01*
X227802000Y-41854000D01*
X227836000Y-41851000D01*
X227870000Y-41850000D01*
X227904000Y-41851000D01*
G37*
X219264000Y-45651000D02*
X219298000Y-45654000D01*
X219332000Y-45658000D01*
X219365000Y-45664000D01*
X219398000Y-45672000D01*
X219431000Y-45682000D01*
X219463000Y-45693000D01*
X219494000Y-45706000D01*
X219525000Y-45721000D01*
X219555000Y-45737000D01*
X219584000Y-45755000D01*
X219612000Y-45774000D01*
X219639000Y-45795000D01*
X219665000Y-45817000D01*
X219690000Y-45840000D01*
X219713000Y-45865000D01*
X219735000Y-45891000D01*
X219756000Y-45918000D01*
X219775000Y-45946000D01*
X219793000Y-45975000D01*
X219809000Y-46005000D01*
X219824000Y-46036000D01*
X219837000Y-46067000D01*
X219848000Y-46099000D01*
X219858000Y-46132000D01*
X219866000Y-46165000D01*
X219872000Y-46198000D01*
X219876000Y-46232000D01*
X219879000Y-46266000D01*
X219880000Y-46300000D01*
X219880000Y-46900000D01*
X219879000Y-46934000D01*
X219876000Y-46968000D01*
X219872000Y-47002000D01*
X219866000Y-47035000D01*
X219858000Y-47068000D01*
X219848000Y-47101000D01*
X219837000Y-47133000D01*
X219824000Y-47164000D01*
X219809000Y-47195000D01*
X219793000Y-47225000D01*
X219775000Y-47254000D01*
X219756000Y-47282000D01*
X219735000Y-47309000D01*
X219713000Y-47335000D01*
X219690000Y-47360000D01*
X219665000Y-47383000D01*
X219639000Y-47405000D01*
X219612000Y-47426000D01*
X219584000Y-47445000D01*
X219555000Y-47463000D01*
X219525000Y-47479000D01*
X219494000Y-47494000D01*
X219463000Y-47507000D01*
X219431000Y-47518000D01*
X219398000Y-47528000D01*
X219365000Y-47536000D01*
X219332000Y-47542000D01*
X219298000Y-47546000D01*
X219264000Y-47549000D01*
X219230000Y-47550000D01*
X219196000Y-47549000D01*
X219162000Y-47546000D01*
X219128000Y-47542000D01*
X219095000Y-47536000D01*
X219062000Y-47528000D01*
X219029000Y-47518000D01*
X218997000Y-47507000D01*
X218966000Y-47494000D01*
X218935000Y-47479000D01*
X218905000Y-47463000D01*
X218876000Y-47445000D01*
X218848000Y-47426000D01*
X218821000Y-47405000D01*
X218795000Y-47383000D01*
X218770000Y-47360000D01*
X218747000Y-47335000D01*
X218725000Y-47309000D01*
X218704000Y-47282000D01*
X218685000Y-47254000D01*
X218667000Y-47225000D01*
X218651000Y-47195000D01*
X218636000Y-47164000D01*
X218623000Y-47133000D01*
X218612000Y-47101000D01*
X218602000Y-47068000D01*
X218594000Y-47035000D01*
X218588000Y-47002000D01*
X218584000Y-46968000D01*
X218581000Y-46934000D01*
X218580000Y-46900000D01*
X218580000Y-46300000D01*
X218581000Y-46266000D01*
X218584000Y-46232000D01*
X218588000Y-46198000D01*
X218594000Y-46165000D01*
X218602000Y-46132000D01*
X218612000Y-46099000D01*
X218623000Y-46067000D01*
X218636000Y-46036000D01*
X218651000Y-46005000D01*
X218667000Y-45975000D01*
X218685000Y-45946000D01*
X218704000Y-45918000D01*
X218725000Y-45891000D01*
X218747000Y-45865000D01*
X218770000Y-45840000D01*
X218795000Y-45817000D01*
X218821000Y-45795000D01*
X218848000Y-45774000D01*
X218876000Y-45755000D01*
X218905000Y-45737000D01*
X218935000Y-45721000D01*
X218966000Y-45706000D01*
X218997000Y-45693000D01*
X219029000Y-45682000D01*
X219062000Y-45672000D01*
X219095000Y-45664000D01*
X219128000Y-45658000D01*
X219162000Y-45654000D01*
X219196000Y-45651000D01*
X219230000Y-45650000D01*
X219264000Y-45651000D01*
G36*
X219264000Y-45651000D02*
G01*
X219298000Y-45654000D01*
X219332000Y-45658000D01*
X219365000Y-45664000D01*
X219398000Y-45672000D01*
X219431000Y-45682000D01*
X219463000Y-45693000D01*
X219494000Y-45706000D01*
X219525000Y-45721000D01*
X219555000Y-45737000D01*
X219584000Y-45755000D01*
X219612000Y-45774000D01*
X219639000Y-45795000D01*
X219665000Y-45817000D01*
X219690000Y-45840000D01*
X219713000Y-45865000D01*
X219735000Y-45891000D01*
X219756000Y-45918000D01*
X219775000Y-45946000D01*
X219793000Y-45975000D01*
X219809000Y-46005000D01*
X219824000Y-46036000D01*
X219837000Y-46067000D01*
X219848000Y-46099000D01*
X219858000Y-46132000D01*
X219866000Y-46165000D01*
X219872000Y-46198000D01*
X219876000Y-46232000D01*
X219879000Y-46266000D01*
X219880000Y-46300000D01*
X219880000Y-46900000D01*
X219879000Y-46934000D01*
X219876000Y-46968000D01*
X219872000Y-47002000D01*
X219866000Y-47035000D01*
X219858000Y-47068000D01*
X219848000Y-47101000D01*
X219837000Y-47133000D01*
X219824000Y-47164000D01*
X219809000Y-47195000D01*
X219793000Y-47225000D01*
X219775000Y-47254000D01*
X219756000Y-47282000D01*
X219735000Y-47309000D01*
X219713000Y-47335000D01*
X219690000Y-47360000D01*
X219665000Y-47383000D01*
X219639000Y-47405000D01*
X219612000Y-47426000D01*
X219584000Y-47445000D01*
X219555000Y-47463000D01*
X219525000Y-47479000D01*
X219494000Y-47494000D01*
X219463000Y-47507000D01*
X219431000Y-47518000D01*
X219398000Y-47528000D01*
X219365000Y-47536000D01*
X219332000Y-47542000D01*
X219298000Y-47546000D01*
X219264000Y-47549000D01*
X219230000Y-47550000D01*
X219196000Y-47549000D01*
X219162000Y-47546000D01*
X219128000Y-47542000D01*
X219095000Y-47536000D01*
X219062000Y-47528000D01*
X219029000Y-47518000D01*
X218997000Y-47507000D01*
X218966000Y-47494000D01*
X218935000Y-47479000D01*
X218905000Y-47463000D01*
X218876000Y-47445000D01*
X218848000Y-47426000D01*
X218821000Y-47405000D01*
X218795000Y-47383000D01*
X218770000Y-47360000D01*
X218747000Y-47335000D01*
X218725000Y-47309000D01*
X218704000Y-47282000D01*
X218685000Y-47254000D01*
X218667000Y-47225000D01*
X218651000Y-47195000D01*
X218636000Y-47164000D01*
X218623000Y-47133000D01*
X218612000Y-47101000D01*
X218602000Y-47068000D01*
X218594000Y-47035000D01*
X218588000Y-47002000D01*
X218584000Y-46968000D01*
X218581000Y-46934000D01*
X218580000Y-46900000D01*
X218580000Y-46300000D01*
X218581000Y-46266000D01*
X218584000Y-46232000D01*
X218588000Y-46198000D01*
X218594000Y-46165000D01*
X218602000Y-46132000D01*
X218612000Y-46099000D01*
X218623000Y-46067000D01*
X218636000Y-46036000D01*
X218651000Y-46005000D01*
X218667000Y-45975000D01*
X218685000Y-45946000D01*
X218704000Y-45918000D01*
X218725000Y-45891000D01*
X218747000Y-45865000D01*
X218770000Y-45840000D01*
X218795000Y-45817000D01*
X218821000Y-45795000D01*
X218848000Y-45774000D01*
X218876000Y-45755000D01*
X218905000Y-45737000D01*
X218935000Y-45721000D01*
X218966000Y-45706000D01*
X218997000Y-45693000D01*
X219029000Y-45682000D01*
X219062000Y-45672000D01*
X219095000Y-45664000D01*
X219128000Y-45658000D01*
X219162000Y-45654000D01*
X219196000Y-45651000D01*
X219230000Y-45650000D01*
X219264000Y-45651000D01*
G37*
X219264000Y-41851000D02*
X219298000Y-41854000D01*
X219332000Y-41858000D01*
X219365000Y-41864000D01*
X219398000Y-41872000D01*
X219431000Y-41882000D01*
X219463000Y-41893000D01*
X219494000Y-41906000D01*
X219525000Y-41921000D01*
X219555000Y-41937000D01*
X219584000Y-41955000D01*
X219612000Y-41974000D01*
X219639000Y-41995000D01*
X219665000Y-42017000D01*
X219690000Y-42040000D01*
X219713000Y-42065000D01*
X219735000Y-42091000D01*
X219756000Y-42118000D01*
X219775000Y-42146000D01*
X219793000Y-42175000D01*
X219809000Y-42205000D01*
X219824000Y-42236000D01*
X219837000Y-42267000D01*
X219848000Y-42299000D01*
X219858000Y-42332000D01*
X219866000Y-42365000D01*
X219872000Y-42398000D01*
X219876000Y-42432000D01*
X219879000Y-42466000D01*
X219880000Y-42500000D01*
X219880000Y-43100000D01*
X219879000Y-43134000D01*
X219876000Y-43168000D01*
X219872000Y-43202000D01*
X219866000Y-43235000D01*
X219858000Y-43268000D01*
X219848000Y-43301000D01*
X219837000Y-43333000D01*
X219824000Y-43364000D01*
X219809000Y-43395000D01*
X219793000Y-43425000D01*
X219775000Y-43454000D01*
X219756000Y-43482000D01*
X219735000Y-43509000D01*
X219713000Y-43535000D01*
X219690000Y-43560000D01*
X219665000Y-43583000D01*
X219639000Y-43605000D01*
X219612000Y-43626000D01*
X219584000Y-43645000D01*
X219555000Y-43663000D01*
X219525000Y-43679000D01*
X219494000Y-43694000D01*
X219463000Y-43707000D01*
X219431000Y-43718000D01*
X219398000Y-43728000D01*
X219365000Y-43736000D01*
X219332000Y-43742000D01*
X219298000Y-43746000D01*
X219264000Y-43749000D01*
X219230000Y-43750000D01*
X219196000Y-43749000D01*
X219162000Y-43746000D01*
X219128000Y-43742000D01*
X219095000Y-43736000D01*
X219062000Y-43728000D01*
X219029000Y-43718000D01*
X218997000Y-43707000D01*
X218966000Y-43694000D01*
X218935000Y-43679000D01*
X218905000Y-43663000D01*
X218876000Y-43645000D01*
X218848000Y-43626000D01*
X218821000Y-43605000D01*
X218795000Y-43583000D01*
X218770000Y-43560000D01*
X218747000Y-43535000D01*
X218725000Y-43509000D01*
X218704000Y-43482000D01*
X218685000Y-43454000D01*
X218667000Y-43425000D01*
X218651000Y-43395000D01*
X218636000Y-43364000D01*
X218623000Y-43333000D01*
X218612000Y-43301000D01*
X218602000Y-43268000D01*
X218594000Y-43235000D01*
X218588000Y-43202000D01*
X218584000Y-43168000D01*
X218581000Y-43134000D01*
X218580000Y-43100000D01*
X218580000Y-42500000D01*
X218581000Y-42466000D01*
X218584000Y-42432000D01*
X218588000Y-42398000D01*
X218594000Y-42365000D01*
X218602000Y-42332000D01*
X218612000Y-42299000D01*
X218623000Y-42267000D01*
X218636000Y-42236000D01*
X218651000Y-42205000D01*
X218667000Y-42175000D01*
X218685000Y-42146000D01*
X218704000Y-42118000D01*
X218725000Y-42091000D01*
X218747000Y-42065000D01*
X218770000Y-42040000D01*
X218795000Y-42017000D01*
X218821000Y-41995000D01*
X218848000Y-41974000D01*
X218876000Y-41955000D01*
X218905000Y-41937000D01*
X218935000Y-41921000D01*
X218966000Y-41906000D01*
X218997000Y-41893000D01*
X219029000Y-41882000D01*
X219062000Y-41872000D01*
X219095000Y-41864000D01*
X219128000Y-41858000D01*
X219162000Y-41854000D01*
X219196000Y-41851000D01*
X219230000Y-41850000D01*
X219264000Y-41851000D01*
G36*
X219264000Y-41851000D02*
G01*
X219298000Y-41854000D01*
X219332000Y-41858000D01*
X219365000Y-41864000D01*
X219398000Y-41872000D01*
X219431000Y-41882000D01*
X219463000Y-41893000D01*
X219494000Y-41906000D01*
X219525000Y-41921000D01*
X219555000Y-41937000D01*
X219584000Y-41955000D01*
X219612000Y-41974000D01*
X219639000Y-41995000D01*
X219665000Y-42017000D01*
X219690000Y-42040000D01*
X219713000Y-42065000D01*
X219735000Y-42091000D01*
X219756000Y-42118000D01*
X219775000Y-42146000D01*
X219793000Y-42175000D01*
X219809000Y-42205000D01*
X219824000Y-42236000D01*
X219837000Y-42267000D01*
X219848000Y-42299000D01*
X219858000Y-42332000D01*
X219866000Y-42365000D01*
X219872000Y-42398000D01*
X219876000Y-42432000D01*
X219879000Y-42466000D01*
X219880000Y-42500000D01*
X219880000Y-43100000D01*
X219879000Y-43134000D01*
X219876000Y-43168000D01*
X219872000Y-43202000D01*
X219866000Y-43235000D01*
X219858000Y-43268000D01*
X219848000Y-43301000D01*
X219837000Y-43333000D01*
X219824000Y-43364000D01*
X219809000Y-43395000D01*
X219793000Y-43425000D01*
X219775000Y-43454000D01*
X219756000Y-43482000D01*
X219735000Y-43509000D01*
X219713000Y-43535000D01*
X219690000Y-43560000D01*
X219665000Y-43583000D01*
X219639000Y-43605000D01*
X219612000Y-43626000D01*
X219584000Y-43645000D01*
X219555000Y-43663000D01*
X219525000Y-43679000D01*
X219494000Y-43694000D01*
X219463000Y-43707000D01*
X219431000Y-43718000D01*
X219398000Y-43728000D01*
X219365000Y-43736000D01*
X219332000Y-43742000D01*
X219298000Y-43746000D01*
X219264000Y-43749000D01*
X219230000Y-43750000D01*
X219196000Y-43749000D01*
X219162000Y-43746000D01*
X219128000Y-43742000D01*
X219095000Y-43736000D01*
X219062000Y-43728000D01*
X219029000Y-43718000D01*
X218997000Y-43707000D01*
X218966000Y-43694000D01*
X218935000Y-43679000D01*
X218905000Y-43663000D01*
X218876000Y-43645000D01*
X218848000Y-43626000D01*
X218821000Y-43605000D01*
X218795000Y-43583000D01*
X218770000Y-43560000D01*
X218747000Y-43535000D01*
X218725000Y-43509000D01*
X218704000Y-43482000D01*
X218685000Y-43454000D01*
X218667000Y-43425000D01*
X218651000Y-43395000D01*
X218636000Y-43364000D01*
X218623000Y-43333000D01*
X218612000Y-43301000D01*
X218602000Y-43268000D01*
X218594000Y-43235000D01*
X218588000Y-43202000D01*
X218584000Y-43168000D01*
X218581000Y-43134000D01*
X218580000Y-43100000D01*
X218580000Y-42500000D01*
X218581000Y-42466000D01*
X218584000Y-42432000D01*
X218588000Y-42398000D01*
X218594000Y-42365000D01*
X218602000Y-42332000D01*
X218612000Y-42299000D01*
X218623000Y-42267000D01*
X218636000Y-42236000D01*
X218651000Y-42205000D01*
X218667000Y-42175000D01*
X218685000Y-42146000D01*
X218704000Y-42118000D01*
X218725000Y-42091000D01*
X218747000Y-42065000D01*
X218770000Y-42040000D01*
X218795000Y-42017000D01*
X218821000Y-41995000D01*
X218848000Y-41974000D01*
X218876000Y-41955000D01*
X218905000Y-41937000D01*
X218935000Y-41921000D01*
X218966000Y-41906000D01*
X218997000Y-41893000D01*
X219029000Y-41882000D01*
X219062000Y-41872000D01*
X219095000Y-41864000D01*
X219128000Y-41858000D01*
X219162000Y-41854000D01*
X219196000Y-41851000D01*
X219230000Y-41850000D01*
X219264000Y-41851000D01*
G37*
G04 #@! TD*
D11*
G04 #@! TO.C,R17*
X216160000Y-41390000D03*
X216160000Y-42410000D03*
G04 #@! TD*
D12*
G04 #@! TO.C,R57*
X205015000Y-66400000D03*
X206035000Y-66400000D03*
G04 #@! TD*
D13*
G04 #@! TO.C,Q4*
X201510000Y-55837500D03*
X203410000Y-55837500D03*
X202460000Y-53962500D03*
G04 #@! TD*
D14*
G04 #@! TO.C,IC2*
X212700000Y-59400000D03*
X212700000Y-60350000D03*
X212700000Y-61300000D03*
X215300000Y-61300000D03*
X215300000Y-59400000D03*
G04 #@! TD*
D11*
G04 #@! TO.C,R15*
X199800000Y-90365000D03*
X199800000Y-91385000D03*
G04 #@! TD*
D15*
G04 #@! TO.C,R18*
X230310000Y-41100000D03*
X229290000Y-41100000D03*
G04 #@! TD*
D12*
G04 #@! TO.C,R31*
X204440000Y-91800000D03*
X205460000Y-91800000D03*
G04 #@! TD*
D16*
G04 #@! TO.C,S6*
X220849999Y-105525001D03*
X225350001Y-105525001D03*
X220849999Y-107674999D03*
X225350001Y-107674999D03*
G04 #@! TD*
D17*
G04 #@! TO.C,R38*
X210075000Y-94360000D03*
X210075000Y-93340000D03*
G04 #@! TD*
D12*
G04 #@! TO.C,R62*
X205105000Y-82900000D03*
X206125000Y-82900000D03*
G04 #@! TD*
G04 #@! TO.C,R1*
X224080000Y-61500000D03*
X225100000Y-61500000D03*
G04 #@! TD*
D18*
G04 #@! TO.C,Q8*
X241540000Y-54855000D03*
X239640000Y-54855000D03*
X240590000Y-56730000D03*
G04 #@! TD*
D19*
G04 #@! TO.C,Q21*
X240312500Y-64700000D03*
X240312500Y-66600000D03*
X242187500Y-65650000D03*
G04 #@! TD*
D13*
G04 #@! TO.C,Q3*
X234740000Y-50087500D03*
X236640000Y-50087500D03*
X235690000Y-48212500D03*
G04 #@! TD*
D12*
G04 #@! TO.C,R3*
X235880000Y-52510000D03*
X236900000Y-52510000D03*
G04 #@! TD*
D13*
G04 #@! TO.C,Q6*
X201490000Y-60187500D03*
X203390000Y-60187500D03*
X202440000Y-58312500D03*
G04 #@! TD*
D17*
G04 #@! TO.C,R34*
X208025000Y-94335000D03*
X208025000Y-93315000D03*
G04 #@! TD*
D20*
G04 #@! TO.C,U9*
X209420000Y-95675002D03*
X209420000Y-96325001D03*
X209420000Y-96975000D03*
X211325000Y-96975000D03*
X211325000Y-96325001D03*
X211325000Y-95675002D03*
G04 #@! TD*
D13*
G04 #@! TO.C,Q9*
X243040000Y-56707500D03*
X244940000Y-56707500D03*
X243990000Y-54832500D03*
G04 #@! TD*
D21*
G04 #@! TO.C,C4*
X237620000Y-53855000D03*
X237620000Y-56805000D03*
G04 #@! TD*
D22*
G04 #@! TO.C,H2*
X203780000Y-72310000D03*
G04 #@! TD*
D23*
G04 #@! TO.C,U3*
X211979600Y-41249998D03*
X211979600Y-42199999D03*
X211979600Y-43150000D03*
X214570400Y-43150000D03*
X214570400Y-41249998D03*
G04 #@! TD*
D17*
G04 #@! TO.C,R25*
X208000000Y-96260000D03*
X208000000Y-95240000D03*
G04 #@! TD*
D24*
G04 #@! TO.C,S5*
X214975001Y-102920001D03*
X214975001Y-98419999D03*
X217124999Y-102920001D03*
X217124999Y-98419999D03*
G04 #@! TD*
D12*
G04 #@! TO.C,R4*
X207240000Y-44775000D03*
X208260000Y-44775000D03*
G04 #@! TD*
D21*
G04 #@! TO.C,C12*
X230600000Y-53845000D03*
X230600000Y-56795000D03*
G04 #@! TD*
D24*
G04 #@! TO.C,S4*
X231299998Y-98419999D03*
X231299998Y-102920001D03*
X229150000Y-98419999D03*
X229150000Y-102920001D03*
G04 #@! TD*
D25*
G04 #@! TO.C,C15*
X246550000Y-89095000D03*
X246550000Y-90055000D03*
G04 #@! TD*
D26*
G04 #@! TO.C,C6*
X231395000Y-59725000D03*
X232355000Y-59725000D03*
G04 #@! TD*
D27*
G04 #@! TO.C,FID2*
X237480000Y-41860000D03*
G04 #@! TD*
D12*
G04 #@! TO.C,R27*
X204455000Y-87835000D03*
X205475000Y-87835000D03*
G04 #@! TD*
D17*
G04 #@! TO.C,R47*
X212625000Y-96635000D03*
X212625000Y-95615000D03*
G04 #@! TD*
D12*
G04 #@! TO.C,R33*
X206115000Y-93375000D03*
X207135000Y-93375000D03*
G04 #@! TD*
G04 #@! TO.C,R32*
X204215000Y-92950000D03*
X205235000Y-92950000D03*
G04 #@! TD*
D28*
G04 #@! TO.C,J5*
X244340002Y-86340000D03*
X240440000Y-86340000D03*
X244340002Y-85070000D03*
X240440000Y-85070000D03*
X244340002Y-83800000D03*
X240440000Y-83800000D03*
X244340002Y-82530000D03*
X240440000Y-82530000D03*
X244340002Y-81260000D03*
X240440000Y-81260000D03*
G04 #@! TD*
D22*
G04 #@! TO.C,H3*
X211475000Y-106200000D03*
G04 #@! TD*
D13*
G04 #@! TO.C,Q7*
X239590000Y-60640000D03*
X241490000Y-60640000D03*
X240540000Y-58765000D03*
G04 #@! TD*
D12*
G04 #@! TO.C,R46*
X214180000Y-87300000D03*
X215200000Y-87300000D03*
G04 #@! TD*
D20*
G04 #@! TO.C,U10*
X213097500Y-93150001D03*
X213097500Y-93800000D03*
X213097500Y-94449999D03*
X215002500Y-94449999D03*
X215002500Y-93800000D03*
X215002500Y-93150001D03*
G04 #@! TD*
D12*
G04 #@! TO.C,R30*
X204440000Y-90800000D03*
X205460000Y-90800000D03*
G04 #@! TD*
D21*
G04 #@! TO.C,C11*
X232950000Y-53850000D03*
X232950000Y-56800000D03*
G04 #@! TD*
D20*
G04 #@! TO.C,U7*
X201197500Y-94525001D03*
X201197500Y-95175000D03*
X201197500Y-95824999D03*
X203102500Y-95824999D03*
X203102500Y-95175000D03*
X203102500Y-94525001D03*
G04 #@! TD*
D17*
G04 #@! TO.C,R39*
X211050000Y-94360000D03*
X211050000Y-93340000D03*
G04 #@! TD*
D22*
G04 #@! TO.C,H1*
X242975000Y-72275000D03*
G04 #@! TD*
D15*
G04 #@! TO.C,R36*
X205835000Y-81475000D03*
X204815000Y-81475000D03*
G04 #@! TD*
D12*
G04 #@! TO.C,R14*
X202340000Y-88725000D03*
X203360000Y-88725000D03*
G04 #@! TD*
D16*
G04 #@! TO.C,S7*
X220849999Y-99595001D03*
X225350001Y-99595001D03*
X220849999Y-101744999D03*
X225350001Y-101744999D03*
G04 #@! TD*
D17*
G04 #@! TO.C,R54*
X200125000Y-61210000D03*
X200125000Y-60190000D03*
G04 #@! TD*
D15*
G04 #@! TO.C,R16*
X230460000Y-59725000D03*
X229440000Y-59725000D03*
G04 #@! TD*
D20*
G04 #@! TO.C,U5*
X204747500Y-94675001D03*
X204747500Y-95325000D03*
X204747500Y-95974999D03*
X206652500Y-95974999D03*
X206652500Y-95325000D03*
X206652500Y-94675001D03*
G04 #@! TD*
D29*
G04 #@! TO.C,U2*
X206680000Y-89025000D03*
D30*
X206680000Y-89525000D03*
X206680000Y-90025000D03*
X206680000Y-90525000D03*
X206680000Y-91025000D03*
X206680000Y-91525000D03*
D31*
X207365000Y-92210000D03*
D32*
X207865000Y-92210000D03*
X208365000Y-92210000D03*
X208865000Y-92210000D03*
X209365000Y-92210000D03*
D31*
X209865000Y-92210000D03*
D30*
X210550000Y-91525000D03*
X210550000Y-91025000D03*
X210550000Y-90525000D03*
X210550000Y-90025000D03*
X210550000Y-89525000D03*
D29*
X210550000Y-89025000D03*
D32*
X209865000Y-88340000D03*
X209365000Y-88340000D03*
X208865000Y-88340000D03*
X208365000Y-88340000D03*
X207865000Y-88340000D03*
X207365000Y-88340000D03*
D33*
X208615000Y-90275000D03*
G04 #@! TD*
D20*
G04 #@! TO.C,U4*
X204762500Y-85235001D03*
X204762500Y-85885000D03*
X204762500Y-86534999D03*
X206667500Y-86534999D03*
X206667500Y-85885000D03*
X206667500Y-85235001D03*
G04 #@! TD*
D34*
G04 #@! TO.C,C10*
X209875000Y-43375000D03*
X209875000Y-41825000D03*
G04 #@! TD*
D35*
G04 #@! TO.C,C8*
X228500000Y-60630000D03*
X228500000Y-59670000D03*
G04 #@! TD*
D17*
G04 #@! TO.C,R22*
X208320000Y-63290000D03*
X208320000Y-62270000D03*
G04 #@! TD*
D19*
G04 #@! TO.C,Q19*
X244487500Y-62550000D03*
X244487500Y-64450000D03*
X246362500Y-63500000D03*
G04 #@! TD*
D12*
G04 #@! TO.C,R10*
X239740000Y-67880000D03*
X240760000Y-67880000D03*
G04 #@! TD*
D11*
G04 #@! TO.C,R13*
X203390000Y-85575000D03*
X203390000Y-86595000D03*
G04 #@! TD*
D15*
G04 #@! TO.C,R42*
X215760000Y-91525000D03*
X214740000Y-91525000D03*
G04 #@! TD*
D13*
G04 #@! TO.C,Q17*
X205130000Y-60787500D03*
X207030000Y-60787500D03*
X206080000Y-58912500D03*
G04 #@! TD*
D34*
G04 #@! TO.C,C9*
X217500000Y-43075000D03*
X217500000Y-41525000D03*
G04 #@! TD*
D13*
G04 #@! TO.C,Q16*
X205140000Y-64705000D03*
X207040000Y-64705000D03*
X206090000Y-62830000D03*
G04 #@! TD*
D17*
G04 #@! TO.C,R9*
X238220000Y-59240000D03*
X238220000Y-58220000D03*
G04 #@! TD*
D20*
G04 #@! TO.C,U8*
X213247500Y-88575001D03*
X213247500Y-89225000D03*
X213247500Y-89874999D03*
X215152500Y-89874999D03*
X215152500Y-89225000D03*
X215152500Y-88575001D03*
G04 #@! TD*
D27*
G04 #@! TO.C,FID3*
X202230000Y-108060000D03*
G04 #@! TD*
D36*
G04 #@! TO.C,C1*
X211400000Y-54500000D03*
X211400000Y-56400000D03*
G04 #@! TD*
D12*
G04 #@! TO.C,R28*
X204455000Y-88835000D03*
X205475000Y-88835000D03*
G04 #@! TD*
D37*
G04 #@! TO.C,IC1*
X229060000Y-64100000D03*
X227790000Y-64100000D03*
X226520000Y-64100000D03*
X225250000Y-64100000D03*
X223980000Y-64100000D03*
X222710000Y-64100000D03*
X221440000Y-64100000D03*
X220170000Y-64100000D03*
X218900000Y-64100000D03*
X217630000Y-64100000D03*
X216360000Y-64100000D03*
X215090000Y-64100000D03*
X213820000Y-64100000D03*
X212550000Y-64100000D03*
D38*
X211300000Y-67135000D03*
X211300000Y-68405000D03*
X211300000Y-69675000D03*
X211300000Y-70945000D03*
X211300000Y-72215000D03*
X211300000Y-73485000D03*
X211300000Y-74755000D03*
X211300000Y-76025000D03*
X211300000Y-77295000D03*
X211300000Y-78565000D03*
D37*
X212550000Y-81600000D03*
X213820000Y-81600000D03*
X215090000Y-81600000D03*
X216360000Y-81600000D03*
X217630000Y-81600000D03*
X218900000Y-81600000D03*
X220170000Y-81600000D03*
X221440000Y-81600000D03*
X222710000Y-81600000D03*
X223980000Y-81600000D03*
X225250000Y-81600000D03*
X226520000Y-81600000D03*
X227790000Y-81600000D03*
X229060000Y-81600000D03*
D39*
X222740000Y-69950000D03*
X221340000Y-69950000D03*
X219940000Y-69950000D03*
X219940000Y-71350000D03*
X219940000Y-72750000D03*
X221340000Y-72750000D03*
X222740000Y-72750000D03*
X222740000Y-71350000D03*
X221340000Y-71350000D03*
G04 #@! TD*
D40*
G04 #@! TO.C,J7*
X243100000Y-46305000D03*
D41*
X243100000Y-49255000D03*
D42*
X239950000Y-42805000D03*
X246250000Y-42805000D03*
G04 #@! TD*
D12*
G04 #@! TO.C,R44*
X210165000Y-87175000D03*
X211185000Y-87175000D03*
G04 #@! TD*
G04 #@! TO.C,R21*
X207040000Y-66300000D03*
X208060000Y-66300000D03*
G04 #@! TD*
D17*
G04 #@! TO.C,R7*
X242820000Y-61070000D03*
X242820000Y-60050000D03*
G04 #@! TD*
D27*
G04 #@! TO.C,FID1*
X204950000Y-77400000D03*
G04 #@! TD*
D12*
G04 #@! TO.C,R6*
X205170000Y-57380000D03*
X206190000Y-57380000D03*
G04 #@! TD*
D43*
G04 #@! TO.C,Q20*
X236597500Y-60420000D03*
X236597500Y-58520000D03*
X234722500Y-59470000D03*
G04 #@! TD*
D21*
G04 #@! TO.C,C3*
X235250000Y-53850000D03*
X235250000Y-56800000D03*
G04 #@! TD*
D44*
G04 #@! TO.C,D1*
X230200000Y-50700000D03*
X225900000Y-50700000D03*
G04 #@! TD*
D15*
G04 #@! TO.C,R61*
X240610000Y-62150000D03*
X239590000Y-62150000D03*
G04 #@! TD*
D11*
G04 #@! TO.C,R50*
X216375000Y-92815000D03*
X216375000Y-93835000D03*
G04 #@! TD*
D45*
G04 #@! TO.C,C7*
X230275000Y-61325000D03*
X232175000Y-61325000D03*
G04 #@! TD*
D15*
G04 #@! TO.C,R8*
X240820000Y-53180000D03*
X239800000Y-53180000D03*
G04 #@! TD*
D46*
G04 #@! TO.C,J3*
X244001800Y-90130000D03*
X240598200Y-90130000D03*
X244001800Y-91400000D03*
X240598200Y-91400000D03*
X244001800Y-92670000D03*
X240598200Y-92670000D03*
G04 #@! TD*
D43*
G04 #@! TO.C,Q10*
X221950000Y-59275000D03*
X221950000Y-57375000D03*
X220075000Y-58325000D03*
G04 #@! TD*
D12*
G04 #@! TO.C,R55*
X203565000Y-67400000D03*
X204585000Y-67400000D03*
G04 #@! TD*
D47*
G04 #@! TO.C,J1*
X224050000Y-46680000D03*
D48*
X222030000Y-46680000D03*
D49*
X220800000Y-46680000D03*
D47*
X223050000Y-46680000D03*
D48*
X225070000Y-46680000D03*
D49*
X226300000Y-46680000D03*
G04 #@! TD*
D17*
G04 #@! TO.C,R37*
X209125000Y-94360000D03*
X209125000Y-93340000D03*
G04 #@! TD*
D20*
G04 #@! TO.C,U11*
X209347500Y-84425001D03*
X209347500Y-85075000D03*
X209347500Y-85724999D03*
X211252500Y-85724999D03*
X211252500Y-85075000D03*
X211252500Y-84425001D03*
G04 #@! TD*
D27*
G04 #@! TO.C,FID4*
X244980000Y-107960000D03*
G04 #@! TD*
D12*
G04 #@! TO.C,R23*
X202140000Y-93200000D03*
X203160000Y-93200000D03*
G04 #@! TD*
D50*
G04 #@! TO.C,C14*
X210850000Y-59375000D03*
X210850000Y-60925000D03*
G04 #@! TD*
D12*
G04 #@! TO.C,R11*
X237105000Y-44050000D03*
X238125000Y-44050000D03*
G04 #@! TD*
D11*
G04 #@! TO.C,R5*
X216400000Y-47090000D03*
X216400000Y-48110000D03*
G04 #@! TD*
G04 #@! TO.C,R24*
X199825000Y-94815000D03*
X199825000Y-95835000D03*
G04 #@! TD*
D12*
G04 #@! TO.C,R12*
X205715000Y-83875000D03*
X206735000Y-83875000D03*
G04 #@! TD*
D17*
G04 #@! TO.C,R45*
X207450000Y-47745000D03*
X207450000Y-46725000D03*
G04 #@! TD*
D18*
G04 #@! TO.C,Q2*
X211780000Y-49985000D03*
X209880000Y-49985000D03*
X210830000Y-51860000D03*
G04 #@! TD*
D12*
G04 #@! TO.C,R51*
X207765000Y-83350000D03*
X208785000Y-83350000D03*
G04 #@! TD*
D13*
G04 #@! TO.C,Q5*
X204950000Y-55847500D03*
X206850000Y-55847500D03*
X205900000Y-53972500D03*
G04 #@! TD*
G04 #@! TO.C,Q18*
X201520000Y-65180000D03*
X203420000Y-65180000D03*
X202470000Y-63305000D03*
G04 #@! TD*
D12*
G04 #@! TO.C,R19*
X229290000Y-42100000D03*
X230310000Y-42100000D03*
G04 #@! TD*
G04 #@! TO.C,R59*
X241740000Y-62250000D03*
X242760000Y-62250000D03*
G04 #@! TD*
D15*
G04 #@! TO.C,R41*
X213860000Y-91525000D03*
X212840000Y-91525000D03*
G04 #@! TD*
D51*
G04 #@! TO.C,U1*
X210428300Y-46085001D03*
X210428300Y-46734999D03*
X210428300Y-47385001D03*
X210428300Y-48034999D03*
X214771700Y-48034999D03*
X214771700Y-47385001D03*
X214771700Y-46734999D03*
X214771700Y-46085001D03*
G04 #@! TD*
D20*
G04 #@! TO.C,U6*
X201197500Y-90150001D03*
X201197500Y-90800000D03*
X201197500Y-91449999D03*
X203102500Y-91449999D03*
X203102500Y-90800000D03*
X203102500Y-90150001D03*
G04 #@! TD*
D50*
G04 #@! TO.C,C13*
X217025000Y-59550000D03*
X217025000Y-61100000D03*
G04 #@! TD*
D36*
G04 #@! TO.C,C2*
X213400000Y-54500000D03*
X213400000Y-56400000D03*
G04 #@! TD*
D12*
G04 #@! TO.C,R29*
X204440000Y-89825000D03*
X205460000Y-89825000D03*
G04 #@! TD*
D15*
G04 #@! TO.C,R52*
X214560000Y-95675000D03*
X213540000Y-95675000D03*
G04 #@! TD*
D52*
G04 #@! TO.C,J4*
X218318500Y-86529000D03*
X228351500Y-86529000D03*
D53*
X227161500Y-89450000D03*
X226461500Y-89450000D03*
X225761500Y-89450000D03*
X225061500Y-89450000D03*
X224361500Y-89450000D03*
X223661500Y-89450000D03*
X222961500Y-89450000D03*
X222261500Y-89450000D03*
X221561500Y-89450000D03*
X220861500Y-89450000D03*
X220161500Y-89450000D03*
X219461500Y-89450000D03*
G04 #@! TD*
D12*
G04 #@! TO.C,R58*
X242840000Y-58250000D03*
X243860000Y-58250000D03*
G04 #@! TD*
D11*
G04 #@! TO.C,R60*
X238725000Y-64725000D03*
X238725000Y-65745000D03*
G04 #@! TD*
D43*
G04 #@! TO.C,Q11*
X226025000Y-59775000D03*
X226025000Y-57875000D03*
X224150000Y-58825000D03*
G04 #@! TD*
D13*
G04 #@! TO.C,Q1*
X225150000Y-55900000D03*
X227050000Y-55900000D03*
X226100000Y-54025000D03*
G04 #@! TD*
D11*
G04 #@! TO.C,R53*
X208000000Y-84365000D03*
X208000000Y-85385000D03*
G04 #@! TD*
D16*
G04 #@! TO.C,S3*
X220849999Y-93650002D03*
X225350001Y-93650002D03*
X220849999Y-95800000D03*
X225350001Y-95800000D03*
G04 #@! TD*
D54*
G04 #@! TO.C,L1*
X216550000Y-52675000D03*
X222450000Y-52675000D03*
G04 #@! TD*
D11*
G04 #@! TO.C,R40*
X211750000Y-91465000D03*
X211750000Y-92485000D03*
G04 #@! TD*
D12*
G04 #@! TO.C,R26*
X202290000Y-97175000D03*
X203310000Y-97175000D03*
G04 #@! TD*
G04 #@! TO.C,R2*
X233990000Y-52500000D03*
X235010000Y-52500000D03*
G04 #@! TD*
D22*
G04 #@! TO.C,H4*
X234750000Y-106200000D03*
G04 #@! TD*
D17*
G04 #@! TO.C,R35*
X208725000Y-68335000D03*
X208725000Y-67315000D03*
G04 #@! TD*
D15*
G04 #@! TO.C,R56*
X202535000Y-66750000D03*
X201515000Y-66750000D03*
G04 #@! TD*
G04 #@! TO.C,R49*
X209985000Y-98275000D03*
X208965000Y-98275000D03*
G04 #@! TD*
D40*
G04 #@! TO.C,J2*
X203950000Y-46305000D03*
D41*
X203950000Y-49255000D03*
D42*
X200800000Y-42805000D03*
X207100000Y-42805000D03*
G04 #@! TD*
D15*
G04 #@! TO.C,R48*
X213335000Y-87300000D03*
X212315000Y-87300000D03*
G04 #@! TD*
D11*
G04 #@! TO.C,R43*
X211800000Y-88915000D03*
X211800000Y-89935000D03*
G04 #@! TD*
D24*
G04 #@! TO.C,S2*
X239475001Y-102920001D03*
X239475001Y-98419999D03*
X241624999Y-102920001D03*
X241624999Y-98419999D03*
G04 #@! TD*
G04 #@! TO.C,S1*
X205025001Y-102920001D03*
X205025001Y-98419999D03*
X207174999Y-102920001D03*
X207174999Y-98419999D03*
G04 #@! TD*
D15*
G04 #@! TO.C,R20*
X203320000Y-61740000D03*
X202300000Y-61740000D03*
G04 #@! TD*
D55*
G04 #@! TO.C,J6*
X212300000Y-44450000D03*
D56*
X214300000Y-44450000D03*
G04 #@! TD*
M02*
