M48
INCH,TZ
T1C0.0118
T2C0.0197
T3C0.0236
T4C0.0315
T5C0.0394
T6C0.0591
%
G90
G05
T1
X79622Y-21709
X79720Y-22008
X79768Y-20311
X79973Y-22958
X79992Y-22654
X80177Y-23209
X80197Y-37378
X80209Y-37732
X80445Y-25075
X80528Y-37760
X80531Y-19807
X80705Y-24878
X80768Y-22882
X80803Y-24496
X80858Y-37335
X80858Y-37642
X81075Y-21980
X81126Y-20268
X82181Y-30898
X82354Y-17413
X82524Y-20563
X82547Y-30941
X82567Y-30606
X82614Y-17520
X82661Y-26717
X82669Y-26413
X82728Y-20307
X82732Y-31201
X82740Y-26079
X82752Y-24000
X83114Y-23567
X83138Y-19551
X83173Y-24480
X83346Y-18268
X83366Y-25689
X83457Y-18878
X83496Y-22614
X83642Y-18276
X83665Y-25724
X83760Y-22724
X84031Y-37909
X84181Y-25701
X84394Y-37807
X84681Y-37720
X84697Y-38004
X85197Y-18228
X85532Y-18732
X85697Y-24319
X85843Y-26228
X85866Y-33465
X85941Y-26520
X85996Y-24319
X86012Y-27512
X86024Y-28067
X86039Y-28661
X86047Y-16346
X86102Y-27193
X86161Y-26295
X86161Y-29031
X86378Y-35866
X86496Y-29921
X86496Y-30906
X86547Y-29209
X86720Y-16953
X86720Y-26272
X86783Y-26551
X86933Y-17839
X87130Y-29224
X87295Y-31610
X87374Y-40980
X87378Y-31370
X87394Y-36398
X87583Y-16378
X87598Y-41618
X87685Y-31512
X87689Y-31138
X87720Y-29217
X87815Y-17098
X87846Y-41343
X87864Y-24450
X87872Y-16427
X87953Y-31654
X87965Y-29075
X87984Y-36232
X87992Y-41665
X88004Y-31406
X88059Y-39252
X88079Y-40961
X88098Y-26931
X88122Y-28858
X88165Y-28114
X88173Y-38709
X88189Y-34685
X88197Y-28484
X88209Y-17094
X88299Y-16406
X88331Y-35996
X88362Y-39004
X88390Y-24598
X88425Y-39394
X88433Y-26976
X88504Y-29409
X88575Y-16555
X88583Y-34646
X88685Y-24614
X88823Y-29528
X89189Y-29331
X89236Y-16783
X89370Y-26535
X89390Y-29083
X89408Y-28701
X89504Y-36933
X89547Y-36606
X89575Y-25953
X89606Y-36295
X89685Y-26890
X89689Y-22008
X89823Y-17630
X89870Y-36693
X89909Y-26689
X89996Y-21508
X90083Y-21197
X90146Y-24717
X90276Y-17213
X90504Y-18461
X90571Y-18122
X90610Y-23520
X90630Y-17441
X90630Y-37126
X90673Y-16984
X90957Y-24374
X90976Y-24000
X91000Y-16870
X91079Y-16547
X91291Y-19287
X91295Y-16929
X91654Y-16457
X91937Y-16343
X92189Y-18126
X92220Y-17819
X92236Y-16461
X92283Y-17488
X92307Y-17213
X92331Y-20346
X92394Y-18969
X92457Y-16811
X92795Y-18492
X92846Y-24941
X92898Y-23343
X93154Y-23457
X93154Y-25087
X93240Y-25386
X93421Y-24874
X93461Y-23465
X93465Y-18453
X93646Y-25358
X93650Y-19685
X93937Y-32165
X94366Y-20122
X94488Y-34016
X94681Y-21315
X94681Y-21862
X94827Y-21583
X94870Y-24610
X94894Y-20260
X95130Y-23154
X95382Y-22965
X95583Y-19819
X95685Y-22858
X95969Y-22827
X96307Y-20217
T2
X87413Y-17689
X88622Y-17713
T4
X78386Y-20827
X78386Y-21614
T5
X82602Y-23205
X83693Y-23205
T6
X85952Y-34067
X89902Y-34067
T3
G00X79291Y-19685
M15
G01X79291Y-19134
M16
G05
G00X79409Y-17913
M15
G01X79409Y-17362
M16
G05
G00X80650Y-20276
M15
G01X80295Y-20276
M16
G05
G00X81535Y-17913
M15
G01X81535Y-17362
M16
G05
G00X81654Y-20000
M15
G01X81654Y-19449
M16
G05
G00X86311Y-16969
M15
G01X86311Y-16732
M16
G05
G00X86311Y-18465
M15
G01X86311Y-18228
M16
G05
G00X89713Y-16969
M15
G01X89713Y-16732
M16
G05
G00X89713Y-18465
M15
G01X89713Y-18228
M16
G05
G00X94409Y-19685
M15
G01X94409Y-19134
M16
G05
G00X94528Y-17913
M15
G01X94528Y-17362
M16
G05
G00X95768Y-20276
M15
G01X95413Y-20276
M16
G05
G00X96654Y-17913
M15
G01X96654Y-17362
M16
G05
G00X96772Y-20000
M15
G01X96772Y-19449
M16
G05
T0
M30
