M48
INCH,TZ
T1C0.0118
T2C0.0197
T3C0.0236
T4C0.0315
T5C0.0394
T6C0.0591
%
G90
G05
T1
X78671Y-36860
X78696Y-35064
X79144Y-36969
X79232Y-35207
X79281Y-36703
X79567Y-35748
X79577Y-37480
X79622Y-21709
X79636Y-37874
X79646Y-36142
X79720Y-22008
X79724Y-25522
X79768Y-20311
X79973Y-22958
X80098Y-22675
X80108Y-33159
X80177Y-23209
X80187Y-34596
X80253Y-35257
X80276Y-32470
X80295Y-36870
X80669Y-20120
X80705Y-24878
X80768Y-22882
X80803Y-24496
X80846Y-37283
X81075Y-21980
X81102Y-37943
X81126Y-20268
X81211Y-34281
X81383Y-34493
X81445Y-34769
X81506Y-20512
X81614Y-32451
X81672Y-34468
X81703Y-17963
X81811Y-26496
X81811Y-35827
X81821Y-35207
X81821Y-35522
X81998Y-34055
X82131Y-35827
X82141Y-35207
X82141Y-35522
X82205Y-34252
X82392Y-26220
X82451Y-35827
X82461Y-34232
X82461Y-35207
X82461Y-35522
X82490Y-37421
X82598Y-26931
X82614Y-17520
X82669Y-26413
X82697Y-33041
X82740Y-26079
X82766Y-30463
X82776Y-33337
X82874Y-17874
X82884Y-38356
X82894Y-34793
X82965Y-19689
X83012Y-34016
X83337Y-19087
X83346Y-18134
X83349Y-20424
X83366Y-25689
X83376Y-34055
X83376Y-36791
X83665Y-25724
X83878Y-18848
X84181Y-25701
X84252Y-23760
X84252Y-35128
X84262Y-34754
X84272Y-24331
X84331Y-34035
X84370Y-36358
X84469Y-38012
X84744Y-35689
X85010Y-37224
X85187Y-37806
X85197Y-18287
X85226Y-36171
X85413Y-38004
X85423Y-22963
X85551Y-18740
X85807Y-26280
X85866Y-33465
X85941Y-26520
X86012Y-27512
X86024Y-28067
X86039Y-28661
X86047Y-16398
X86102Y-27193
X86161Y-26295
X86161Y-29031
X86378Y-35866
X86496Y-29921
X86496Y-30906
X86547Y-29209
X86720Y-16953
X86720Y-26272
X86783Y-26551
X86933Y-17839
X87130Y-29224
X87295Y-31610
X87362Y-36319
X87374Y-40980
X87378Y-31370
X87583Y-16378
X87598Y-41618
X87685Y-31512
X87689Y-31138
X87720Y-29217
X87815Y-17098
X87846Y-41343
X87872Y-16427
X87953Y-31654
X87965Y-29075
X87972Y-41791
X88004Y-31406
X88071Y-36339
X88079Y-40961
X88122Y-28858
X88165Y-28114
X88173Y-38709
X88189Y-34685
X88189Y-39291
X88197Y-28484
X88209Y-17094
X88299Y-16406
X88362Y-39004
X88366Y-39469
X88390Y-24598
X88457Y-26996
X88504Y-29409
X88575Y-16555
X88583Y-34646
X88685Y-24614
X88823Y-29528
X89189Y-29331
X89236Y-16783
X89331Y-29035
X89370Y-26535
X89408Y-28701
X89504Y-36933
X89547Y-36606
X89575Y-25953
X89577Y-36280
X89689Y-22008
X89909Y-26689
X89921Y-36083
X89996Y-21508
X90039Y-36870
X90146Y-24717
X90276Y-17213
X90276Y-17628
X90295Y-37028
X90673Y-16984
X91079Y-16547
X91083Y-36594
X91291Y-19287
X92331Y-20346
X92394Y-18969
X92846Y-24941
X92898Y-23343
X92992Y-17362
X93154Y-23457
X93154Y-25087
X93240Y-25386
X93362Y-32165
X93421Y-24874
X93461Y-23465
X93465Y-18453
X93646Y-25358
X93650Y-19685
X93829Y-36506
X93839Y-35974
X93913Y-34016
X94681Y-21315
X94681Y-21862
X94734Y-24675
X94827Y-21583
X95130Y-23154
X95336Y-22864
X95685Y-23228
X96063Y-37136
X96307Y-20217
X96506Y-34783
X97106Y-33622
X97126Y-35965
T2
X87413Y-17689
X88622Y-17713
T4
X83583Y-17500
X84370Y-17500
T5
X81437Y-19774
X82494Y-22152
T6
X85952Y-34067
X89902Y-34067
T3
G00X86311Y-16969
M15
G01X86311Y-16732
M16
G05
G00X86311Y-18465
M15
G01X86311Y-18228
M16
G05
G00X89713Y-16969
M15
G01X89713Y-16732
M16
G05
G00X89713Y-18465
M15
G01X89713Y-18228
M16
G05
T0
M30
